<?xml version="1.0" standalone="no"?>
<!DOCTYPE svg PUBLIC "-//W3C//DTD SVG 1.1//EN" "http://www.w3.org/Graphics/SVG/1.1/DTD/svg11.dtd" >
<svg xmlns="http://www.w3.org/2000/svg" xmlns:xlink="http://www.w3.org/1999/xlink" version="1.1">
<metadata>
Created by FontForge 20170731 at Wed Jun 27 13:51:37 2018
 By Aleksey,,,
Copyright (c) 2018 Mazda Motor Corp.
</metadata>
<defs>
<font id="MazdaType-Regular" horiz-adv-x="600" >
  <font-face 
    font-family="Mazda Type"
    font-weight="400"
    font-stretch="normal"
    units-per-em="1000"
    panose-1="1 0 0 0 0 0 0 0 0 0"
    ascent="800"
    descent="-200"
    x-height="475"
    cap-height="680"
    bbox="-255 -237 1048 932"
    underline-thickness="50"
    underline-position="-200"
    unicode-range="U+000D-FEFF"
  />
<missing-glyph horiz-adv-x="572" 
d="M50 0h472v680h-472v-680zM148 618h276l-138 -228zM116 109v462l140 -231zM316 340l140 231v-462zM148 62l138 228l138 -228h-276z" />
    <glyph glyph-name="f_f" unicode="ff" horiz-adv-x="574" 
d="M556 677q-55 0 -74 -44.5t-19 -148.5v-9h98l-4 -44h-94v-431h-83v431h-201v-431h-83v431h-76v44h76v36q0 95 44 156t131 61q38 0 65 -12l5 -55h-10q-25 16 -59 16q-55 0 -74 -44.5t-19 -148.5v-9h201v36q0 95 44 156t131 61q38 0 65 -12l5 -55h-10q-25 16 -59 16z" />
    <glyph glyph-name="fi" unicode="fi" horiz-adv-x="540" 
d="M265 728q29 0 49 -9l2 -50h-10q-18 11 -43 11q-48 0 -66 -46.5t-18 -149.5v-9h98l-4 -44h-94v-431h-83v431h-76v44h76v36q0 95 42.5 156t126.5 61zM457 691v-93h-89v93h89zM454 475v-475h-83v475h83z" />
    <glyph glyph-name="fl" unicode="fl" horiz-adv-x="537" 
d="M265 728q29 0 49 -9l2 -50h-10q-18 11 -43 11q-48 0 -66 -46.5t-18 -149.5v-9h98l-4 -44h-94v-431h-83v431h-76v44h76v36q0 95 42.5 156t126.5 61zM371 0v708l83 10v-718h-83z" />
    <glyph glyph-name="f_f_i" unicode="ffi" horiz-adv-x="824" 
d="M20 431v44h76v36q0 95 44 156t131 61q38 0 65 -12l5 -55h-10q-25 16 -59 16q-55 0 -74 -44.5t-19 -148.5v-9h201v36q0 95 42.5 156t126.5 61q29 0 49 -9l2 -50h-10q-18 11 -43 11q-48 0 -66 -46.5t-18 -149.5v-9h98l-4 -44h-94v-431h-83v431h-201v-431h-83v431h-76z
M652 598v93h89v-93h-89zM655 0v475h83v-475h-83z" />
    <glyph glyph-name="f_f_l" unicode="ffl" horiz-adv-x="821" 
d="M20 431v44h76v36q0 95 44 156t131 61q38 0 65 -12l5 -55h-10q-25 16 -59 16q-55 0 -74 -44.5t-19 -148.5v-9h201v36q0 95 42.5 156t126.5 61q29 0 49 -9l2 -50h-10q-18 11 -43 11q-48 0 -66 -46.5t-18 -149.5v-9h98l-4 -44h-94v-431h-83v431h-201v-431h-83v431h-76z
M655 0v708l83 10v-718h-83z" />
    <glyph glyph-name=".notdef" horiz-adv-x="572" 
d="M50 0h472v680h-472v-680zM148 618h276l-138 -228zM116 109v462l140 -231zM316 340l140 231v-462zM148 62l138 228l138 -228h-276z" />
    <glyph glyph-name=".null" horiz-adv-x="0" 
 />
    <glyph glyph-name=".null" horiz-adv-x="0" 
 />
    <glyph glyph-name="nonmarkingreturn" horiz-adv-x="333" 
 />
    <glyph glyph-name="CR" unicode="&#xd;" horiz-adv-x="260" 
 />
    <glyph glyph-name="space" unicode=" " horiz-adv-x="260" 
 />
    <glyph glyph-name="exclam" unicode="!" horiz-adv-x="344" 
d="M223 680l-29 -456h-44l-29 456h102zM221 104v-104h-98v104h98z" />
    <glyph glyph-name="quotedbl" unicode="&#x22;" horiz-adv-x="518" 
d="M223 710l-29 -256h-44l-29 256h102zM397 710l-29 -256h-44l-29 256h102z" />
    <glyph glyph-name="numbersign" unicode="#" horiz-adv-x="500" 
d="M80 0l34 184h-82l22 65h71l38 205h-83l22 64h71l30 162h49l-30 -162h110l29 162h50l-29 -162h81l-22 -64h-71l-37 -205h82l-22 -65h-72l-32 -184h-50l34 184h-110l-34 -184h-49zM175 249h109l36 205h-109z" />
    <glyph glyph-name="dollar" unicode="$" horiz-adv-x="520" 
d="M460 179q0 -69 -46.5 -112t-117.5 -54v-113h-50v109q-57 1 -107 23t-81 54l-12 87h11q82 -106 189 -110v259l-11 8q-81 56 -112.5 93t-31.5 97q0 66 45 104t110 46v99h50v-96q75 -3 118 -33l8 -70h-10q-44 50 -116 55v-233q94 -61 129 -101.5t35 -111.5zM172 537
q0 -31 17.5 -56t56.5 -54v194q-74 -16 -74 -84zM296 68q79 18 79 99q0 38 -18 63.5t-61 57.5v-220z" />
    <glyph glyph-name="percent" unicode="%" horiz-adv-x="766" 
d="M556 699l40 -20l-390 -699l-39 20zM195 691q57 0 95 -48t38 -130q0 -79 -38.5 -126t-94.5 -47q-58 0 -97.5 47t-39.5 126q0 82 39 130t98 48zM195 654q-36 0 -55 -39t-19 -102q0 -62 19 -98.5t55 -36.5q34 0 52.5 36.5t18.5 98.5q0 63 -18.5 102t-52.5 39zM575 346
q57 0 95 -48t38 -130q0 -79 -38.5 -126t-94.5 -47q-58 0 -97.5 47t-39.5 126q0 82 39 130t98 48zM575 309q-36 0 -55 -39t-19 -102q0 -62 19 -98.5t55 -36.5q34 0 52.5 36.5t18.5 98.5q0 63 -18.5 102t-52.5 39z" />
    <glyph glyph-name="ampersand" unicode="&#x26;" horiz-adv-x="749" 
d="M599 0q-58 49 -99 88q-79 -100 -218 -100q-91 0 -157 47.5t-66 139.5q0 132 162 203q-72 73 -72 157q0 72 48.5 112.5t118.5 40.5q73 0 117.5 -37t44.5 -99q0 -103 -159 -175q96 -107 186 -189q10 21 20 74t11 94h63q-4 -44 -20 -101t-37 -97q98 -89 186 -153v-5h-129z
M400 549q0 46 -23.5 72.5t-60.5 26.5q-41 0 -65 -27.5t-24 -78.5q0 -65 67 -135q60 28 83 60.5t23 81.5zM245 345q-101 -53 -101 -165q0 -60 42.5 -101t102.5 -41q118 0 177 81q-128 123 -221 226z" />
    <glyph glyph-name="quotesingle" unicode="'" horiz-adv-x="344" 
d="M223 710l-29 -256h-44l-29 256h102z" />
    <glyph glyph-name="parenleft" unicode="(" horiz-adv-x="360" 
d="M143 281q0 -142 35 -259.5t99 -183.5h-58q-68 65 -113.5 180t-45.5 263q0 146 46 260.5t113 178.5h58q-64 -66 -99 -182t-35 -257z" />
    <glyph glyph-name="parenright" unicode=")" horiz-adv-x="360" 
d="M204 278q0 142 -35 259t-99 183h58q68 -65 113.5 -179.5t45.5 -262.5q0 -146 -46 -261t-113 -179h-58q64 66 99 182.5t35 257.5z" />
    <glyph glyph-name="asterisk" unicode="*" horiz-adv-x="362" 
d="M282 720l25 -44l-86 -43l86 -45l-25 -44l-81 55l5 -100h-50l6 101l-83 -56l-24 44l86 45l-86 43l25 43l81 -55l-5 101h50l-6 -101z" />
    <glyph glyph-name="plus" unicode="+" 
d="M328 503v-225h217v-53h-217v-225h-53v225h-217v53h217v225h53z" />
    <glyph glyph-name="comma" unicode="," horiz-adv-x="300" 
d="M212 110q-6 -36 -36 -121t-54 -130h-50q38 121 50 251h90z" />
    <glyph glyph-name="hyphen" unicode="-" horiz-adv-x="393" 
d="M340 295l-4 -51h-283l4 51h283z" />
    <glyph glyph-name="period" unicode="." horiz-adv-x="300" 
d="M205 106v-106h-110v106h110z" />
    <glyph glyph-name="slash" unicode="/" 
d="M80 -193l-3 5l400 908l6 3h41l3 -5l-402 -908l-5 -3h-40z" />
    <glyph glyph-name="zero" unicode="0" horiz-adv-x="584" 
d="M293 692q112 0 181 -98t69 -259q0 -159 -69 -253t-181 -94q-113 0 -182.5 94t-69.5 253q0 161 69.5 259t182.5 98zM293 642q-76 0 -116 -82.5t-40 -224.5q0 -143 39.5 -220t116.5 -77q74 0 114 77.5t40 219.5q0 141 -40.5 224t-113.5 83z" />
    <glyph glyph-name="one" unicode="1" horiz-adv-x="584" 
d="M269 0v600l-155 -73l9 58l195 95h41v-680h-90z" />
    <glyph glyph-name="two" unicode="2" horiz-adv-x="584" 
d="M57 0v31l114 112q118 116 174 201.5t56 157.5q0 58 -28.5 96t-87.5 38q-90 0 -160 -72h-10l7 68q72 60 173 60q97 0 148.5 -51t51.5 -132q0 -56 -27 -111t-75.5 -110.5t-140.5 -144.5l-66 -64v-4h172q138 0 178 5h10l-31 -80h-458z" />
    <glyph glyph-name="three" unicode="3" horiz-adv-x="584" 
d="M407 195q0 75 -47.5 111.5t-133.5 36.5h-27l6 56h23q74 0 111.5 33.5t37.5 89.5q0 54 -32 85t-91 31q-69 0 -123 -39h-10l10 59q62 34 135 34q88 0 142.5 -42.5t54.5 -124.5q0 -55 -23.5 -89t-76.5 -57v-5q133 -40 133 -181q0 -99 -72.5 -152t-176.5 -53q-111 0 -182 56
l-9 76h11q80 -71 177 -71q71 0 117 36.5t46 109.5z" />
    <glyph glyph-name="four" unicode="4" horiz-adv-x="584" 
d="M440 261h118l-10 -66h-108v-195h-82v195h-334v20l353 465h63v-419zM358 261v307h-8l-219 -301v-6h227z" />
    <glyph glyph-name="five" unicode="5" horiz-adv-x="584" 
d="M419 211q0 72 -40 116t-114 44q-67 0 -123 -35l-37 5l45 339h315l-14 -77h-244l-27 -195q44 18 99 18q105 0 165 -60t60 -154q0 -109 -73 -166.5t-179 -57.5q-105 0 -176 57l-10 75h10q74 -71 174 -71q70 0 119.5 40.5t49.5 121.5z" />
    <glyph glyph-name="six" unicode="6" horiz-adv-x="584" 
d="M166 350q24 31 63.5 50.5t86.5 19.5q86 0 147 -57t61 -158q0 -92 -65.5 -154.5t-158.5 -62.5q-104 0 -170.5 62t-66.5 181q0 87 31.5 168t82 139.5t110 99t119.5 55.5l38 -30q-95 -29 -179 -124t-103 -189h4zM155 209q0 -74 39 -122.5t104 -48.5q62 0 98 48t36 117
q0 75 -34.5 120.5t-94.5 45.5q-63 0 -105.5 -44.5t-42.5 -115.5z" />
    <glyph glyph-name="seven" unicode="7" horiz-adv-x="584" 
d="M106 0q201 343 334 604h-361l15 76h439v-28q-174 -334 -331 -652h-96z" />
    <glyph glyph-name="eight" unicode="8" horiz-adv-x="584" 
d="M483 546q0 -49 -31.5 -91.5t-86.5 -69.5v-3q83 -40 124 -86.5t41 -120.5q0 -59 -38.5 -103t-92.5 -64t-112 -20q-94 0 -163 47.5t-69 134.5q0 67 47 118t112 78v3q-67 35 -93 70.5t-26 91.5q0 76 63 118.5t138 42.5t131 -37t56 -109zM417 545q0 49 -34 76t-87 27
q-41 0 -74.5 -27.5t-33.5 -82.5q0 -42 27 -70t97 -60q105 52 105 137zM434 168q0 59 -41.5 98t-129.5 75q-124 -60 -124 -167q0 -64 41.5 -101t106.5 -37q64 0 105.5 36t41.5 96z" />
    <glyph glyph-name="nine" unicode="9" horiz-adv-x="584" 
d="M410 347q-22 -27 -60 -44t-83 -17q-84 0 -143.5 49.5t-59.5 147.5q0 92 63.5 150.5t155.5 58.5q102 0 167.5 -64.5t65.5 -187.5q0 -156 -96 -282.5t-247 -170.5l-39 32q113 42 186 132t94 196h-4zM424 482q0 72 -39.5 116.5t-98.5 44.5q-63 0 -96.5 -45t-33.5 -115
q0 -68 34.5 -107t91.5 -39q60 0 101 39t41 106z" />
    <glyph glyph-name="colon" unicode=":" horiz-adv-x="348" 
d="M228 475v-106h-108v106h108zM228 106v-106h-108v106h108z" />
    <glyph glyph-name="semicolon" unicode=";" horiz-adv-x="348" 
d="M228 475v-106h-108v106h108zM222 110q-6 -36 -36 -121t-54 -130h-50q38 121 50 251h90z" />
    <glyph glyph-name="less" unicode="&#x3c;" 
d="M547 459l-430 -206l430 -206v-55l-492 234v54l492 234v-55z" />
    <glyph glyph-name="equal" unicode="=" 
d="M545 378v-53h-487v53h487zM545 181v-53h-487v53h487z" />
    <glyph glyph-name="greater" unicode="&#x3e;" 
d="M55 514l492 -234v-54l-492 -234v55l430 206l-430 206v55z" />
    <glyph glyph-name="question" unicode="?" horiz-adv-x="470" 
d="M188 225v22q0 30 12.5 56.5t25 40.5t37.5 38q26 25 38.5 38.5t26.5 41.5t14 59q0 53 -29 84t-81 31q-78 0 -141 -57h-10l7 66q70 47 152 47q88 0 141 -44t53 -121q0 -28 -8.5 -53t-18.5 -41t-30.5 -35t-33 -28t-37.5 -25q-33 -22 -49 -45t-16 -64v-11h-53zM269 104v-104
h-98v104h98z" />
    <glyph glyph-name="at" unicode="@" horiz-adv-x="933" 
d="M844 355q0 -50 -14 -99.5t-42 -93.5t-75.5 -71.5t-107.5 -27.5q-41 0 -61.5 20.5t-20.5 54.5q-48 -75 -114 -75q-61 0 -90 40.5t-29 101.5q0 39 7 79t23.5 80t40.5 71.5t61.5 51t82.5 19.5q49 0 87 -28h59l-58 -298q-5 -20 -5 -44q0 -33 28 -33q74 0 124.5 73t50.5 177
q0 127 -80 206.5t-208 79.5q-112 0 -192 -56t-116.5 -142.5t-36.5 -192.5q0 -146 90.5 -234.5t241.5 -88.5q120 0 200 41v-47q-84 -39 -205 -39q-178 0 -290 103.5t-112 265.5q0 81 25.5 156t75.5 137.5t132.5 100t187.5 37.5q142 0 241 -88.5t99 -236.5zM571 446
q-19 21 -60 21q-45 0 -77.5 -43t-46 -99t-13.5 -113q0 -107 55 -107q30 0 61 35t35 57z" />
    <glyph glyph-name="A" unicode="A" horiz-adv-x="658" 
d="M447 263h-264l-116 -263h-66l306 670l58 10l292 -680h-99zM204 315h224l-108 255h-5z" />
    <glyph glyph-name="B" unicode="B" horiz-adv-x="576" 
d="M263 680q216 0 216 -158q0 -111 -145 -148v-5q82 -8 137.5 -50t55.5 -119q0 -54 -21.5 -94t-59 -62.5t-81 -33t-93.5 -10.5h-176v680h167zM243 391q67 0 106.5 32.5t39.5 90.5q0 62 -35 87.5t-111 25.5h-57v-236h57zM258 53q90 0 133.5 34.5t43.5 109.5q0 70 -53.5 106
t-139.5 36h-56v-286h72z" />
    <glyph glyph-name="C" unicode="C" horiz-adv-x="714" 
d="M648 548q-88 88 -217 88q-120 0 -199 -77t-79 -222q0 -143 81 -216t198 -73q148 0 240 81h8l-23 -85q-35 -24 -98.5 -40t-130.5 -16q-170 0 -272 90t-102 260q0 85 31.5 153.5t84.5 111.5t120 66t141 23q130 0 220 -57l7 -87h-10z" />
    <glyph glyph-name="D" unicode="D" horiz-adv-x="774" 
d="M351 680q178 0 273.5 -85.5t95.5 -255.5q0 -161 -107.5 -250t-285.5 -89h-231v680h255zM312 53q311 0 311 286q0 150 -74 219t-229 69h-134v-574h126z" />
    <glyph glyph-name="E" unicode="E" horiz-adv-x="500" 
d="M327 53q100 0 139 10h6l-31 -63h-345v680h330v-53h-240v-254h216v-53h-216v-267h141z" />
    <glyph glyph-name="F" unicode="F" horiz-adv-x="460" 
d="M446 680v-53h-260v-261h234v-53h-234v-313h-90v680h350z" />
    <glyph glyph-name="G" unicode="G" horiz-adv-x="764" 
d="M430 -12q-170 0 -272.5 90t-103.5 260q0 112 54.5 194t139.5 121t185 39q68 0 130.5 -16.5t94.5 -39.5l8 -85h-10q-87 85 -224 85q-120 0 -199.5 -77t-79.5 -222q0 -141 81.5 -216.5t202.5 -75.5q90 0 152 30v260h88v-275q-37 -31 -107 -51.5t-140 -20.5z" />
    <glyph glyph-name="H" unicode="H" horiz-adv-x="754" 
d="M186 680v-294h382v294h90v-680h-90v331h-382v-331h-90v680h90z" />
    <glyph glyph-name="I" unicode="I" horiz-adv-x="282" 
d="M186 680v-680h-90v680h90z" />
    <glyph glyph-name="J" unicode="J" horiz-adv-x="283" 
d="M195 680v-539q0 -133 -44.5 -194.5t-143.5 -97.5l-49 16v5q92 38 119.5 96t27.5 199v515h90z" />
    <glyph glyph-name="K" unicode="K" horiz-adv-x="619" 
d="M186 680v-680h-90v680h90zM195 376q124 115 303 304h89l-300 -287q101 -127 201.5 -236t153.5 -151v-6h-130q-95 96 -317 368v8z" />
    <glyph glyph-name="L" unicode="L" horiz-adv-x="435" 
d="M284 53q100 0 139 10h6l-31 -63h-302v680h90v-627h98z" />
    <glyph glyph-name="M" unicode="M" horiz-adv-x="943" 
d="M465 165h3l260 515h76l79 -680h-92l-59 550h-4l-264 -509h-30l-258 508h-4l-54 -549h-61l77 680h77z" />
    <glyph glyph-name="N" unicode="N" horiz-adv-x="759" 
d="M604 163v517h59v-685h-31l-472 553h-5v-548h-59v680h68l437 -517h3z" />
    <glyph glyph-name="O" unicode="O" horiz-adv-x="833" 
d="M412 692q70 0 134 -21t117 -62.5t84.5 -111t31.5 -157.5q0 -85 -31 -153.5t-82.5 -111t-114.5 -65t-129 -22.5q-70 0 -134.5 21t-117.5 62.5t-84.5 111t-31.5 157.5q0 85 31 153.5t83 111t114.5 65t129.5 22.5zM422 42q115 0 187.5 80.5t72.5 217.5q0 132 -75.5 215
t-194.5 83q-115 0 -188 -80.5t-73 -217.5q0 -132 76 -215t195 -83z" />
    <glyph glyph-name="P" unicode="P" horiz-adv-x="555" 
d="M259 680q246 0 246 -189q0 -97 -71.5 -144.5t-180.5 -47.5h-67v-299h-90v680h163zM245 348q81 0 123.5 32t42.5 111q0 77 -42 108.5t-124 31.5h-59v-283h59z" />
    <glyph glyph-name="Q" unicode="Q" horiz-adv-x="833" 
d="M574 19q56 -38 142 -84.5t153 -73.5v-9l-144 -20q-48 22 -121 69.5t-127 90.5q-24 -4 -55 -4q-70 0 -134.5 21t-117.5 62.5t-84.5 111t-31.5 157.5q0 85 31 153.5t83 111t114.5 65t129.5 22.5q70 0 134 -21t117 -62.5t84.5 -111t31.5 -157.5q0 -118 -56.5 -200
t-148.5 -121zM151 340q0 -132 76 -215t195 -83q115 0 187.5 80.5t72.5 217.5q0 132 -75.5 215t-194.5 83q-115 0 -188 -80.5t-73 -217.5z" />
    <glyph glyph-name="R" unicode="R" horiz-adv-x="602" 
d="M263 680q239 0 239 -177q0 -66 -45 -111.5t-122 -66.5v-4q65 -80 148.5 -170t148.5 -146v-5h-127q-123 125 -264 306h-55v-306h-90v680h167zM269 353q66 4 103 45.5t37 102.5q0 74 -40 100t-118 26h-65v-274h83z" />
    <glyph glyph-name="S" unicode="S" horiz-adv-x="510" 
d="M415 583q-51 59 -130 59q-47 0 -80.5 -24.5t-33.5 -72.5q0 -39 26 -69t91 -74q38 -26 55.5 -38t43 -32.5t36 -35t23 -35t16.5 -42.5t4 -50q0 -85 -63 -133t-151 -48q-59 0 -109.5 23.5t-83.5 58.5l-13 92h11q92 -117 202 -117q53 0 87 29.5t34 81.5q0 49 -26 78.5
t-98 80.5q-13 9 -20 14q-84 60 -115.5 98t-31.5 100q0 81 60 123t136 42q84 0 131 -34l9 -75h-10z" />
    <glyph glyph-name="T" unicode="T" horiz-adv-x="500" 
d="M14 627v53h472v-53h-191v-627h-90v627h-191z" />
    <glyph glyph-name="U" unicode="U" horiz-adv-x="731" 
d="M373 -12q-132 0 -208 67.5t-76 183.5v441h90v-427q0 -102 51.5 -155t143.5 -53q98 0 152.5 53t54.5 155v427h61v-441q0 -115 -73 -183t-196 -68z" />
    <glyph glyph-name="V" unicode="V" horiz-adv-x="643" 
d="M354 0h-67l-283 680h100l233 -577h4l228 577h70z" />
    <glyph glyph-name="W" unicode="W" horiz-adv-x="974" 
d="M488 551h-6l-202 -551h-65l-194 680h93l156 -550h3l198 550h61l203 -553h3l145 553h70l-199 -680h-61z" />
    <glyph glyph-name="X" unicode="X" horiz-adv-x="602" 
d="M249 346l-216 334h106l170 -274h5l172 274h74l-214 -324l147 -227q57 -88 90 -123v-6h-113l-185 295h-4l-188 -295h-74z" />
    <glyph glyph-name="Y" unicode="Y" horiz-adv-x="559" 
d="M0 680h109l196 -301h6l179 301h69l-225 -356v-324h-90v315z" />
    <glyph glyph-name="Z" unicode="Z" horiz-adv-x="684" 
d="M97 680h516v-19l-443 -602v-6q270 0 349.5 2.5t140.5 14.5h6l-38 -70h-590v24l441 597v6h-402z" />
    <glyph glyph-name="bracketleft" unicode="[" horiz-adv-x="360" 
d="M296 720v-43h-116v-796h116v-43h-198v882h198z" />
    <glyph glyph-name="backslash" unicode="\" 
d="M80 721h40l5 -3l402 -908l-3 -5h-41l-6 3l-400 908z" />
    <glyph glyph-name="bracketright" unicode="]" horiz-adv-x="360" 
d="M64 -162v43h116v796h-116v43h198v-882h-198z" />
    <glyph glyph-name="asciicircum" unicode="^" 
d="M275 691h52l222 -453h-57l-192 390l-189 -390h-58z" />
    <glyph glyph-name="underscore" unicode="_" horiz-adv-x="500" 
d="M0 -145v54h500v-54h-500z" />
    <glyph glyph-name="grave" unicode="`" horiz-adv-x="200" 
d="M57 712l102 -141h-51l-138 141h87z" />
    <glyph glyph-name="a" unicode="a" horiz-adv-x="519" 
d="M375 0l-16 72q-59 -82 -157 -82q-75 0 -111 37t-36 96q0 99 140 133q98 23 129 33t31 21v12q0 61 -23.5 87.5t-76.5 26.5q-86 0 -148 -60h-10l7 62q61 47 153 47q96 0 137.5 -42t41.5 -122v-236q0 -46 7 -85h-68zM224 39q47 0 84.5 31.5t46.5 74.5v108q-130 -26 -173 -51
t-43 -73q0 -38 22 -64t63 -26z" />
    <glyph glyph-name="b" unicode="b" horiz-adv-x="592" 
d="M83 0v708l83 10v-341h2q51 108 167 108q94 0 145.5 -66t51.5 -175q0 -113 -59 -183.5t-160 -70.5q-84 0 -145 71h-2l-6 -61h-77zM319 435q-66 0 -113.5 -64t-47.5 -157v-7q0 -78 43 -122t101 -44q66 0 104 54.5t38 148.5q0 90 -32.5 140.5t-92.5 50.5z" />
    <glyph glyph-name="c" unicode="c" horiz-adv-x="476" 
d="M302 485q82 0 127 -33l11 -60h-12q-44 47 -119 47q-74 0 -117.5 -53t-43.5 -144t46.5 -146.5t118.5 -55.5q81 0 126 52h11l-15 -59q-45 -43 -136 -43q-109 0 -175 64t-66 181q0 112 68.5 181t175.5 69z" />
    <glyph glyph-name="d" unicode="d" horiz-adv-x="592" 
d="M509 718v-718h-77l-6 98h-2q-20 -47 -63.5 -77.5t-103.5 -30.5q-94 0 -145.5 66t-51.5 175q0 112 61.5 183t161.5 71q91 0 141 -66h2v289zM272 41q67 0 114 63.5t47 156.5v8q0 75 -41 120.5t-98 45.5q-68 0 -107 -54.5t-39 -149.5q0 -89 32.5 -139.5t91.5 -50.5z" />
    <glyph glyph-name="e" unicode="e" horiz-adv-x="532" 
d="M476 253h-330q2 -97 47 -152.5t126 -55.5q89 0 141 61h11l-13 -68q-24 -21 -65 -34.5t-87 -13.5q-115 0 -180.5 66t-65.5 180q0 110 66 179.5t156 69.5q95 0 144.5 -53.5t49.5 -143.5v-35zM391 311q0 65 -29.5 97.5t-79.5 32.5q-51 0 -89.5 -38t-45.5 -103h244v11z" />
    <glyph glyph-name="f" unicode="f" horiz-adv-x="290" 
d="M271 728q38 0 65 -12l5 -55h-10q-25 16 -59 16q-55 0 -74 -44.5t-19 -148.5v-9h98l-4 -44h-94v-431h-83v431h-76v44h76v36q0 95 44 156t131 61z" />
    <glyph glyph-name="g" unicode="g" horiz-adv-x="508" 
d="M315 67q106 0 148.5 -22t42.5 -89q0 -78 -82 -135.5t-192 -57.5q-90 0 -138.5 33.5t-48.5 99.5q0 11 2.5 20.5t10.5 21.5t13.5 18.5t21 23.5t22.5 26q-27 6 -49 28t-22 48q0 15 14.5 39t57.5 85q-59 46 -59 120q0 69 50.5 114t128.5 45q42 0 84 -15h166l-4 -42h-108v-4
q41 -36 41 -94q0 -72 -52 -116t-132 -44q-50 0 -86 18q-22 -47 -22 -75q0 -25 20 -35.5t65 -10.5h107zM142 326q0 -114 89 -114q100 0 100 118q0 114 -95 114q-46 0 -70 -30.5t-24 -87.5zM233 -189q79 0 135.5 33t56.5 89q0 28 -14.5 41t-51.5 18q-45 7 -211 7
q-29 -43 -29 -93q0 -43 29.5 -69t84.5 -26z" />
    <glyph glyph-name="h" unicode="h" horiz-adv-x="563" 
d="M399 0v303q0 124 -88 124q-67 0 -106 -53t-39 -131v-243h-83v708l83 10v-343h3q23 48 65 79t100 31q69 0 108.5 -38t39.5 -137v-310h-83z" />
    <glyph glyph-name="i" unicode="i" horiz-adv-x="255" 
d="M172 691v-93h-89v93h89zM169 475v-475h-83v475h83z" />
    <glyph glyph-name="j" unicode="j" horiz-adv-x="255" 
d="M172 691v-93h-89v93h89zM169 475v-442q0 -119 -43 -177.5t-139 -86.5l-44 16v6q86 34 114.5 86.5t28.5 167.5v430h83z" />
    <glyph glyph-name="k" unicode="k" horiz-adv-x="495" 
d="M166 718v-718h-83v708zM177 252q94 98 197 223h82l-198 -204q43 -58 124.5 -151t110.5 -115v-5h-119q-56 65 -197 246v6z" />
    <glyph glyph-name="l" unicode="l" horiz-adv-x="249" 
d="M83 0v708l83 10v-718h-83z" />
    <glyph glyph-name="m" unicode="m" horiz-adv-x="871" 
d="M637 485q153 0 153 -175v-310h-83v303q0 124 -88 124q-69 0 -105.5 -52t-36.5 -132v-243h-82v303q0 58 -18 91t-70 33q-69 0 -105 -52t-36 -132v-243h-83v475h77l4 -98h3q23 47 64.5 77.5t94.5 30.5q121 0 143 -111h3q21 47 66 79t99 32z" />
    <glyph glyph-name="n" unicode="n" horiz-adv-x="563" 
d="M399 0v303q0 124 -88 124q-68 0 -106.5 -52.5t-38.5 -131.5v-243h-83v475h77l5 -100h3q23 48 65.5 79t100.5 31q67 0 107.5 -41t40.5 -134v-310h-83z" />
    <glyph glyph-name="o" unicode="o" horiz-adv-x="592" 
d="M297 485q91 0 163 -63t72 -180q0 -119 -72 -185.5t-163 -66.5q-43 0 -84 16t-76 45.5t-56 79.5t-21 111q0 117 72 180t165 63zM297 39q65 0 106 53.5t41 149.5q0 94 -41 144.5t-106 50.5q-66 0 -107.5 -50.5t-41.5 -144.5q0 -96 41.5 -149.5t107.5 -53.5z" />
    <glyph glyph-name="p" unicode="p" horiz-adv-x="592" 
d="M83 -223v698h77l6 -98h2q51 108 167 108q94 0 145.5 -66.5t51.5 -175.5q0 -113 -59 -183t-160 -70q-86 0 -145 70h-2v-283h-83zM319 435q-66 0 -113.5 -64t-47.5 -157v-7q0 -77 43 -121.5t101 -44.5q66 0 104 53t38 149q0 90 -32.5 141t-92.5 51z" />
    <glyph glyph-name="q" unicode="q" horiz-adv-x="592" 
d="M509 475v-698h-83v321h-2q-23 -48 -65.5 -78t-101.5 -30q-93 0 -145 66.5t-52 174.5q0 112 61.5 183t161.5 71q82 0 142 -66h2l5 56h77zM272 41q67 0 114 64t47 157v7q0 75 -41 120.5t-99 45.5q-67 0 -106 -54.5t-39 -149.5q0 -89 32.5 -139.5t91.5 -50.5z" />
    <glyph glyph-name="r" unicode="r" horiz-adv-x="339" 
d="M160 475l4 -121h3q16 66 59 100.5t98 35.5l-7 -69q-71 -4 -111 -54t-40 -130v-237h-83v475h77z" />
    <glyph glyph-name="s" unicode="s" horiz-adv-x="401" 
d="M325 399q-42 42 -108 42q-29 0 -53 -17t-24 -48q0 -28 16 -45.5t69 -47.5q66 -37 97 -70t31 -85q0 -64 -46 -101t-116 -37q-86 0 -143 51l-12 75h11q60 -76 144 -76q39 0 62.5 19t23.5 55q0 35 -25 58t-89 57q-55 30 -76.5 59t-21.5 76q0 57 46 89t103 32q64 0 109 -25
l10 -61h-8z" />
    <glyph glyph-name="t" unicode="t" horiz-adv-x="324" 
d="M178 122q0 -81 52 -81q35 0 74 24l-3 -41q-43 -32 -92 -32q-58 0 -86 27.5t-28 92.5v319h-72v44h72v127l83 10v-137h128l-5 -44h-123v-309z" />
    <glyph glyph-name="u" unicode="u" horiz-adv-x="560" 
d="M164 475v-303q0 -124 88 -124q66 0 104 53t38 131v243h83v-475h-77l-5 100h-3q-54 -110 -163 -110q-67 0 -107.5 41t-40.5 134v310h83z" />
    <glyph glyph-name="v" unicode="v" horiz-adv-x="452" 
d="M257 0h-64l-183 475h92l138 -383h3l132 383h67z" />
    <glyph glyph-name="w" unicode="w" horiz-adv-x="780" 
d="M756 475l-167 -475h-59l-143 369h-5l-138 -369h-59l-161 475h88l117 -372h3l137 372h56l143 -372h3l117 372h68z" />
    <glyph glyph-name="x" unicode="x" horiz-adv-x="469" 
d="M191 241l-155 234h92l112 -181h4l116 181h65l-150 -220l103 -158q47 -71 65 -92v-5h-95l-123 196h-5l-128 -196h-66z" />
    <glyph glyph-name="y" unicode="y" horiz-adv-x="443" 
d="M151 -223h-78q63 111 123 254l-189 444h92l138 -352h3l129 352h67z" />
    <glyph glyph-name="z" unicode="z" horiz-adv-x="467" 
d="M68 475h353v-18l-281 -405v-5q164 0 222.5 2.5t96.5 11.5h6l-36 -61h-408v18l284 405v6h-256z" />
    <glyph glyph-name="braceleft" unicode="{" horiz-adv-x="360" 
d="M292 680h-18q-35 0 -50 -21.5t-15 -76.5v-158q0 -101 -79 -144v-2q79 -40 79 -143v-156q0 -51 14 -76t50 -25h19v-40h-50q-45 0 -80.5 30.5t-35.5 88.5v156q0 74 -19 107.5t-62 33.5v50q44 0 62.5 33.5t18.5 106.5v160q0 46 33.5 81t83.5 35h49v-40z" />
    <glyph glyph-name="bar" unicode="|" horiz-adv-x="235" 
d="M144 -214h-52v1000h52v-1000z" />
    <glyph glyph-name="braceright" unicode="}" horiz-adv-x="360" 
d="M68 -122h18q35 0 50 21.5t15 76.5v158q0 101 79 144v2q-79 40 -79 143v156q0 51 -14 76t-50 25h-19v40h50q45 0 80.5 -30.5t35.5 -88.5v-156q0 -74 19 -107.5t62 -33.5v-50q-44 0 -62.5 -33.5t-18.5 -106.5v-160q0 -46 -33.5 -81t-83.5 -35h-49v40z" />
    <glyph glyph-name="asciitilde" unicode="~" 
d="M525 279q-29 -46 -57.5 -66t-63.5 -20q-41 0 -103 31q-68 34 -108 34q-52 0 -81 -69l-35 36q41 86 121 86q42 0 120 -36q64 -29 87 -29q42 0 85 69z" />
    <glyph glyph-name="uni00A0" unicode="&#xa0;" horiz-adv-x="260" 
 />
    <glyph glyph-name="exclamdown" unicode="&#xa1;" horiz-adv-x="344" 
d="M123 371v104h98v-104h-98zM121 -205l29 456h44l29 -456h-102z" />
    <glyph glyph-name="cent" unicode="&#xa2;" 
d="M505 92l-15 -59q-38 -36 -114 -42v-111h-50v111q-97 8 -155 71.5t-58 172.5q0 104 58.5 171t154.5 77v107h50v-106q69 -3 108 -32l11 -60h-12q-39 42 -107 47v-399q74 3 118 52h11zM203 242q0 -77 33.5 -129.5t89.5 -66.5v389q-58 -13 -90.5 -63.5t-32.5 -129.5z" />
    <glyph glyph-name="sterling" unicode="&#xa3;" horiz-adv-x="569" 
d="M48 24q57 40 93 101.5t36 132.5q0 48 -12 84h-99v48h90q-16 56 -16 104q0 80 58 139t159 59q61 0 111 -21l11 -57h-10q-46 29 -110 29q-66 0 -98.5 -42t-32.5 -110q0 -30 15 -101h174v-48h-165q7 -38 7 -69q0 -110 -107 -194v-4q301 0 363 9h6l-33 -84h-440v24z" />
    <glyph glyph-name="currency" unicode="&#xa4;" 
d="M95 594l55 -56q61 56 150 56q84 0 149 -55l53 55l38 -38l-53 -54q54 -69 54 -156q0 -88 -54 -156l52 -54l-37 -38l-53 55q-63 -55 -149 -55q-84 0 -150 56l-55 -56l-37 38l55 57q-53 66 -53 153q0 88 52 154l-54 56zM300 156q76 0 127.5 55.5t51.5 134.5q0 80 -51.5 135
t-127.5 55q-72 0 -124.5 -54t-52.5 -136q0 -81 51.5 -135.5t125.5 -54.5z" />
    <glyph glyph-name="yen" unicode="&#xa5;" 
d="M575 680l-197 -305h157v-44h-184v-77h184v-44h-184v-210h-83v210h-190v44h190v77h-190v44h161l-211 305h104l192 -291h6l179 291h66z" />
    <glyph glyph-name="brokenbar" unicode="&#xa6;" horiz-adv-x="235" 
d="M92 661h52v-250h-52v250zM92 161h52v-250h-52v250z" />
    <glyph glyph-name="section" unicode="&#xa7;" 
d="M509 264q0 -93 -110 -138q70 -51 70 -124q0 -75 -51.5 -116.5t-130.5 -41.5q-106 0 -179 68l-14 86h11q36 -48 85 -74t99 -26q42 0 68.5 24.5t26.5 68.5q0 43 -29.5 69t-105.5 64q-75 37 -108 71t-33 89q0 102 114 141q-68 48 -68 123q0 69 50 110.5t125 41.5
q83 0 121 -29l7 -67h-10q-42 48 -118 48q-39 0 -67.5 -22t-28.5 -65q0 -29 17 -51.5t38 -35t66 -35.5q89 -45 122 -83t33 -96zM362 150q67 30 67 99q0 42 -30 68.5t-105 65.5q-22 12 -33 17q-33 -9 -55 -34t-22 -63q0 -34 22 -59t82 -55q51 -26 74 -39z" />
    <glyph glyph-name="dieresis" unicode="&#xa8;" horiz-adv-x="200" 
d="M58 689v-87h-81v87h81zM223 689v-87h-81v87h81z" />
    <glyph glyph-name="copyright" unicode="&#xa9;" horiz-adv-x="797" 
d="M759 346q0 -151 -103 -256t-257 -105q-153 0 -257 104.5t-104 256.5q0 153 104 256.5t257 103.5q151 0 255.5 -104t104.5 -256zM399 36q130 0 217 90t87 220t-88.5 219.5t-216.5 89.5q-130 0 -217 -89.5t-87 -219.5q0 -129 86 -219.5t219 -90.5zM538 471q-35 31 -103 31
q-62 0 -103.5 -42t-41.5 -114q0 -70 43 -110.5t105 -40.5q68 0 109 36h9l-12 -56q-44 -30 -114 -30q-97 0 -161 52.5t-64 148.5t65.5 150t154.5 54q70 0 115 -25l7 -54h-9z" />
    <glyph glyph-name="ordfeminine" unicode="&#xaa;" horiz-adv-x="406" 
d="M282 349l-12 48q-35 -55 -109 -55q-50 0 -77.5 25t-27.5 67q0 72 91 94q75 18 97.5 25.5t22.5 17.5v3q0 79 -83 79q-54 0 -92 -44h-11l6 47q46 36 114 36q133 0 133 -123v-156q0 -39 6 -64h-58zM182 379q28 0 54.5 21.5t30.5 51.5v75q-79 -18 -111.5 -36.5t-32.5 -52.5
q0 -26 16.5 -42.5t42.5 -16.5z" />
    <glyph glyph-name="guillemotleft" unicode="&#xab;" horiz-adv-x="418" 
d="M205 431v-57l-91 -99l91 -99v-57l-159 125v62zM362 431v-57l-91 -99l91 -99v-57l-159 125v62z" />
    <glyph glyph-name="logicalnot" unicode="&#xac;" 
d="M545 378v-267h-52v214h-436v53h488z" />
    <glyph glyph-name="uni00AD" unicode="&#xad;" horiz-adv-x="393" 
d="M340 295l-4 -51h-283l4 51h283z" />
    <glyph glyph-name="registered" unicode="&#xae;" horiz-adv-x="527" 
d="M477 464q0 -90 -61 -152t-152 -62t-152.5 61.5t-61.5 152.5t61.5 152t152.5 61q90 0 151.5 -61.5t61.5 -151.5zM264 280q77 0 128.5 53.5t51.5 130.5t-52 130t-129 53t-128.5 -53t-51.5 -130q0 -78 51 -131t130 -53zM258 587q94 0 94 -61q0 -28 -13 -44.5t-44 -24.5
l86 -117h-52l-76 110h-20v-110h-41v247h66zM247 476q17 0 27 1.5t22 11.5t12 30t-13 31.5t-34 11.5h-28v-86h14z" />
    <glyph glyph-name="macron" unicode="&#xaf;" horiz-adv-x="200" 
d="M256 668v-47h-311v47h311z" />
    <glyph glyph-name="degree" unicode="&#xb0;" horiz-adv-x="416" 
d="M352 562q0 -59 -41.5 -101.5t-102.5 -42.5q-60 0 -102 41t-42 103q0 61 42.5 102.5t101.5 41.5q60 0 102 -42.5t42 -101.5zM208 457q44 0 74.5 31t30.5 74t-30.5 74t-75.5 31q-43 0 -73.5 -30.5t-30.5 -74.5t30.5 -74.5t74.5 -30.5z" />
    <glyph glyph-name="plusminus" unicode="&#xb1;" 
d="M328 503v-180h217v-53h-217v-180h-53v180h-217v53h217v180h53zM545 53v-53h-487v53h487z" />
    <glyph glyph-name="two.sups" unicode="&#xb2;" horiz-adv-x="393" 
d="M34 430v20l80 72q153 137 153 232q0 37 -20.5 61.5t-60.5 24.5q-57 0 -96 -39h-10l6 45q45 34 110 34q67 0 103 -34.5t36 -86.5q0 -53 -38.5 -106.5t-129.5 -131.5l-41 -35v-3h109q83 0 120 4h9l-19 -57h-311z" />
    <glyph glyph-name="three.sups" unicode="&#xb3;" horiz-adv-x="378" 
d="M261 557q0 95 -115 95h-14l3 36h15q45 0 67 21t22 57q0 77 -79 77q-45 0 -81 -30h-10l5 39q43 28 96 28q60 0 98 -29t38 -82q0 -70 -66 -94v-3q88 -28 88 -116q0 -64 -48.5 -99t-118.5 -35q-74 0 -118 33l-8 54h9q53 -45 116 -45q48 0 74.5 24t26.5 69z" />
    <glyph glyph-name="acute" unicode="&#xb4;" horiz-adv-x="200" 
d="M232 712l-139 -141h-51l102 141h88z" />
    <glyph glyph-name="uni00B5" unicode="&#xb5;" 
d="M185 475v-303q0 -124 88 -124q66 0 104 53t38 131v243h83v-475h-77l-5 100h-3q-18 -36 -30.5 -55.5t-41 -37t-67.5 -17.5q-27 0 -50 11t-33 28h-4v-179h-85v625h83z" />
    <glyph glyph-name="paragraph" unicode="&#xb6;" 
d="M514 -171h-62v810h-116v-810h-62v489q-84 0 -142.5 53t-58.5 132q0 90 56 139t159 49h226v-862z" />
    <glyph glyph-name="periodcentered" unicode="&#xb7;" horiz-adv-x="300" 
d="M205 326v-106h-110v106h110z" />
    <glyph glyph-name="cedilla" unicode="&#xb8;" horiz-adv-x="200" 
d="M40 -217l-15 31l4 3q102 0 102 51q0 38 -69 50l-1 6l40 76h35l-22 -47l11 -3q70 -19 70 -73q0 -49 -45 -71.5t-110 -22.5z" />
    <glyph glyph-name="one.sups" unicode="&#xb9;" horiz-adv-x="312" 
d="M137 430v387l-104 -46l4 40l135 61h31v-442h-66z" />
    <glyph glyph-name="ordmasculine" unicode="&#xba;" horiz-adv-x="460" 
d="M231 692q68 0 119.5 -45.5t51.5 -127.5q0 -83 -51.5 -130t-119.5 -47q-69 0 -121 47t-52 130q0 82 51.5 127.5t121.5 45.5zM230 380q42 0 69 38.5t27 101.5q0 62 -26.5 98.5t-69.5 36.5t-69.5 -36.5t-26.5 -98.5q0 -63 27 -101.5t69 -38.5z" />
    <glyph glyph-name="guillemotright" unicode="&#xbb;" horiz-adv-x="418" 
d="M56 119v57l91 99l-91 99v57l159 -125v-62zM213 119v57l91 99l-91 99v57l159 -125v-62z" />
    <glyph glyph-name="onequarter" unicode="&#xbc;" horiz-adv-x="812" 
d="M561 699l40 -20l-390 -699l-39 20zM137 238v387l-104 -46l4 40l135 61h31v-442h-66zM707 166h83l-7 -44h-76v-122h-59v122h-211v12l227 308h43v-276zM648 167v192h-6l-131 -188v-4h137z" />
    <glyph glyph-name="onehalf" unicode="&#xbd;" horiz-adv-x="854" 
d="M561 699l40 -20l-390 -699l-39 20zM137 238v387l-104 -46l4 40l135 61h31v-442h-66zM495 0v20l80 72q153 137 153 232q0 37 -20.5 61.5t-60.5 24.5q-57 0 -96 -39h-10l6 45q45 34 110 34q67 0 103 -34.5t36 -86.5q0 -53 -38.5 -106.5t-129.5 -131.5l-41 -35v-3h109
q83 0 120 4h9l-19 -57h-311z" />
    <glyph glyph-name="threequarters" unicode="&#xbe;" horiz-adv-x="878" 
d="M627 699l40 -20l-390 -699l-39 20zM261 365q0 95 -115 95h-14l3 36h15q45 0 67 21t22 57q0 77 -79 77q-45 0 -81 -30h-10l5 39q43 28 96 28q60 0 98 -29t38 -82q0 -70 -66 -94v-3q88 -28 88 -116q0 -64 -48.5 -99t-118.5 -35q-74 0 -118 33l-8 54h9q53 -45 116 -45
q48 0 74.5 24t26.5 69zM773 166h83l-7 -44h-76v-122h-59v122h-211v12l227 308h43v-276zM714 167v192h-6l-131 -188v-4h137z" />
    <glyph glyph-name="questiondown" unicode="&#xbf;" horiz-adv-x="470" 
d="M201 371v104h98v-104h-98zM282 250v-22q0 -30 -12.5 -56.5t-25 -40.5t-37.5 -38q-26 -25 -38.5 -38.5t-26.5 -41.5t-14 -59q0 -53 29 -84t81 -31q78 0 141 57h10l-7 -66q-70 -47 -152 -47q-88 0 -141 44t-53 121q0 28 8.5 53t18.5 41t30.5 35t33 28t37.5 25q33 22 49 45
t16 64v11h53z" />
    <glyph glyph-name="Agrave" unicode="&#xc0;" horiz-adv-x="658" 
d="M186 885h93l107 -129h-51zM447 263h-264l-116 -263h-66l306 670l58 10l292 -680h-99zM204 315h224l-108 255h-5z" />
    <glyph glyph-name="Aacute" unicode="&#xc1;" horiz-adv-x="658" 
d="M475 885l-149 -129h-51l107 129h93zM447 263h-264l-116 -263h-66l306 670l58 10l292 -680h-99zM204 315h224l-108 255h-5z" />
    <glyph glyph-name="Acircumflex" unicode="&#xc2;" horiz-adv-x="658" 
d="M365 885l110 -129h-51l-95 81l-93 -81h-50l110 129h69zM447 263h-264l-116 -263h-66l306 670l58 10l292 -680h-99zM204 315h224l-108 255h-5z" />
    <glyph glyph-name="Atilde" unicode="&#xc3;" horiz-adv-x="658" 
d="M340 853q43 -24 61 -24q20 0 32 10t18 35h34q-8 -46 -30 -72.5t-55 -26.5q-38 0 -72 21q-41 25 -65 25q-40 0 -50 -47h-36q4 41 27.5 71t59.5 30t76 -22zM447 263h-264l-116 -263h-66l306 670l58 10l292 -680h-99zM204 315h224l-108 255h-5z" />
    <glyph glyph-name="Adieresis" unicode="&#xc4;" horiz-adv-x="658" 
d="M288 869v-87h-81v87h81zM453 869v-87h-81v87h81zM447 263h-264l-116 -263h-66l306 670l58 10l292 -680h-99zM204 315h224l-108 255h-5z" />
    <glyph glyph-name="Aring" unicode="&#xc5;" horiz-adv-x="658" 
d="M331 724q-46 0 -76.5 30.5t-30.5 73.5q0 44 31 74t76 30t76 -30t31 -74t-31 -74t-76 -30zM331 757q30 0 49 20.5t19 50.5q0 29 -18.5 50t-50.5 21q-29 0 -48 -20t-19 -51q0 -30 18.5 -50.5t49.5 -20.5zM447 263h-264l-116 -263h-66l306 670l58 10l292 -680h-99zM204 315
h224l-108 255h-5z" />
    <glyph glyph-name="AE" unicode="&#xc6;" horiz-adv-x="869" 
d="M835 63h6l-31 -63h-345v261h-231l-160 -261h-73l426 680h368v-53h-240v-254h216v-53h-216v-267h141q100 0 139 10zM267 315h198v312h-6z" />
    <glyph glyph-name="Ccedilla" unicode="&#xc7;" horiz-adv-x="714" 
d="M54 338q0 85 31.5 153.5t84.5 111.5t120 66t141 23q130 0 220 -57l7 -87h-10q-88 88 -217 88q-120 0 -199 -77t-79 -222q0 -143 81 -216t198 -73q148 0 240 81h8l-23 -85q-34 -23 -93 -39t-124 -17l-16 -35l11 -3q70 -19 70 -73q0 -49 -45 -71.5t-110 -22.5l-15 31l4 3
q102 0 102 51q0 38 -69 50l-1 6l34 64q-160 6 -255.5 96t-95.5 254z" />
    <glyph glyph-name="Egrave" unicode="&#xc8;" horiz-adv-x="500" 
d="M116 885h93l107 -129h-51zM327 53q100 0 139 10h6l-31 -63h-345v680h330v-53h-240v-254h216v-53h-216v-267h141z" />
    <glyph glyph-name="Eacute" unicode="&#xc9;" horiz-adv-x="500" 
d="M405 885l-149 -129h-51l107 129h93zM327 53q100 0 139 10h6l-31 -63h-345v680h330v-53h-240v-254h216v-53h-216v-267h141z" />
    <glyph glyph-name="Ecircumflex" unicode="&#xca;" horiz-adv-x="500" 
d="M295 885l110 -129h-51l-95 81l-93 -81h-50l110 129h69zM327 53q100 0 139 10h6l-31 -63h-345v680h330v-53h-240v-254h216v-53h-216v-267h141z" />
    <glyph glyph-name="Edieresis" unicode="&#xcb;" horiz-adv-x="500" 
d="M218 869v-87h-81v87h81zM383 869v-87h-81v87h81zM327 53q100 0 139 10h6l-31 -63h-345v680h330v-53h-240v-254h216v-53h-216v-267h141z" />
    <glyph glyph-name="Igrave" unicode="&#xcc;" horiz-adv-x="282" 
d="M-4 885h93l107 -129h-51zM186 680v-680h-90v680h90z" />
    <glyph glyph-name="Iacute" unicode="&#xcd;" horiz-adv-x="282" 
d="M285 885l-149 -129h-51l107 129h93zM186 680v-680h-90v680h90z" />
    <glyph glyph-name="Icircumflex" unicode="&#xce;" horiz-adv-x="282" 
d="M175 885l110 -129h-51l-95 81l-93 -81h-50l110 129h69zM186 680v-680h-90v680h90z" />
    <glyph glyph-name="Idieresis" unicode="&#xcf;" horiz-adv-x="282" 
d="M98 869v-87h-81v87h81zM263 869v-87h-81v87h81zM186 680v-680h-90v680h90z" />
    <glyph glyph-name="Eth" unicode="&#xd0;" horiz-adv-x="778" 
d="M355 680q178 0 273.5 -85.5t95.5 -255.5q0 -161 -107.5 -250t-285.5 -89h-231v320h-74v53h74v307h255zM316 53q311 0 311 286q0 150 -74 219t-229 69h-134v-254h189v-53h-189v-267h126z" />
    <glyph glyph-name="Ntilde" unicode="&#xd1;" horiz-adv-x="759" 
d="M389 853q43 -24 61 -24q20 0 32 10t18 35h34q-8 -46 -30 -72.5t-55 -26.5q-37 0 -72 21q-41 25 -65 25q-40 0 -50 -47h-36q4 41 27.5 71t59.5 30t76 -22zM604 163v517h59v-685h-31l-472 553h-5v-548h-59v680h68l437 -517h3z" />
    <glyph glyph-name="Ograve" unicode="&#xd2;" horiz-adv-x="833" 
d="M272 885h93l107 -129h-51zM412 692q70 0 134 -21t117 -62.5t84.5 -111t31.5 -157.5q0 -85 -31 -153.5t-82.5 -111t-114.5 -65t-129 -22.5q-70 0 -134.5 21t-117.5 62.5t-84.5 111t-31.5 157.5q0 85 31 153.5t83 111t114.5 65t129.5 22.5zM422 42q115 0 187.5 80.5
t72.5 217.5q0 132 -75.5 215t-194.5 83q-115 0 -188 -80.5t-73 -217.5q0 -132 76 -215t195 -83z" />
    <glyph glyph-name="Oacute" unicode="&#xd3;" horiz-adv-x="833" 
d="M561 885l-149 -129h-51l107 129h93zM412 692q70 0 134 -21t117 -62.5t84.5 -111t31.5 -157.5q0 -85 -31 -153.5t-82.5 -111t-114.5 -65t-129 -22.5q-70 0 -134.5 21t-117.5 62.5t-84.5 111t-31.5 157.5q0 85 31 153.5t83 111t114.5 65t129.5 22.5zM422 42
q115 0 187.5 80.5t72.5 217.5q0 132 -75.5 215t-194.5 83q-115 0 -188 -80.5t-73 -217.5q0 -132 76 -215t195 -83z" />
    <glyph glyph-name="Ocircumflex" unicode="&#xd4;" horiz-adv-x="833" 
d="M451 885l110 -129h-51l-95 81l-93 -81h-50l110 129h69zM412 692q70 0 134 -21t117 -62.5t84.5 -111t31.5 -157.5q0 -85 -31 -153.5t-82.5 -111t-114.5 -65t-129 -22.5q-70 0 -134.5 21t-117.5 62.5t-84.5 111t-31.5 157.5q0 85 31 153.5t83 111t114.5 65t129.5 22.5z
M422 42q115 0 187.5 80.5t72.5 217.5q0 132 -75.5 215t-194.5 83q-115 0 -188 -80.5t-73 -217.5q0 -132 76 -215t195 -83z" />
    <glyph glyph-name="Otilde" unicode="&#xd5;" horiz-adv-x="833" 
d="M426 853q43 -24 61 -24q20 0 32 10t18 35h34q-8 -46 -30 -72.5t-55 -26.5q-38 0 -72 21q-41 25 -65 25q-40 0 -50 -47h-36q4 41 27.5 71t59.5 30t76 -22zM412 692q70 0 134 -21t117 -62.5t84.5 -111t31.5 -157.5q0 -85 -31 -153.5t-82.5 -111t-114.5 -65t-129 -22.5
q-70 0 -134.5 21t-117.5 62.5t-84.5 111t-31.5 157.5q0 85 31 153.5t83 111t114.5 65t129.5 22.5zM422 42q115 0 187.5 80.5t72.5 217.5q0 132 -75.5 215t-194.5 83q-115 0 -188 -80.5t-73 -217.5q0 -132 76 -215t195 -83z" />
    <glyph glyph-name="Odieresis" unicode="&#xd6;" horiz-adv-x="833" 
d="M374 869v-87h-81v87h81zM539 869v-87h-81v87h81zM412 692q70 0 134 -21t117 -62.5t84.5 -111t31.5 -157.5q0 -85 -31 -153.5t-82.5 -111t-114.5 -65t-129 -22.5q-70 0 -134.5 21t-117.5 62.5t-84.5 111t-31.5 157.5q0 85 31 153.5t83 111t114.5 65t129.5 22.5zM422 42
q115 0 187.5 80.5t72.5 217.5q0 132 -75.5 215t-194.5 83q-115 0 -188 -80.5t-73 -217.5q0 -132 76 -215t195 -83z" />
    <glyph glyph-name="multiply" unicode="&#xd7;" 
d="M118 477l183 -189l183 189l36 -37l-182 -189l182 -189l-36 -37l-183 188l-183 -188l-36 37l181 189l-181 189z" />
    <glyph glyph-name="Oslash" unicode="&#xd8;" horiz-adv-x="833" 
d="M676 597q103 -95 103 -257q0 -85 -31 -153.5t-82.5 -111t-114.5 -65t-129 -22.5q-129 0 -224 63l-62 -70l-38 34l59 68q-103 95 -103 257q0 85 31 153.5t83 111t114.5 65t129.5 22.5q129 0 224 -64l60 69l38 -33zM151 340q0 -115 60 -196l377 429q-71 65 -176 65
q-115 0 -188 -80.5t-73 -217.5zM422 42q115 0 187.5 80.5t72.5 217.5q0 115 -60 196l-376 -429q71 -65 176 -65z" />
    <glyph glyph-name="Ugrave" unicode="&#xd9;" horiz-adv-x="731" 
d="M224 885h93l107 -129h-51zM373 -12q-132 0 -208 67.5t-76 183.5v441h90v-427q0 -102 51.5 -155t143.5 -53q98 0 152.5 53t54.5 155v427h61v-441q0 -115 -73 -183t-196 -68z" />
    <glyph glyph-name="Uacute" unicode="&#xda;" horiz-adv-x="731" 
d="M513 885l-149 -129h-51l107 129h93zM373 -12q-132 0 -208 67.5t-76 183.5v441h90v-427q0 -102 51.5 -155t143.5 -53q98 0 152.5 53t54.5 155v427h61v-441q0 -115 -73 -183t-196 -68z" />
    <glyph glyph-name="Ucircumflex" unicode="&#xdb;" horiz-adv-x="731" 
d="M403 885l110 -129h-51l-95 81l-93 -81h-50l110 129h69zM373 -12q-132 0 -208 67.5t-76 183.5v441h90v-427q0 -102 51.5 -155t143.5 -53q98 0 152.5 53t54.5 155v427h61v-441q0 -115 -73 -183t-196 -68z" />
    <glyph glyph-name="Udieresis" unicode="&#xdc;" horiz-adv-x="731" 
d="M326 869v-87h-81v87h81zM491 869v-87h-81v87h81zM373 -12q-132 0 -208 67.5t-76 183.5v441h90v-427q0 -102 51.5 -155t143.5 -53q98 0 152.5 53t54.5 155v427h61v-441q0 -115 -73 -183t-196 -68z" />
    <glyph glyph-name="Yacute" unicode="&#xdd;" horiz-adv-x="559" 
d="M429 885l-149 -129h-51l107 129h93zM0 680h109l196 -301h6l179 301h69l-225 -356v-324h-90v315z" />
    <glyph glyph-name="Thorn" unicode="&#xde;" horiz-adv-x="565" 
d="M259 546q246 0 246 -189q0 -97 -71.5 -144.5t-180.5 -47.5h-67v-165h-90v680h90v-134h73zM245 214q81 0 123.5 32t42.5 111q0 77 -42 108.5t-124 31.5h-59v-283h59z" />
    <glyph glyph-name="germandbls" unicode="&#xdf;" horiz-adv-x="583" 
d="M164 0h-83v491q0 103 51.5 170t155.5 67q75 0 120 -29t45 -88q0 -27 -18 -55t-39.5 -47t-39.5 -42t-18 -40q0 -21 20 -41.5t64 -51.5q63 -44 90 -82.5t27 -93.5q0 -72 -44.5 -120t-120.5 -48q-77 0 -125 48l-12 78h11q58 -74 126 -74q40 0 63 27.5t23 72.5
q0 37 -25.5 70.5t-80.5 71.5q-49 34 -71.5 60.5t-22.5 59.5q0 26 17.5 54.5t39 49t39 47t17.5 50.5q0 75 -88 75q-121 0 -121 -198v-482z" />
    <glyph glyph-name="agrave" unicode="&#xe0;" horiz-adv-x="519" 
d="M212 712l102 -141h-51l-138 141h87zM375 0l-16 72q-59 -82 -157 -82q-75 0 -111 37t-36 96q0 99 140 133q98 23 129 33t31 21v12q0 61 -23.5 87.5t-76.5 26.5q-86 0 -148 -60h-10l7 62q61 47 153 47q96 0 137.5 -42t41.5 -122v-236q0 -46 7 -85h-68zM224 39
q47 0 84.5 31.5t46.5 74.5v108q-130 -26 -173 -51t-43 -73q0 -38 22 -64t63 -26z" />
    <glyph glyph-name="aacute" unicode="&#xe1;" horiz-adv-x="519" 
d="M395 712l-139 -141h-51l102 141h88zM375 0l-16 72q-59 -82 -157 -82q-75 0 -111 37t-36 96q0 99 140 133q98 23 129 33t31 21v12q0 61 -23.5 87.5t-76.5 26.5q-86 0 -148 -60h-10l7 62q61 47 153 47q96 0 137.5 -42t41.5 -122v-236q0 -46 7 -85h-68zM224 39
q47 0 84.5 31.5t46.5 74.5v108q-130 -26 -173 -51t-43 -73q0 -38 22 -64t63 -26z" />
    <glyph glyph-name="acircumflex" unicode="&#xe2;" horiz-adv-x="519" 
d="M294 712l110 -141h-51l-96 92l-94 -92h-48l110 141h69zM375 0l-16 72q-59 -82 -157 -82q-75 0 -111 37t-36 96q0 99 140 133q98 23 129 33t31 21v12q0 61 -23.5 87.5t-76.5 26.5q-86 0 -148 -60h-10l7 62q61 47 153 47q96 0 137.5 -42t41.5 -122v-236q0 -46 7 -85h-68z
M224 39q47 0 84.5 31.5t46.5 74.5v108q-130 -26 -173 -51t-43 -73q0 -38 22 -64t63 -26z" />
    <glyph glyph-name="atilde" unicode="&#xe3;" horiz-adv-x="519" 
d="M269 673q43 -24 61 -24q20 0 32 10t18 35h34q-8 -46 -30 -72.5t-55 -26.5q-37 0 -72 21q-41 25 -65 25q-40 0 -50 -47h-36q4 41 27.5 71t59.5 30t76 -22zM375 0l-16 72q-59 -82 -157 -82q-75 0 -111 37t-36 96q0 99 140 133q98 23 129 33t31 21v12q0 61 -23.5 87.5
t-76.5 26.5q-86 0 -148 -60h-10l7 62q61 47 153 47q96 0 137.5 -42t41.5 -122v-236q0 -46 7 -85h-68zM224 39q47 0 84.5 31.5t46.5 74.5v108q-130 -26 -173 -51t-43 -73q0 -38 22 -64t63 -26z" />
    <glyph glyph-name="adieresis" unicode="&#xe4;" horiz-adv-x="519" 
d="M217 689v-87h-81v87h81zM382 689v-87h-81v87h81zM375 0l-16 72q-59 -82 -157 -82q-75 0 -111 37t-36 96q0 99 140 133q98 23 129 33t31 21v12q0 61 -23.5 87.5t-76.5 26.5q-86 0 -148 -60h-10l7 62q61 47 153 47q96 0 137.5 -42t41.5 -122v-236q0 -46 7 -85h-68zM224 39
q47 0 84.5 31.5t46.5 74.5v108q-130 -26 -173 -51t-43 -73q0 -38 22 -64t63 -26z" />
    <glyph glyph-name="aring" unicode="&#xe5;" horiz-adv-x="519" 
d="M260 544q-46 0 -76.5 30.5t-30.5 73.5q0 44 31 74t76 30t76 -30t31 -74t-31 -74t-76 -30zM260 577q30 0 49 20.5t19 50.5q0 29 -18.5 50t-50.5 21q-29 0 -48 -20t-19 -51q0 -30 18.5 -50.5t49.5 -20.5zM375 0l-16 72q-59 -82 -157 -82q-75 0 -111 37t-36 96q0 99 140 133
q98 23 129 33t31 21v12q0 61 -23.5 87.5t-76.5 26.5q-86 0 -148 -60h-10l7 62q61 47 153 47q96 0 137.5 -42t41.5 -122v-236q0 -46 7 -85h-68zM224 39q47 0 84.5 31.5t46.5 74.5v108q-130 -26 -173 -51t-43 -73q0 -38 22 -64t63 -26z" />
    <glyph glyph-name="ae" unicode="&#xe6;" horiz-adv-x="822" 
d="M766 288v-35h-331q4 -102 50 -155t124 -53q89 0 141 61h11l-13 -68q-24 -21 -65 -34.5t-87 -13.5q-150 0 -209 108h-2q-56 -108 -175 -108q-78 0 -116.5 35.5t-38.5 96.5q0 101 148 136q135 32 146 41q6 5 6 13v10q0 61 -23.5 87.5t-76.5 26.5q-86 0 -148 -60h-10l7 62
q61 47 153 47q123 0 157 -72h2q58 72 156 72q95 0 144.5 -53.5t49.5 -143.5zM681 298v13q0 65 -29.5 97.5t-79.5 32.5q-49 0 -88.5 -37t-46.5 -106h244zM355 145v105q-129 -25 -172.5 -51t-43.5 -72q0 -38 22 -63t63 -25q47 0 84.5 31.5t46.5 74.5z" />
    <glyph glyph-name="ccedilla" unicode="&#xe7;" horiz-adv-x="474" 
d="M60 235q0 112 68.5 181t175.5 69q82 0 127 -33l11 -60h-12q-44 47 -119 47q-74 0 -117.5 -53t-43.5 -144t46.5 -146.5t118.5 -55.5q81 0 126 52h11l-15 -59q-45 -43 -132 -43l-17 -37l11 -3q70 -19 70 -73q0 -49 -45 -71.5t-110 -22.5l-15 31l4 3q102 0 102 51
q0 38 -69 50l-1 6l35 67q-96 9 -153 72.5t-57 171.5z" />
    <glyph glyph-name="egrave" unicode="&#xe8;" horiz-adv-x="532" 
d="M233 712l102 -141h-51l-138 141h87zM476 253h-330q2 -97 47 -152.5t126 -55.5q89 0 141 61h11l-13 -68q-24 -21 -65 -34.5t-87 -13.5q-115 0 -180.5 66t-65.5 180q0 110 66 179.5t156 69.5q95 0 144.5 -53.5t49.5 -143.5v-35zM391 311q0 65 -29.5 97.5t-79.5 32.5
q-51 0 -89.5 -38t-45.5 -103h244v11z" />
    <glyph glyph-name="eacute" unicode="&#xe9;" horiz-adv-x="532" 
d="M416 712l-139 -141h-51l102 141h88zM476 253h-330q2 -97 47 -152.5t126 -55.5q89 0 141 61h11l-13 -68q-24 -21 -65 -34.5t-87 -13.5q-115 0 -180.5 66t-65.5 180q0 110 66 179.5t156 69.5q95 0 144.5 -53.5t49.5 -143.5v-35zM391 311q0 65 -29.5 97.5t-79.5 32.5
q-51 0 -89.5 -38t-45.5 -103h244v11z" />
    <glyph glyph-name="ecircumflex" unicode="&#xea;" horiz-adv-x="532" 
d="M315 712l110 -141h-51l-96 92l-94 -92h-48l110 141h69zM476 253h-330q2 -97 47 -152.5t126 -55.5q89 0 141 61h11l-13 -68q-24 -21 -65 -34.5t-87 -13.5q-115 0 -180.5 66t-65.5 180q0 110 66 179.5t156 69.5q95 0 144.5 -53.5t49.5 -143.5v-35zM391 311q0 65 -29.5 97.5
t-79.5 32.5q-51 0 -89.5 -38t-45.5 -103h244v11z" />
    <glyph glyph-name="edieresis" unicode="&#xeb;" horiz-adv-x="532" 
d="M238 689v-87h-81v87h81zM403 689v-87h-81v87h81zM476 253h-330q2 -97 47 -152.5t126 -55.5q89 0 141 61h11l-13 -68q-24 -21 -65 -34.5t-87 -13.5q-115 0 -180.5 66t-65.5 180q0 110 66 179.5t156 69.5q95 0 144.5 -53.5t49.5 -143.5v-35zM391 311q0 65 -29.5 97.5
t-79.5 32.5q-51 0 -89.5 -38t-45.5 -103h244v11z" />
    <glyph glyph-name="igrave" unicode="&#xec;" horiz-adv-x="255" 
d="M81 712l102 -141h-51l-138 141h87zM169 475v-475h-83v475h83z" />
    <glyph glyph-name="iacute" unicode="&#xed;" horiz-adv-x="255" 
d="M264 712l-139 -141h-51l102 141h88zM169 475v-475h-83v475h83z" />
    <glyph glyph-name="icircumflex" unicode="&#xee;" horiz-adv-x="255" 
d="M163 712l110 -141h-51l-96 92l-94 -92h-48l110 141h69zM169 475v-475h-83v475h83z" />
    <glyph glyph-name="idieresis" unicode="&#xef;" horiz-adv-x="255" 
d="M86 689v-87h-81v87h81zM251 689v-87h-81v87h81zM169 475v-475h-83v475h83z" />
    <glyph glyph-name="eth" unicode="&#xf0;" horiz-adv-x="588" 
d="M358 601q76 -66 122.5 -159t46.5 -197q0 -122 -69.5 -188.5t-164.5 -66.5t-164 65.5t-69 186.5q0 117 65.5 180t156.5 63q72 0 118 -40l1 1q-34 68 -101 126l-105 -52l-21 42l84 42q-56 38 -113 55l42 34q66 -17 130 -60l92 45l21 -42zM295 39q64 0 104.5 53.5
t40.5 149.5q0 94 -40 144.5t-105 50.5q-66 0 -106.5 -50.5t-40.5 -144.5q0 -96 40.5 -149.5t106.5 -53.5z" />
    <glyph glyph-name="ntilde" unicode="&#xf1;" horiz-adv-x="563" 
d="M291 673q43 -24 61 -24q20 0 32 10t18 35h34q-8 -46 -30 -72.5t-55 -26.5q-37 0 -72 21q-41 25 -65 25q-40 0 -50 -47h-36q4 41 27.5 71t59.5 30t76 -22zM399 0v303q0 124 -88 124q-68 0 -106.5 -52.5t-38.5 -131.5v-243h-83v475h77l5 -100h3q23 48 65.5 79t100.5 31
q67 0 107.5 -41t40.5 -134v-310h-83z" />
    <glyph glyph-name="ograve" unicode="&#xf2;" horiz-adv-x="592" 
d="M248 712l102 -141h-51l-138 141h87zM297 485q91 0 163 -63t72 -180q0 -119 -72 -185.5t-163 -66.5q-43 0 -84 16t-76 45.5t-56 79.5t-21 111q0 117 72 180t165 63zM297 39q65 0 106 53.5t41 149.5q0 94 -41 144.5t-106 50.5q-66 0 -107.5 -50.5t-41.5 -144.5
q0 -96 41.5 -149.5t107.5 -53.5z" />
    <glyph glyph-name="oacute" unicode="&#xf3;" horiz-adv-x="592" 
d="M431 712l-139 -141h-51l102 141h88zM297 485q91 0 163 -63t72 -180q0 -119 -72 -185.5t-163 -66.5q-43 0 -84 16t-76 45.5t-56 79.5t-21 111q0 117 72 180t165 63zM297 39q65 0 106 53.5t41 149.5q0 94 -41 144.5t-106 50.5q-66 0 -107.5 -50.5t-41.5 -144.5
q0 -96 41.5 -149.5t107.5 -53.5z" />
    <glyph glyph-name="ocircumflex" unicode="&#xf4;" horiz-adv-x="592" 
d="M330 712l110 -141h-51l-96 92l-94 -92h-48l110 141h69zM297 485q91 0 163 -63t72 -180q0 -119 -72 -185.5t-163 -66.5q-43 0 -84 16t-76 45.5t-56 79.5t-21 111q0 117 72 180t165 63zM297 39q65 0 106 53.5t41 149.5q0 94 -41 144.5t-106 50.5q-66 0 -107.5 -50.5
t-41.5 -144.5q0 -96 41.5 -149.5t107.5 -53.5z" />
    <glyph glyph-name="otilde" unicode="&#xf5;" horiz-adv-x="592" 
d="M305 673q43 -24 61 -24q20 0 32 10t18 35h34q-8 -46 -30 -72.5t-55 -26.5q-37 0 -72 21q-41 25 -65 25q-40 0 -50 -47h-36q4 41 27.5 71t59.5 30t76 -22zM297 485q91 0 163 -63t72 -180q0 -119 -72 -185.5t-163 -66.5q-43 0 -84 16t-76 45.5t-56 79.5t-21 111
q0 117 72 180t165 63zM297 39q65 0 106 53.5t41 149.5q0 94 -41 144.5t-106 50.5q-66 0 -107.5 -50.5t-41.5 -144.5q0 -96 41.5 -149.5t107.5 -53.5z" />
    <glyph glyph-name="odieresis" unicode="&#xf6;" horiz-adv-x="592" 
d="M253 689v-87h-81v87h81zM418 689v-87h-81v87h81zM297 485q91 0 163 -63t72 -180q0 -119 -72 -185.5t-163 -66.5q-43 0 -84 16t-76 45.5t-56 79.5t-21 111q0 117 72 180t165 63zM297 39q65 0 106 53.5t41 149.5q0 94 -41 144.5t-106 50.5q-66 0 -107.5 -50.5t-41.5 -144.5
q0 -96 41.5 -149.5t107.5 -53.5z" />
    <glyph glyph-name="divide" unicode="&#xf7;" 
d="M356 453q0 -22 -16.5 -39t-37.5 -17q-23 0 -39.5 16.5t-16.5 39.5t16 39.5t39 16.5t39 -16.5t16 -39.5zM545 278v-53h-487v53h487zM356 50q0 -22 -17 -39t-37 -17q-23 0 -39.5 16.5t-16.5 39.5q0 24 16.5 40t38.5 16q23 0 39 -16.5t16 -39.5z" />
    <glyph glyph-name="oslash" unicode="&#xf8;" horiz-adv-x="592" 
d="M475 406q57 -65 57 -164q0 -119 -72 -185.5t-163 -66.5q-81 0 -145 49l-54 -61l-35 31l55 62q-58 68 -58 171q0 117 72 180t165 63q81 0 144 -47l52 59l35 -31zM148 242q0 -68 21 -113l230 262q-39 46 -102 46q-66 0 -107.5 -50.5t-41.5 -144.5zM297 39q65 0 106 53.5
t41 149.5q0 61 -19 107l-231 -262q39 -48 103 -48z" />
    <glyph glyph-name="ugrave" unicode="&#xf9;" horiz-adv-x="560" 
d="M232 712l102 -141h-51l-138 141h87zM164 475v-303q0 -124 88 -124q66 0 104 53t38 131v243h83v-475h-77l-5 100h-3q-54 -110 -163 -110q-67 0 -107.5 41t-40.5 134v310h83z" />
    <glyph glyph-name="uacute" unicode="&#xfa;" horiz-adv-x="560" 
d="M415 712l-139 -141h-51l102 141h88zM164 475v-303q0 -124 88 -124q66 0 104 53t38 131v243h83v-475h-77l-5 100h-3q-54 -110 -163 -110q-67 0 -107.5 41t-40.5 134v310h83z" />
    <glyph glyph-name="ucircumflex" unicode="&#xfb;" horiz-adv-x="560" 
d="M314 712l110 -141h-51l-96 92l-94 -92h-48l110 141h69zM164 475v-303q0 -124 88 -124q66 0 104 53t38 131v243h83v-475h-77l-5 100h-3q-54 -110 -163 -110q-67 0 -107.5 41t-40.5 134v310h83z" />
    <glyph glyph-name="udieresis" unicode="&#xfc;" horiz-adv-x="560" 
d="M237 689v-87h-81v87h81zM402 689v-87h-81v87h81zM164 475v-303q0 -124 88 -124q66 0 104 53t38 131v243h83v-475h-77l-5 100h-3q-54 -110 -163 -110q-67 0 -107.5 41t-40.5 134v310h83z" />
    <glyph glyph-name="yacute" unicode="&#xfd;" horiz-adv-x="443" 
d="M362 712l-139 -141h-51l102 141h88zM151 -223h-78q63 111 123 254l-189 444h92l138 -352h3l129 352h67z" />
    <glyph glyph-name="thorn" unicode="&#xfe;" horiz-adv-x="592" 
d="M83 -223v931l83 10v-341h2q51 108 167 108q94 0 145.5 -66.5t51.5 -175.5q0 -113 -59 -183t-160 -70q-86 0 -145 70h-2v-283h-83zM319 435q-66 0 -113.5 -64t-47.5 -157v-7q0 -78 43 -122t101 -44q66 0 104 54.5t38 148.5q0 90 -32.5 140.5t-92.5 50.5z" />
    <glyph glyph-name="ydieresis" unicode="&#xff;" horiz-adv-x="443" 
d="M184 689v-87h-81v87h81zM349 689v-87h-81v87h81zM151 -223h-78q63 111 123 254l-189 444h92l138 -352h3l129 352h67z" />
    <glyph glyph-name="Amacron" unicode="&#x100;" horiz-adv-x="658" 
d="M486 848v-47h-311v47h311zM447 263h-264l-116 -263h-66l306 670l58 10l292 -680h-99zM204 315h224l-108 255h-5z" />
    <glyph glyph-name="amacron" unicode="&#x101;" horiz-adv-x="519" 
d="M415 668v-47h-311v47h311zM375 0l-16 72q-59 -82 -157 -82q-75 0 -111 37t-36 96q0 99 140 133q98 23 129 33t31 21v12q0 61 -23.5 87.5t-76.5 26.5q-86 0 -148 -60h-10l7 62q61 47 153 47q96 0 137.5 -42t41.5 -122v-236q0 -46 7 -85h-68zM224 39q47 0 84.5 31.5
t46.5 74.5v108q-130 -26 -173 -51t-43 -73q0 -38 22 -64t63 -26z" />
    <glyph glyph-name="Abreve" unicode="&#x102;" horiz-adv-x="658" 
d="M232 882q4 -36 31.5 -56t66.5 -20q40 0 67.5 20t33.5 56h39q-6 -58 -43 -92t-97 -34q-62 0 -99 34.5t-40 91.5h41zM447 263h-264l-116 -263h-66l306 670l58 10l292 -680h-99zM204 315h224l-108 255h-5z" />
    <glyph glyph-name="abreve" unicode="&#x103;" horiz-adv-x="519" 
d="M161 704q4 -37 31 -57.5t67 -20.5t67.5 20.5t33.5 57.5h39q-6 -59 -43 -93.5t-97 -34.5q-62 0 -99 34.5t-40 93.5h41zM375 0l-16 72q-59 -82 -157 -82q-75 0 -111 37t-36 96q0 99 140 133q98 23 129 33t31 21v12q0 61 -23.5 87.5t-76.5 26.5q-86 0 -148 -60h-10l7 62
q61 47 153 47q96 0 137.5 -42t41.5 -122v-236q0 -46 7 -85h-68zM224 39q47 0 84.5 31.5t46.5 74.5v108q-130 -26 -173 -51t-43 -73q0 -38 22 -64t63 -26z" />
    <glyph glyph-name="Aogonek" unicode="&#x104;" horiz-adv-x="658" 
d="M1 0l306 670l58 10l292 -680q-107 -61 -107 -107q0 -36 43 -36q28 0 55 12h7l-14 -35q-33 -18 -72 -18q-36 0 -60.5 16.5t-24.5 51.5q0 63 116 116h-42l-111 263h-264l-116 -263h-66zM204 315h224l-108 255h-5z" />
    <glyph glyph-name="aogonek" unicode="&#x105;" horiz-adv-x="519" 
d="M55 123q0 99 140 133q98 23 129 33t31 21v12q0 61 -23.5 87.5t-76.5 26.5q-86 0 -148 -60h-10l7 62q61 47 153 47q96 0 137.5 -42t41.5 -122v-236q0 -36 7 -85q-101 -48 -101 -104q0 -39 43 -39q28 0 55 12h7l-14 -35q-33 -18 -72 -18q-36 0 -60.5 16.5t-24.5 51.5
q0 54 99 116l-16 72q-59 -82 -157 -82q-75 0 -111 37t-36 96zM139 129q0 -38 22 -64t63 -26q47 0 84.5 31.5t46.5 74.5v108q-130 -26 -173 -51t-43 -73z" />
    <glyph glyph-name="Cacute" unicode="&#x106;" horiz-adv-x="714" 
d="M561 885l-149 -129h-51l107 129h93zM648 548q-88 88 -217 88q-120 0 -199 -77t-79 -222q0 -143 81 -216t198 -73q148 0 240 81h8l-23 -85q-35 -24 -98.5 -40t-130.5 -16q-170 0 -272 90t-102 260q0 85 31.5 153.5t84.5 111.5t120 66t141 23q130 0 220 -57l7 -87h-10z" />
    <glyph glyph-name="cacute" unicode="&#x107;" horiz-adv-x="476" 
d="M424 712l-139 -141h-51l102 141h88zM302 485q82 0 127 -33l11 -60h-12q-44 47 -119 47q-74 0 -117.5 -53t-43.5 -144t46.5 -146.5t118.5 -55.5q81 0 126 52h11l-15 -59q-45 -43 -136 -43q-109 0 -175 64t-66 181q0 112 68.5 181t175.5 69z" />
    <glyph glyph-name="Ccircumflex" unicode="&#x108;" horiz-adv-x="714" 
d="M451 885l110 -129h-51l-95 81l-93 -81h-50l110 129h69zM648 548q-88 88 -217 88q-120 0 -199 -77t-79 -222q0 -143 81 -216t198 -73q148 0 240 81h8l-23 -85q-35 -24 -98.5 -40t-130.5 -16q-170 0 -272 90t-102 260q0 85 31.5 153.5t84.5 111.5t120 66t141 23
q130 0 220 -57l7 -87h-10z" />
    <glyph glyph-name="ccircumflex" unicode="&#x109;" horiz-adv-x="476" 
d="M323 712l110 -141h-51l-96 92l-94 -92h-48l110 141h69zM302 485q82 0 127 -33l11 -60h-12q-44 47 -119 47q-74 0 -117.5 -53t-43.5 -144t46.5 -146.5t118.5 -55.5q81 0 126 52h11l-15 -59q-45 -43 -136 -43q-109 0 -175 64t-66 181q0 112 68.5 181t175.5 69z" />
    <glyph glyph-name="Cdotaccent" unicode="&#x10a;" horiz-adv-x="714" 
d="M461 871v-93h-89v93h89zM648 548q-88 88 -217 88q-120 0 -199 -77t-79 -222q0 -143 81 -216t198 -73q148 0 240 81h8l-23 -85q-35 -24 -98.5 -40t-130.5 -16q-170 0 -272 90t-102 260q0 85 31.5 153.5t84.5 111.5t120 66t141 23q130 0 220 -57l7 -87h-10z" />
    <glyph glyph-name="cdotaccent" unicode="&#x10b;" horiz-adv-x="476" 
d="M333 691v-93h-89v93h89zM302 485q82 0 127 -33l11 -60h-12q-44 47 -119 47q-74 0 -117.5 -53t-43.5 -144t46.5 -146.5t118.5 -55.5q81 0 126 52h11l-15 -59q-45 -43 -136 -43q-109 0 -175 64t-66 181q0 112 68.5 181t175.5 69z" />
    <glyph glyph-name="Ccaron" unicode="&#x10c;" horiz-adv-x="714" 
d="M382 756l-110 129h52l95 -81l93 81h49l-110 -129h-69zM648 548q-88 88 -217 88q-120 0 -199 -77t-79 -222q0 -143 81 -216t198 -73q148 0 240 81h8l-23 -85q-35 -24 -98.5 -40t-130.5 -16q-170 0 -272 90t-102 260q0 85 31.5 153.5t84.5 111.5t120 66t141 23
q130 0 220 -57l7 -87h-10z" />
    <glyph glyph-name="ccaron" unicode="&#x10d;" horiz-adv-x="476" 
d="M254 571l-110 141h51l96 -92l94 92h48l-110 -141h-69zM302 485q82 0 127 -33l11 -60h-12q-44 47 -119 47q-74 0 -117.5 -53t-43.5 -144t46.5 -146.5t118.5 -55.5q81 0 126 52h11l-15 -59q-45 -43 -136 -43q-109 0 -175 64t-66 181q0 112 68.5 181t175.5 69z" />
    <glyph glyph-name="Dcaron" unicode="&#x10e;" horiz-adv-x="774" 
d="M332 756l-110 129h52l95 -81l93 81h49l-110 -129h-69zM351 680q178 0 273.5 -85.5t95.5 -255.5q0 -161 -107.5 -250t-285.5 -89h-231v680h255zM312 53q311 0 311 286q0 150 -74 219t-229 69h-134v-574h126z" />
    <glyph glyph-name="dcaron" unicode="&#x10f;" horiz-adv-x="592" 
d="M509 718v-718h-77l-6 98h-2q-20 -47 -63.5 -77.5t-103.5 -30.5q-94 0 -145.5 66t-51.5 175q0 112 61.5 183t161.5 71q91 0 141 -66h2v289zM667 718q-15 -101 -59 -183h-39q24 88 24 183h74zM272 41q67 0 114 63.5t47 156.5v8q0 75 -41 120.5t-98 45.5q-68 0 -107 -54.5
t-39 -149.5q0 -89 32.5 -139.5t91.5 -50.5z" />
    <glyph glyph-name="Dcroat" unicode="&#x110;" horiz-adv-x="778" 
d="M355 680q178 0 273.5 -85.5t95.5 -255.5q0 -161 -107.5 -250t-285.5 -89h-231v320h-74v53h74v307h255zM316 53q311 0 311 286q0 150 -74 219t-229 69h-134v-254h189v-53h-189v-267h126z" />
    <glyph glyph-name="dcroat" unicode="&#x111;" horiz-adv-x="594" 
d="M567 607v-46h-58v-561h-77l-6 98h-2q-20 -47 -63.5 -77.5t-103.5 -30.5q-94 0 -145.5 66t-51.5 175q0 112 61.5 183t161.5 71q91 0 141 -66h2v142h-157v46h157v101l83 10v-111h58zM433 261v8q0 75 -41 120.5t-98 45.5q-68 0 -107 -54.5t-39 -149.5q0 -89 32.5 -139.5
t91.5 -50.5q67 0 114 63.5t47 156.5z" />
    <glyph glyph-name="Emacron" unicode="&#x112;" horiz-adv-x="500" 
d="M416 848v-47h-311v47h311zM327 53q100 0 139 10h6l-31 -63h-345v680h330v-53h-240v-254h216v-53h-216v-267h141z" />
    <glyph glyph-name="emacron" unicode="&#x113;" horiz-adv-x="532" 
d="M436 668v-47h-311v47h311zM476 253h-330q2 -97 47 -152.5t126 -55.5q89 0 141 61h11l-13 -68q-24 -21 -65 -34.5t-87 -13.5q-115 0 -180.5 66t-65.5 180q0 110 66 179.5t156 69.5q95 0 144.5 -53.5t49.5 -143.5v-35zM391 311q0 65 -29.5 97.5t-79.5 32.5q-51 0 -89.5 -38
t-45.5 -103h244v11z" />
    <glyph glyph-name="Ebreve" unicode="&#x114;" horiz-adv-x="500" 
d="M162 882q4 -36 31.5 -56t66.5 -20q40 0 67.5 20t33.5 56h39q-6 -58 -43 -92t-97 -34q-62 0 -99 34.5t-40 91.5h41zM327 53q100 0 139 10h6l-31 -63h-345v680h330v-53h-240v-254h216v-53h-216v-267h141z" />
    <glyph glyph-name="ebreve" unicode="&#x115;" horiz-adv-x="532" 
d="M182 704q4 -37 31 -57.5t67 -20.5t67.5 20.5t33.5 57.5h39q-6 -59 -43 -93.5t-97 -34.5q-62 0 -99 34.5t-40 93.5h41zM476 253h-330q2 -97 47 -152.5t126 -55.5q89 0 141 61h11l-13 -68q-24 -21 -65 -34.5t-87 -13.5q-115 0 -180.5 66t-65.5 180q0 110 66 179.5t156 69.5
q95 0 144.5 -53.5t49.5 -143.5v-35zM391 311q0 65 -29.5 97.5t-79.5 32.5q-51 0 -89.5 -38t-45.5 -103h244v11z" />
    <glyph glyph-name="Edotaccent" unicode="&#x116;" horiz-adv-x="500" 
d="M305 871v-93h-89v93h89zM327 53q100 0 139 10h6l-31 -63h-345v680h330v-53h-240v-254h216v-53h-216v-267h141z" />
    <glyph glyph-name="edotaccent" unicode="&#x117;" horiz-adv-x="532" 
d="M325 691v-93h-89v93h89zM476 253h-330q2 -97 47 -152.5t126 -55.5q89 0 141 61h11l-13 -68q-24 -21 -65 -34.5t-87 -13.5q-115 0 -180.5 66t-65.5 180q0 110 66 179.5t156 69.5q95 0 144.5 -53.5t49.5 -143.5v-35zM391 311q0 65 -29.5 97.5t-79.5 32.5q-51 0 -89.5 -38
t-45.5 -103h244v11z" />
    <glyph glyph-name="Eogonek" unicode="&#x118;" horiz-adv-x="500" 
d="M96 0v680h330v-53h-240v-254h216v-53h-216v-267h141q100 0 139 10h6l-31 -63q-101 -65 -101 -107q0 -36 43 -36q28 0 55 12h7l-14 -35q-33 -18 -72 -18q-36 0 -60.5 16.5t-24.5 51.5q0 62 114 116h-292z" />
    <glyph glyph-name="eogonek" unicode="&#x119;" horiz-adv-x="532" 
d="M60 236q0 110 66 179.5t156 69.5q95 0 144.5 -53.5t49.5 -143.5v-35h-330q2 -97 47 -152.5t126 -55.5q89 0 141 61h11l-13 -68q-80 -60 -105.5 -90t-25.5 -55q0 -36 43 -36q28 0 55 12h7l-14 -35q-33 -18 -72 -18q-36 0 -60.5 16.5t-24.5 51.5q0 53 90 110q-21 -4 -45 -4
q-115 0 -180.5 66t-65.5 180zM147 300h244v11q0 65 -29.5 97.5t-79.5 32.5q-51 0 -89.5 -38t-45.5 -103z" />
    <glyph glyph-name="Ecaron" unicode="&#x11a;" horiz-adv-x="500" 
d="M226 756l-110 129h52l95 -81l93 81h49l-110 -129h-69zM327 53q100 0 139 10h6l-31 -63h-345v680h330v-53h-240v-254h216v-53h-216v-267h141z" />
    <glyph glyph-name="ecaron" unicode="&#x11b;" horiz-adv-x="532" 
d="M246 571l-110 141h51l96 -92l94 92h48l-110 -141h-69zM476 253h-330q2 -97 47 -152.5t126 -55.5q89 0 141 61h11l-13 -68q-24 -21 -65 -34.5t-87 -13.5q-115 0 -180.5 66t-65.5 180q0 110 66 179.5t156 69.5q95 0 144.5 -53.5t49.5 -143.5v-35zM391 311q0 65 -29.5 97.5
t-79.5 32.5q-51 0 -89.5 -38t-45.5 -103h244v11z" />
    <glyph glyph-name="Gcircumflex" unicode="&#x11c;" horiz-adv-x="764" 
d="M441 885l110 -129h-51l-95 81l-93 -81h-50l110 129h69zM430 -12q-170 0 -272.5 90t-103.5 260q0 112 54.5 194t139.5 121t185 39q68 0 130.5 -16.5t94.5 -39.5l8 -85h-10q-87 85 -224 85q-120 0 -199.5 -77t-79.5 -222q0 -141 81.5 -216.5t202.5 -75.5q90 0 152 30v260
h88v-275q-37 -31 -107 -51.5t-140 -20.5z" />
    <glyph glyph-name="gcircumflex" unicode="&#x11d;" horiz-adv-x="508" 
d="M282 712l110 -141h-51l-96 92l-94 -92h-48l110 141h69zM315 67q106 0 148.5 -22t42.5 -89q0 -78 -82 -135.5t-192 -57.5q-90 0 -138.5 33.5t-48.5 99.5q0 11 2.5 20.5t10.5 21.5t13.5 18.5t21 23.5t22.5 26q-27 6 -49 28t-22 48q0 15 14.5 39t57.5 85q-59 46 -59 120
q0 69 50.5 114t128.5 45q42 0 84 -15h166l-4 -42h-108v-4q41 -36 41 -94q0 -72 -52 -116t-132 -44q-50 0 -86 18q-22 -47 -22 -75q0 -25 20 -35.5t65 -10.5h107zM142 326q0 -114 89 -114q100 0 100 118q0 114 -95 114q-46 0 -70 -30.5t-24 -87.5zM233 -189q79 0 135.5 33
t56.5 89q0 28 -14.5 41t-51.5 18q-45 7 -211 7q-29 -43 -29 -93q0 -43 29.5 -69t84.5 -26z" />
    <glyph glyph-name="Gbreve" unicode="&#x11e;" horiz-adv-x="764" 
d="M308 882q4 -36 31.5 -56t66.5 -20q40 0 67.5 20t33.5 56h39q-6 -58 -43 -92t-97 -34q-62 0 -99 34.5t-40 91.5h41zM430 -12q-170 0 -272.5 90t-103.5 260q0 112 54.5 194t139.5 121t185 39q68 0 130.5 -16.5t94.5 -39.5l8 -85h-10q-87 85 -224 85q-120 0 -199.5 -77
t-79.5 -222q0 -141 81.5 -216.5t202.5 -75.5q90 0 152 30v260h88v-275q-37 -31 -107 -51.5t-140 -20.5z" />
    <glyph glyph-name="gbreve" unicode="&#x11f;" horiz-adv-x="508" 
d="M149 704q4 -37 31 -57.5t67 -20.5t67.5 20.5t33.5 57.5h39q-6 -59 -43 -93.5t-97 -34.5q-62 0 -99 34.5t-40 93.5h41zM315 67q106 0 148.5 -22t42.5 -89q0 -78 -82 -135.5t-192 -57.5q-90 0 -138.5 33.5t-48.5 99.5q0 11 2.5 20.5t10.5 21.5t13.5 18.5t21 23.5t22.5 26
q-27 6 -49 28t-22 48q0 15 14.5 39t57.5 85q-59 46 -59 120q0 69 50.5 114t128.5 45q42 0 84 -15h166l-4 -42h-108v-4q41 -36 41 -94q0 -72 -52 -116t-132 -44q-50 0 -86 18q-22 -47 -22 -75q0 -25 20 -35.5t65 -10.5h107zM142 326q0 -114 89 -114q100 0 100 118
q0 114 -95 114q-46 0 -70 -30.5t-24 -87.5zM233 -189q79 0 135.5 33t56.5 89q0 28 -14.5 41t-51.5 18q-45 7 -211 7q-29 -43 -29 -93q0 -43 29.5 -69t84.5 -26z" />
    <glyph glyph-name="Gdotaccent" unicode="&#x120;" horiz-adv-x="764" 
d="M451 871v-93h-89v93h89zM430 -12q-170 0 -272.5 90t-103.5 260q0 112 54.5 194t139.5 121t185 39q68 0 130.5 -16.5t94.5 -39.5l8 -85h-10q-87 85 -224 85q-120 0 -199.5 -77t-79.5 -222q0 -141 81.5 -216.5t202.5 -75.5q90 0 152 30v260h88v-275q-37 -31 -107 -51.5
t-140 -20.5z" />
    <glyph glyph-name="gdotaccent" unicode="&#x121;" horiz-adv-x="508" 
d="M292 691v-93h-89v93h89zM315 67q106 0 148.5 -22t42.5 -89q0 -78 -82 -135.5t-192 -57.5q-90 0 -138.5 33.5t-48.5 99.5q0 11 2.5 20.5t10.5 21.5t13.5 18.5t21 23.5t22.5 26q-27 6 -49 28t-22 48q0 15 14.5 39t57.5 85q-59 46 -59 120q0 69 50.5 114t128.5 45
q42 0 84 -15h166l-4 -42h-108v-4q41 -36 41 -94q0 -72 -52 -116t-132 -44q-50 0 -86 18q-22 -47 -22 -75q0 -25 20 -35.5t65 -10.5h107zM142 326q0 -114 89 -114q100 0 100 118q0 114 -95 114q-46 0 -70 -30.5t-24 -87.5zM233 -189q79 0 135.5 33t56.5 89q0 28 -14.5 41
t-51.5 18q-45 7 -211 7q-29 -43 -29 -93q0 -43 29.5 -69t84.5 -26z" />
    <glyph glyph-name="uni0122" unicode="&#x122;" horiz-adv-x="764" 
d="M430 -12q-170 0 -272.5 90t-103.5 260q0 112 54.5 194t139.5 121t185 39q68 0 130.5 -16.5t94.5 -39.5l8 -85h-10q-87 85 -224 85q-120 0 -199.5 -77t-79.5 -222q0 -141 81.5 -216.5t202.5 -75.5q90 0 152 30v260h88v-275q-37 -31 -107 -51.5t-140 -20.5zM454 -70
q-10 -65 -53 -145h-43q17 68 21 145h75z" />
    <glyph glyph-name="uni0123" unicode="&#x123;" horiz-adv-x="508" 
d="M200 589q9 59 53 141h43q-17 -69 -21 -141h-75zM315 67q106 0 148.5 -22t42.5 -89q0 -78 -82 -135.5t-192 -57.5q-90 0 -138.5 33.5t-48.5 99.5q0 11 2.5 20.5t10.5 21.5t13.5 18.5t21 23.5t22.5 26q-27 6 -49 28t-22 48q0 15 14.5 39t57.5 85q-59 46 -59 120
q0 69 50.5 114t128.5 45q42 0 84 -15h166l-4 -42h-108v-4q41 -36 41 -94q0 -72 -52 -116t-132 -44q-50 0 -86 18q-22 -47 -22 -75q0 -25 20 -35.5t65 -10.5h107zM142 326q0 -114 89 -114q100 0 100 118q0 114 -95 114q-46 0 -70 -30.5t-24 -87.5zM233 -189q79 0 135.5 33
t56.5 89q0 28 -14.5 41t-51.5 18q-45 7 -211 7q-29 -43 -29 -93q0 -43 29.5 -69t84.5 -26z" />
    <glyph glyph-name="Hcircumflex" unicode="&#x124;" horiz-adv-x="754" 
d="M411 885l110 -129h-51l-95 81l-93 -81h-50l110 129h69zM186 680v-294h382v294h90v-680h-90v331h-382v-331h-90v680h90z" />
    <glyph glyph-name="hcircumflex" unicode="&#x125;" horiz-adv-x="563" 
d="M163 885l110 -129h-51l-95 81l-93 -81h-50l110 129h69zM399 0v303q0 124 -88 124q-67 0 -106 -53t-39 -131v-243h-83v708l83 10v-343h3q23 48 65 79t100 31q69 0 108.5 -38t39.5 -137v-310h-83z" />
    <glyph glyph-name="Hbar" unicode="&#x126;" horiz-adv-x="762" 
d="M732 564v-53h-70v-511h-90v331h-382v-331h-90v511h-70v53h70v116h90v-116h382v116h90v-116h70zM572 386v125h-382v-125h382z" />
    <glyph glyph-name="hbar" unicode="&#x127;" horiz-adv-x="565" 
d="M336 485q69 0 108.5 -38t39.5 -137v-310h-83v303q0 124 -88 124q-67 0 -106 -53t-39 -131v-243h-83v561h-58v46h58v101l83 10v-111h157v-46h-157v-186h3q23 48 65 79t100 31z" />
    <glyph glyph-name="Itilde" unicode="&#x128;" horiz-adv-x="282" 
d="M150 853q43 -24 61 -24q20 0 32 10t18 35h34q-8 -46 -30 -72.5t-55 -26.5q-38 0 -72 21q-41 25 -65 25q-40 0 -50 -47h-36q4 41 27.5 71t59.5 30t76 -22zM186 680v-680h-90v680h90z" />
    <glyph glyph-name="itilde" unicode="&#x129;" horiz-adv-x="255" 
d="M138 673q43 -24 61 -24q20 0 32 10t18 35h34q-8 -46 -30 -72.5t-55 -26.5q-38 0 -72 21q-41 25 -65 25q-40 0 -50 -47h-36q4 41 27.5 71t59.5 30t76 -22zM169 475v-475h-83v475h83z" />
    <glyph glyph-name="Imacron" unicode="&#x12a;" horiz-adv-x="282" 
d="M296 848v-47h-311v47h311zM186 680v-680h-90v680h90z" />
    <glyph glyph-name="imacron" unicode="&#x12b;" horiz-adv-x="255" 
d="M284 668v-47h-311v47h311zM169 475v-475h-83v475h83z" />
    <glyph glyph-name="Ibreve" unicode="&#x12c;" horiz-adv-x="282" 
d="M42 882q4 -36 31.5 -56t66.5 -20q40 0 67.5 20t33.5 56h39q-6 -58 -43 -92t-97 -34q-62 0 -99 34.5t-40 91.5h41zM186 680v-680h-90v680h90z" />
    <glyph glyph-name="ibreve" unicode="&#x12d;" horiz-adv-x="255" 
d="M30 704q4 -37 31 -57.5t67 -20.5t67.5 20.5t33.5 57.5h39q-6 -59 -43 -93.5t-97 -34.5q-62 0 -99 34.5t-40 93.5h41zM169 475v-475h-83v475h83z" />
    <glyph glyph-name="Iogonek" unicode="&#x12e;" horiz-adv-x="282" 
d="M39 -116q0 53 100 116h-43v680h90v-680q-46 -42 -63.5 -64t-17.5 -43q0 -36 43 -36q28 0 55 12h7l-14 -35q-33 -18 -72 -18q-36 0 -60.5 16.5t-24.5 51.5z" />
    <glyph glyph-name="iogonek" unicode="&#x12f;" horiz-adv-x="255" 
d="M84 598v93h89v-93h-89zM25 -116q0 28 21 54.5t75 61.5h-35v475h83v-475q-46 -40 -62 -62.5t-16 -44.5q0 -36 43 -36q28 0 55 12h7l-14 -35q-33 -18 -72 -18q-36 0 -60.5 16.5t-24.5 51.5z" />
    <glyph glyph-name="Idotaccent" unicode="&#x130;" horiz-adv-x="282" 
d="M185 871v-93h-89v93h89zM186 680v-680h-90v680h90z" />
    <glyph glyph-name="dotlessi" unicode="&#x131;" horiz-adv-x="255" 
d="M169 475v-475h-83v475h83z" />
    <glyph glyph-name="IJ" unicode="&#x132;" horiz-adv-x="565" 
d="M186 680v-680h-90v680h90zM477 680v-539q0 -133 -44.5 -194.5t-143.5 -97.5l-49 16v5q92 38 119.5 96t27.5 199v515h90z" />
    <glyph glyph-name="ij" unicode="&#x133;" horiz-adv-x="510" 
d="M172 691v-93h-89v93h89zM427 691v-93h-89v93h89zM169 475v-475h-83v475h83zM424 475v-442q0 -119 -43 -177.5t-139 -86.5l-44 16v6q86 34 114.5 86.5t28.5 167.5v430h83z" />
    <glyph glyph-name="Jcircumflex" unicode="&#x134;" horiz-adv-x="283" 
d="M176 885l110 -129h-51l-95 81l-93 -81h-50l110 129h69zM195 680v-539q0 -133 -44.5 -194.5t-143.5 -97.5l-49 16v5q92 38 119.5 96t27.5 199v515h90z" />
    <glyph glyph-name="jcircumflex" unicode="&#x135;" horiz-adv-x="255" 
d="M162 712l110 -141h-51l-96 92l-94 -92h-48l110 141h69zM169 475v-442q0 -119 -43 -177.5t-139 -86.5l-44 16v6q86 34 114.5 86.5t28.5 167.5v430h83z" />
    <glyph glyph-name="uni0136" unicode="&#x136;" horiz-adv-x="619" 
d="M186 680v-680h-90v680h90zM195 376q124 115 303 304h89l-300 -287q101 -127 201.5 -236t153.5 -151v-6h-130q-95 96 -317 368v8zM360 -70q-10 -65 -53 -145h-43q17 68 21 145h75z" />
    <glyph glyph-name="uni0137" unicode="&#x137;" horiz-adv-x="495" 
d="M166 718v-718h-83v708zM177 252q94 98 197 223h82l-198 -204q43 -58 124.5 -151t110.5 -115v-5h-119q-56 65 -197 246v6zM290 -70q-10 -65 -53 -145h-43q17 68 21 145h75z" />
    <glyph glyph-name="kgreenlandic" unicode="&#x138;" horiz-adv-x="495" 
d="M166 475v-475h-83v475h83zM177 252q94 98 197 223h82l-198 -204q43 -58 124.5 -151t110.5 -115v-5h-119q-56 65 -197 246v6z" />
    <glyph glyph-name="Lacute" unicode="&#x139;" horiz-adv-x="435" 
d="M312 885l-149 -129h-51l107 129h93zM284 53q100 0 139 10h6l-31 -63h-302v680h90v-627h98z" />
    <glyph glyph-name="lacute" unicode="&#x13a;" horiz-adv-x="249" 
d="M283 885l-149 -129h-51l107 129h93zM83 0v708l83 10v-718h-83z" />
    <glyph glyph-name="uni013B" unicode="&#x13b;" horiz-adv-x="435" 
d="M284 53q100 0 139 10h6l-31 -63h-302v680h90v-627h98zM280 -70q-10 -65 -53 -145h-43q17 68 21 145h75z" />
    <glyph glyph-name="uni013C" unicode="&#x13c;" horiz-adv-x="249" 
d="M83 0v708l83 10v-718h-83zM167 -70q-10 -65 -53 -145h-43q17 68 21 145h75z" />
    <glyph glyph-name="Lcaron" unicode="&#x13d;" horiz-adv-x="435" 
d="M349 718q-15 -101 -59 -183h-39q24 88 24 183h74zM284 53q100 0 139 10h6l-31 -63h-302v680h90v-627h98z" />
    <glyph glyph-name="lcaron" unicode="&#x13e;" horiz-adv-x="249" 
d="M83 0v708l83 10v-718h-83zM324 718q-15 -101 -59 -183h-39q24 88 24 183h74z" />
    <glyph glyph-name="Ldot" unicode="&#x13f;" horiz-adv-x="435" 
d="M284 53q100 0 139 10h6l-31 -63h-302v680h90v-627h98zM403 385v-93h-89v93h89z" />
    <glyph glyph-name="ldot" unicode="&#x140;" horiz-adv-x="338" 
d="M83 0v708l83 10v-718h-83zM338 385v-93h-89v93h89z" />
    <glyph glyph-name="Lslash" unicode="&#x141;" horiz-adv-x="439" 
d="M427 63h6l-31 -63h-302v296l-74 -42v56l74 42v328h90v-281l129 74v-56l-129 -74v-290h98q100 0 139 10z" />
    <glyph glyph-name="lslash" unicode="&#x142;" horiz-adv-x="265" 
d="M256 484v-54l-82 -49v-381h-83v334l-82 -48v54l82 48v320l83 10v-283z" />
    <glyph glyph-name="Nacute" unicode="&#x143;" horiz-adv-x="759" 
d="M524 885l-149 -129h-51l107 129h93zM604 163v517h59v-685h-31l-472 553h-5v-548h-59v680h68l437 -517h3z" />
    <glyph glyph-name="nacute" unicode="&#x144;" horiz-adv-x="563" 
d="M417 712l-139 -141h-51l102 141h88zM399 0v303q0 124 -88 124q-68 0 -106.5 -52.5t-38.5 -131.5v-243h-83v475h77l5 -100h3q23 48 65.5 79t100.5 31q67 0 107.5 -41t40.5 -134v-310h-83z" />
    <glyph glyph-name="uni0145" unicode="&#x145;" horiz-adv-x="759" 
d="M604 163v517h59v-685h-31l-472 553h-5v-548h-59v680h68l437 -517h3zM422 -70q-10 -65 -53 -145h-43q17 68 21 145h75z" />
    <glyph glyph-name="uni0146" unicode="&#x146;" horiz-adv-x="563" 
d="M399 0v303q0 124 -88 124q-68 0 -106.5 -52.5t-38.5 -131.5v-243h-83v475h77l5 -100h3q23 48 65.5 79t100.5 31q67 0 107.5 -41t40.5 -134v-310h-83zM324 -70q-10 -65 -53 -145h-43q17 68 21 145h75z" />
    <glyph glyph-name="Ncaron" unicode="&#x147;" horiz-adv-x="759" 
d="M345 756l-110 129h52l95 -81l93 81h49l-110 -129h-69zM604 163v517h59v-685h-31l-472 553h-5v-548h-59v680h68l437 -517h3z" />
    <glyph glyph-name="ncaron" unicode="&#x148;" horiz-adv-x="563" 
d="M247 571l-110 141h51l96 -92l94 92h48l-110 -141h-69zM399 0v303q0 124 -88 124q-68 0 -106.5 -52.5t-38.5 -131.5v-243h-83v475h77l5 -100h3q23 48 65.5 79t100.5 31q67 0 107.5 -41t40.5 -134v-310h-83z" />
    <glyph glyph-name="napostrophe" unicode="&#x149;" horiz-adv-x="563" 
d="M98 718q-15 -101 -59 -183h-39q24 88 24 183h74zM399 0v303q0 124 -88 124q-68 0 -106.5 -52.5t-38.5 -131.5v-243h-83v475h77l5 -100h3q23 48 65.5 79t100.5 31q67 0 107.5 -41t40.5 -134v-310h-83z" />
    <glyph glyph-name="Eng" unicode="&#x14a;" horiz-adv-x="759" 
d="M96 0v680h68l437 -517h3v517h59v-647q0 -119 -43 -177.5t-139 -86.5l-44 16v6q85 33 122 87.5t41 154.5l-440 515h-5v-548h-59z" />
    <glyph glyph-name="eng" unicode="&#x14b;" horiz-adv-x="563" 
d="M83 0v475h77l5 -100h3q23 48 65.5 79t100.5 31q67 0 107.5 -41t40.5 -134v-277q0 -119 -43 -177.5t-139 -86.5l-44 16v6q86 34 114.5 86.5t28.5 167.5v258q0 124 -88 124q-68 0 -106.5 -52.5t-38.5 -131.5v-243h-83z" />
    <glyph glyph-name="Omacron" unicode="&#x14c;" horiz-adv-x="833" 
d="M572 848v-47h-311v47h311zM412 692q70 0 134 -21t117 -62.5t84.5 -111t31.5 -157.5q0 -85 -31 -153.5t-82.5 -111t-114.5 -65t-129 -22.5q-70 0 -134.5 21t-117.5 62.5t-84.5 111t-31.5 157.5q0 85 31 153.5t83 111t114.5 65t129.5 22.5zM422 42q115 0 187.5 80.5
t72.5 217.5q0 132 -75.5 215t-194.5 83q-115 0 -188 -80.5t-73 -217.5q0 -132 76 -215t195 -83z" />
    <glyph glyph-name="omacron" unicode="&#x14d;" horiz-adv-x="592" 
d="M451 668v-47h-311v47h311zM297 485q91 0 163 -63t72 -180q0 -119 -72 -185.5t-163 -66.5q-43 0 -84 16t-76 45.5t-56 79.5t-21 111q0 117 72 180t165 63zM297 39q65 0 106 53.5t41 149.5q0 94 -41 144.5t-106 50.5q-66 0 -107.5 -50.5t-41.5 -144.5q0 -96 41.5 -149.5
t107.5 -53.5z" />
    <glyph glyph-name="Obreve" unicode="&#x14e;" horiz-adv-x="833" 
d="M318 882q4 -36 31.5 -56t66.5 -20q40 0 67.5 20t33.5 56h39q-6 -58 -43 -92t-97 -34q-62 0 -99 34.5t-40 91.5h41zM412 692q70 0 134 -21t117 -62.5t84.5 -111t31.5 -157.5q0 -85 -31 -153.5t-82.5 -111t-114.5 -65t-129 -22.5q-70 0 -134.5 21t-117.5 62.5t-84.5 111
t-31.5 157.5q0 85 31 153.5t83 111t114.5 65t129.5 22.5zM422 42q115 0 187.5 80.5t72.5 217.5q0 132 -75.5 215t-194.5 83q-115 0 -188 -80.5t-73 -217.5q0 -132 76 -215t195 -83z" />
    <glyph glyph-name="obreve" unicode="&#x14f;" horiz-adv-x="592" 
d="M197 704q4 -37 31 -57.5t67 -20.5t67.5 20.5t33.5 57.5h39q-6 -59 -43 -93.5t-97 -34.5q-62 0 -99 34.5t-40 93.5h41zM297 485q91 0 163 -63t72 -180q0 -119 -72 -185.5t-163 -66.5q-43 0 -84 16t-76 45.5t-56 79.5t-21 111q0 117 72 180t165 63zM297 39q65 0 106 53.5
t41 149.5q0 94 -41 144.5t-106 50.5q-66 0 -107.5 -50.5t-41.5 -144.5q0 -96 41.5 -149.5t107.5 -53.5z" />
    <glyph glyph-name="Ohungarumlaut" unicode="&#x150;" horiz-adv-x="833" 
d="M486 885l-137 -129h-50l100 129h87zM639 885l-137 -129h-50l100 129h87zM412 692q70 0 134 -21t117 -62.5t84.5 -111t31.5 -157.5q0 -85 -31 -153.5t-82.5 -111t-114.5 -65t-129 -22.5q-70 0 -134.5 21t-117.5 62.5t-84.5 111t-31.5 157.5q0 85 31 153.5t83 111t114.5 65
t129.5 22.5zM422 42q115 0 187.5 80.5t72.5 217.5q0 132 -75.5 215t-194.5 83q-115 0 -188 -80.5t-73 -217.5q0 -132 76 -215t195 -83z" />
    <glyph glyph-name="ohungarumlaut" unicode="&#x151;" horiz-adv-x="592" 
d="M364 712l-131 -141h-50l97 141h84zM517 712l-131 -141h-50l97 141h84zM297 485q91 0 163 -63t72 -180q0 -119 -72 -185.5t-163 -66.5q-43 0 -84 16t-76 45.5t-56 79.5t-21 111q0 117 72 180t165 63zM297 39q65 0 106 53.5t41 149.5q0 94 -41 144.5t-106 50.5
q-66 0 -107.5 -50.5t-41.5 -144.5q0 -96 41.5 -149.5t107.5 -53.5z" />
    <glyph glyph-name="OE" unicode="&#x152;" horiz-adv-x="956" 
d="M54 340q0 85 31 152.5t83 108.5t117 62.5t137 21.5q28 0 88.5 -2.5t73.5 -2.5h298v-53h-240v-254h216v-53h-216v-267h141q100 0 139 10h6l-31 -63h-313q-17 0 -74 -2.5t-78 -2.5q-76 0 -142 20t-120 60t-85 108t-31 157zM151 340q0 -132 76 -211.5t205 -79.5q32 0 120 4
v574q-18 0 -61 2t-69 2q-125 0 -198 -76.5t-73 -214.5z" />
    <glyph glyph-name="oe" unicode="&#x153;" horiz-adv-x="916" 
d="M60 242q0 117 72 180t165 63q60 0 111 -28t80 -81h2q23 51 70 80t106 29q95 0 144.5 -53.5t49.5 -143.5v-35h-330q2 -97 47 -152.5t126 -55.5q89 0 141 61h11l-13 -68q-24 -21 -65 -34.5t-87 -13.5q-73 0 -126.5 29t-77.5 83h-1q-27 -55 -79 -83.5t-109 -28.5
q-43 0 -84 16t-76 45.5t-56 79.5t-21 111zM531 300h244v11q0 65 -29.5 97.5t-79.5 32.5q-51 0 -89.5 -38t-45.5 -103zM148 242q0 -96 41.5 -149.5t107.5 -53.5q65 0 106 53.5t41 149.5q0 94 -41 144.5t-106 50.5q-66 0 -107.5 -50.5t-41.5 -144.5z" />
    <glyph glyph-name="Racute" unicode="&#x154;" horiz-adv-x="602" 
d="M445 885l-149 -129h-51l107 129h93zM263 680q239 0 239 -177q0 -66 -45 -111.5t-122 -66.5v-4q65 -80 148.5 -170t148.5 -146v-5h-127q-123 125 -264 306h-55v-306h-90v680h167zM269 353q66 4 103 45.5t37 102.5q0 74 -40 100t-118 26h-65v-274h83z" />
    <glyph glyph-name="racute" unicode="&#x155;" horiz-adv-x="339" 
d="M321 712l-139 -141h-51l102 141h88zM160 475l4 -121h3q16 66 59 100.5t98 35.5l-7 -69q-71 -4 -111 -54t-40 -130v-237h-83v475h77z" />
    <glyph glyph-name="uni0156" unicode="&#x156;" horiz-adv-x="602" 
d="M263 680q239 0 239 -177q0 -66 -45 -111.5t-122 -66.5v-4q65 -80 148.5 -170t148.5 -146v-5h-127q-123 125 -264 306h-55v-306h-90v680h167zM269 353q66 4 103 45.5t37 102.5q0 74 -40 100t-118 26h-65v-274h83zM343 -70q-10 -65 -53 -145h-43q17 68 21 145h75z" />
    <glyph glyph-name="uni0157" unicode="&#x157;" horiz-adv-x="339" 
d="M160 475l4 -121h3q16 66 59 100.5t98 35.5l-7 -69q-71 -4 -111 -54t-40 -130v-237h-83v475h77zM164 -70q-10 -65 -53 -145h-43q17 68 21 145h75z" />
    <glyph glyph-name="Rcaron" unicode="&#x158;" horiz-adv-x="602" 
d="M266 756l-110 129h52l95 -81l93 81h49l-110 -129h-69zM263 680q239 0 239 -177q0 -66 -45 -111.5t-122 -66.5v-4q65 -80 148.5 -170t148.5 -146v-5h-127q-123 125 -264 306h-55v-306h-90v680h167zM269 353q66 4 103 45.5t37 102.5q0 74 -40 100t-118 26h-65v-274h83z" />
    <glyph glyph-name="rcaron" unicode="&#x159;" horiz-adv-x="339" 
d="M151 571l-110 141h51l96 -92l94 92h48l-110 -141h-69zM160 475l4 -121h3q16 66 59 100.5t98 35.5l-7 -69q-71 -4 -111 -54t-40 -130v-237h-83v475h77z" />
    <glyph glyph-name="Sacute" unicode="&#x15a;" horiz-adv-x="510" 
d="M415 885l-149 -129h-51l107 129h93zM415 583q-51 59 -130 59q-47 0 -80.5 -24.5t-33.5 -72.5q0 -39 26 -69t91 -74q38 -26 55.5 -38t43 -32.5t36 -35t23 -35t16.5 -42.5t4 -50q0 -85 -63 -133t-151 -48q-59 0 -109.5 23.5t-83.5 58.5l-13 92h11q92 -117 202 -117
q53 0 87 29.5t34 81.5q0 49 -26 78.5t-98 80.5q-13 9 -20 14q-84 60 -115.5 98t-31.5 100q0 81 60 123t136 42q84 0 131 -34l9 -75h-10z" />
    <glyph glyph-name="sacute" unicode="&#x15b;" horiz-adv-x="401" 
d="M336 712l-139 -141h-51l102 141h88zM325 399q-42 42 -108 42q-29 0 -53 -17t-24 -48q0 -28 16 -45.5t69 -47.5q66 -37 97 -70t31 -85q0 -64 -46 -101t-116 -37q-86 0 -143 51l-12 75h11q60 -76 144 -76q39 0 62.5 19t23.5 55q0 35 -25 58t-89 57q-55 30 -76.5 59
t-21.5 76q0 57 46 89t103 32q64 0 109 -25l10 -61h-8z" />
    <glyph glyph-name="Scircumflex" unicode="&#x15c;" horiz-adv-x="510" 
d="M305 885l110 -129h-51l-95 81l-93 -81h-50l110 129h69zM415 583q-51 59 -130 59q-47 0 -80.5 -24.5t-33.5 -72.5q0 -39 26 -69t91 -74q38 -26 55.5 -38t43 -32.5t36 -35t23 -35t16.5 -42.5t4 -50q0 -85 -63 -133t-151 -48q-59 0 -109.5 23.5t-83.5 58.5l-13 92h11
q92 -117 202 -117q53 0 87 29.5t34 81.5q0 49 -26 78.5t-98 80.5q-13 9 -20 14q-84 60 -115.5 98t-31.5 100q0 81 60 123t136 42q84 0 131 -34l9 -75h-10z" />
    <glyph glyph-name="scircumflex" unicode="&#x15d;" horiz-adv-x="401" 
d="M235 712l110 -141h-51l-96 92l-94 -92h-48l110 141h69zM325 399q-42 42 -108 42q-29 0 -53 -17t-24 -48q0 -28 16 -45.5t69 -47.5q66 -37 97 -70t31 -85q0 -64 -46 -101t-116 -37q-86 0 -143 51l-12 75h11q60 -76 144 -76q39 0 62.5 19t23.5 55q0 35 -25 58t-89 57
q-55 30 -76.5 59t-21.5 76q0 57 46 89t103 32q64 0 109 -25l10 -61h-8z" />
    <glyph glyph-name="Scedilla" unicode="&#x15e;" horiz-adv-x="510" 
d="M46 162h11q92 -117 202 -117q53 0 87 29.5t34 81.5q0 49 -26 78.5t-98 80.5q-13 9 -20 14q-84 60 -115.5 98t-31.5 100q0 81 60 123t136 42q84 0 131 -34l9 -75h-10q-51 59 -130 59q-47 0 -80.5 -24.5t-33.5 -72.5q0 -39 26 -69t91 -74q38 -26 55.5 -38t43 -32.5t36 -35
t23 -35t16.5 -42.5t4 -50q0 -79 -54.5 -126.5t-135.5 -53.5l-17 -36l11 -3q70 -19 70 -73q0 -49 -45 -71.5t-110 -22.5l-15 31l4 3q102 0 102 51q0 38 -69 50l-1 6l34 64q-108 5 -181 82z" />
    <glyph glyph-name="scedilla" unicode="&#x15f;" horiz-adv-x="401" 
d="M36 116h11q60 -76 144 -76q39 0 62.5 19t23.5 55q0 35 -25 58t-89 57q-55 30 -76.5 59t-21.5 76q0 57 46 89t103 32q64 0 109 -25l10 -61h-8q-42 42 -108 42q-29 0 -53 -17t-24 -48q0 -28 16 -45.5t69 -47.5q66 -37 97 -70t31 -85q0 -57 -36.5 -92.5t-95.5 -43.5l-18 -39
l11 -3q70 -19 70 -73q0 -49 -45 -71.5t-110 -22.5l-15 31l4 3q102 0 102 51q0 38 -69 50l-1 6l35 66q-83 3 -137 51z" />
    <glyph glyph-name="Scaron" unicode="&#x160;" horiz-adv-x="510" 
d="M236 756l-110 129h52l95 -81l93 81h49l-110 -129h-69zM415 583q-51 59 -130 59q-47 0 -80.5 -24.5t-33.5 -72.5q0 -39 26 -69t91 -74q38 -26 55.5 -38t43 -32.5t36 -35t23 -35t16.5 -42.5t4 -50q0 -85 -63 -133t-151 -48q-59 0 -109.5 23.5t-83.5 58.5l-13 92h11
q92 -117 202 -117q53 0 87 29.5t34 81.5q0 49 -26 78.5t-98 80.5q-13 9 -20 14q-84 60 -115.5 98t-31.5 100q0 81 60 123t136 42q84 0 131 -34l9 -75h-10z" />
    <glyph glyph-name="scaron" unicode="&#x161;" horiz-adv-x="401" 
d="M166 571l-110 141h51l96 -92l94 92h48l-110 -141h-69zM325 399q-42 42 -108 42q-29 0 -53 -17t-24 -48q0 -28 16 -45.5t69 -47.5q66 -37 97 -70t31 -85q0 -64 -46 -101t-116 -37q-86 0 -143 51l-12 75h11q60 -76 144 -76q39 0 62.5 19t23.5 55q0 35 -25 58t-89 57
q-55 30 -76.5 59t-21.5 76q0 57 46 89t103 32q64 0 109 -25l10 -61h-8z" />
    <glyph glyph-name="uni0162" unicode="&#x162;" horiz-adv-x="500" 
d="M14 627v53h472v-53h-191v-627h-19l-22 -47l11 -3q70 -19 70 -73q0 -49 -45 -71.5t-110 -22.5l-15 31l4 3q102 0 102 51q0 38 -69 50l-1 6l40 76h-36v627h-191z" />
    <glyph glyph-name="uni0163" unicode="&#x163;" horiz-adv-x="324" 
d="M23 431v44h72v127l83 10v-137h128l-5 -44h-123v-309q0 -81 52 -81q35 0 74 24l-3 -41q-43 -32 -92 -32h-9l-18 -39l11 -3q70 -19 70 -73q0 -49 -45 -71.5t-110 -22.5l-15 31l4 3q102 0 102 51q0 38 -69 50l-1 6l38 72q-72 17 -72 116v319h-72z" />
    <glyph glyph-name="Tcaron" unicode="&#x164;" horiz-adv-x="500" 
d="M215 756l-110 129h52l95 -81l93 81h49l-110 -129h-69zM14 627v53h472v-53h-191v-627h-90v627h-191z" />
    <glyph glyph-name="tcaron" unicode="&#x165;" horiz-adv-x="324" 
d="M336 718q-15 -101 -59 -183h-39q24 88 24 183h74zM178 122q0 -81 52 -81q35 0 74 24l-3 -41q-43 -32 -92 -32q-58 0 -86 27.5t-28 92.5v319h-72v44h72v127l83 10v-137h128l-5 -44h-123v-309z" />
    <glyph glyph-name="Tbar" unicode="&#x166;" horiz-adv-x="500" 
d="M486 627h-191v-254h112v-53h-112v-320h-90v320h-111v53h111v254h-191v53h472v-53z" />
    <glyph glyph-name="tbar" unicode="&#x167;" horiz-adv-x="324" 
d="M178 122q0 -81 52 -81q35 0 74 24l-3 -41q-43 -32 -92 -32q-58 0 -86 27.5t-28 92.5v162h-72v42h72v115h-72v44h72v127l83 10v-137h128l-5 -44h-123v-115h104v-42h-104v-152z" />
    <glyph glyph-name="Utilde" unicode="&#x168;" horiz-adv-x="731" 
d="M378 853q43 -24 61 -24q20 0 32 10t18 35h34q-8 -46 -30 -72.5t-55 -26.5q-38 0 -72 21q-41 25 -65 25q-40 0 -50 -47h-36q4 41 27.5 71t59.5 30t76 -22zM373 -12q-132 0 -208 67.5t-76 183.5v441h90v-427q0 -102 51.5 -155t143.5 -53q98 0 152.5 53t54.5 155v427h61
v-441q0 -115 -73 -183t-196 -68z" />
    <glyph glyph-name="utilde" unicode="&#x169;" horiz-adv-x="560" 
d="M289 673q43 -24 61 -24q20 0 32 10t18 35h34q-8 -46 -30 -72.5t-55 -26.5q-37 0 -72 21q-41 25 -65 25q-40 0 -50 -47h-36q4 41 27.5 71t59.5 30t76 -22zM164 475v-303q0 -124 88 -124q66 0 104 53t38 131v243h83v-475h-77l-5 100h-3q-54 -110 -163 -110q-67 0 -107.5 41
t-40.5 134v310h83z" />
    <glyph glyph-name="Umacron" unicode="&#x16a;" horiz-adv-x="731" 
d="M524 848v-47h-311v47h311zM373 -12q-132 0 -208 67.5t-76 183.5v441h90v-427q0 -102 51.5 -155t143.5 -53q98 0 152.5 53t54.5 155v427h61v-441q0 -115 -73 -183t-196 -68z" />
    <glyph glyph-name="umacron" unicode="&#x16b;" horiz-adv-x="560" 
d="M435 668v-47h-311v47h311zM164 475v-303q0 -124 88 -124q66 0 104 53t38 131v243h83v-475h-77l-5 100h-3q-54 -110 -163 -110q-67 0 -107.5 41t-40.5 134v310h83z" />
    <glyph glyph-name="Ubreve" unicode="&#x16c;" horiz-adv-x="731" 
d="M270 882q4 -36 31.5 -56t66.5 -20q40 0 67.5 20t33.5 56h39q-6 -58 -43 -92t-97 -34q-62 0 -99 34.5t-40 91.5h41zM373 -12q-132 0 -208 67.5t-76 183.5v441h90v-427q0 -102 51.5 -155t143.5 -53q98 0 152.5 53t54.5 155v427h61v-441q0 -115 -73 -183t-196 -68z" />
    <glyph glyph-name="ubreve" unicode="&#x16d;" horiz-adv-x="560" 
d="M181 704q4 -37 31 -57.5t67 -20.5t67.5 20.5t33.5 57.5h39q-6 -59 -43 -93.5t-97 -34.5q-62 0 -99 34.5t-40 93.5h41zM164 475v-303q0 -124 88 -124q66 0 104 53t38 131v243h83v-475h-77l-5 100h-3q-54 -110 -163 -110q-67 0 -107.5 41t-40.5 134v310h83z" />
    <glyph glyph-name="Uring" unicode="&#x16e;" horiz-adv-x="731" 
d="M369 724q-46 0 -76.5 30.5t-30.5 73.5q0 44 31 74t76 30t76 -30t31 -74t-31 -74t-76 -30zM369 757q30 0 49 20.5t19 50.5q0 29 -18.5 50t-50.5 21q-29 0 -48 -20t-19 -51q0 -30 18.5 -50.5t49.5 -20.5zM373 -12q-132 0 -208 67.5t-76 183.5v441h90v-427q0 -102 51.5 -155
t143.5 -53q98 0 152.5 53t54.5 155v427h61v-441q0 -115 -73 -183t-196 -68z" />
    <glyph glyph-name="uring" unicode="&#x16f;" horiz-adv-x="560" 
d="M280 544q-46 0 -76.5 30.5t-30.5 73.5q0 44 31 74t76 30t76 -30t31 -74t-31 -74t-76 -30zM280 577q30 0 49 20.5t19 50.5q0 29 -18.5 50t-50.5 21q-29 0 -48 -20t-19 -51q0 -30 18.5 -50.5t49.5 -20.5zM164 475v-303q0 -124 88 -124q66 0 104 53t38 131v243h83v-475h-77
l-5 100h-3q-54 -110 -163 -110q-67 0 -107.5 41t-40.5 134v310h83z" />
    <glyph glyph-name="Uhungarumlaut" unicode="&#x170;" horiz-adv-x="731" 
d="M438 885l-137 -129h-50l100 129h87zM591 885l-137 -129h-50l100 129h87zM373 -12q-132 0 -208 67.5t-76 183.5v441h90v-427q0 -102 51.5 -155t143.5 -53q98 0 152.5 53t54.5 155v427h61v-441q0 -115 -73 -183t-196 -68z" />
    <glyph glyph-name="uhungarumlaut" unicode="&#x171;" horiz-adv-x="560" 
d="M348 712l-131 -141h-50l97 141h84zM501 712l-131 -141h-50l97 141h84zM164 475v-303q0 -124 88 -124q66 0 104 53t38 131v243h83v-475h-77l-5 100h-3q-54 -110 -163 -110q-67 0 -107.5 41t-40.5 134v310h83z" />
    <glyph glyph-name="Uogonek" unicode="&#x172;" horiz-adv-x="731" 
d="M89 239v441h90v-427q0 -102 51.5 -155t143.5 -53q98 0 152.5 53t54.5 155v427h61v-441q0 -171 -162 -234q-54 -21 -85 -54t-31 -59q0 -35 43 -35q28 0 55 12h7l-13 -33q-33 -20 -73 -20q-36 0 -60.5 16.5t-24.5 51.5q0 57 89 104h-14q-132 0 -208 67.5t-76 183.5z" />
    <glyph glyph-name="uogonek" unicode="&#x173;" horiz-adv-x="560" 
d="M81 165v310h83v-303q0 -124 88 -124q66 0 104 53t38 131v243h83v-475q-101 -65 -101 -107q0 -36 43 -36q28 0 55 12h7l-14 -35q-33 -18 -72 -18q-36 0 -60.5 16.5t-24.5 51.5q0 60 111 116h-21l-5 100h-3q-54 -110 -163 -110q-67 0 -107.5 41t-40.5 134z" />
    <glyph glyph-name="Wcircumflex" unicode="&#x174;" horiz-adv-x="974" 
d="M536 885l110 -129h-51l-95 81l-93 -81h-50l110 129h69zM488 551h-6l-202 -551h-65l-194 680h93l156 -550h3l198 550h61l203 -553h3l145 553h70l-199 -680h-61z" />
    <glyph glyph-name="wcircumflex" unicode="&#x175;" horiz-adv-x="780" 
d="M429 712l110 -141h-51l-96 92l-94 -92h-48l110 141h69zM756 475l-167 -475h-59l-143 369h-5l-138 -369h-59l-161 475h88l117 -372h3l137 372h56l143 -372h3l117 372h68z" />
    <glyph glyph-name="Ycircumflex" unicode="&#x176;" horiz-adv-x="559" 
d="M319 885l110 -129h-51l-95 81l-93 -81h-50l110 129h69zM0 680h109l196 -301h6l179 301h69l-225 -356v-324h-90v315z" />
    <glyph glyph-name="ycircumflex" unicode="&#x177;" horiz-adv-x="443" 
d="M261 712l110 -141h-51l-96 92l-94 -92h-48l110 141h69zM151 -223h-78q63 111 123 254l-189 444h92l138 -352h3l129 352h67z" />
    <glyph glyph-name="Ydieresis" unicode="&#x178;" horiz-adv-x="559" 
d="M242 869v-87h-81v87h81zM407 869v-87h-81v87h81zM0 680h109l196 -301h6l179 301h69l-225 -356v-324h-90v315z" />
    <glyph glyph-name="Zacute" unicode="&#x179;" horiz-adv-x="684" 
d="M486 885l-149 -129h-51l107 129h93zM97 680h516v-19l-443 -602v-6q270 0 349.5 2.5t140.5 14.5h6l-38 -70h-590v24l441 597v6h-402z" />
    <glyph glyph-name="zacute" unicode="&#x17a;" horiz-adv-x="467" 
d="M369 712l-139 -141h-51l102 141h88zM68 475h353v-18l-281 -405v-5q164 0 222.5 2.5t96.5 11.5h6l-36 -61h-408v18l284 405v6h-256z" />
    <glyph glyph-name="Zdotaccent" unicode="&#x17b;" horiz-adv-x="684" 
d="M386 871v-93h-89v93h89zM97 680h516v-19l-443 -602v-6q270 0 349.5 2.5t140.5 14.5h6l-38 -70h-590v24l441 597v6h-402z" />
    <glyph glyph-name="zdotaccent" unicode="&#x17c;" horiz-adv-x="467" 
d="M278 691v-93h-89v93h89zM68 475h353v-18l-281 -405v-5q164 0 222.5 2.5t96.5 11.5h6l-36 -61h-408v18l284 405v6h-256z" />
    <glyph glyph-name="Zcaron" unicode="&#x17d;" horiz-adv-x="684" 
d="M307 756l-110 129h52l95 -81l93 81h49l-110 -129h-69zM97 680h516v-19l-443 -602v-6q270 0 349.5 2.5t140.5 14.5h6l-38 -70h-590v24l441 597v6h-402z" />
    <glyph glyph-name="zcaron" unicode="&#x17e;" horiz-adv-x="467" 
d="M199 571l-110 141h51l96 -92l94 92h48l-110 -141h-69zM68 475h353v-18l-281 -405v-5q164 0 222.5 2.5t96.5 11.5h6l-36 -61h-408v18l284 405v6h-256z" />
    <glyph glyph-name="longs" unicode="&#x17f;" horiz-adv-x="290" 
d="M271 728q38 0 65 -12l5 -55h-10q-25 16 -59 16q-55 0 -74 -44.5t-19 -148.5v-484h-83v431h-76v44h76v36q0 95 44 156t131 61z" />
    <glyph glyph-name="uni018F" unicode="&#x18f;" horiz-adv-x="747" 
d="M693 338q1 -153 -87 -251.5t-242 -98.5q-141 0 -224 95t-83 242q0 13 2 41h534q-7 131 -75.5 200.5t-182.5 69.5q-134 0 -232 -98h-10l11 80q99 74 233 74q157 0 256 -93.5t100 -260.5zM372 42q95 0 155.5 71t65.5 200h-436v-18q0 -108 60 -180.5t155 -72.5z" />
    <glyph glyph-name="florin" unicode="&#x192;" horiz-adv-x="596" 
d="M536 681l5 -55h-10q-22 15 -50 15q-40 0 -62 -24t-36 -89l-31 -145h96l-4 -44h-101l-74 -352q-25 -118 -70 -167.5t-120 -49.5q-38 0 -64 11l-5 55h10q22 -15 50 -15q40 0 62 24t36 89l85 405h-82v44h92l19 92q25 118 70 167.5t120 49.5q38 0 64 -11z" />
    <glyph glyph-name="Aringacute" unicode="&#x1fa;" horiz-adv-x="658" 
d="M381 644l276 -644h-99l-111 263h-264l-116 -263h-66l294 643q-29 12 -46.5 37.5t-17.5 55.5q0 33 20 59t53 37l75 82h93l-106 -80q34 -9 56.5 -36t22.5 -62q0 -31 -17.5 -56t-46.5 -36zM270 736q0 -28 19 -48t49 -20t49 20t19 48t-18.5 48t-50.5 20q-28 0 -47.5 -19.5
t-19.5 -48.5zM204 315h224l-108 255h-5z" />
    <glyph glyph-name="aringacute" unicode="&#x1fb;" horiz-adv-x="519" 
d="M260 544q-46 0 -76.5 30.5t-30.5 73.5q0 33 18.5 59.5t48.5 37.5l85 117h88l-111 -112q37 -8 61 -36t24 -66q0 -44 -31 -74t-76 -30zM259 719q-29 0 -48 -20t-19 -51q0 -30 18.5 -50.5t49.5 -20.5q30 0 49 20.5t19 50.5q0 29 -18.5 50t-50.5 21zM436 85q0 -46 7 -85h-68
l-16 72q-59 -82 -157 -82q-75 0 -111 37t-36 96q0 99 140 133q98 23 129 33t31 21v12q0 61 -23.5 87.5t-76.5 26.5q-86 0 -148 -60h-10l7 62q61 47 153 47q96 0 137.5 -42t41.5 -122v-236zM355 145v108q-130 -26 -173 -51t-43 -73q0 -38 22 -64t63 -26q47 0 84.5 31.5
t46.5 74.5z" />
    <glyph glyph-name="AEacute" unicode="&#x1fc;" horiz-adv-x="869" 
d="M729 885l-149 -129h-51l107 129h93zM835 63h6l-31 -63h-345v261h-231l-160 -261h-73l426 680h368v-53h-240v-254h216v-53h-216v-267h141q100 0 139 10zM267 315h198v312h-6z" />
    <glyph glyph-name="aeacute" unicode="&#x1fd;" horiz-adv-x="822" 
d="M556 712l-139 -141h-51l102 141h88zM766 288v-35h-331q4 -102 50 -155t124 -53q89 0 141 61h11l-13 -68q-24 -21 -65 -34.5t-87 -13.5q-150 0 -209 108h-2q-56 -108 -175 -108q-78 0 -116.5 35.5t-38.5 96.5q0 101 148 136q135 32 146 41q6 5 6 13v10q0 61 -23.5 87.5
t-76.5 26.5q-86 0 -148 -60h-10l7 62q61 47 153 47q123 0 157 -72h2q58 72 156 72q95 0 144.5 -53.5t49.5 -143.5zM681 298v13q0 65 -29.5 97.5t-79.5 32.5q-49 0 -88.5 -37t-46.5 -106h244zM355 145v105q-129 -25 -172.5 -51t-43.5 -72q0 -38 22 -63t63 -25q47 0 84.5 31.5
t46.5 74.5z" />
    <glyph glyph-name="Oslashacute" unicode="&#x1fe;" horiz-adv-x="833" 
d="M561 885l-149 -129h-51l107 129h93zM676 597q103 -95 103 -257q0 -85 -31 -153.5t-82.5 -111t-114.5 -65t-129 -22.5q-129 0 -224 63l-62 -70l-38 34l59 68q-103 95 -103 257q0 85 31 153.5t83 111t114.5 65t129.5 22.5q129 0 224 -64l60 69l38 -33zM151 340
q0 -115 60 -196l377 429q-71 65 -176 65q-115 0 -188 -80.5t-73 -217.5zM422 42q115 0 187.5 80.5t72.5 217.5q0 115 -60 196l-376 -429q71 -65 176 -65z" />
    <glyph glyph-name="oslashacute" unicode="&#x1ff;" horiz-adv-x="592" 
d="M431 712l-139 -141h-51l102 141h88zM475 406q57 -65 57 -164q0 -119 -72 -185.5t-163 -66.5q-81 0 -145 49l-54 -61l-35 31l55 62q-58 68 -58 171q0 117 72 180t165 63q81 0 144 -47l52 59l35 -31zM148 242q0 -68 21 -113l230 262q-39 46 -102 46q-66 0 -107.5 -50.5
t-41.5 -144.5zM297 39q65 0 106 53.5t41 149.5q0 61 -19 107l-231 -262q39 -48 103 -48z" />
    <glyph glyph-name="uni0218" unicode="&#x218;" horiz-adv-x="510" 
d="M415 583q-51 59 -130 59q-47 0 -80.5 -24.5t-33.5 -72.5q0 -39 26 -69t91 -74q38 -26 55.5 -38t43 -32.5t36 -35t23 -35t16.5 -42.5t4 -50q0 -85 -63 -133t-151 -48q-59 0 -109.5 23.5t-83.5 58.5l-13 92h11q92 -117 202 -117q53 0 87 29.5t34 81.5q0 49 -26 78.5
t-98 80.5q-13 9 -20 14q-84 60 -115.5 98t-31.5 100q0 81 60 123t136 42q84 0 131 -34l9 -75h-10zM297 -70q-10 -65 -53 -145h-43q17 68 21 145h75z" />
    <glyph glyph-name="uni0219" unicode="&#x219;" horiz-adv-x="401" 
d="M325 399q-42 42 -108 42q-29 0 -53 -17t-24 -48q0 -28 16 -45.5t69 -47.5q66 -37 97 -70t31 -85q0 -64 -46 -101t-116 -37q-86 0 -143 51l-12 75h11q60 -76 144 -76q39 0 62.5 19t23.5 55q0 35 -25 58t-89 57q-55 30 -76.5 59t-21.5 76q0 57 46 89t103 32q64 0 109 -25
l10 -61h-8zM241 -70q-10 -65 -53 -145h-43q17 68 21 145h75z" />
    <glyph glyph-name="uni021A" unicode="&#x21a;" horiz-adv-x="500" 
d="M14 627v53h472v-53h-191v-627h-90v627h-191zM292 -70q-10 -65 -53 -145h-43q17 68 21 145h75z" />
    <glyph glyph-name="uni021B" unicode="&#x21b;" horiz-adv-x="324" 
d="M178 122q0 -81 52 -81q35 0 74 24l-3 -41q-43 -32 -92 -32q-58 0 -86 27.5t-28 92.5v319h-72v44h72v127l83 10v-137h128l-5 -44h-123v-309zM208 -70q-10 -65 -53 -145h-43q17 68 21 145h75z" />
    <glyph glyph-name="uni0237" unicode="&#x237;" horiz-adv-x="255" 
d="M169 475v-442q0 -119 -43 -177.5t-139 -86.5l-44 16v6q86 34 114.5 86.5t28.5 167.5v430h83z" />
    <glyph glyph-name="uni0259" unicode="&#x259;" horiz-adv-x="536" 
d="M239 485q113 0 175 -65t62 -181q0 -114 -60.5 -181.5t-162.5 -67.5q-90 0 -142.5 61.5t-52.5 163.5q0 12 2 36h331q-4 86 -48.5 134t-114.5 48q-88 0 -144 -65h-11l13 68q61 49 153 49zM259 34q52 0 88 44t43 126h-243q-1 -8 -1 -22q0 -68 30 -108t83 -40z" />
    <glyph glyph-name="circumflex" unicode="&#x2c6;" horiz-adv-x="200" 
d="M138 712l110 -141h-51l-96 92l-94 -92h-48l110 141h69z" />
    <glyph glyph-name="caron" unicode="&#x2c7;" horiz-adv-x="200" 
d="M66 571l-110 141h51l96 -92l94 92h48l-110 -141h-69z" />
    <glyph glyph-name="uni02C9" unicode="&#x2c9;" horiz-adv-x="200" 
d="M256 668v-47h-311v47h311z" />
    <glyph glyph-name="breve" unicode="&#x2d8;" horiz-adv-x="200" 
d="M2 704q4 -37 31 -57.5t67 -20.5t67.5 20.5t33.5 57.5h39q-6 -59 -43 -93.5t-97 -34.5q-62 0 -99 34.5t-40 93.5h41z" />
    <glyph glyph-name="dotaccent" unicode="&#x2d9;" horiz-adv-x="200" 
d="M145 691v-93h-89v93h89z" />
    <glyph glyph-name="ring" unicode="&#x2da;" horiz-adv-x="200" 
d="M100 544q-46 0 -76.5 30.5t-30.5 73.5q0 44 31 74t76 30t76 -30t31 -74t-31 -74t-76 -30zM100 577q30 0 49 20.5t19 50.5q0 29 -18.5 50t-50.5 21q-29 0 -48 -20t-19 -51q0 -30 18.5 -50.5t49.5 -20.5z" />
    <glyph glyph-name="ogonek" unicode="&#x2db;" horiz-adv-x="200" 
d="M193 0q-101 -65 -101 -107q0 -36 43 -36q28 0 55 12h7l-14 -35q-33 -18 -72 -18q-36 0 -60.5 16.5t-24.5 51.5q0 62 114 116h53z" />
    <glyph glyph-name="tilde" unicode="&#x2dc;" horiz-adv-x="200" 
d="M109 673q43 -24 61 -24q20 0 32 10t18 35h34q-8 -46 -30 -72.5t-55 -26.5q-37 0 -72 21q-41 25 -65 25q-40 0 -50 -47h-36q4 41 27.5 71t59.5 30t76 -22z" />
    <glyph glyph-name="hungarumlaut" unicode="&#x2dd;" horiz-adv-x="200" 
d="M159 712l-131 -141h-50l97 141h84zM312 712l-131 -141h-50l97 141h84z" />
    <glyph glyph-name="gravecomb" unicode="&#x300;" horiz-adv-x="0" 
d="M-143 712l102 -141h-51l-138 141h87z" />
    <glyph glyph-name="acutecomb" unicode="&#x301;" horiz-adv-x="0" 
d="M32 712l-139 -141h-51l102 141h88z" />
    <glyph glyph-name="uni0302" unicode="&#x302;" horiz-adv-x="0" 
d="M-62 712l110 -141h-51l-96 92l-94 -92h-48l110 141h69z" />
    <glyph glyph-name="tildecomb" unicode="&#x303;" horiz-adv-x="0" 
d="M-91 673q43 -24 61 -24q20 0 32 10t18 35h34q-8 -46 -30 -72.5t-55 -26.5q-37 0 -72 21q-41 25 -65 25q-40 0 -50 -47h-36q4 41 27.5 71t59.5 30t76 -22z" />
    <glyph glyph-name="uni0304" unicode="&#x304;" horiz-adv-x="0" 
d="M56 668v-47h-311v47h311z" />
    <glyph glyph-name="uni0306" unicode="&#x306;" horiz-adv-x="0" 
d="M-198 704q4 -37 31 -57.5t67 -20.5t67.5 20.5t33.5 57.5h39q-6 -59 -43 -93.5t-97 -34.5q-62 0 -99 34.5t-40 93.5h41z" />
    <glyph glyph-name="uni0307" unicode="&#x307;" horiz-adv-x="0" 
d="M-55 691v-93h-89v93h89z" />
    <glyph glyph-name="uni0308" unicode="&#x308;" horiz-adv-x="0" 
d="M-142 689v-87h-81v87h81zM23 689v-87h-81v87h81z" />
    <glyph glyph-name="uni030A" unicode="&#x30a;" horiz-adv-x="0" 
d="M-100 544q-46 0 -76.5 30.5t-30.5 73.5q0 44 31 74t76 30t76 -30t31 -74t-31 -74t-76 -30zM-100 577q30 0 49 20.5t19 50.5q0 29 -18.5 50t-50.5 21q-29 0 -48 -20t-19 -51q0 -30 18.5 -50.5t49.5 -20.5z" />
    <glyph glyph-name="uni030B" unicode="&#x30b;" horiz-adv-x="0" 
d="M-41 712l-131 -141h-50l97 141h84zM112 712l-131 -141h-50l97 141h84z" />
    <glyph glyph-name="uni030C" unicode="&#x30c;" horiz-adv-x="0" 
d="M-134 571l-110 141h51l96 -92l94 92h48l-110 -141h-69z" />
    <glyph glyph-name="uni0312" unicode="&#x312;" horiz-adv-x="0" 
d="M-144 589q9 59 53 141h43q-17 -69 -21 -141h-75z" />
    <glyph glyph-name="uni0313" unicode="&#x313;" horiz-adv-x="0" 
d="M-46 718q-15 -101 -59 -183h-39q24 88 24 183h74z" />
    <glyph glyph-name="uni0326" unicode="&#x326;" horiz-adv-x="0" 
d="M-49 -70q-10 -65 -53 -145h-43q17 68 21 145h75z" />
    <glyph glyph-name="uni0327" unicode="&#x327;" horiz-adv-x="0" 
d="M-160 -217l-15 31l4 3q102 0 102 51q0 38 -69 50l-1 6l40 76h35l-22 -47l11 -3q70 -19 70 -73q0 -49 -45 -71.5t-110 -22.5z" />
    <glyph glyph-name="uni0328" unicode="&#x328;" horiz-adv-x="0" 
d="M-7 0q-101 -65 -101 -107q0 -36 43 -36q28 0 55 12h7l-14 -35q-33 -18 -72 -18q-36 0 -60.5 16.5t-24.5 51.5q0 62 114 116h53z" />
    <glyph glyph-name="uni0394" unicode="&#x394;" horiz-adv-x="685" 
d="M31 0v41l287 629l58 10l278 -647v-33h-623zM100 52h452l-221 518h-5z" />
    <glyph glyph-name="uni03A9" unicode="&#x3a9;" horiz-adv-x="797" 
d="M736 359q0 -95 -41.5 -166.5t-126.5 -130.5v-4h176v-58h-257v60q88 61 119.5 127t31.5 172q0 118 -64.5 198.5t-173.5 80.5q-112 0 -177 -77.5t-65 -200.5q0 -103 32.5 -171.5t121.5 -128.5v-60h-259v58h172v4q-82 57 -123.5 128.5t-41.5 168.5q0 141 97.5 236.5
t242.5 95.5q143 0 239.5 -100t96.5 -232z" />
    <glyph glyph-name="uni03BC" unicode="&#x3bc;" 
d="M185 475v-303q0 -124 88 -124q66 0 104 53t38 131v243h83v-475h-77l-5 100h-3q-18 -36 -30.5 -55.5t-41 -37t-67.5 -17.5q-27 0 -50 11t-33 28h-4v-179h-85v625h83z" />
    <glyph glyph-name="pi" unicode="&#x3c0;" 
d="M525 41q31 0 70 24l-3 -41q-43 -32 -88 -32q-58 0 -84 27t-26 93v309h-189v-421h-83v421h-90v54h545l-5 -54h-95v-299q0 -41 11 -61t37 -20z" />
    <glyph glyph-name="zero.ss01" unicode="&#x1e00;" horiz-adv-x="689" 
d="M346 706q122 0 195 -100.5t72 -263.5q1 -162 -71.5 -258t-195.5 -96q-125 0 -197.5 95.5t-72.5 258.5q0 164 73 264t197 100zM346 653q-82 0 -126.5 -84.5t-44.5 -226.5q0 -144 44 -222t127 -78q80 0 124 78.5t44 221.5q0 141 -44.5 226t-123.5 85z" />
    <glyph glyph-name="one.ss01" unicode="&#x1e01;" horiz-adv-x="503" 
d="M258 615l-190 -77l7 54l227 102h48v-694h-92v615z" />
    <glyph glyph-name="two.ss01" unicode="&#x1e02;" horiz-adv-x="673" 
d="M56 34l141 114q143 116 207.5 196.5t64.5 160.5q0 70 -38.5 106t-105.5 36q-107 0 -187 -85h-11l8 68q84 76 202 76q111 0 170.5 -54t59.5 -140q0 -91 -63.5 -171.5t-218.5 -194.5l-90 -66v-4h199q152 0 207 13h13l-30 -89h-528v34z" />
    <glyph glyph-name="three.ss01" unicode="&#x1e03;" horiz-adv-x="560" 
d="M419 199q0 75 -52 113t-141 38h-50l6 57h46q77 0 124 35.5t47 90.5q0 53 -42.5 85t-105.5 32q-88 0 -151 -46h-10l10 64q68 38 165 38q92 0 156.5 -43.5t64.5 -125.5q0 -107 -120 -150v-6q145 -39 145 -184q0 -68 -38.5 -116.5t-96.5 -70.5t-128 -22q-134 0 -209 59
l-13 82h11q88 -79 207 -79q74 0 124.5 38t50.5 111z" />
    <glyph glyph-name="four.ss01" unicode="&#x1e04;" horiz-adv-x="689" 
d="M628 266l-11 -67h-107v-199h-88v199h-365v38l381 457h72v-428h118zM422 577h-7l-245 -301v-10h252v311z" />
    <glyph glyph-name="five.ss01" unicode="&#x1e05;" horiz-adv-x="633" 
d="M471 216q0 77 -48 119.5t-132 42.5q-73 0 -135 -44l-56 8l53 352h361l-11 -78h-295l-31 -207q52 26 134 26q118 0 186.5 -60.5t68.5 -156.5q0 -113 -75.5 -171.5t-195.5 -58.5q-134 0 -224 68l-11 76h11q94 -82 217 -82q80 0 131.5 40.5t51.5 125.5z" />
    <glyph glyph-name="six.ss01" unicode="&#x1e06;" horiz-adv-x="673" 
d="M184 358q27 31 73.5 52t100.5 21q95 0 163 -57t68 -165q0 -100 -71.5 -160.5t-179.5 -60.5q-114 0 -184 66t-70 192q0 183 117.5 316.5t278.5 144.5l18 -35q-128 -28 -211.5 -119t-106.5 -195h4zM175 218q1 -81 45 -130t118 -49q72 0 114.5 47t42.5 123q0 78 -40 123.5
t-108 45.5q-72 0 -122.5 -41t-49.5 -119z" />
    <glyph glyph-name="seven.ss01" unicode="&#x1e07;" horiz-adv-x="654" 
d="M132 0q202 322 373 617h-422l17 77h503v-28q-141 -241 -375 -666h-96z" />
    <glyph glyph-name="eight.ss01" unicode="&#x1e08;" horiz-adv-x="668" 
d="M537 551q0 -111 -125 -156v-3q94 -36 133.5 -81.5t39.5 -125.5q0 -93 -77.5 -145t-181.5 -52t-173.5 50.5t-69.5 135.5q0 134 166 196v3q-64 31 -92 70t-28 95q0 78 63 123t142 45q78 0 140.5 -40t62.5 -115zM475 551q0 53 -39.5 81.5t-95.5 28.5q-51 0 -90 -27t-39 -88
q0 -43 33.5 -71.5t111.5 -57.5q62 24 90.5 55t28.5 79zM494 175q0 57 -47 98t-145 76q-144 -55 -144 -171q0 -68 48.5 -104.5t119.5 -36.5q73 0 120.5 35t47.5 103z" />
    <glyph glyph-name="nine.ss01" unicode="&#x1e09;" horiz-adv-x="642" 
d="M458 364q-57 -76 -156 -76q-43 0 -81 11.5t-70 35.5t-50.5 65t-18.5 94q0 99 68.5 156t171.5 57q109 0 176 -66t67 -193q0 -87 -32.5 -167.5t-85 -139t-118 -99t-132.5 -54.5l-36 36q119 38 203 135.5t99 204.5h-5zM467 488q0 80 -38.5 124t-107.5 44q-65 0 -106 -43.5
t-41 -117.5q0 -76 35 -114.5t99 -38.5q65 0 112 39.5t47 106.5z" />
    <glyph glyph-name="colon.ss01" unicode="&#x1e0a;" horiz-adv-x="348" 
d="M228 575v-106h-108v106h108zM228 206v-106h-108v106h108z" />
    <glyph glyph-name="hyphen.ss01" unicode="&#x1e0b;" horiz-adv-x="393" 
d="M340 384l-4 -51h-283l4 51h283z" />
    <glyph glyph-name="guillemotleft.ss01" unicode="&#x1e0c;" horiz-adv-x="418" 
d="M205 511v-57l-91 -99l91 -99v-57l-159 125v62zM362 511v-57l-91 -99l91 -99v-57l-159 125v62z" />
    <glyph glyph-name="guillemotright.ss01" unicode="&#x1e0d;" horiz-adv-x="418" 
d="M56 199v57l91 99l-91 99v57l159 -125v-62zM213 199v57l91 99l-91 99v57l159 -125v-62z" />
    <glyph glyph-name="guilsinglleft.ss01" unicode="&#x1e0e;" horiz-adv-x="261" 
d="M205 511v-57l-91 -99l91 -99v-57l-159 125v62z" />
    <glyph glyph-name="guilsinglright.ss01" unicode="&#x1e0f;" horiz-adv-x="261" 
d="M56 199v57l91 99l-91 99v57l159 -125v-62z" />
    <glyph glyph-name="Wgrave" unicode="&#x1e80;" horiz-adv-x="974" 
d="M357 885h93l107 -129h-51zM488 551h-6l-202 -551h-65l-194 680h93l156 -550h3l198 550h61l203 -553h3l145 553h70l-199 -680h-61z" />
    <glyph glyph-name="wgrave" unicode="&#x1e81;" horiz-adv-x="780" 
d="M347 712l102 -141h-51l-138 141h87zM756 475l-167 -475h-59l-143 369h-5l-138 -369h-59l-161 475h88l117 -372h3l137 372h56l143 -372h3l117 372h68z" />
    <glyph glyph-name="Wacute" unicode="&#x1e82;" horiz-adv-x="974" 
d="M646 885l-149 -129h-51l107 129h93zM488 551h-6l-202 -551h-65l-194 680h93l156 -550h3l198 550h61l203 -553h3l145 553h70l-199 -680h-61z" />
    <glyph glyph-name="wacute" unicode="&#x1e83;" horiz-adv-x="780" 
d="M530 712l-139 -141h-51l102 141h88zM756 475l-167 -475h-59l-143 369h-5l-138 -369h-59l-161 475h88l117 -372h3l137 372h56l143 -372h3l117 372h68z" />
    <glyph glyph-name="Wdieresis" unicode="&#x1e84;" horiz-adv-x="974" 
d="M459 869v-87h-81v87h81zM624 869v-87h-81v87h81zM488 551h-6l-202 -551h-65l-194 680h93l156 -550h3l198 550h61l203 -553h3l145 553h70l-199 -680h-61z" />
    <glyph glyph-name="wdieresis" unicode="&#x1e85;" horiz-adv-x="780" 
d="M352 689v-87h-81v87h81zM517 689v-87h-81v87h81zM756 475l-167 -475h-59l-143 369h-5l-138 -369h-59l-161 475h88l117 -372h3l137 372h56l143 -372h3l117 372h68z" />
    <glyph glyph-name="uni1E9E" unicode="&#x1e9e;" horiz-adv-x="680" 
d="M437 -12q-87 0 -155 56l-13 90h11q72 -89 159 -89q45 0 74 27t29 78q0 38 -24 67t-86 82q-101 86 -101 175q0 49 32 91t96 64q-42 4 -87 4q-100 0 -144.5 -41t-44.5 -132l-1 -460l-90 1v461q0 114 62.5 171t204.5 57q90 0 199 -15l6 -51q-148 -35 -148 -129
q0 -34 14.5 -63t63.5 -70q75 -64 104.5 -104t29.5 -95q0 -84 -56 -129.5t-135 -45.5z" />
    <glyph glyph-name="Ygrave" unicode="&#x1ef2;" horiz-adv-x="559" 
d="M140 885h93l107 -129h-51zM0 680h109l196 -301h6l179 301h69l-225 -356v-324h-90v315z" />
    <glyph glyph-name="ygrave" unicode="&#x1ef3;" horiz-adv-x="443" 
d="M179 712l102 -141h-51l-138 141h87zM151 -223h-78q63 111 123 254l-189 444h92l138 -352h3l129 352h67z" />
    <glyph glyph-name="uni2011" unicode="&#x2011;" horiz-adv-x="393" 
d="M340 295l-4 -51h-283l4 51h283z" />
    <glyph glyph-name="endash" unicode="&#x2013;" horiz-adv-x="500" 
d="M495 293v-47h-490v47h490z" />
    <glyph glyph-name="emdash" unicode="&#x2014;" horiz-adv-x="918" 
d="M818 293v-47h-718v47h718z" />
    <glyph glyph-name="quoteleft" unicode="&#x2018;" horiz-adv-x="243" 
d="M54 449q5 32 37.5 112.5t52.5 118.5h45q-17 -43 -33.5 -118t-19.5 -113h-82z" />
    <glyph glyph-name="quoteright" unicode="&#x2019;" horiz-adv-x="243" 
d="M189 680q-5 -32 -37.5 -112.5t-52.5 -118.5h-45q17 43 33.5 118t19.5 113h82z" />
    <glyph glyph-name="quotesinglbase" unicode="&#x201a;" horiz-adv-x="243" 
d="M189 125q-5 -32 -37.5 -112.5t-52.5 -118.5h-45q17 43 33.5 118t19.5 113h82z" />
    <glyph glyph-name="quotedblleft" unicode="&#x201c;" horiz-adv-x="393" 
d="M54 449q5 32 37.5 112.5t52.5 118.5h45q-17 -43 -33.5 -118t-19.5 -113h-82zM204 449q5 32 37.5 112.5t52.5 118.5h45q-17 -43 -33.5 -118t-19.5 -113h-82z" />
    <glyph glyph-name="quotedblright" unicode="&#x201d;" horiz-adv-x="393" 
d="M189 680q-5 -32 -37.5 -112.5t-52.5 -118.5h-45q17 43 33.5 118t19.5 113h82zM339 680q-5 -32 -37.5 -112.5t-52.5 -118.5h-45q17 43 33.5 118t19.5 113h82z" />
    <glyph glyph-name="quotedblbase" unicode="&#x201e;" horiz-adv-x="393" 
d="M189 125q-5 -32 -37.5 -112.5t-52.5 -118.5h-45q17 43 33.5 118t19.5 113h82zM339 125q-5 -32 -37.5 -112.5t-52.5 -118.5h-45q17 43 33.5 118t19.5 113h82z" />
    <glyph glyph-name="dagger" unicode="&#x2020;" horiz-adv-x="560" 
d="M311 691v-213h193v-53h-193v-572h-63v572h-192v53h192v213h63z" />
    <glyph glyph-name="daggerdbl" unicode="&#x2021;" horiz-adv-x="560" 
d="M311 691v-192h193v-53h-193v-348h193v-53h-193v-192h-63v192h-192v53h192v348h-192v53h192v192h63z" />
    <glyph glyph-name="bullet" unicode="&#x2022;" 
d="M136 328q0 68 48 116.5t116 48.5t116.5 -48.5t48.5 -116.5t-48.5 -116t-116.5 -48t-116 48t-48 116z" />
    <glyph glyph-name="ellipsis" unicode="&#x2026;" horiz-adv-x="900" 
d="M205 106v-106h-110v106h110zM505 106v-106h-110v106h110zM805 106v-106h-110v106h110z" />
    <glyph glyph-name="perthousand" unicode="&#x2030;" horiz-adv-x="1103" 
d="M556 699l40 -20l-390 -699l-39 20zM195 691q57 0 95 -48t38 -130q0 -79 -38.5 -126t-94.5 -47q-58 0 -97.5 47t-39.5 126q0 82 39 130t98 48zM195 654q-36 0 -55 -39t-19 -102q0 -62 19 -98.5t55 -36.5q34 0 52.5 36.5t18.5 98.5q0 63 -18.5 102t-52.5 39zM575 346
q57 0 95 -48t38 -130q0 -79 -38.5 -126t-94.5 -47q-58 0 -97.5 47t-39.5 126q0 82 39 130t98 48zM915 346q57 0 95 -48t38 -130q0 -79 -38.5 -126t-94.5 -47q-58 0 -97.5 47t-39.5 126q0 82 39 130t98 48zM575 309q-36 0 -55 -39t-19 -102q0 -62 19 -98.5t55 -36.5
q34 0 52.5 36.5t18.5 98.5q0 63 -18.5 102t-52.5 39zM915 309q-36 0 -55 -39t-19 -102q0 -62 19 -98.5t55 -36.5q34 0 52.5 36.5t18.5 98.5q0 63 -18.5 102t-52.5 39z" />
    <glyph glyph-name="guilsinglleft" unicode="&#x2039;" horiz-adv-x="261" 
d="M205 431v-57l-91 -99l91 -99v-57l-159 125v62z" />
    <glyph glyph-name="guilsinglright" unicode="&#x203a;" horiz-adv-x="261" 
d="M56 119v57l91 99l-91 99v57l159 -125v-62z" />
    <glyph glyph-name="fraction" unicode="&#x2044;" horiz-adv-x="149" 
d="M249 699l40 -20l-390 -699l-39 20z" />
    <glyph glyph-name="zero.sups" unicode="&#x2070;" horiz-adv-x="422" 
d="M211 880q72 0 119 -64.5t47 -166.5q0 -101 -47 -164t-119 -63t-119 63t-47 164q0 102 47 166.5t119 64.5zM211 844q-46 0 -71.5 -53t-25.5 -142q0 -91 25.5 -140.5t71.5 -49.5t71 49.5t25 140.5q0 89 -25.5 142t-70.5 53z" />
    <glyph glyph-name="four.sups" unicode="&#x2074;" horiz-adv-x="385" 
d="M280 596h83l-7 -44h-76v-122h-59v122h-211v12l227 308h43v-276zM221 597v192h-6l-131 -188v-4h137z" />
    <glyph glyph-name="five.sups" unicode="&#x2075;" horiz-adv-x="371" 
d="M266 569q0 45 -25.5 72.5t-70.5 27.5q-47 0 -79 -20l-30 4l29 219h216l-11 -52h-162l-17 -126q23 13 66 13q67 0 108 -38t41 -99q0 -71 -49.5 -109.5t-121.5 -38.5q-70 0 -118 37l-7 51h10q49 -46 113 -46q51 0 79.5 27.5t28.5 77.5z" />
    <glyph glyph-name="six.sups" unicode="&#x2076;" horiz-adv-x="390" 
d="M201 422q-73 0 -114.5 41.5t-41.5 115.5q0 110 68 192t158 109l30 -24q-59 -17 -113.5 -75.5t-71.5 -122.5h2q34 45 97 45q58 0 98 -37.5t40 -102.5q0 -60 -44 -100.5t-108 -40.5zM200 457q39 0 62 29.5t23 74.5q0 49 -21.5 77t-58.5 28q-40 0 -66 -28t-26 -73
q0 -49 23.5 -78.5t63.5 -29.5z" />
    <glyph glyph-name="seven.sups" unicode="&#x2077;" horiz-adv-x="374" 
d="M59 430q135 233 214 389h-233l10 53h294v-20q-117 -224 -215 -422h-70z" />
    <glyph glyph-name="eight.sups" unicode="&#x2078;" horiz-adv-x="406" 
d="M331 784q0 -65 -77 -103v-2q54 -27 80.5 -57.5t26.5 -77.5q0 -57 -47 -89.5t-115 -32.5q-70 0 -112 31t-42 88q0 39 27.5 73t75.5 54v2q-42 23 -59.5 48t-17.5 60q0 45 39 73.5t95 28.5q52 0 89 -25t37 -71zM280 785q0 30 -19 47.5t-53 17.5q-32 0 -50.5 -18.5
t-18.5 -49.5q0 -27 18 -46t59 -38q64 33 64 87zM291 539q0 39 -26 63.5t-81 46.5q-77 -37 -77 -106q0 -41 25 -64t67 -23t67 22.5t25 60.5z" />
    <glyph glyph-name="nine.sups" unicode="&#x2079;" horiz-adv-x="384" 
d="M113 422l-30 24q69 25 120 82.5t68 127.5h-2q-33 -43 -99 -43q-55 0 -94 34t-39 97q0 59 42 97.5t105 38.5q72 0 113.5 -44t41.5 -120q0 -101 -63 -183t-163 -111zM183 651q39 0 63.5 25.5t24.5 67.5q0 45 -24 73t-61 28q-39 0 -60 -28t-21 -73q0 -43 21 -68t57 -25z" />
    <glyph glyph-name="uni207F" unicode="&#x207f;" horiz-adv-x="433" 
d="M295 349v214q0 82 -60 82q-42 0 -67.5 -34t-25.5 -90v-172h-72v336h65l5 -69h2q32 76 113 76q53 0 82.5 -32.5t29.5 -93.5v-217h-72z" />
    <glyph glyph-name="zero.subs" unicode="&#x2080;" horiz-adv-x="422" 
d="M211 290q72 0 119 -64.5t47 -166.5q0 -101 -47 -164t-119 -63t-119 63t-47 164q0 102 47 166.5t119 64.5zM211 254q-46 0 -71.5 -53t-25.5 -142q0 -91 25.5 -140.5t71.5 -49.5t71 49.5t25 140.5q0 89 -25.5 142t-70.5 53z" />
    <glyph glyph-name="one.subs" unicode="&#x2081;" horiz-adv-x="312" 
d="M137 -160v387l-104 -46l4 40l135 61h31v-442h-66z" />
    <glyph glyph-name="two.subs" unicode="&#x2082;" horiz-adv-x="393" 
d="M34 -160v20l80 72q153 137 153 232q0 37 -20.5 61.5t-60.5 24.5q-57 0 -96 -39h-10l6 45q45 34 110 34q67 0 103 -34.5t36 -86.5q0 -53 -38.5 -106.5t-129.5 -131.5l-41 -35v-3h109q83 0 120 4h9l-19 -57h-311z" />
    <glyph glyph-name="three.subs" unicode="&#x2083;" horiz-adv-x="378" 
d="M261 -33q0 95 -115 95h-14l3 36h15q45 0 67 21t22 57q0 77 -79 77q-45 0 -81 -30h-10l5 39q43 28 96 28q60 0 98 -29t38 -82q0 -70 -66 -94v-3q88 -28 88 -116q0 -64 -48.5 -99t-118.5 -35q-74 0 -118 33l-8 54h9q53 -45 116 -45q48 0 74.5 24t26.5 69z" />
    <glyph glyph-name="four.subs" unicode="&#x2084;" horiz-adv-x="385" 
d="M280 6h83l-7 -44h-76v-122h-59v122h-211v12l227 308h43v-276zM221 7v192h-6l-131 -188v-4h137z" />
    <glyph glyph-name="five.subs" unicode="&#x2085;" horiz-adv-x="371" 
d="M266 -21q0 45 -25.5 72.5t-70.5 27.5q-47 0 -79 -20l-30 4l29 219h216l-11 -52h-162l-17 -126q23 13 66 13q67 0 108 -38t41 -99q0 -71 -49.5 -109.5t-121.5 -38.5q-70 0 -118 37l-7 51h10q49 -46 113 -46q51 0 79.5 27.5t28.5 77.5z" />
    <glyph glyph-name="six.subs" unicode="&#x2086;" horiz-adv-x="390" 
d="M201 -168q-73 0 -114.5 41.5t-41.5 115.5q0 110 68 192t158 109l30 -24q-59 -17 -113.5 -75.5t-71.5 -122.5h2q34 45 97 45q58 0 98 -37.5t40 -102.5q0 -60 -44 -100.5t-108 -40.5zM200 -133q39 0 62 29.5t23 74.5q0 49 -21.5 77t-58.5 28q-40 0 -66 -28t-26 -73
q0 -49 23.5 -78.5t63.5 -29.5z" />
    <glyph glyph-name="seven.subs" unicode="&#x2087;" horiz-adv-x="374" 
d="M59 -160q135 233 214 389h-233l10 53h294v-20q-117 -224 -215 -422h-70z" />
    <glyph glyph-name="eight.subs" unicode="&#x2088;" horiz-adv-x="406" 
d="M331 194q0 -65 -77 -103v-2q54 -27 80.5 -57.5t26.5 -77.5q0 -57 -47 -89.5t-115 -32.5q-70 0 -112 31t-42 88q0 39 27.5 73t75.5 54v2q-42 23 -59.5 48t-17.5 60q0 45 39 73.5t95 28.5q52 0 89 -25t37 -71zM280 195q0 30 -19 47.5t-53 17.5q-32 0 -50.5 -18.5
t-18.5 -49.5q0 -27 18 -46t59 -38q64 33 64 87zM291 -51q0 39 -26 63.5t-81 46.5q-77 -37 -77 -106q0 -41 25 -64t67 -23t67 22.5t25 60.5z" />
    <glyph glyph-name="nine.subs" unicode="&#x2089;" horiz-adv-x="384" 
d="M113 -168l-30 24q69 25 120 82.5t68 127.5h-2q-33 -43 -99 -43q-55 0 -94 34t-39 97q0 59 42 97.5t105 38.5q72 0 113.5 -44t41.5 -120q0 -101 -63 -183t-163 -111zM183 61q39 0 63.5 25.5t24.5 67.5q0 45 -24 73t-61 28q-39 0 -60 -28t-21 -73q0 -43 21 -68t57 -25z" />
    <glyph glyph-name="uni2099" unicode="&#x2099;" horiz-adv-x="433" 
d="M295 0v214q0 82 -60 82q-42 0 -67.5 -34t-25.5 -90v-172h-72v336h65l5 -69h2q32 76 113 76q53 0 82.5 -32.5t29.5 -93.5v-217h-72z" />
    <glyph glyph-name="Euro" unicode="&#x20ac;" horiz-adv-x="699" 
d="M627 111h8l-19 -80q-70 -43 -168 -43q-127 0 -220.5 72t-114.5 205h-91l8 44h78q-1 9 -1 29q0 27 3 51h-78l8 44h78q29 122 123 190.5t204 68.5q106 0 164 -34l8 -76h-10q-60 54 -162 54q-84 0 -145.5 -54.5t-83.5 -148.5h295l-8 -44h-294q-3 -26 -3 -52q0 -19 1 -28h294
l-8 -44h-281q18 -103 83 -161t157 -58q106 0 175 65z" />
    <glyph glyph-name="uni20B9" unicode="&#x20b9;" horiz-adv-x="577" 
d="M522 680l-8 -44h-211q55 -40 61 -120h148l-8 -44h-142q-10 -58 -53.5 -97.5t-110.5 -52.5v-4q182 -223 285 -313v-5h-127q-69 70 -254 308h-42v44h70q59 3 97 35.5t47 84.5h-214v44h216q-4 67 -46 93.5t-118 26.5h-52v44h462z" />
    <glyph glyph-name="uni20BA" unicode="&#x20ba;" horiz-adv-x="625" 
d="M485 319h90q-8 -148 -90.5 -233.5t-235.5 -85.5h-111v282l-94 -39v47l94 39v76l-94 -39v47l94 39v228h90v-191l219 91v-47l-219 -91v-76l219 90v-46l-219 -91v-266h6q130 0 186.5 67.5t64.5 198.5z" />
    <glyph glyph-name="uni20BC" unicode="&#x20bc;" horiz-adv-x="796" 
d="M443 555q127 -18 200 -131.5t73 -295.5q0 -61 -5 -128h-97q5 67 5 128q0 337 -176 372v-420h-90v420q-176 -35 -176 -372q0 -61 5 -128h-97q-5 67 -5 128q0 182 73 295.5t200 131.5v125h90v-125z" />
    <glyph glyph-name="uni2113" unicode="&#x2113;" horiz-adv-x="500" 
d="M403 598q0 -133 -168 -313v-161q0 -92 69 -92q51 0 91 40l11 -34q-54 -52 -123 -52q-132 0 -132 123v106l-58 -62l-24 43l82 83v274q0 78 38.5 123t100.5 45q48 0 80.5 -33t32.5 -90zM235 347q115 133 115 246q0 85 -51 85q-64 0 -64 -117v-214z" />
    <glyph glyph-name="uni2117" unicode="&#x2117;" horiz-adv-x="797" 
d="M759 346q0 -151 -103 -256t-257 -105q-153 0 -257 104.5t-104 256.5q0 153 104 256.5t257 103.5q151 0 255.5 -104t104.5 -256zM399 36q130 0 217 90t87 220t-88.5 219.5t-216.5 89.5q-130 0 -217 -89.5t-87 -219.5q0 -129 86 -219.5t219 -90.5zM420 542q144 0 144 -115
q0 -55 -40 -86t-108 -31h-55v-157h-74v389h133zM402 350q46 0 67 18.5t21 58.5q0 39 -21 57t-67 18h-41v-152h41z" />
    <glyph glyph-name="trademark" unicode="&#x2122;" horiz-adv-x="643" 
d="M32 646v34h191v-34h-70v-238h-54v238h-67zM428 501h3l78 179h60l30 -272h-54l-21 206h-4l-86 -189h-28l-87 189h-4l-17 -206h-45l30 272h60z" />
    <glyph glyph-name="uni2126" unicode="&#x2126;" horiz-adv-x="797" 
d="M736 359q0 -95 -41.5 -166.5t-126.5 -130.5v-4h176v-58h-257v60q88 61 119.5 127t31.5 172q0 118 -64.5 198.5t-173.5 80.5q-112 0 -177 -77.5t-65 -200.5q0 -103 32.5 -171.5t121.5 -128.5v-60h-259v58h172v4q-82 57 -123.5 128.5t-41.5 168.5q0 141 97.5 236.5
t242.5 95.5q143 0 239.5 -100t96.5 -232z" />
    <glyph glyph-name="estimated" unicode="&#x212e;" horiz-adv-x="904" 
d="M452 -9q-184 0 -293 102.5t-109 250.5q0 72 28 138.5t78 118t127 82.5t169 31q89 0 159.5 -22.5t115 -58.5t74 -86t41.5 -100.5t12 -104.5h-652q-5 0 -5 -6v-184q0 -22 7 -30q86 -105 247 -105q79 0 140 29.5t121 83.5h70q-61 -73 -135 -106t-195 -33zM202 363h498
q7 0 7 7v189q0 9 -12 26q-46 57 -114 81t-133 24q-139 0 -242 -103q-9 -11 -9 -28v-189q0 -7 5 -7z" />
    <glyph glyph-name="oneeighth" unicode="&#x215b;" horiz-adv-x="867" 
d="M561 699l40 -20l-390 -699l-39 20zM137 238v387l-104 -46l4 40l135 61h31v-442h-66zM792 354q0 -65 -77 -103v-2q54 -27 80.5 -57.5t26.5 -77.5q0 -57 -47 -89.5t-115 -32.5q-70 0 -112 31t-42 88q0 39 27.5 73t75.5 54v2q-42 23 -59.5 48t-17.5 60q0 45 39 73.5t95 28.5
q52 0 89 -25t37 -71zM741 355q0 30 -19 47.5t-53 17.5q-32 0 -50.5 -18.5t-18.5 -49.5q0 -27 18 -46t59 -38q64 33 64 87zM752 109q0 39 -26 63.5t-81 46.5q-77 -37 -77 -106q0 -41 25 -64t67 -23t67 22.5t25 60.5z" />
    <glyph glyph-name="threeeighths" unicode="&#x215c;" horiz-adv-x="933" 
d="M627 699l40 -20l-390 -699l-39 20zM261 365q0 95 -115 95h-14l3 36h15q45 0 67 21t22 57q0 77 -79 77q-45 0 -81 -30h-10l5 39q43 28 96 28q60 0 98 -29t38 -82q0 -70 -66 -94v-3q88 -28 88 -116q0 -64 -48.5 -99t-118.5 -35q-74 0 -118 33l-8 54h9q53 -45 116 -45
q48 0 74.5 24t26.5 69zM858 354q0 -65 -77 -103v-2q54 -27 80.5 -57.5t26.5 -77.5q0 -57 -47 -89.5t-115 -32.5q-70 0 -112 31t-42 88q0 39 27.5 73t75.5 54v2q-42 23 -59.5 48t-17.5 60q0 45 39 73.5t95 28.5q52 0 89 -25t37 -71zM807 355q0 30 -19 47.5t-53 17.5
q-32 0 -50.5 -18.5t-18.5 -49.5q0 -27 18 -46t59 -38q64 33 64 87zM818 109q0 39 -26 63.5t-81 46.5q-77 -37 -77 -106q0 -41 25 -64t67 -23t67 22.5t25 60.5z" />
    <glyph glyph-name="fiveeighths" unicode="&#x215d;" horiz-adv-x="936" 
d="M630 699l40 -20l-390 -699l-39 20zM266 377q0 45 -25.5 72.5t-70.5 27.5q-47 0 -79 -20l-30 4l29 219h216l-11 -52h-162l-17 -126q23 13 66 13q67 0 108 -38t41 -99q0 -71 -49.5 -109.5t-121.5 -38.5q-70 0 -118 37l-7 51h10q49 -46 113 -46q51 0 79.5 27.5t28.5 77.5z
M861 354q0 -65 -77 -103v-2q54 -27 80.5 -57.5t26.5 -77.5q0 -57 -47 -89.5t-115 -32.5q-70 0 -112 31t-42 88q0 39 27.5 73t75.5 54v2q-42 23 -59.5 48t-17.5 60q0 45 39 73.5t95 28.5q52 0 89 -25t37 -71zM810 355q0 30 -19 47.5t-53 17.5q-32 0 -50.5 -18.5t-18.5 -49.5
q0 -27 18 -46t59 -38q64 33 64 87zM821 109q0 39 -26 63.5t-81 46.5q-77 -37 -77 -106q0 -41 25 -64t67 -23t67 22.5t25 60.5z" />
    <glyph glyph-name="seveneighths" unicode="&#x215e;" horiz-adv-x="849" 
d="M543 699l40 -20l-390 -699l-39 20zM59 238q135 233 214 389h-233l10 53h294v-20q-117 -224 -215 -422h-70zM774 354q0 -65 -77 -103v-2q54 -27 80.5 -57.5t26.5 -77.5q0 -57 -47 -89.5t-115 -32.5q-70 0 -112 31t-42 88q0 39 27.5 73t75.5 54v2q-42 23 -59.5 48t-17.5 60
q0 45 39 73.5t95 28.5q52 0 89 -25t37 -71zM723 355q0 30 -19 47.5t-53 17.5q-32 0 -50.5 -18.5t-18.5 -49.5q0 -27 18 -46t59 -38q64 33 64 87zM734 109q0 39 -26 63.5t-81 46.5q-77 -37 -77 -106q0 -41 25 -64t67 -23t67 22.5t25 60.5z" />
    <glyph glyph-name="partialdiff" unicode="&#x2202;" 
d="M222 721q66 0 115 -31t76.5 -84t40 -114t12.5 -131q0 -172 -55 -272.5t-170 -100.5q-89 0 -144 65.5t-55 159.5q0 92 54 153t140 61q87 0 156 -75v44q0 44 -8.5 87.5t-27 84t-52.5 65.5t-79 25q-53 0 -110 -47l-42 50q66 60 149 60zM241 48q128 0 147 232q-66 85 -144 85
q-59 0 -94 -45t-35 -110q0 -63 33 -112.5t93 -49.5z" />
    <glyph glyph-name="uni2206" unicode="&#x2206;" horiz-adv-x="685" 
d="M31 0v41l287 629l58 10l278 -647v-33h-623zM100 52h452l-221 518h-5z" />
    <glyph glyph-name="product" unicode="&#x220f;" horiz-adv-x="718" 
d="M641 786v-1000h-76v928h-412v-928h-77v1000h565z" />
    <glyph glyph-name="summation" unicode="&#x2211;" 
d="M565 786v-72h-423l291 -424l-309 -432h453v-72h-549v64l312 440l-298 432v64h523z" />
    <glyph glyph-name="minus" unicode="&#x2212;" 
d="M545 278v-53h-487v53h487z" />
    <glyph glyph-name="uni2215" unicode="&#x2215;" horiz-adv-x="149" 
d="M249 699l40 -20l-390 -699l-39 20z" />
    <glyph glyph-name="uni2219" unicode="&#x2219;" horiz-adv-x="300" 
d="M205 326v-106h-110v106h110z" />
    <glyph glyph-name="radical" unicode="&#x221a;" 
d="M510 786l-205 -1000h-74l-156 334l-46 -22l-28 60l110 52l146 -317l178 893h75z" />
    <glyph glyph-name="infinity" unicode="&#x221e;" horiz-adv-x="758" 
d="M707 255q0 -68 -38.5 -112.5t-104.5 -44.5q-86 0 -184 109q-42 -40 -62.5 -57t-54.5 -34t-67 -17q-69 0 -107 44.5t-38 108.5q0 68 39 112t102 44q44 0 86.5 -25.5t101.5 -88.5q39 41 58 59t54.5 37.5t70.5 19.5q65 0 104.5 -44.5t39.5 -110.5zM567 166q36 0 56 24.5
t20 61.5q0 39 -20.5 64.5t-59.5 25.5q-30 0 -62 -22t-79 -69q82 -85 145 -85zM195 166q60 0 142 85q-92 90 -145 90q-35 0 -56 -26.5t-21 -62.5q0 -39 21.5 -62.5t58.5 -23.5z" />
    <glyph glyph-name="integral" unicode="&#x222b;" 
d="M420 730q0 -17 -12 -27.5t-30 -10.5q-17 0 -35 24q-14 19 -19 19q-30 0 -30 -91q0 -17 1 -49.5t1 -46.5v-542q0 -108 -28.5 -163.5t-94.5 -55.5q-28 0 -48 14.5t-20 37.5q0 15 11 25.5t25 10.5q20 0 34 -25q11 -17 17 -17q28 0 28 111q0 3 -0.5 20.5t-0.5 30.5v607
q0 96 34 142q32 42 88 42q33 0 56 -14.5t23 -41.5z" />
    <glyph glyph-name="approxequal" unicode="&#x2248;" 
d="M307 377q90 -35 127 -35q27 0 47 20t27 55h50q-8 -58 -40 -93t-86 -35q-46 0 -137 36q-90 35 -126 35q-29 0 -48.5 -20t-26.5 -55h-50q8 60 41 94t85 34q46 0 137 -36zM310 179q85 -34 123 -34q28 0 48 19t27 56h50q-9 -63 -42 -95.5t-84 -32.5q-46 0 -142 38
q-83 33 -122 33q-27 0 -47 -20t-27 -55h-50q8 58 40 93t86 35q46 0 140 -37z" />
    <glyph glyph-name="notequal" unicode="&#x2260;" 
d="M473 503l-69 -125h141v-53h-172l-80 -144h252v-53h-283l-86 -156l-46 25l72 131h-144v53h175l80 144h-255v53h285l84 150z" />
    <glyph glyph-name="lessequal" unicode="&#x2264;" 
d="M545 473l-428 -166l428 -166v-55l-488 194v54l488 194v-55zM545 53v-53h-488v53h488z" />
    <glyph glyph-name="greaterequal" unicode="&#x2265;" 
d="M58 528l487 -194v-54l-487 -194v55l427 166l-427 166v55zM545 53v-53h-487v53h487z" />
    <glyph glyph-name="lozenge" unicode="&#x25ca;" 
d="M333 747l167 -391l-167 -391h-71l-167 391l167 391h71zM170 356l127 -315l128 315l-128 315z" />
    <glyph glyph-name="uniFEFF" unicode="&#xfeff;" horiz-adv-x="0" 
 />
    <glyph glyph-name="i.loclTRK" horiz-adv-x="255" 
d="M173 691v-93h-89v93h89zM169 475v-475h-83v475h83z" />
    <glyph glyph-name="zero.lf" horiz-adv-x="604" 
d="M303 692q112 0 181 -98t69 -259q0 -159 -69 -253t-181 -94q-113 0 -182.5 94t-69.5 253q0 161 69.5 259t182.5 98zM303 642q-76 0 -116 -82.5t-40 -224.5q0 -143 39.5 -220t116.5 -77q74 0 114 77.5t40 219.5q0 141 -40.5 224t-113.5 83z" />
    <glyph glyph-name="one.lf" horiz-adv-x="403" 
d="M195 0v600l-155 -73l9 58l195 95h41v-680h-90z" />
    <glyph glyph-name="two.lf" horiz-adv-x="564" 
d="M43 0v31l114 112q118 116 174 201.5t56 157.5q0 58 -28.5 96t-87.5 38q-90 0 -160 -72h-10l7 68q72 60 173 60q97 0 148.5 -51t51.5 -132q0 -56 -27 -111t-75.5 -110.5t-140.5 -144.5l-66 -64v-4h172q138 0 178 5h10l-31 -80h-458z" />
    <glyph glyph-name="three.lf" horiz-adv-x="541" 
d="M387 195q0 75 -47.5 111.5t-133.5 36.5h-27l6 56h23q74 0 111.5 33.5t37.5 89.5q0 54 -32 85t-91 31q-69 0 -123 -39h-10l10 59q62 34 135 34q88 0 142.5 -42.5t54.5 -124.5q0 -55 -23.5 -89t-76.5 -57v-5q133 -40 133 -181q0 -99 -72.5 -152t-176.5 -53q-111 0 -182 56
l-9 76h11q80 -71 177 -71q71 0 117 36.5t46 109.5z" />
    <glyph glyph-name="four.lf" horiz-adv-x="604" 
d="M444 261h118l-10 -66h-108v-195h-82v195h-334v20l353 465h63v-419zM362 261v307h-8l-219 -301v-6h227z" />
    <glyph glyph-name="five.lf" horiz-adv-x="537" 
d="M397 211q0 72 -40 116t-114 44q-67 0 -123 -35l-37 5l45 339h315l-14 -77h-244l-27 -195q43 18 99 18q105 0 165 -60t60 -154q0 -109 -73 -166.5t-179 -57.5q-105 0 -176 57l-10 75h10q74 -71 174 -71q70 0 119.5 40.5t49.5 121.5z" />
    <glyph glyph-name="six.lf" horiz-adv-x="598" 
d="M172 350q24 31 63.5 50.5t86.5 19.5q86 0 147 -57t61 -158q0 -92 -65.5 -154.5t-158.5 -62.5q-104 0 -170.5 62t-66.5 181q0 87 31.5 168t82 139.5t110 99t119.5 55.5l38 -30q-95 -29 -179 -124t-103 -189h4zM161 209q0 -74 39 -122.5t104 -48.5q62 0 98 48t36 117
q0 75 -34.5 120.5t-94.5 45.5q-63 0 -105.5 -44.5t-42.5 -115.5z" />
    <glyph glyph-name="seven.lf" horiz-adv-x="560" 
d="M94 0q201 343 334 604h-361l15 76h439v-28q-174 -334 -331 -652h-96z" />
    <glyph glyph-name="eight.lf" horiz-adv-x="597" 
d="M489 546q0 -49 -31.5 -91.5t-86.5 -69.5v-3q83 -40 124 -86.5t41 -120.5q0 -59 -38.5 -103t-92.5 -64t-112 -20q-94 0 -163 47.5t-69 134.5q0 67 47 118t112 78v3q-67 35 -93 70.5t-26 91.5q0 76 63 118.5t138 42.5t131 -37t56 -109zM423 545q0 49 -34 76t-87 27
q-41 0 -74.5 -27.5t-33.5 -82.5q0 -42 27 -70t97 -60q105 52 105 137zM440 168q0 59 -41.5 98t-129.5 75q-124 -60 -124 -167q0 -64 41.5 -101t106.5 -37q64 0 105.5 36t41.5 96z" />
    <glyph glyph-name="nine.lf" horiz-adv-x="588" 
d="M413 347q-22 -27 -60 -44t-83 -17q-84 0 -143.5 49.5t-59.5 147.5q0 92 63.5 150.5t155.5 58.5q102 0 167.5 -64.5t65.5 -187.5q0 -156 -96 -282.5t-247 -170.5l-39 32q113 42 186 132t94 196h-4zM427 482q0 72 -39.5 116.5t-98.5 44.5q-63 0 -96.5 -45t-33.5 -115
q0 -68 34.5 -107t91.5 -39q60 0 101 39t41 106z" />
    <glyph glyph-name="zero.dnom" horiz-adv-x="422" 
d="M211 450q72 0 119 -64.5t47 -166.5q0 -101 -47 -164t-119 -63t-119 63t-47 164q0 102 47 166.5t119 64.5zM211 414q-46 0 -71.5 -53t-25.5 -142q0 -91 25.5 -140.5t71.5 -49.5t71 49.5t25 140.5q0 89 -25.5 142t-70.5 53z" />
    <glyph glyph-name="one.dnom" horiz-adv-x="312" 
d="M137 0v387l-104 -46l4 40l135 61h31v-442h-66z" />
    <glyph glyph-name="two.dnom" horiz-adv-x="393" 
d="M34 0v20l80 72q153 137 153 232q0 37 -20.5 61.5t-60.5 24.5q-57 0 -96 -39h-10l6 45q45 34 110 34q67 0 103 -34.5t36 -86.5q0 -53 -38.5 -106.5t-129.5 -131.5l-41 -35v-3h109q83 0 120 4h9l-19 -57h-311z" />
    <glyph glyph-name="three.dnom" horiz-adv-x="378" 
d="M261 127q0 95 -115 95h-14l3 36h15q45 0 67 21t22 57q0 77 -79 77q-45 0 -81 -30h-10l5 39q43 28 96 28q60 0 98 -29t38 -82q0 -70 -66 -94v-3q88 -28 88 -116q0 -64 -48.5 -99t-118.5 -35q-74 0 -118 33l-8 54h9q53 -45 116 -45q48 0 74.5 24t26.5 69z" />
    <glyph glyph-name="four.dnom" horiz-adv-x="385" 
d="M280 166h83l-7 -44h-76v-122h-59v122h-211v12l227 308h43v-276zM221 167v192h-6l-131 -188v-4h137z" />
    <glyph glyph-name="five.dnom" horiz-adv-x="371" 
d="M266 139q0 45 -25.5 72.5t-70.5 27.5q-47 0 -79 -20l-30 4l29 219h216l-11 -52h-162l-17 -126q23 13 66 13q67 0 108 -38t41 -99q0 -71 -49.5 -109.5t-121.5 -38.5q-70 0 -118 37l-7 51h10q49 -46 113 -46q51 0 79.5 27.5t28.5 77.5z" />
    <glyph glyph-name="six.dnom" horiz-adv-x="390" 
d="M201 -8q-73 0 -114.5 41.5t-41.5 115.5q0 110 68 192t158 109l30 -24q-59 -17 -113.5 -75.5t-71.5 -122.5h2q34 45 97 45q58 0 98 -37.5t40 -102.5q0 -60 -44 -100.5t-108 -40.5zM200 27q39 0 62 29.5t23 74.5q0 49 -21.5 77t-58.5 28q-40 0 -66 -28t-26 -73
q0 -49 23.5 -78.5t63.5 -29.5z" />
    <glyph glyph-name="seven.dnom" horiz-adv-x="374" 
d="M59 0q135 233 214 389h-233l10 53h294v-20q-117 -224 -215 -422h-70z" />
    <glyph glyph-name="eight.dnom" horiz-adv-x="406" 
d="M331 354q0 -65 -77 -103v-2q54 -27 80.5 -57.5t26.5 -77.5q0 -57 -47 -89.5t-115 -32.5q-70 0 -112 31t-42 88q0 39 27.5 73t75.5 54v2q-42 23 -59.5 48t-17.5 60q0 45 39 73.5t95 28.5q52 0 89 -25t37 -71zM280 355q0 30 -19 47.5t-53 17.5q-32 0 -50.5 -18.5
t-18.5 -49.5q0 -27 18 -46t59 -38q64 33 64 87zM291 109q0 39 -26 63.5t-81 46.5q-77 -37 -77 -106q0 -41 25 -64t67 -23t67 22.5t25 60.5z" />
    <glyph glyph-name="nine.dnom" horiz-adv-x="384" 
d="M113 -8l-30 24q69 25 120 82.5t68 127.5h-2q-33 -43 -99 -43q-55 0 -94 34t-39 97q0 59 42 97.5t105 38.5q72 0 113.5 -44t41.5 -120q0 -101 -63 -183t-163 -111zM183 221q39 0 63.5 25.5t24.5 67.5q0 45 -24 73t-61 28q-39 0 -60 -28t-21 -73q0 -43 21 -68t57 -25z" />
    <glyph glyph-name="zero.numr" horiz-adv-x="422" 
d="M211 688q72 0 119 -64.5t47 -166.5q0 -101 -47 -164t-119 -63t-119 63t-47 164q0 102 47 166.5t119 64.5zM211 652q-46 0 -71.5 -53t-25.5 -142q0 -91 25.5 -140.5t71.5 -49.5t71 49.5t25 140.5q0 89 -25.5 142t-70.5 53z" />
    <glyph glyph-name="one.numr" horiz-adv-x="312" 
d="M137 238v387l-104 -46l4 40l135 61h31v-442h-66z" />
    <glyph glyph-name="two.numr" horiz-adv-x="393" 
d="M34 238v20l80 72q153 137 153 232q0 37 -20.5 61.5t-60.5 24.5q-57 0 -96 -39h-10l6 45q45 34 110 34q67 0 103 -34.5t36 -86.5q0 -53 -38.5 -106.5t-129.5 -131.5l-41 -35v-3h109q83 0 120 4h9l-19 -57h-311z" />
    <glyph glyph-name="three.numr" horiz-adv-x="378" 
d="M261 365q0 95 -115 95h-14l3 36h15q45 0 67 21t22 57q0 77 -79 77q-45 0 -81 -30h-10l5 39q43 28 96 28q60 0 98 -29t38 -82q0 -70 -66 -94v-3q88 -28 88 -116q0 -64 -48.5 -99t-118.5 -35q-74 0 -118 33l-8 54h9q53 -45 116 -45q48 0 74.5 24t26.5 69z" />
    <glyph glyph-name="four.numr" horiz-adv-x="385" 
d="M280 404h83l-7 -44h-76v-122h-59v122h-211v12l227 308h43v-276zM221 405v192h-6l-131 -188v-4h137z" />
    <glyph glyph-name="five.numr" horiz-adv-x="371" 
d="M266 377q0 45 -25.5 72.5t-70.5 27.5q-47 0 -79 -20l-30 4l29 219h216l-11 -52h-162l-17 -126q23 13 66 13q67 0 108 -38t41 -99q0 -71 -49.5 -109.5t-121.5 -38.5q-70 0 -118 37l-7 51h10q49 -46 113 -46q51 0 79.5 27.5t28.5 77.5z" />
    <glyph glyph-name="six.numr" horiz-adv-x="390" 
d="M201 230q-73 0 -114.5 41.5t-41.5 115.5q0 110 68 192t158 109l30 -24q-59 -17 -113.5 -75.5t-71.5 -122.5h2q34 45 97 45q58 0 98 -37.5t40 -102.5q0 -60 -44 -100.5t-108 -40.5zM200 265q39 0 62 29.5t23 74.5q0 49 -21.5 77t-58.5 28q-40 0 -66 -28t-26 -73
q0 -49 23.5 -78.5t63.5 -29.5z" />
    <glyph glyph-name="seven.numr" horiz-adv-x="374" 
d="M59 238q135 233 214 389h-233l10 53h294v-20q-117 -224 -215 -422h-70z" />
    <glyph glyph-name="eight.numr" horiz-adv-x="406" 
d="M331 592q0 -65 -77 -103v-2q54 -27 80.5 -57.5t26.5 -77.5q0 -57 -47 -89.5t-115 -32.5q-70 0 -112 31t-42 88q0 39 27.5 73t75.5 54v2q-42 23 -59.5 48t-17.5 60q0 45 39 73.5t95 28.5q52 0 89 -25t37 -71zM280 593q0 30 -19 47.5t-53 17.5q-32 0 -50.5 -18.5
t-18.5 -49.5q0 -27 18 -46t59 -38q64 33 64 87zM291 347q0 39 -26 63.5t-81 46.5q-77 -37 -77 -106q0 -41 25 -64t67 -23t67 22.5t25 60.5z" />
    <glyph glyph-name="nine.numr" horiz-adv-x="384" 
d="M113 230l-30 24q69 25 120 82.5t68 127.5h-2q-33 -43 -99 -43q-55 0 -94 34t-39 97q0 59 42 97.5t105 38.5q72 0 113.5 -44t41.5 -120q0 -101 -63 -183t-163 -111zM183 459q39 0 63.5 25.5t24.5 67.5q0 45 -24 73t-61 28q-39 0 -60 -28t-21 -73q0 -43 21 -68t57 -25z" />
    <glyph glyph-name="uni00AD.ss01" horiz-adv-x="393" 
d="M340 384l-4 -51h-283l4 51h283z" />
    <glyph glyph-name="endash.ss01" horiz-adv-x="500" 
d="M495 382v-47h-490v47h490z" />
    <glyph glyph-name="emdash.ss01" horiz-adv-x="918" 
d="M818 382v-47h-718v47h718z" />
    <glyph glyph-name="uni2011.ss01" horiz-adv-x="393" 
d="M340 384l-4 -51h-283l4 51h283z" />
    <glyph glyph-name="caroncomb.alt" horiz-adv-x="0" 
d="M-46 718q-15 -101 -59 -183h-39q24 88 24 183h74z" />
    <glyph glyph-name="uni0308.case" horiz-adv-x="0" 
d="M-142 869v-87h-81v87h81zM23 869v-87h-81v87h81z" />
    <glyph glyph-name="uni0307.case" horiz-adv-x="0" 
d="M-55 871v-93h-89v93h89z" />
    <glyph glyph-name="gravecomb.case" horiz-adv-x="0" 
d="M-240 885h93l107 -129h-51z" />
    <glyph glyph-name="acutecomb.case" horiz-adv-x="0" 
d="M41 885l-149 -129h-51l107 129h93z" />
    <glyph glyph-name="uni030B.case" horiz-adv-x="0" 
d="M-36 885l-137 -129h-50l100 129h87zM117 885l-137 -129h-50l100 129h87z" />
    <glyph glyph-name="uni0302.case" horiz-adv-x="0" 
d="M-66 885l110 -129h-51l-95 81l-93 -81h-50l110 129h69z" />
    <glyph glyph-name="uni030C.case" horiz-adv-x="0" 
d="M-134 756l-110 129h52l95 -81l93 81h49l-110 -129h-69z" />
    <glyph glyph-name="uni0306.case" horiz-adv-x="0" 
d="M-198 882q4 -36 31.5 -56t66.5 -20q40 0 67.5 20t33.5 56h39q-6 -58 -43 -92t-97 -34q-62 0 -99 34.5t-40 91.5h41z" />
    <glyph glyph-name="uni030A.case" horiz-adv-x="0" 
d="M-100 724q-46 0 -76.5 30.5t-30.5 73.5q0 44 31 74t76 30t76 -30t31 -74t-31 -74t-76 -30zM-100 757q30 0 49 20.5t19 50.5q0 29 -18.5 50t-50.5 21q-29 0 -48 -20t-19 -51q0 -30 18.5 -50.5t49.5 -20.5z" />
    <glyph glyph-name="tildecomb.case" horiz-adv-x="0" 
d="M-91 853q43 -24 61 -24q20 0 32 10t18 35h34q-8 -46 -30 -72.5t-55 -26.5q-37 0 -72 21q-41 25 -65 25q-40 0 -50 -47h-36q4 41 27.5 71t59.5 30t76 -22z" />
    <glyph glyph-name="uni0304.case" horiz-adv-x="0" 
d="M56 848v-47h-311v47h311z" />
    </font>
</defs>
</svg>
