<?xml version="1.0" standalone="no"?>
<!DOCTYPE svg PUBLIC "-//W3C//DTD SVG 1.1//EN" "http://www.w3.org/Graphics/SVG/1.1/DTD/svg11.dtd" >
<svg xmlns="http://www.w3.org/2000/svg" xmlns:xlink="http://www.w3.org/1999/xlink" version="1.1">
<metadata>
Created by FontForge 20170731 at Wed Jun 27 13:51:32 2018
 By Aleksey,,,
Copyright (c) 2018 Mazda Motor Corp.
</metadata>
<defs>
<font id="MazdaType-Italic" horiz-adv-x="600" >
  <font-face 
    font-family="Mazda Type"
    font-weight="400"
    font-style="italic"
    font-stretch="normal"
    units-per-em="1000"
    panose-1="1 0 0 0 0 0 0 0 0 0"
    ascent="800"
    descent="-200"
    x-height="475"
    cap-height="680"
    bbox="-254 -248 1048 930"
    underline-thickness="50"
    underline-position="-200"
    slope="-10"
    unicode-range="U+000D-FEFF"
  />
<missing-glyph horiz-adv-x="572" 
d="M50 0h472v680h-472v-680zM148 618h276l-138 -228zM116 109v462l140 -231zM316 340l140 231v-462zM148 62l138 228l138 -228h-276z" />
    <glyph glyph-name="f_f" unicode="ff" horiz-adv-x="560" 
d="M634 728q39 0 62 -12l-4 -55h-10q-23 16 -57 16q-55 0 -83 -43.5t-43 -145.5l-2 -13h98l-12 -44h-94l-78 -431h-78l78 431h-200l-78 -431h-78l78 431h-73l8 44h73l7 36q19 97 70.5 157t137.5 60q39 0 62 -12l-4 -55h-10q-23 16 -57 16q-55 0 -83 -43.5t-43 -145.5l-2 -13
h200l7 36q18 97 70 157t138 60z" />
    <glyph glyph-name="fi" unicode="fi" horiz-adv-x="519" 
d="M55 0l78 431h-73l8 44h73l7 36q19 99 68 158t125 59q33 0 56 -11l-7 -55h-10q-18 15 -43 15q-45 0 -72.5 -42t-43.5 -147l-2 -13h98l-12 -44h-94l-78 -431h-78zM431 616l15 86h85l-15 -86h-85zM328 0l84 475h76l-83 -475h-77z" />
    <glyph glyph-name="fl" unicode="fl" horiz-adv-x="519" 
d="M55 0l78 431h-73l8 44h73l7 36q19 99 68 158t125 59q33 0 56 -11l-7 -55h-10q-18 15 -43 15q-45 0 -72.5 -42t-43.5 -147l-2 -13h98l-12 -44h-94l-78 -431h-78zM328 0l124 708l81 10l-129 -718h-76z" />
    <glyph glyph-name="f_f_i" unicode="ffi" horiz-adv-x="797" 
d="M499 488l-2 -13h98l-12 -44h-94l-78 -431h-78l78 431h-200l-78 -431h-78l78 431h-73l8 44h73l7 36q19 97 70.5 157t137.5 60q39 0 62 -12l-4 -55h-10q-23 16 -57 16q-55 0 -83 -43.5t-43 -145.5l-2 -13h200l7 36q19 99 68 158t125 59q33 0 56 -11l-7 -55h-10
q-18 15 -43 15q-45 0 -72.5 -42t-43.5 -147zM724 702h85l-15 -86h-85zM606 0l84 475h76l-83 -475h-77z" />
    <glyph glyph-name="f_f_l" unicode="ffl" horiz-adv-x="797" 
d="M499 488l-2 -13h98l-12 -44h-94l-78 -431h-78l78 431h-200l-78 -431h-78l78 431h-73l8 44h73l7 36q19 97 70.5 157t137.5 60q39 0 62 -12l-4 -55h-10q-23 16 -57 16q-55 0 -83 -43.5t-43 -145.5l-2 -13h200l7 36q19 99 68 158t125 59q33 0 56 -11l-7 -55h-10
q-18 15 -43 15q-45 0 -72.5 -42t-43.5 -147zM730 708l81 10l-129 -718h-76z" />
    <glyph glyph-name=".notdef" horiz-adv-x="572" 
d="M50 0h472v680h-472v-680zM148 618h276l-138 -228zM116 109v462l140 -231zM316 340l140 231v-462zM148 62l138 228l138 -228h-276z" />
    <glyph glyph-name=".null" horiz-adv-x="0" 
 />
    <glyph glyph-name=".null" horiz-adv-x="0" 
 />
    <glyph glyph-name="nonmarkingreturn" horiz-adv-x="333" 
 />
    <glyph glyph-name="CR" unicode="&#xd;" horiz-adv-x="247" 
 />
    <glyph glyph-name="space" unicode=" " horiz-adv-x="247" 
 />
    <glyph glyph-name="exclam" unicode="!" horiz-adv-x="344" 
d="M313 680l-110 -456h-44l52 456h102zM209 104l-18 -104h-98l18 104h98z" />
    <glyph glyph-name="quotedbl" unicode="&#x22;" horiz-adv-x="430" 
d="M258 680l-74 -256h-39l16 256h97zM432 680l-74 -256h-39l16 256h97z" />
    <glyph glyph-name="numbersign" unicode="#" horiz-adv-x="500" 
d="M48 0l66 184h-82l33 65h71l75 205h-83l33 64h71l59 162h49l-59 -162h110l58 162h50l-58 -162h81l-33 -64h-71l-74 -205h82l-33 -65h-72l-64 -184h-50l66 184h-110l-66 -184h-49zM186 249h109l73 205h-109z" />
    <glyph glyph-name="dollar" unicode="$" horiz-adv-x="520" 
d="M364 675q66 -7 106 -29l-3 -66l-15 1q-30 36 -97 43l-41 -236q58 -46 89 -90.5t30 -99.5q-1 -82 -53 -130.5t-133 -56.5l-19 -111h-50l19 110q-81 6 -150 53l-13 85h11q32 -37 75.5 -60.5t85.5 -27.5l49 275q-5 3 -13 9q-57 42 -81 76.5t-23 80.5q1 73 53 120t123 54
l17 94h50zM217 524q-1 -29 11.5 -52t41.5 -49l35 199q-37 -7 -62 -31t-26 -67zM353 184q1 58 -55 113l-41 -233q95 19 96 120z" />
    <glyph glyph-name="percent" unicode="%" horiz-adv-x="766" 
d="M643 702l36 -25l-512 -698l-36 25zM277 691q52 0 81.5 -34t29.5 -95q0 -86 -45.5 -154t-118.5 -68q-53 0 -84 34t-31 95q0 86 47.5 154t120.5 68zM275 654q-47 0 -75.5 -61t-28.5 -128q0 -87 56 -87q46 0 72.5 60t26.5 128q0 88 -51 88zM597 346q52 0 81.5 -34t29.5 -95
q0 -86 -45.5 -154t-118.5 -68q-53 0 -84 34t-31 95q0 86 47.5 154t120.5 68zM595 309q-47 0 -75.5 -61t-28.5 -128q0 -87 56 -87q46 0 72.5 60t26.5 128q0 88 -51 88z" />
    <glyph glyph-name="ampersand" unicode="&#x26;" horiz-adv-x="709" 
d="M559 0q-47 47 -83 88q-51 -51 -103.5 -75.5t-121.5 -24.5q-87 0 -145.5 42.5t-58.5 121.5q0 82 53.5 135t147.5 91q-48 59 -48 128q0 80 54 131t136 51q64 0 100.5 -34t36.5 -89q0 -60 -46 -104t-142 -84q78 -109 152 -189q13 20 32.5 73.5t27.5 94.5h63
q-12 -45 -37.5 -102t-53.5 -96q81 -88 159 -153l-1 -5h-122zM460 561q1 40 -18.5 63.5t-58.5 23.5q-49 0 -79.5 -38.5t-30.5 -88.5q0 -57 45 -114q141 59 142 154zM265 346q-131 -60 -131 -188q0 -55 35 -87.5t94 -32.5q110 0 184 81q-102 117 -182 227z" />
    <glyph glyph-name="quotesingle" unicode="'" horiz-adv-x="256" 
d="M258 680l-74 -256h-39l16 256h97z" />
    <glyph glyph-name="parenleft" unicode="(" horiz-adv-x="360" 
d="M135 134q0 -198 72 -296h-58q-41 48 -67.5 132.5t-26.5 184.5q0 153 68 313.5t182 251.5h58q-87 -75 -157.5 -238.5t-70.5 -347.5z" />
    <glyph glyph-name="parenright" unicode=")" horiz-adv-x="360" 
d="M239 424q0 198 -72 296h58q41 -48 67.5 -132.5t26.5 -184.5q0 -153 -68 -313.5t-182 -251.5h-58q87 75 157.5 238.5t70.5 347.5z" />
    <glyph glyph-name="asterisk" unicode="*" horiz-adv-x="362" 
d="M359 720l25 -44l-86 -43l86 -45l-25 -44l-81 55l5 -100h-50l6 101l-83 -56l-24 44l86 45l-86 43l25 43l81 -55l-5 101h50l-6 -101z" />
    <glyph glyph-name="plus" unicode="+" 
d="M333 503v-225h217v-53h-217v-225h-53v225h-217v53h217v225h53z" />
    <glyph glyph-name="comma" unicode="," horiz-adv-x="284" 
d="M187 110q-13 -37 -57 -121.5t-76 -129.5h-50q27 55 54.5 131.5t38.5 119.5h90z" />
    <glyph glyph-name="hyphen" unicode="-" horiz-adv-x="373" 
d="M69 293h269l-9 -47h-269z" />
    <glyph glyph-name="period" unicode="." horiz-adv-x="284" 
d="M76 106h94l-19 -106h-94z" />
    <glyph glyph-name="slash" unicode="/" 
d="M37 -193l-3 5l494 908l6 3h43l3 -5l-494 -908l-5 -3h-44z" />
    <glyph glyph-name="zero" unicode="0" horiz-adv-x="556" 
d="M366 692q89 0 135.5 -66.5t46.5 -185.5q0 -110 -32 -211t-101 -171t-160 -70t-141 64t-50 180q0 108 35 211.5t106 176t161 72.5zM360 643q-64 0 -114.5 -73t-74.5 -169t-24 -186q0 -178 109 -178q50 0 91 41t66 105t38.5 136t13.5 139q0 185 -105 185z" />
    <glyph glyph-name="one" unicode="1" horiz-adv-x="556" 
d="M313 0h-79l105 600l-159 -73v53l209 100h44z" />
    <glyph glyph-name="two" unicode="2" horiz-adv-x="556" 
d="M11 0l6 31l133 112q70 59 117.5 103.5t92.5 95.5t67.5 98t23.5 91q1 45 -26.5 76t-78.5 31q-86 0 -168 -71h-10l19 65q83 60 169 60q87 0 135 -43.5t47 -114.5q0 -47 -21.5 -94t-67.5 -98t-93.5 -94t-124.5 -105l-84 -68l-1 -4h168q138 0 179 5h10l-45 -76h-447z" />
    <glyph glyph-name="three" unicode="3" horiz-adv-x="556" 
d="M395 225q1 60 -41 91t-118 31h-27l14 49h23q80 0 124.5 41t46.5 109q1 43 -28 69t-81 26q-69 0 -129 -39h-10l19 56q69 34 138 34q78 0 125.5 -36.5t46.5 -102.5q-3 -126 -130 -173l-1 -5q50 -14 82 -51t31 -94q-3 -112 -79.5 -177t-192.5 -65q-107 0 -173 55l-6 73h11
q68 -72 171 -72q82 0 132.5 49.5t51.5 131.5z" />
    <glyph glyph-name="four" unicode="4" horiz-adv-x="556" 
d="M442 259h118l-21 -62h-108l-35 -197h-75l35 197h-327l1 24l426 459h61zM367 259l55 309h-8l-273 -303l-1 -6h227z" />
    <glyph glyph-name="five" unicode="5" horiz-adv-x="556" 
d="M419 242q2 58 -33.5 95.5t-99.5 37.5q-66 0 -124 -36l-36 5l109 336h306l-27 -73h-241l-67 -201q44 19 93 19q97 0 150 -45t52 -133q-2 -117 -80.5 -188t-200.5 -71q-108 0 -171 58l-2 71h10q62 -71 162 -71q87 0 142.5 54.5t57.5 141.5z" />
    <glyph glyph-name="six" unicode="6" horiz-adv-x="556" 
d="M184 352q57 64 147 64q88 0 136.5 -50.5t46.5 -135.5q-2 -106 -73 -174t-175 -68q-93 0 -150 54.5t-56 149.5q1 109 64 216t160 182t203 103l33 -30q-102 -29 -204 -123.5t-136 -187.5h4zM145 179q-1 -64 32 -105.5t93 -41.5q72 0 114.5 59t43.5 139q1 58 -29.5 99.5
t-85.5 41.5q-73 0 -120 -54t-48 -138z" />
    <glyph glyph-name="seven" unicode="7" horiz-adv-x="556" 
d="M84 0q127 206 400 606h-348l24 74h419l-6 -28q-300 -465 -409 -652h-80z" />
    <glyph glyph-name="eight" unicode="8" horiz-adv-x="556" 
d="M375 376l-1 -3q63 -39 99 -81t35 -100q-1 -94 -74.5 -149t-177.5 -55q-90 0 -148 45t-57 124q1 75 51.5 123t137.5 83v3q-48 29 -71 64t-22 84q1 58 35.5 100t81.5 60t97 18q72 0 119 -39.5t46 -104.5q-1 -64 -37.5 -101.5t-113.5 -70.5zM462 543q2 47 -25.5 77t-78.5 30
q-50 0 -91 -32.5t-42 -91.5q-1 -40 24 -67.5t82 -60.5q67 27 98.5 60.5t32.5 84.5zM423 181q1 51 -34.5 87t-105.5 71q-80 -33 -121.5 -74t-42.5 -105q-1 -56 40 -92t101 -36q70 0 116 40.5t47 108.5z" />
    <glyph glyph-name="nine" unicode="9" horiz-adv-x="556" 
d="M435 353q-53 -64 -143 -64q-89 0 -140.5 45.5t-50.5 125.5q2 103 75.5 167t175.5 64q92 0 144.5 -57.5t52.5 -147.5q0 -166 -132 -311.5t-313 -188.5l-30 33q133 44 232.5 140.5t132.5 193.5h-4zM468 507q0 57 -31.5 98.5t-88.5 41.5q-70 0 -115 -53t-46 -132
q-1 -55 30 -91.5t87 -36.5q67 0 115.5 45.5t48.5 127.5z" />
    <glyph glyph-name="colon" unicode=":" horiz-adv-x="340" 
d="M261 475l-19 -106h-108l19 106h108zM197 106l-19 -106h-108l19 106h108z" />
    <glyph glyph-name="semicolon" unicode=";" horiz-adv-x="340" 
d="M261 475l-19 -106h-108l19 106h108zM191 110q-13 -37 -57 -121.5t-76 -129.5h-50q27 55 54.5 131.5t38.5 119.5h90z" />
    <glyph glyph-name="less" unicode="&#x3c;" 
d="M552 459l-430 -206l430 -206v-55l-492 234v54l492 234v-55z" />
    <glyph glyph-name="equal" unicode="=" 
d="M550 378v-53h-487v53h487zM550 181v-53h-487v53h487z" />
    <glyph glyph-name="greater" unicode="&#x3e;" 
d="M60 514l492 -234v-54l-492 -234v55l430 206l-430 206v55z" />
    <glyph glyph-name="question" unicode="?" horiz-adv-x="470" 
d="M178 225l3 22q8 44 33 75t67 60q51 36 78 72t27 90q0 42 -26 67t-71 25q-81 0 -146 -57h-10l18 66q73 47 150 47q81 0 126 -40.5t45 -104.5q0 -32 -8.5 -59t-19.5 -44.5t-35.5 -37.5t-40.5 -30t-51 -31q-37 -22 -57 -45t-28 -64l-1 -11h-53zM237 104l-18 -104h-98l18 104
h98z" />
    <glyph glyph-name="at" unicode="@" horiz-adv-x="868" 
d="M642 -34l-8 -47q-91 -39 -206 -39q-166 0 -262 84.5t-96 226.5q0 214 141.5 351.5t349.5 137.5q131 0 216 -74t85 -214q0 -135 -83.5 -232t-204.5 -97q-37 0 -56 16t-19 43q0 10 1 16q-60 -75 -130 -75q-50 0 -74 31t-24 78q0 79 35.5 155.5t99.5 127.5t137 51
q49 0 82 -28h59l-110 -298q-12 -29 -12 -53q0 -23 26 -23q91 0 155 87.5t64 197.5q0 117 -66 183.5t-180 66.5q-179 0 -298 -127.5t-119 -320.5q0 -124 76 -195t210 -71q60 0 118.5 12.5t92.5 28.5zM600 446q-16 21 -57 21q-51 0 -95.5 -49.5t-67.5 -116.5t-23 -128
q0 -68 41 -68q36 0 70 34t41 58z" />
    <glyph glyph-name="A" unicode="A" horiz-adv-x="626" 
d="M493 0l-53 263h-251l-152 -263h-72l408 676l63 6l148 -682h-91zM376 574h-5l-152 -259h210z" />
    <glyph glyph-name="B" unicode="B" horiz-adv-x="551" 
d="M184 680h146q85 0 136 -38t50 -112q-1 -64 -43.5 -107.5t-114.5 -56.5l-1 -5q66 -11 105.5 -51.5t38.5 -101.5q-1 -72 -42 -120t-102 -68t-138 -20h-155zM212 385h51q89 0 129 39t41 96q3 111 -133 111h-44zM213 49q204 0 205 155q0 66 -46.5 101.5t-116.5 35.5h-50
l-52 -292h60z" />
    <glyph glyph-name="C" unicode="C" horiz-adv-x="679" 
d="M671 562q-29 37 -81.5 57.5t-111.5 20.5q-130 0 -219 -102t-89 -249q0 -113 64.5 -178.5t179.5 -65.5q62 0 121 19.5t93 49.5h13l-26 -70q-93 -56 -214 -56q-151 0 -237.5 78.5t-86.5 217.5q0 117 55.5 211.5t147.5 145.5t201 51q125 0 190 -49l14 -81h-14z" />
    <glyph glyph-name="D" unicode="D" horiz-adv-x="753" 
d="M184 680h191q159 0 253 -74t92 -217q-3 -176 -125 -282.5t-322 -106.5h-209zM155 50h105q165 0 265 88.5t103 244.5q2 128 -74 187.5t-217 59.5h-79z" />
    <glyph glyph-name="E" unicode="E" horiz-adv-x="486" 
d="M434 60l-35 -60h-335l120 680h308l-9 -51h-226l-45 -258h203l-8 -49h-203l-49 -272h129q105 0 144 10h6z" />
    <glyph glyph-name="F" unicode="F" horiz-adv-x="460" 
d="M184 680h332l-9 -53h-250l-46 -261h225l-9 -53h-225l-55 -313h-83z" />
    <glyph glyph-name="G" unicode="G" horiz-adv-x="720" 
d="M406 -12q-152 0 -241.5 80t-87.5 215q3 182 119 295.5t284 113.5q116 0 184 -42l16 -78h-16q-29 29 -80 47.5t-105 18.5q-137 0 -221 -98.5t-87 -255.5q-2 -115 65 -178.5t179 -63.5q81 0 130 27l47 266h81l-53 -299q-88 -48 -214 -48z" />
    <glyph glyph-name="H" unicode="H" horiz-adv-x="728" 
d="M184 680h83l-52 -294h366l51 294h83l-120 -680h-82l58 331h-366l-58 -331h-83z" />
    <glyph glyph-name="I" unicode="I" horiz-adv-x="280" 
d="M184 680h83l-120 -680h-83z" />
    <glyph glyph-name="J" unicode="J" horiz-adv-x="280" 
d="M185 680h83l-100 -568q-17 -114 -67.5 -172.5t-152.5 -89.5l-55 17v9q87 25 130 76.5t63 162.5z" />
    <glyph glyph-name="K" unicode="K" 
d="M266 680l-119 -680h-83l119 680h83zM564 680h85l-348 -324q114 -181 263 -351l-1 -5h-105q-125 160 -239 343l1 7z" />
    <glyph glyph-name="L" unicode="L" horiz-adv-x="432" 
d="M364 0h-300l120 680h83l-114 -630h98q100 0 139 10h6z" />
    <glyph glyph-name="M" unicode="M" horiz-adv-x="910" 
d="M296 680l148 -530h3l335 530h84l-65 -680h-84l59 561h-4l-332 -516h-47l-143 505h-4l-144 -550h-68l186 680h76z" />
    <glyph glyph-name="N" unicode="N" horiz-adv-x="740" 
d="M564 137h3l93 543h63l-120 -680h-50l-326 556h-5l-95 -556h-63l120 680h65z" />
    <glyph glyph-name="O" unicode="O" horiz-adv-x="792" 
d="M478 692q125 0 206 -74t79 -211q-3 -179 -114 -299t-277 -120q-128 0 -209.5 74t-78.5 211q3 176 115.5 297.5t278.5 121.5zM377 40q132 0 213 107.5t83 253.5q2 113 -49.5 176t-150.5 63q-133 0 -215 -107.5t-84 -255.5q-2 -112 50.5 -174.5t152.5 -62.5z" />
    <glyph glyph-name="P" unicode="P" horiz-adv-x="530" 
d="M184 680h149q209 0 206 -164q-1 -101 -76.5 -158t-189.5 -57h-76l-52 -301h-81zM206 347h67q83 0 131.5 41.5t49.5 122.5q1 66 -34 94.5t-113 28.5h-51z" />
    <glyph glyph-name="Q" unicode="Q" horiz-adv-x="792" 
d="M519 17q49 -42 119 -85.5t130 -70.5l-2 -9l-113 -20q-43 23 -105.5 71.5t-105.5 90.5q-34 -6 -70 -6q-128 0 -209.5 74t-78.5 211q3 176 115.5 297.5t278.5 121.5q125 0 206 -74t79 -211q-2 -135 -68 -240t-176 -150zM174 277q-2 -112 50.5 -174.5t152.5 -62.5
q132 0 213 107.5t83 253.5q2 113 -49.5 176t-150.5 63q-133 0 -215 -107.5t-84 -255.5z" />
    <glyph glyph-name="R" unicode="R" horiz-adv-x="578" 
d="M184 680h147q95 0 147.5 -39.5t51.5 -119.5q-1 -79 -56.5 -134.5t-141.5 -67.5l-2 -4q116 -191 222 -308l-1 -7h-106q-69 90 -198 311h-46l-55 -311h-82zM208 353h75q160 18 163 164q1 58 -35.5 85.5t-100.5 27.5h-53z" />
    <glyph glyph-name="S" unicode="S" horiz-adv-x="482" 
d="M453 597q-19 19 -52.5 30.5t-64.5 11.5q-48 0 -85 -28t-38 -82q-1 -38 19 -66t71 -67q67 -52 101.5 -99.5t33.5 -107.5q-1 -94 -66 -147t-160 -53q-46 0 -94 17t-82 40l-13 88h11q36 -42 85 -66.5t96 -24.5q61 0 100 33t40 99q1 45 -27.5 82.5t-88.5 83.5
q-59 45 -84 80.5t-24 83.5q1 84 64 135.5t143 51.5q78 0 134 -31l-3 -65z" />
    <glyph glyph-name="T" unicode="T" horiz-adv-x="470" 
d="M266 627h-176l9 53h446l-10 -53h-186l-110 -627h-83z" />
    <glyph glyph-name="U" unicode="U" horiz-adv-x="690" 
d="M325 -11q-114 0 -175 53t-59 147q2 32 5 50l78 441h83l-76 -427q-4 -28 -6 -59q-1 -76 37.5 -113t117.5 -37q94 0 146 50t70 157l75 429h61l-78 -441q-21 -121 -91 -185.5t-188 -64.5z" />
    <glyph glyph-name="V" unicode="V" horiz-adv-x="610" 
d="M693 680l-399 -680h-63l-133 680h87l108 -574h4l324 574h72z" />
    <glyph glyph-name="W" unicode="W" horiz-adv-x="932" 
d="M621 0l-91 552h-6l-293 -552h-63l-55 678l85 2l38 -553h2l293 553h62l87 -556h3l238 556h76l-310 -680h-66z" />
    <glyph glyph-name="X" unicode="X" horiz-adv-x="584" 
d="M-9 0l284 348l-159 332h92l125 -277h4l215 277h77l-266 -326l171 -354h-93l-136 295h-4l-232 -295h-78z" />
    <glyph glyph-name="Y" unicode="Y" horiz-adv-x="523" 
d="M249 314l-164 366h91l132 -303h5l224 303h73l-278 -356l-57 -324h-81z" />
    <glyph glyph-name="Z" unicode="Z" horiz-adv-x="670" 
d="M589 -1l-582 1l4 24l550 597l1 6h-411l22 53h528l-3 -19l-557 -605v-6q260 0 338.5 2.5t141.5 14.5h6z" />
    <glyph glyph-name="bracketleft" unicode="[" horiz-adv-x="360" 
d="M373 720l-8 -43h-116l-140 -796h116l-8 -43h-198l156 882h198z" />
    <glyph glyph-name="backslash" unicode="\" 
d="M120 721h41l5 -3l321 -908l-3 -5h-40l-6 3l-321 908z" />
    <glyph glyph-name="bracketright" unicode="]" horiz-adv-x="360" 
d="M2 -162l8 43h116l140 796h-116l8 43h198l-156 -882h-198z" />
    <glyph glyph-name="asciicircum" unicode="^" 
d="M295 691h52l222 -453h-57l-192 390l-189 -390h-58z" />
    <glyph glyph-name="underscore" unicode="_" horiz-adv-x="500" 
d="M-61 -145l10 54h500l-10 -54h-500z" />
    <glyph glyph-name="grave" unicode="`" horiz-adv-x="200" 
d="M171 718l79 -141h-47l-114 141h82z" />
    <glyph glyph-name="a" unicode="a" horiz-adv-x="516" 
d="M348 0l-3 72q-66 -82 -167 -82q-63 0 -97.5 31.5t-34.5 78.5q0 68 42 103.5t122 52.5q110 23 140.5 31.5t33.5 17.5q7 20 7 44q0 42 -26 65.5t-72 23.5q-80 0 -147 -55h-10l16 62q68 40 144 40q83 0 126.5 -34.5t43.5 -96.5q0 -20 -5 -44l-41 -221q-7 -33 -7 -89h-65z
M207 35q49 0 89 31t59 79l20 109q-135 -22 -191 -50t-56 -92q0 -34 21.5 -55.5t57.5 -21.5z" />
    <glyph glyph-name="b" unicode="b" horiz-adv-x="562" 
d="M114 0h-63l124 708l80 10l-65 -341h2q58 108 166 108q87 0 126.5 -54t39.5 -140q0 -119 -68 -210t-186 -91q-48 0 -81.5 24.5t-48.5 61.5h-2zM337 437q-76 0 -129.5 -78t-55.5 -168q-2 -73 28.5 -113.5t86.5 -40.5q83 0 129 77.5t46 174.5q0 148 -105 148z" />
    <glyph glyph-name="c" unicode="c" horiz-adv-x="465" 
d="M346 485q82 0 115 -28l-1 -60h-12q-31 42 -101 42q-92 0 -147.5 -69t-57.5 -170q-1 -70 37.5 -115t99.5 -45q81 0 136 52h11l-26 -59q-55 -43 -138 -43q-97 0 -151.5 56t-52.5 150q2 125 83 207t205 82z" />
    <glyph glyph-name="d" unicode="d" horiz-adv-x="562" 
d="M491 708l81 10l-126 -718h-67l12 90h-2q-57 -100 -167 -100q-87 0 -125 54t-38 140q0 56 16.5 108.5t47.5 96t80.5 70t110.5 26.5q44 0 78 -22t51 -58h2zM244 38q76 0 128 76t55 167q7 157 -111 157q-83 0 -129 -77.5t-46 -174.5q0 -148 103 -148z" />
    <glyph glyph-name="e" unicode="e" horiz-adv-x="514" 
d="M141 253q-4 -20 -4 -45q0 -79 38.5 -123t109.5 -44q92 0 155 59h11l-26 -62q-66 -48 -152 -48q-105 0 -160 57t-55 154q0 120 72.5 202t181.5 82q170 0 170 -174q0 -28 -8 -58h-333zM406 300q2 10 2 21q0 123 -99 123q-52 0 -97 -37.5t-62 -106.5h256z" />
    <glyph glyph-name="f" unicode="f" horiz-adv-x="282" 
d="M356 728q39 0 62 -12l-4 -55h-10q-23 16 -57 16q-55 0 -83 -43.5t-43 -145.5l-2 -13h98l-12 -44h-94l-78 -431h-78l78 431h-73l8 44h73l7 36q18 97 70 157t138 60z" />
    <glyph glyph-name="g" unicode="g" horiz-adv-x="491" 
d="M288 65q89 0 131 -23t42 -77q0 -87 -83.5 -144.5t-195.5 -57.5q-87 0 -139 30t-52 84q0 36 24.5 66.5t69.5 65.5q-58 18 -58 68q1 29 94 130q-40 38 -40 91q0 82 55 134.5t139 52.5q51 0 91 -15h152l-13 -42h-94v-4q24 -26 24 -76q0 -77 -55.5 -127.5t-142.5 -50.5
q-61 0 -91 20q-41 -55 -42 -83q-2 -23 15.5 -32.5t61.5 -9.5h107zM157 298q0 -39 22 -63.5t59 -24.5q61 0 89.5 39.5t28.5 104.5q0 43 -23.5 67.5t-59.5 24.5q-52 0 -84 -44.5t-32 -103.5zM185 -191q81 0 139 36.5t58 94.5q0 25 -15 36t-46 16q-43 7 -209 10
q-48 -48 -48 -109q0 -84 121 -84z" />
    <glyph glyph-name="h" unicode="h" horiz-adv-x="542" 
d="M354 0l50 291q8 45 8 63q0 76 -72 76q-64 0 -110.5 -54.5t-59.5 -132.5l-41 -243h-78l125 708l81 10l-63 -343h3q26 47 71 78.5t99 31.5q124 0 124 -125q0 -20 -7 -62l-52 -298h-78z" />
    <glyph glyph-name="i" unicode="i" horiz-adv-x="242" 
d="M169 702h85l-15 -86h-85zM135 475h76l-83 -475h-77z" />
    <glyph glyph-name="j" unicode="j" horiz-adv-x="242" 
d="M253 702l-15 -86h-85l15 86h85zM213 475l-82 -464q-21 -120 -76.5 -177.5t-161.5 -81.5l-41 22v11q92 25 138.5 73t65.5 156l81 461h76z" />
    <glyph glyph-name="k" unicode="k" horiz-adv-x="463" 
d="M175 708l81 10l-129 -718h-76zM180 250l228 225h83l-231 -215q78 -136 175 -255v-5h-94q-77 105 -162 244z" />
    <glyph glyph-name="l" unicode="l" horiz-adv-x="242" 
d="M175 708l81 10l-129 -718h-76z" />
    <glyph glyph-name="m" unicode="m" horiz-adv-x="835" 
d="M653 485q57 0 95 -28t37 -92q0 -30 -8 -67l-52 -298h-78l50 291q8 45 8 63q2 76 -69 76q-55 0 -102.5 -47t-57.5 -105l-50 -278h-78l50 291q8 45 8 63q0 76 -66 76q-64 0 -110.5 -54t-59.5 -133l-41 -243h-78l84 475h71l-12 -100h3q27 48 68 79t92 31q122 0 122 -120h2
q29 55 74 87.5t98 32.5z" />
    <glyph glyph-name="n" unicode="n" horiz-adv-x="542" 
d="M354 0l50 291q8 45 8 63q0 76 -72 76q-64 0 -110.5 -54.5t-59.5 -132.5l-41 -243h-78l84 475h71l-12 -100h3q26 47 71 78.5t99 31.5q124 0 124 -125q0 -20 -7 -62l-52 -298h-78z" />
    <glyph glyph-name="o" unicode="o" horiz-adv-x="566" 
d="M327 485q92 0 147 -50.5t55 -143.5q0 -125 -77 -213t-192 -88q-88 0 -143 53t-55 144q0 121 77 209.5t188 88.5zM262 39q87 0 135.5 74t48.5 178q0 65 -30 105.5t-91 40.5q-83 0 -131.5 -74t-48.5 -172q0 -65 28.5 -108.5t88.5 -43.5z" />
    <glyph glyph-name="p" unicode="p" horiz-adv-x="562" 
d="M89 -223h-77l121 698h73l-14 -96h2q57 106 168 106q87 0 127 -54.5t40 -139.5q0 -56 -16.5 -108.5t-47.5 -96t-80.5 -70t-110.5 -26.5q-48 0 -83 24.5t-49 61.5h-2zM341 437q-76 0 -129 -77.5t-56 -168.5q-2 -73 28.5 -113.5t86.5 -40.5q83 0 129 77.5t46 174.5
q0 148 -105 148z" />
    <glyph glyph-name="q" unicode="q" horiz-adv-x="562" 
d="M470 475h72l-131 -698h-78l64 316h-2q-25 -45 -68 -74t-101 -29q-87 0 -127 54.5t-40 139.5q0 75 29 142.5t89.5 113t140.5 45.5q45 0 79 -22t51 -58h2zM248 38q76 0 128 76t55 167q7 157 -111 157q-57 0 -99 -40t-60.5 -96t-18.5 -116q0 -148 106 -148z" />
    <glyph glyph-name="r" unicode="r" horiz-adv-x="332" 
d="M134 475h72l-18 -121h3q29 52 76.5 94t98.5 41l-19 -75q-68 0 -116 -53.5t-62 -131.5l-40 -229h-78z" />
    <glyph glyph-name="s" unicode="s" horiz-adv-x="372" 
d="M345 405q-37 35 -96 35q-37 0 -59.5 -17t-22.5 -47q0 -25 12.5 -44t53.5 -56q47 -43 67 -74.5t20 -70.5q0 -65 -47.5 -102t-111.5 -37q-74 0 -131 37l-12 70h11q60 -58 128 -58q40 0 63.5 21t23.5 56q0 32 -14.5 53.5t-57.5 61.5q-45 41 -60 65.5t-15 58.5q0 59 46 93.5
t108 34.5q54 0 94 -20l10 -61z" />
    <glyph glyph-name="t" unicode="t" horiz-adv-x="302" 
d="M149 122q-3 -27 -3 -32q0 -49 49 -49q43 0 80 21l-11 -41q-44 -29 -99 -29q-98 0 -98 85q0 7 4 35l57 319h-72l8 44h72l22 127l78 10l-24 -137h128l-13 -44h-123z" />
    <glyph glyph-name="u" unicode="u" horiz-adv-x="533" 
d="M202 475l-50 -291q-8 -45 -8 -63q0 -76 70 -76q65 0 111 54t59 133l41 243h78l-84 -475h-71l13 100h-3q-26 -46 -70.5 -78t-94.5 -32q-57 0 -93 28t-36 92q0 21 8 67l52 298h78z" />
    <glyph glyph-name="v" unicode="v" horiz-adv-x="432" 
d="M483 475l-286 -475h-58l-80 475h84l57 -378h3l212 378h68z" />
    <glyph glyph-name="w" unicode="w" horiz-adv-x="745" 
d="M710 475h69l-245 -475h-62l-63 374h-4l-204 -374h-61l-68 475h81l48 -376h2l201 376h57l67 -376h3z" />
    <glyph glyph-name="x" unicode="x" horiz-adv-x="442" 
d="M-18 0l200 246l-108 229h83l84 -184h5l143 184h65l-187 -227l118 -248h-84l-92 201h-5l-157 -201h-65z" />
    <glyph glyph-name="y" unicode="y" horiz-adv-x="452" 
d="M78 -223h-84q93 115 176 248l-115 450h83l88 -366h3q96 170 194 366h67q-225 -413 -412 -698z" />
    <glyph glyph-name="z" unicode="z" horiz-adv-x="460" 
d="M130 475h349l-3 -18l-362 -405l-1 -5q165 0 224.5 2.5t99.5 11.5h6l-48 -61h-404l3 18l363 405l1 6h-256z" />
    <glyph glyph-name="braceleft" unicode="{" horiz-adv-x="360" 
d="M362 680h-18q-41 0 -57 -20t-26 -78l-28 -158q-9 -53 -36.5 -92t-67.5 -52v-2q57 -32 57 -103q0 -21 -4 -40l-26 -156q-6 -34 -6 -48q0 -28 11.5 -40.5t40.5 -12.5h19l-8 -40h-50q-97 0 -97 94q0 7 2 25l28 156q6 36 6 63q0 41 -15 59.5t-48 18.5l9 50q44 0 68.5 33.5
t37.5 106.5l29 160q8 50 42 83t95 33h49z" />
    <glyph glyph-name="bar" unicode="|" horiz-adv-x="235" 
d="M149 -214h-52v1000h52v-1000z" />
    <glyph glyph-name="braceright" unicode="}" horiz-adv-x="360" 
d="M13 -122h18q41 0 57 20t26 78l28 158q9 53 36.5 92t67.5 52v2q-57 32 -57 103q0 12 4 40l26 156q6 34 6 48q0 28 -11.5 40.5t-40.5 12.5h-19l8 40h50q97 0 97 -94q0 -16 -2 -25l-28 -156q-6 -36 -6 -63q0 -41 15 -59.5t48 -18.5l-9 -50q-44 0 -68.5 -33.5t-37.5 -106.5
l-29 -160q-9 -51 -42.5 -83.5t-94.5 -32.5h-49z" />
    <glyph glyph-name="asciitilde" unicode="~" 
d="M530 279q-29 -46 -57.5 -66t-63.5 -20q-41 0 -103 31q-68 34 -108 34q-52 0 -81 -69l-35 36q41 86 121 86q42 0 120 -36q64 -29 87 -29q42 0 85 69z" />
    <glyph glyph-name="uni00A0" unicode="&#xa0;" horiz-adv-x="247" 
 />
    <glyph glyph-name="exclamdown" unicode="&#xa1;" horiz-adv-x="344" 
d="M158 371l18 104h98l-18 -104h-98zM55 -205l109 456h44l-51 -456h-102z" />
    <glyph glyph-name="cent" unicode="&#xa2;" 
d="M411 484q66 -3 103 -32v-58h-12q-33 42 -99 47l-70 -401q76 3 128 52h11l-26 -59q-44 -36 -122 -42l-19 -111h-50l19 111q-81 8 -128 60.5t-47 136.5q0 119 73.5 201.5t187.5 93.5l19 107h50zM191 198q0 -58 24.5 -98t68.5 -54l68 391q-74 -16 -117.5 -84t-43.5 -155z
" />
    <glyph glyph-name="sterling" unicode="&#xa3;" horiz-adv-x="569" 
d="M12 24q79 49 127 124t48 162q0 22 -2 32h-99l9 48h90q-3 22 -3 45q0 116 67 186.5t181 70.5q66 0 113 -21l1 -57h-10q-42 29 -111 29q-153 0 -153 -209q0 -16 2 -44h174l-9 -48h-165q-1 -98 -36 -156.5t-111 -110.5l-1 -4q301 0 364 9h6l-46 -80h-440z" />
    <glyph glyph-name="currency" unicode="&#xa4;" 
d="M565 380q0 -110 -83 -191l41 -49l-44 -37l-41 51q-68 -46 -148 -46t-136 50l-56 -47l-34 41l56 46q-32 50 -32 112q0 109 83 192l-41 49l44 37l42 -50q68 45 146 45q81 0 137 -50l56 47l34 -41l-56 -46q32 -50 32 -113zM154 311q0 -62 40.5 -104.5t102.5 -42.5
q83 0 142.5 65t59.5 152q0 62 -40 104t-102 42q-83 0 -143 -65t-60 -151z" />
    <glyph glyph-name="yen" unicode="&#xa5;" 
d="M640 680l-242 -305h143l-8 -44h-170l-13 -77h169l-7 -44h-170l-37 -210h-81l36 210h-155l7 44h155l13 76v1h-154l8 44h124l-146 305h97l130 -293h5l223 293h73z" />
    <glyph glyph-name="brokenbar" unicode="&#xa6;" horiz-adv-x="235" 
d="M97 661h52v-250h-52v250zM97 161h52v-250h-52v250z" />
    <glyph glyph-name="section" unicode="&#xa7;" 
d="M404 652q-48 0 -81 -28t-33 -73q0 -33 23 -56t74 -52q69 -38 99 -74.5t30 -80.5q0 -113 -131 -161q55 -49 55 -110q0 -81 -55.5 -127t-145.5 -46q-54 0 -101.5 19t-75.5 49l-5 83h11q27 -47 76 -72t101 -25t84 27.5t32 76.5q0 37 -26.5 62t-89.5 60q-60 33 -87.5 63.5
t-27.5 76.5q0 117 138 161q-55 47 -55 105q0 79 59.5 124.5t135.5 45.5q87 0 121 -29l-4 -67h-10q-35 48 -111 48zM438 267q0 34 -26.5 60t-84.5 59q-11 6 -23 14q-41 -12 -69.5 -41.5t-28.5 -69.5q0 -30 18 -51.5t67 -48.5q36 -20 61 -37q86 37 86 115z" />
    <glyph glyph-name="dieresis" unicode="&#xa8;" horiz-adv-x="200" 
d="M140 700l-14 -84h-80l14 84h80zM303 700l-14 -84h-80l14 84h80z" />
    <glyph glyph-name="copyright" unicode="&#xa9;" horiz-adv-x="797" 
d="M785 346q0 -151 -103 -256t-257 -105q-153 0 -257 104.5t-104 256.5q0 153 104 256.5t257 103.5q151 0 255.5 -104t104.5 -256zM425 36q130 0 217 90t87 220t-88.5 219.5t-216.5 89.5q-130 0 -217 -89.5t-87 -219.5q0 -129 86 -219.5t219 -90.5zM564 471q-35 31 -103 31
q-62 0 -103.5 -42t-41.5 -114q0 -70 43 -110.5t105 -40.5q68 0 109 36h9l-12 -56q-44 -30 -114 -30q-97 0 -161 52.5t-64 148.5t65.5 150t154.5 54q70 0 115 -25l7 -54h-9z" />
    <glyph glyph-name="ordfeminine" unicode="&#xaa;" horiz-adv-x="386" 
d="M295 349l-3 48q-46 -55 -111 -55q-47 0 -71 21t-24 58q0 82 116 110q105 25 114 32q4 4 5 8q3 12 3 23q0 29 -20 44t-52 15q-50 0 -100 -38h-9l13 47q51 30 109 30q60 0 91 -24.5t31 -67.5q0 -14 -3 -31l-27 -156q-7 -38 -6 -64h-56zM201 377q29 0 59 22.5t40 52.5l13 76
q-91 -16 -126 -40t-35 -62q0 -23 13 -36t36 -13z" />
    <glyph glyph-name="guillemotleft" unicode="&#xab;" horiz-adv-x="418" 
d="M244 431l-10 -57l-108 -99l73 -99l-10 -53l-137 125l10 54zM401 431l-10 -57l-108 -99l73 -99l-10 -53l-137 125l10 54z" />
    <glyph glyph-name="logicalnot" unicode="&#xac;" 
d="M550 378v-267h-52v214h-436v53h488z" />
    <glyph glyph-name="uni00AD" unicode="&#xad;" horiz-adv-x="373" 
d="M69 293h269l-9 -47h-269z" />
    <glyph glyph-name="registered" unicode="&#xae;" horiz-adv-x="527" 
d="M524 464q0 -90 -61 -152t-152 -62t-152.5 61.5t-61.5 152.5t61.5 152t152.5 61q90 0 151.5 -61.5t61.5 -151.5zM311 280q77 0 128.5 53.5t51.5 130.5t-52 130t-129 53t-128.5 -53t-51.5 -130q0 -78 51 -131t130 -53zM305 587q94 0 94 -61q0 -28 -13 -44.5t-44 -24.5
l86 -117h-52l-76 110h-20v-110h-41v247h66zM294 476q17 0 27 1.5t22 11.5t12 30t-13 31.5t-34 11.5h-28v-86h14z" />
    <glyph glyph-name="macron" unicode="&#xaf;" horiz-adv-x="200" 
d="M330 681l-8 -47h-305l8 47h305z" />
    <glyph glyph-name="degree" unicode="&#xb0;" horiz-adv-x="416" 
d="M416 562q0 -59 -41.5 -101.5t-102.5 -42.5q-60 0 -102 41t-42 103q0 61 42.5 102.5t101.5 41.5q60 0 102 -42.5t42 -101.5zM272 457q44 0 74.5 31t30.5 74t-30.5 74t-75.5 31q-43 0 -73.5 -30.5t-30.5 -74.5t30.5 -74.5t74.5 -30.5z" />
    <glyph glyph-name="plusminus" unicode="&#xb1;" 
d="M333 503v-180h217v-53h-217v-180h-53v180h-217v53h217v180h53zM550 53v-53h-487v53h487z" />
    <glyph glyph-name="two.sups" unicode="&#xb2;" horiz-adv-x="389" 
d="M68 430l4 20l93 72q110 85 152.5 139t42.5 105q0 33 -18.5 53.5t-52.5 20.5q-59 0 -105 -39h-10l15 45q48 34 110 34q60 0 94 -30.5t34 -81.5q0 -60 -49 -117.5t-145 -129.5l-47 -35v-3h93q83 0 120 4h9l-29 -57h-311z" />
    <glyph glyph-name="three.sups" unicode="&#xb3;" horiz-adv-x="374" 
d="M322 573q0 37 -28 58t-74 21h-10l10 36h15q49 0 75.5 26.5t26.5 66.5q0 28 -17.5 45t-51.5 17q-48 0 -88 -30h-10l11 39q49 28 100 28q54 0 87 -24.5t33 -68.5q0 -45 -27.5 -76t-76.5 -39v-3q37 -6 63 -32.5t26 -64.5q0 -69 -50.5 -109.5t-126.5 -40.5q-71 0 -114 37
l-4 51h9q48 -48 109 -48q52 0 82.5 30t30.5 81z" />
    <glyph glyph-name="acute" unicode="&#xb4;" horiz-adv-x="200" 
d="M284 718l-161 -141h-53l123 141h91z" />
    <glyph glyph-name="uni00B5" unicode="&#xb5;" 
d="M185 475v-303q0 -124 88 -124q66 0 104 53t38 131v243h83v-475h-77l-5 100h-3q-18 -36 -30.5 -55.5t-41 -37t-67.5 -17.5q-27 0 -50 11t-33 28h-4v-179h-85v625h83z" />
    <glyph glyph-name="paragraph" unicode="&#xb6;" 
d="M434 -171h-62l142 810h-116l-142 -810h-62l86 489q-75 0 -123 45t-48 113q0 99 70 157t180 58h226z" />
    <glyph glyph-name="periodcentered" unicode="&#xb7;" horiz-adv-x="300" 
d="M126 327h94l-19 -106h-94z" />
    <glyph glyph-name="cedilla" unicode="&#xb8;" horiz-adv-x="200" 
d="M-41 -217l-13 32l4 3q54 1 81 16.5t27 41.5q0 31 -61 42v6l51 76h38l-30 -48l11 -3q55 -14 55 -64q0 -49 -46 -75.5t-117 -26.5z" />
    <glyph glyph-name="one.sups" unicode="&#xb9;" horiz-adv-x="308" 
d="M173 430l67 385l-103 -42v38l145 61h33l-78 -442h-64z" />
    <glyph glyph-name="ordmasculine" unicode="&#xba;" horiz-adv-x="440" 
d="M254 342q-67 0 -107 36t-40 104q0 91 53 150.5t139 59.5q67 0 107 -35t40 -102q0 -92 -53 -152.5t-139 -60.5zM257 380q53 0 86 55t33 123q0 44 -22.5 70.5t-58.5 26.5q-55 0 -86.5 -54.5t-31.5 -121.5q0 -45 22.5 -72t57.5 -27z" />
    <glyph glyph-name="guillemotright" unicode="&#xbb;" horiz-adv-x="418" 
d="M39 119l10 57l109 99l-74 99l10 53l136 -125l-10 -54zM196 119l10 57l109 99l-74 99l10 53l136 -125l-10 -54z" />
    <glyph glyph-name="onequarter" unicode="&#xbc;" horiz-adv-x="804" 
d="M646 702l36 -25l-512 -698l-36 25zM139 238l67 385l-103 -42v38l145 61h33l-78 -442h-64zM774 166l-14 -43h-76l-22 -123h-57l22 123h-204l1 19l271 300h45l-49 -276h83zM497 167h138l33 188h-5l-166 -184v-4z" />
    <glyph glyph-name="onehalf" unicode="&#xbd;" horiz-adv-x="846" 
d="M646 702l36 -25l-512 -698l-36 25zM139 238l67 385l-103 -42v38l145 61h33l-78 -442h-64zM449 0l4 20l93 72q110 85 152.5 139t42.5 105q0 33 -18.5 53.5t-52.5 20.5q-60 0 -105 -39h-10l15 45q48 34 110 34q60 0 94 -30.5t34 -81.5q0 -60 -49 -117.5t-145 -129.5
l-47 -35v-3h93q83 0 120 4h9l-29 -57h-311z" />
    <glyph glyph-name="threequarters" unicode="&#xbe;" horiz-adv-x="870" 
d="M712 702l36 -25l-512 -698l-36 25zM352 380q0 -69 -50.5 -109.5t-126.5 -40.5q-71 0 -114 37l-4 51h9q48 -48 109 -48q52 0 82.5 30t30.5 81q0 37 -28 58t-74 21h-10l10 36h15q49 0 75.5 26.5t26.5 66.5q0 28 -17.5 45t-51.5 17q-48 0 -88 -30h-10l11 39q49 28 100 28
q54 0 87 -24.5t33 -68.5q0 -45 -27.5 -76t-76.5 -39v-3q37 -6 63 -32.5t26 -64.5zM840 166l-14 -43h-76l-22 -123h-57l22 123h-204l1 19l271 300h45l-49 -276h83zM563 167h138l33 188h-5l-166 -184v-4z" />
    <glyph glyph-name="questiondown" unicode="&#xbf;" horiz-adv-x="470" 
d="M239 371l18 104h98l-18 -104h-98zM298 250l-3 -22q-6 -44 -31.5 -74.5t-68.5 -60.5q-51 -36 -78 -72t-27 -90q0 -42 26 -67t71 -25q81 0 146 57h10l-18 -66q-73 -47 -150 -47q-81 0 -126 40.5t-45 104.5q0 32 8.5 59t19.5 44.5t35.5 37.5t40.5 30t51 31q27 16 41 26.5
t28 32.5t16 50l1 11h53z" />
    <glyph glyph-name="Agrave" unicode="&#xc0;" horiz-adv-x="626" 
d="M468 756h-49l-126 129h89zM493 0l-53 263h-251l-152 -263h-72l408 676l63 6l148 -682h-91zM376 574h-5l-152 -259h210z" />
    <glyph glyph-name="Aacute" unicode="&#xc1;" horiz-adv-x="626" 
d="M581 885l-172 -129h-53l128 129h97zM493 0l-53 263h-251l-152 -263h-72l408 676l63 6l148 -682h-91zM376 574h-5l-152 -259h210z" />
    <glyph glyph-name="Acircumflex" unicode="&#xc2;" horiz-adv-x="626" 
d="M431 837l-111 -81h-52l132 129h69l84 -129h-47zM493 0l-53 263h-251l-152 -263h-72l408 676l63 6l148 -682h-91zM376 574h-5l-152 -259h210z" />
    <glyph glyph-name="Atilde" unicode="&#xc3;" horiz-adv-x="626" 
d="M361 823q-35 0 -56 -50h-35q13 44 38.5 72.5t59.5 28.5q26 0 67 -26q37 -23 52 -23q36 0 56 48h34q-13 -44 -38 -71.5t-59 -27.5q-28 0 -67 24q-39 25 -52 25zM493 0l-53 263h-251l-152 -263h-72l408 676l63 6l148 -682h-91zM376 574h-5l-152 -259h210z" />
    <glyph glyph-name="Adieresis" unicode="&#xc4;" horiz-adv-x="626" 
d="M390 867l-14 -84h-80l14 84h80zM553 867l-14 -84h-80l14 84h80zM493 0l-53 263h-251l-152 -263h-72l408 676l63 6l148 -682h-91zM376 574h-5l-152 -259h210z" />
    <glyph glyph-name="Aring" unicode="&#xc5;" horiz-adv-x="626" 
d="M411 726q-41 0 -67 25t-26 62q0 50 33.5 83.5t87.5 33.5q40 0 66.5 -25t26.5 -62q0 -50 -34 -83.5t-87 -33.5zM435 898q-32 0 -55 -23.5t-23 -58.5q0 -25 15.5 -41.5t42.5 -16.5q34 0 56 24t22 58q0 24 -15 41t-43 17zM493 0l-53 263h-251l-152 -263h-72l408 676l63 6
l148 -682h-91zM376 574h-5l-152 -259h210z" />
    <glyph glyph-name="AE" unicode="&#xc6;" horiz-adv-x="844" 
d="M841 629h-226l-45 -258h203l-8 -49h-203l-49 -272h129q105 0 144 10h6l-35 -60h-335l47 263h-228l-206 -263h-77l543 680h349zM478 315l55 312h-6l-245 -312h196z" />
    <glyph glyph-name="Ccedilla" unicode="&#xc7;" horiz-adv-x="679" 
d="M671 643l14 -81h-14q-29 37 -81.5 57.5t-111.5 20.5q-130 0 -219 -102t-89 -249q0 -113 64.5 -178.5t179.5 -65.5q62 0 121 19.5t93 49.5h13l-26 -70q-93 -56 -214 -56h-21l-23 -36l11 -3q55 -14 55 -64q0 -49 -46 -75.5t-117 -26.5l-13 32l4 3q54 1 81 16.5t27 41.5
q0 31 -61 42v6l45 67q-125 15 -195.5 91.5t-70.5 201.5q0 117 55.5 211.5t147.5 145.5t201 51q125 0 190 -49z" />
    <glyph glyph-name="Egrave" unicode="&#xc8;" horiz-adv-x="486" 
d="M233 885h89l86 -129h-49zM434 60l-35 -60h-335l120 680h308l-9 -51h-226l-45 -258h203l-8 -49h-203l-49 -272h129q105 0 144 10h6z" />
    <glyph glyph-name="Eacute" unicode="&#xc9;" horiz-adv-x="486" 
d="M521 885l-172 -129h-53l128 129h97zM434 60l-35 -60h-335l120 680h308l-9 -51h-226l-45 -258h203l-8 -49h-203l-49 -272h129q105 0 144 10h6z" />
    <glyph glyph-name="Ecircumflex" unicode="&#xca;" horiz-adv-x="486" 
d="M409 885l84 -129h-47l-75 81l-111 -81h-52l132 129h69zM434 60l-35 -60h-335l120 680h308l-9 -51h-226l-45 -258h203l-8 -49h-203l-49 -272h129q105 0 144 10h6z" />
    <glyph glyph-name="Edieresis" unicode="&#xcb;" horiz-adv-x="486" 
d="M330 867l-14 -84h-80l14 84h80zM493 867l-14 -84h-80l14 84h80zM434 60l-35 -60h-335l120 680h308l-9 -51h-226l-45 -258h203l-8 -49h-203l-49 -272h129q105 0 144 10h6z" />
    <glyph glyph-name="Igrave" unicode="&#xcc;" horiz-adv-x="280" 
d="M120 885h89l86 -129h-49zM184 680h83l-120 -680h-83z" />
    <glyph glyph-name="Iacute" unicode="&#xcd;" horiz-adv-x="280" 
d="M408 885l-172 -129h-53l128 129h97zM184 680h83l-120 -680h-83z" />
    <glyph glyph-name="Icircumflex" unicode="&#xce;" horiz-adv-x="280" 
d="M296 885l84 -129h-47l-75 81l-111 -81h-52l132 129h69zM184 680h83l-120 -680h-83z" />
    <glyph glyph-name="Idieresis" unicode="&#xcf;" horiz-adv-x="280" 
d="M217 867l-14 -84h-80l14 84h80zM380 867l-14 -84h-80l14 84h80zM184 680h83l-120 -680h-83z" />
    <glyph glyph-name="Eth" unicode="&#xd0;" horiz-adv-x="753" 
d="M375 680q159 0 253 -74t92 -217q-3 -176 -125 -282.5t-322 -106.5h-209l57 322h-75l10 50h74l54 308h191zM628 383q2 128 -74 187.5t-217 59.5h-79l-46 -258h190l-10 -50h-189l-48 -272h105q165 0 265 88.5t103 244.5z" />
    <glyph glyph-name="Ntilde" unicode="&#xd1;" horiz-adv-x="740" 
d="M597 873q-20 -48 -56 -48q-15 0 -52 23q-41 26 -67 26q-34 0 -59.5 -28.5t-38.5 -72.5h35q21 50 56 50q13 0 52 -25q39 -24 67 -24q34 0 59 27.5t38 71.5h-34zM564 137h3l93 543h63l-120 -680h-50l-326 556h-5l-95 -556h-63l120 680h65z" />
    <glyph glyph-name="Ograve" unicode="&#xd2;" horiz-adv-x="792" 
d="M378 885h89l86 -129h-49zM478 692q125 0 206 -74t79 -211q-3 -179 -114 -299t-277 -120q-128 0 -209.5 74t-78.5 211q3 176 115.5 297.5t278.5 121.5zM377 40q132 0 213 107.5t83 253.5q2 113 -49.5 176t-150.5 63q-133 0 -215 -107.5t-84 -255.5q-2 -112 50.5 -174.5
t152.5 -62.5z" />
    <glyph glyph-name="Oacute" unicode="&#xd3;" horiz-adv-x="792" 
d="M666 885l-172 -129h-53l128 129h97zM478 692q125 0 206 -74t79 -211q-3 -179 -114 -299t-277 -120q-128 0 -209.5 74t-78.5 211q3 176 115.5 297.5t278.5 121.5zM377 40q132 0 213 107.5t83 253.5q2 113 -49.5 176t-150.5 63q-133 0 -215 -107.5t-84 -255.5
q-2 -112 50.5 -174.5t152.5 -62.5z" />
    <glyph glyph-name="Ocircumflex" unicode="&#xd4;" horiz-adv-x="792" 
d="M554 885l84 -129h-47l-75 81l-111 -81h-52l132 129h69zM478 692q125 0 206 -74t79 -211q-3 -179 -114 -299t-277 -120q-128 0 -209.5 74t-78.5 211q3 176 115.5 297.5t278.5 121.5zM377 40q132 0 213 107.5t83 253.5q2 113 -49.5 176t-150.5 63q-133 0 -215 -107.5
t-84 -255.5q-2 -112 50.5 -174.5t152.5 -62.5z" />
    <glyph glyph-name="Otilde" unicode="&#xd5;" horiz-adv-x="792" 
d="M628 873q-20 -48 -56 -48q-15 0 -52 23q-41 26 -67 26q-34 0 -59.5 -28.5t-38.5 -72.5h35q21 50 56 50q13 0 52 -25q39 -24 67 -24q34 0 59 27.5t38 71.5h-34zM478 692q125 0 206 -74t79 -211q-3 -179 -114 -299t-277 -120q-128 0 -209.5 74t-78.5 211q3 176 115.5 297.5
t278.5 121.5zM377 40q132 0 213 107.5t83 253.5q2 113 -49.5 176t-150.5 63q-133 0 -215 -107.5t-84 -255.5q-2 -112 50.5 -174.5t152.5 -62.5z" />
    <glyph glyph-name="Odieresis" unicode="&#xd6;" horiz-adv-x="792" 
d="M475 867l-14 -84h-80l14 84h80zM638 867l-14 -84h-80l14 84h80zM478 692q125 0 206 -74t79 -211q-3 -179 -114 -299t-277 -120q-128 0 -209.5 74t-78.5 211q3 176 115.5 297.5t278.5 121.5zM377 40q132 0 213 107.5t83 253.5q2 113 -49.5 176t-150.5 63
q-133 0 -215 -107.5t-84 -255.5q-2 -112 50.5 -174.5t152.5 -62.5z" />
    <glyph glyph-name="multiply" unicode="&#xd7;" 
d="M123 477l183 -189l183 189l36 -37l-182 -189l182 -189l-36 -37l-183 188l-183 -188l-36 37l181 189l-181 189z" />
    <glyph glyph-name="Oslash" unicode="&#xd8;" horiz-adv-x="792" 
d="M786 649l-71 -67q49 -72 48 -175q-3 -179 -114 -299t-277 -120q-127 0 -206 71l-70 -66l-34 36l71 67q-52 73 -49 177q3 176 115.5 297.5t278.5 121.5q128 0 205 -73l69 65zM174 277q-2 -71 20 -123l436 415q-51 71 -157 71q-133 0 -215 -107.5t-84 -255.5zM673 401
q2 72 -19 123l-435 -414q53 -70 158 -70q132 0 213 107.5t83 253.5z" />
    <glyph glyph-name="Ugrave" unicode="&#xd9;" horiz-adv-x="690" 
d="M324 885h89l86 -129h-49zM325 -11q-114 0 -175 53t-59 147q2 32 5 50l78 441h83l-76 -427q-4 -28 -6 -59q-1 -76 37.5 -113t117.5 -37q94 0 146 50t70 157l75 429h61l-78 -441q-21 -121 -91 -185.5t-188 -64.5z" />
    <glyph glyph-name="Uacute" unicode="&#xda;" horiz-adv-x="690" 
d="M612 885l-172 -129h-53l128 129h97zM325 -11q-114 0 -175 53t-59 147q2 32 5 50l78 441h83l-76 -427q-4 -28 -6 -59q-1 -76 37.5 -113t117.5 -37q94 0 146 50t70 157l75 429h61l-78 -441q-21 -121 -91 -185.5t-188 -64.5z" />
    <glyph glyph-name="Ucircumflex" unicode="&#xdb;" horiz-adv-x="690" 
d="M500 885l84 -129h-47l-75 81l-111 -81h-52l132 129h69zM325 -11q-114 0 -175 53t-59 147q2 32 5 50l78 441h83l-76 -427q-4 -28 -6 -59q-1 -76 37.5 -113t117.5 -37q94 0 146 50t70 157l75 429h61l-78 -441q-21 -121 -91 -185.5t-188 -64.5z" />
    <glyph glyph-name="Udieresis" unicode="&#xdc;" horiz-adv-x="690" 
d="M421 867l-14 -84h-80l14 84h80zM584 867l-14 -84h-80l14 84h80zM325 -11q-114 0 -175 53t-59 147q2 32 5 50l78 441h83l-76 -427q-4 -28 -6 -59q-1 -76 37.5 -113t117.5 -37q94 0 146 50t70 157l75 429h61l-78 -441q-21 -121 -91 -185.5t-188 -64.5z" />
    <glyph glyph-name="Yacute" unicode="&#xdd;" horiz-adv-x="523" 
d="M532 885l-172 -129h-53l128 129h97zM249 314l-164 366h91l132 -303h5l224 303h73l-278 -356l-57 -324h-81z" />
    <glyph glyph-name="Thorn" unicode="&#xde;" horiz-adv-x="530" 
d="M309 545q209 0 206 -164q-1 -101 -76.5 -158t-189.5 -57h-75l-29 -166h-81l120 680h80l-24 -135h69zM430 376q1 66 -34.5 94.5t-112.5 28.5h-51l-50 -287h67q83 0 131.5 41.5t49.5 122.5z" />
    <glyph glyph-name="germandbls" unicode="&#xdf;" horiz-adv-x="559" 
d="M349 -8q-63 0 -120 37l-12 70h11q60 -58 120 -58q38 0 66.5 30.5t28.5 82.5q0 30 -15.5 56.5t-55.5 66.5q-36 36 -53 65t-17 64q0 30 22 58t49 47t49 45.5t22 53.5q0 32 -21.5 49.5t-60.5 17.5q-111 0 -141 -163l-92 -514h-83l92 515q39 213 225 213q76 0 116 -29.5
t40 -80.5q0 -30 -15 -54.5t-37 -40t-43.5 -30t-36.5 -33.5t-15 -42q0 -6 1 -12t4.5 -12t6 -10.5t9 -12t10.5 -11.5t14 -14.5t15 -15.5q45 -48 66 -87t21 -83q0 -76 -49 -122t-121 -46z" />
    <glyph glyph-name="agrave" unicode="&#xe0;" horiz-adv-x="516" 
d="M303 718l79 -141h-47l-114 141h82zM348 0l-3 72q-66 -82 -167 -82q-63 0 -97.5 31.5t-34.5 78.5q0 68 42 103.5t122 52.5q110 23 140.5 31.5t33.5 17.5q7 20 7 44q0 42 -26 65.5t-72 23.5q-80 0 -147 -55h-10l16 62q68 40 144 40q83 0 126.5 -34.5t43.5 -96.5
q0 -20 -5 -44l-41 -221q-7 -33 -7 -89h-65zM207 35q49 0 89 31t59 79l20 109q-135 -22 -191 -50t-56 -92q0 -34 21.5 -55.5t57.5 -21.5z" />
    <glyph glyph-name="aacute" unicode="&#xe1;" horiz-adv-x="516" 
d="M488 718l-161 -141h-53l123 141h91zM348 0l-3 72q-66 -82 -167 -82q-63 0 -97.5 31.5t-34.5 78.5q0 68 42 103.5t122 52.5q110 23 140.5 31.5t33.5 17.5q7 20 7 44q0 42 -26 65.5t-72 23.5q-80 0 -147 -55h-10l16 62q68 40 144 40q83 0 126.5 -34.5t43.5 -96.5
q0 -20 -5 -44l-41 -221q-7 -33 -7 -89h-65zM207 35q49 0 89 31t59 79l20 109q-135 -22 -191 -50t-56 -92q0 -34 21.5 -55.5t57.5 -21.5z" />
    <glyph glyph-name="acircumflex" unicode="&#xe2;" horiz-adv-x="516" 
d="M386 718l84 -141h-48l-75 92l-109 -92h-52l132 141h68zM348 0l-3 72q-66 -82 -167 -82q-63 0 -97.5 31.5t-34.5 78.5q0 68 42 103.5t122 52.5q110 23 140.5 31.5t33.5 17.5q7 20 7 44q0 42 -26 65.5t-72 23.5q-80 0 -147 -55h-10l16 62q68 40 144 40q83 0 126.5 -34.5
t43.5 -96.5q0 -20 -5 -44l-41 -221q-7 -33 -7 -89h-65zM207 35q49 0 89 31t59 79l20 109q-135 -22 -191 -50t-56 -92q0 -34 21.5 -55.5t57.5 -21.5z" />
    <glyph glyph-name="atilde" unicode="&#xe3;" horiz-adv-x="516" 
d="M461 706q-20 -48 -56 -48q-15 0 -52 23q-41 26 -67 26q-34 0 -59.5 -28.5t-38.5 -72.5h35q21 50 56 50q13 0 52 -25q39 -24 67 -24q34 0 59 27.5t38 71.5h-34zM348 0l-3 72q-66 -82 -167 -82q-63 0 -97.5 31.5t-34.5 78.5q0 68 42 103.5t122 52.5q110 23 140.5 31.5
t33.5 17.5q7 20 7 44q0 42 -26 65.5t-72 23.5q-80 0 -147 -55h-10l16 62q68 40 144 40q83 0 126.5 -34.5t43.5 -96.5q0 -20 -5 -44l-41 -221q-7 -33 -7 -89h-65zM207 35q49 0 89 31t59 79l20 109q-135 -22 -191 -50t-56 -92q0 -34 21.5 -55.5t57.5 -21.5z" />
    <glyph glyph-name="adieresis" unicode="&#xe4;" horiz-adv-x="516" 
d="M309 700l-14 -84h-80l14 84h80zM472 700l-14 -84h-80l14 84h80zM348 0l-3 72q-66 -82 -167 -82q-63 0 -97.5 31.5t-34.5 78.5q0 68 42 103.5t122 52.5q110 23 140.5 31.5t33.5 17.5q7 20 7 44q0 42 -26 65.5t-72 23.5q-80 0 -147 -55h-10l16 62q68 40 144 40
q83 0 126.5 -34.5t43.5 -96.5q0 -20 -5 -44l-41 -221q-7 -33 -7 -89h-65zM207 35q49 0 89 31t59 79l20 109q-135 -22 -191 -50t-56 -92q0 -34 21.5 -55.5t57.5 -21.5z" />
    <glyph glyph-name="aring" unicode="&#xe5;" horiz-adv-x="516" 
d="M326 550q-41 0 -67 25t-26 62q0 50 33.5 83.5t87.5 33.5q40 0 66.5 -25t26.5 -62q0 -50 -34 -83.5t-87 -33.5zM330 582q34 0 56 24t22 58q0 24 -15 41t-43 17q-32 0 -55 -23.5t-23 -58.5q0 -25 15.5 -41.5t42.5 -16.5zM348 0l-3 72q-66 -82 -167 -82q-63 0 -97.5 31.5
t-34.5 78.5q0 68 42 103.5t122 52.5q110 23 140.5 31.5t33.5 17.5q7 20 7 44q0 42 -26 65.5t-72 23.5q-80 0 -147 -55h-10l16 62q68 40 144 40q83 0 126.5 -34.5t43.5 -96.5q0 -20 -5 -44l-41 -221q-7 -33 -7 -89h-65zM207 35q49 0 89 31t59 79l20 109q-135 -22 -191 -50
t-56 -92q0 -34 21.5 -55.5t57.5 -21.5z" />
    <glyph glyph-name="ae" unicode="&#xe6;" horiz-adv-x="824" 
d="M784 253h-334q-3 -23 -3 -45q0 -79 38.5 -123t109.5 -44q92 0 155 59h11l-26 -62q-66 -48 -152 -48q-147 0 -194 116h-2q-58 -116 -195 -116q-70 0 -108 32t-38 83q0 66 45.5 102t136.5 54q101 20 128 28.5t30 18.5q5 15 5 41q0 42 -26 65.5t-72 23.5q-80 0 -147 -55h-10
l16 62q68 40 144 40q118 0 151 -76h2q63 76 173 76q170 0 170 -174q0 -28 -8 -58zM619 444q-57 0 -100 -39.5t-61 -106.5h258q2 10 2 23q0 123 -99 123zM355 145l20 105q-134 -22 -190.5 -50t-56.5 -88q0 -34 21.5 -55.5t57.5 -21.5q49 0 89 31t59 79z" />
    <glyph glyph-name="ccedilla" unicode="&#xe7;" horiz-adv-x="465" 
d="M346 485q82 0 115 -28l-1 -60h-12q-31 42 -101 42q-92 0 -147.5 -69t-57.5 -170q-1 -70 37.5 -115t99.5 -45q81 0 136 52h11l-26 -59q-55 -43 -138 -43h-10l-24 -38l11 -3q55 -14 55 -64q0 -49 -46 -75.5t-117 -26.5l-13 32l4 3q54 1 81 16.5t27 41.5q0 31 -61 42v6
l47 70q-76 13 -118 66.5t-40 135.5q2 125 83 207t205 82z" />
    <glyph glyph-name="egrave" unicode="&#xe8;" horiz-adv-x="514" 
d="M292 718l79 -141h-47l-114 141h82zM141 253q-4 -20 -4 -45q0 -79 38.5 -123t109.5 -44q92 0 155 59h11l-26 -62q-66 -48 -152 -48q-105 0 -160 57t-55 154q0 120 72.5 202t181.5 82q170 0 170 -174q0 -28 -8 -58h-333zM406 300q2 10 2 21q0 123 -99 123q-52 0 -97 -37.5
t-62 -106.5h256z" />
    <glyph glyph-name="eacute" unicode="&#xe9;" horiz-adv-x="514" 
d="M477 718l-161 -141h-53l123 141h91zM141 253q-4 -20 -4 -45q0 -79 38.5 -123t109.5 -44q92 0 155 59h11l-26 -62q-66 -48 -152 -48q-105 0 -160 57t-55 154q0 120 72.5 202t181.5 82q170 0 170 -174q0 -28 -8 -58h-333zM406 300q2 10 2 21q0 123 -99 123q-52 0 -97 -37.5
t-62 -106.5h256z" />
    <glyph glyph-name="ecircumflex" unicode="&#xea;" horiz-adv-x="514" 
d="M375 718l84 -141h-48l-75 92l-109 -92h-52l132 141h68zM141 253q-4 -20 -4 -45q0 -79 38.5 -123t109.5 -44q92 0 155 59h11l-26 -62q-66 -48 -152 -48q-105 0 -160 57t-55 154q0 120 72.5 202t181.5 82q170 0 170 -174q0 -28 -8 -58h-333zM406 300q2 10 2 21
q0 123 -99 123q-52 0 -97 -37.5t-62 -106.5h256z" />
    <glyph glyph-name="edieresis" unicode="&#xeb;" horiz-adv-x="514" 
d="M298 700l-14 -84h-80l14 84h80zM461 700l-14 -84h-80l14 84h80zM141 253q-4 -20 -4 -45q0 -79 38.5 -123t109.5 -44q92 0 155 59h11l-26 -62q-66 -48 -152 -48q-105 0 -160 57t-55 154q0 120 72.5 202t181.5 82q170 0 170 -174q0 -28 -8 -58h-333zM406 300q2 10 2 21
q0 123 -99 123q-52 0 -97 -37.5t-62 -106.5h256z" />
    <glyph glyph-name="igrave" unicode="&#xec;" horiz-adv-x="242" 
d="M166 718l79 -141h-47l-114 141h82zM135 475h76l-83 -475h-77z" />
    <glyph glyph-name="iacute" unicode="&#xed;" horiz-adv-x="242" 
d="M351 718l-161 -141h-53l123 141h91zM135 475h76l-83 -475h-77z" />
    <glyph glyph-name="icircumflex" unicode="&#xee;" horiz-adv-x="242" 
d="M249 718l84 -141h-48l-75 92l-109 -92h-52l132 141h68zM135 475h76l-83 -475h-77z" />
    <glyph glyph-name="idieresis" unicode="&#xef;" horiz-adv-x="242" 
d="M172 700l-14 -84h-80l14 84h80zM335 700l-14 -84h-80l14 84h80zM135 475h76l-83 -475h-77z" />
    <glyph glyph-name="eth" unicode="&#xf0;" horiz-adv-x="561" 
d="M420 599q103 -113 103 -287q0 -141 -75 -231.5t-199 -90.5q-80 0 -133 51t-53 145q0 124 71.5 211.5t180.5 87.5q40 0 73 -16t48 -42l1 1q-20 79 -80 142l-109 -49l-19 42l90 41q-47 37 -101 55l48 34q64 -16 117 -60l101 46l19 -42zM262 39q83 0 129.5 77t46.5 180
q0 67 -31.5 104t-85.5 37q-56 0 -97 -38.5t-59 -95t-18 -120.5q0 -68 31 -106t84 -38z" />
    <glyph glyph-name="ntilde" unicode="&#xf1;" horiz-adv-x="542" 
d="M474 706q-20 -48 -56 -48q-15 0 -52 23q-41 26 -67 26q-34 0 -59.5 -28.5t-38.5 -72.5h35q21 50 56 50q13 0 52 -25q39 -24 67 -24q34 0 59 27.5t38 71.5h-34zM354 0l50 291q8 45 8 63q0 76 -72 76q-64 0 -110.5 -54.5t-59.5 -132.5l-41 -243h-78l84 475h71l-12 -100h3
q26 47 71 78.5t99 31.5q124 0 124 -125q0 -20 -7 -62l-52 -298h-78z" />
    <glyph glyph-name="ograve" unicode="&#xf2;" horiz-adv-x="566" 
d="M325 718l79 -141h-47l-114 141h82zM327 485q92 0 147 -50.5t55 -143.5q0 -125 -77 -213t-192 -88q-88 0 -143 53t-55 144q0 121 77 209.5t188 88.5zM262 39q87 0 135.5 74t48.5 178q0 65 -30 105.5t-91 40.5q-83 0 -131.5 -74t-48.5 -172q0 -65 28.5 -108.5t88.5 -43.5z
" />
    <glyph glyph-name="oacute" unicode="&#xf3;" horiz-adv-x="566" 
d="M510 718l-161 -141h-53l123 141h91zM327 485q92 0 147 -50.5t55 -143.5q0 -125 -77 -213t-192 -88q-88 0 -143 53t-55 144q0 121 77 209.5t188 88.5zM262 39q87 0 135.5 74t48.5 178q0 65 -30 105.5t-91 40.5q-83 0 -131.5 -74t-48.5 -172q0 -65 28.5 -108.5t88.5 -43.5z
" />
    <glyph glyph-name="ocircumflex" unicode="&#xf4;" horiz-adv-x="566" 
d="M408 718l84 -141h-48l-75 92l-109 -92h-52l132 141h68zM327 485q92 0 147 -50.5t55 -143.5q0 -125 -77 -213t-192 -88q-88 0 -143 53t-55 144q0 121 77 209.5t188 88.5zM262 39q87 0 135.5 74t48.5 178q0 65 -30 105.5t-91 40.5q-83 0 -131.5 -74t-48.5 -172
q0 -65 28.5 -108.5t88.5 -43.5z" />
    <glyph glyph-name="otilde" unicode="&#xf5;" horiz-adv-x="566" 
d="M483 706q-20 -48 -56 -48q-15 0 -52 23q-41 26 -67 26q-34 0 -59.5 -28.5t-38.5 -72.5h35q21 50 56 50q13 0 52 -25q39 -24 67 -24q34 0 59 27.5t38 71.5h-34zM327 485q92 0 147 -50.5t55 -143.5q0 -125 -77 -213t-192 -88q-88 0 -143 53t-55 144q0 121 77 209.5
t188 88.5zM262 39q87 0 135.5 74t48.5 178q0 65 -30 105.5t-91 40.5q-83 0 -131.5 -74t-48.5 -172q0 -65 28.5 -108.5t88.5 -43.5z" />
    <glyph glyph-name="odieresis" unicode="&#xf6;" horiz-adv-x="566" 
d="M331 700l-14 -84h-80l14 84h80zM494 700l-14 -84h-80l14 84h80zM327 485q92 0 147 -50.5t55 -143.5q0 -125 -77 -213t-192 -88q-88 0 -143 53t-55 144q0 121 77 209.5t188 88.5zM262 39q87 0 135.5 74t48.5 178q0 65 -30 105.5t-91 40.5q-83 0 -131.5 -74t-48.5 -172
q0 -65 28.5 -108.5t88.5 -43.5z" />
    <glyph glyph-name="divide" unicode="&#xf7;" 
d="M361 453q0 -22 -16.5 -39t-37.5 -17q-23 0 -39.5 16.5t-16.5 39.5t16 39.5t39 16.5t39 -16.5t16 -39.5zM550 278v-53h-487v53h487zM361 50q0 -22 -17 -39t-37 -17q-23 0 -39.5 16.5t-16.5 39.5q0 24 16.5 40t38.5 16q23 0 39 -16.5t16 -39.5z" />
    <glyph glyph-name="oslash" unicode="&#xf8;" horiz-adv-x="566" 
d="M566 464l-66 -62q29 -46 29 -111q0 -125 -77 -213t-192 -88q-87 0 -141 51l-65 -61l-29 31l67 63q-30 49 -30 113q0 121 77 209.5t188 88.5q93 0 146 -50l64 60zM145 191q0 -33 7 -60l271 256q-32 50 -98 50q-83 0 -131.5 -74t-48.5 -172zM446 291q0 29 -6 54l-271 -256
q32 -50 93 -50q87 0 135.5 74t48.5 178z" />
    <glyph glyph-name="ugrave" unicode="&#xf9;" horiz-adv-x="533" 
d="M307 718l79 -141h-47l-114 141h82zM202 475l-50 -291q-8 -45 -8 -63q0 -76 70 -76q65 0 111 54t59 133l41 243h78l-84 -475h-71l13 100h-3q-26 -46 -70.5 -78t-94.5 -32q-57 0 -93 28t-36 92q0 21 8 67l52 298h78z" />
    <glyph glyph-name="uacute" unicode="&#xfa;" horiz-adv-x="533" 
d="M492 718l-161 -141h-53l123 141h91zM202 475l-50 -291q-8 -45 -8 -63q0 -76 70 -76q65 0 111 54t59 133l41 243h78l-84 -475h-71l13 100h-3q-26 -46 -70.5 -78t-94.5 -32q-57 0 -93 28t-36 92q0 21 8 67l52 298h78z" />
    <glyph glyph-name="ucircumflex" unicode="&#xfb;" horiz-adv-x="533" 
d="M390 718l84 -141h-48l-75 92l-109 -92h-52l132 141h68zM202 475l-50 -291q-8 -45 -8 -63q0 -76 70 -76q65 0 111 54t59 133l41 243h78l-84 -475h-71l13 100h-3q-26 -46 -70.5 -78t-94.5 -32q-57 0 -93 28t-36 92q0 21 8 67l52 298h78z" />
    <glyph glyph-name="udieresis" unicode="&#xfc;" horiz-adv-x="533" 
d="M313 700l-14 -84h-80l14 84h80zM476 700l-14 -84h-80l14 84h80zM202 475l-50 -291q-8 -45 -8 -63q0 -76 70 -76q65 0 111 54t59 133l41 243h78l-84 -475h-71l13 100h-3q-26 -46 -70.5 -78t-94.5 -32q-57 0 -93 28t-36 92q0 21 8 67l52 298h78z" />
    <glyph glyph-name="yacute" unicode="&#xfd;" horiz-adv-x="452" 
d="M448 718l-161 -141h-53l123 141h91zM78 -223h-84q93 115 176 248l-115 450h83l88 -366h3q96 170 194 366h67q-225 -413 -412 -698z" />
    <glyph glyph-name="thorn" unicode="&#xfe;" horiz-adv-x="562" 
d="M87 -223h-77l165 931l80 10l-65 -341h2q58 108 166 108q87 0 126.5 -54t39.5 -140q0 -119 -68 -210t-186 -91q-48 0 -81.5 24.5t-48.5 61.5h-2zM337 437q-76 0 -129.5 -78t-55.5 -168q-2 -73 28.5 -113.5t86.5 -40.5q83 0 129 77.5t46 174.5q0 148 -105 148z" />
    <glyph glyph-name="ydieresis" unicode="&#xff;" horiz-adv-x="452" 
d="M269 700l-14 -84h-80l14 84h80zM432 700l-14 -84h-80l14 84h80zM78 -223h-84q93 115 176 248l-115 450h83l88 -366h3q96 170 194 366h67q-225 -413 -412 -698z" />
    <glyph glyph-name="Amacron" unicode="&#x100;" horiz-adv-x="626" 
d="M580 848l-8 -47h-305l8 47h305zM493 0l-53 263h-251l-152 -263h-72l408 676l63 6l148 -682h-91zM376 574h-5l-152 -259h210z" />
    <glyph glyph-name="amacron" unicode="&#x101;" horiz-adv-x="516" 
d="M498 681l-8 -47h-305l8 47h305zM348 0l-3 72q-66 -82 -167 -82q-63 0 -97.5 31.5t-34.5 78.5q0 68 42 103.5t122 52.5q110 23 140.5 31.5t33.5 17.5q7 20 7 44q0 42 -26 65.5t-72 23.5q-80 0 -147 -55h-10l16 62q68 40 144 40q83 0 126.5 -34.5t43.5 -96.5q0 -20 -5 -44
l-41 -221q-7 -33 -7 -89h-65zM207 35q49 0 89 31t59 79l20 109q-135 -22 -191 -50t-56 -92q0 -34 21.5 -55.5t57.5 -21.5z" />
    <glyph glyph-name="Abreve" unicode="&#x102;" horiz-adv-x="626" 
d="M412 756q-61 0 -91.5 35.5t-23.5 90.5h41q-2 -36 19.5 -56t60.5 -20q83 0 112 76h42q-37 -126 -160 -126zM493 0l-53 263h-251l-152 -263h-72l408 676l63 6l148 -682h-91zM376 574h-5l-152 -259h210z" />
    <glyph glyph-name="abreve" unicode="&#x103;" horiz-adv-x="516" 
d="M254 706q-2 -38 19.5 -58t60.5 -20q85 0 112 78h42q-36 -128 -160 -128q-61 0 -91.5 35.5t-23.5 92.5h41zM348 0l-3 72q-66 -82 -167 -82q-63 0 -97.5 31.5t-34.5 78.5q0 68 42 103.5t122 52.5q110 23 140.5 31.5t33.5 17.5q7 20 7 44q0 42 -26 65.5t-72 23.5
q-80 0 -147 -55h-10l16 62q68 40 144 40q83 0 126.5 -34.5t43.5 -96.5q0 -20 -5 -44l-41 -221q-7 -33 -7 -89h-65zM207 35q49 0 89 31t59 79l20 109q-135 -22 -191 -50t-56 -92q0 -34 21.5 -55.5t57.5 -21.5z" />
    <glyph glyph-name="Aogonek" unicode="&#x104;" horiz-adv-x="626" 
d="M501 -143q22 0 54 13h7l-17 -38q-32 -16 -73 -16q-33 0 -54 15t-21 44q0 67 129 125h-33l-53 263h-251l-152 -263h-72l408 676l63 6l148 -682q-121 -70 -121 -113q0 -30 38 -30zM376 574h-5l-152 -259h210z" />
    <glyph glyph-name="aogonek" unicode="&#x105;" horiz-adv-x="516" 
d="M46 100q0 68 42 103.5t122 52.5q110 23 140.5 31.5t33.5 17.5q7 20 7 44q0 42 -26 65.5t-72 23.5q-80 0 -147 -55h-10l16 62q68 40 144 40q83 0 126.5 -34.5t43.5 -96.5q0 -20 -5 -44l-41 -221q-7 -33 -7 -89q-121 -65 -121 -113q0 -30 38 -30q22 0 54 13h7l-17 -38
q-32 -16 -73 -16q-33 0 -54 15t-21 44q0 32 28 60.5t94 64.5l-3 72q-66 -82 -167 -82q-63 0 -97.5 31.5t-34.5 78.5zM128 112q0 -34 21.5 -55.5t57.5 -21.5q49 0 89 31t59 79l20 109q-135 -22 -191 -50t-56 -92z" />
    <glyph glyph-name="Cacute" unicode="&#x106;" horiz-adv-x="679" 
d="M642 885l-172 -129h-53l128 129h97zM671 562q-29 37 -81.5 57.5t-111.5 20.5q-130 0 -219 -102t-89 -249q0 -113 64.5 -178.5t179.5 -65.5q62 0 121 19.5t93 49.5h13l-26 -70q-93 -56 -214 -56q-151 0 -237.5 78.5t-86.5 217.5q0 117 55.5 211.5t147.5 145.5t201 51
q125 0 190 -49l14 -81h-14z" />
    <glyph glyph-name="cacute" unicode="&#x107;" horiz-adv-x="465" 
d="M486 718l-161 -141h-53l123 141h91zM346 485q82 0 115 -28l-1 -60h-12q-31 42 -101 42q-92 0 -147.5 -69t-57.5 -170q-1 -70 37.5 -115t99.5 -45q81 0 136 52h11l-26 -59q-55 -43 -138 -43q-97 0 -151.5 56t-52.5 150q2 125 83 207t205 82z" />
    <glyph glyph-name="Ccircumflex" unicode="&#x108;" horiz-adv-x="679" 
d="M530 885l84 -129h-47l-75 81l-111 -81h-52l132 129h69zM671 562q-29 37 -81.5 57.5t-111.5 20.5q-130 0 -219 -102t-89 -249q0 -113 64.5 -178.5t179.5 -65.5q62 0 121 19.5t93 49.5h13l-26 -70q-93 -56 -214 -56q-151 0 -237.5 78.5t-86.5 217.5q0 117 55.5 211.5
t147.5 145.5t201 51q125 0 190 -49l14 -81h-14z" />
    <glyph glyph-name="ccircumflex" unicode="&#x109;" horiz-adv-x="465" 
d="M384 718l84 -141h-48l-75 92l-109 -92h-52l132 141h68zM346 485q82 0 115 -28l-1 -60h-12q-31 42 -101 42q-92 0 -147.5 -69t-57.5 -170q-1 -70 37.5 -115t99.5 -45q81 0 136 52h11l-26 -59q-55 -43 -138 -43q-97 0 -151.5 56t-52.5 150q2 125 83 207t205 82z" />
    <glyph glyph-name="Cdotaccent" unicode="&#x10a;" horiz-adv-x="679" 
d="M535 868l-15 -86h-85l15 86h85zM671 562q-29 37 -81.5 57.5t-111.5 20.5q-130 0 -219 -102t-89 -249q0 -113 64.5 -178.5t179.5 -65.5q62 0 121 19.5t93 49.5h13l-26 -70q-93 -56 -214 -56q-151 0 -237.5 78.5t-86.5 217.5q0 117 55.5 211.5t147.5 145.5t201 51
q125 0 190 -49l14 -81h-14z" />
    <glyph glyph-name="cdotaccent" unicode="&#x10b;" horiz-adv-x="465" 
d="M390 702l-15 -86h-85l15 86h85zM346 485q82 0 115 -28l-1 -60h-12q-31 42 -101 42q-92 0 -147.5 -69t-57.5 -170q-1 -70 37.5 -115t99.5 -45q81 0 136 52h11l-26 -59q-55 -43 -138 -43q-97 0 -151.5 56t-52.5 150q2 125 83 207t205 82z" />
    <glyph glyph-name="Ccaron" unicode="&#x10c;" horiz-adv-x="679" 
d="M439 756l-84 129h48l75 -81l111 81h51l-132 -129h-69zM671 562q-29 37 -81.5 57.5t-111.5 20.5q-130 0 -219 -102t-89 -249q0 -113 64.5 -178.5t179.5 -65.5q62 0 121 19.5t93 49.5h13l-26 -70q-93 -56 -214 -56q-151 0 -237.5 78.5t-86.5 217.5q0 117 55.5 211.5
t147.5 145.5t201 51q125 0 190 -49l14 -81h-14z" />
    <glyph glyph-name="ccaron" unicode="&#x10d;" horiz-adv-x="465" 
d="M292 577l-84 141h49l75 -92l109 92h51l-132 -141h-68zM346 485q82 0 115 -28l-1 -60h-12q-31 42 -101 42q-92 0 -147.5 -69t-57.5 -170q-1 -70 37.5 -115t99.5 -45q81 0 136 52h11l-26 -59q-55 -43 -138 -43q-97 0 -151.5 56t-52.5 150q2 125 83 207t205 82z" />
    <glyph glyph-name="Dcaron" unicode="&#x10e;" horiz-adv-x="753" 
d="M401 756l-84 129h48l75 -81l111 81h51l-132 -129h-69zM184 680h191q159 0 253 -74t92 -217q-3 -176 -125 -282.5t-322 -106.5h-209zM155 50h105q165 0 265 88.5t103 244.5q2 128 -74 187.5t-217 59.5h-79z" />
    <glyph glyph-name="dcaron" unicode="&#x10f;" horiz-adv-x="562" 
d="M491 708l81 10l-126 -718h-67l12 90h-2q-57 -100 -167 -100q-87 0 -125 54t-38 140q0 56 16.5 108.5t47.5 96t80.5 70t110.5 26.5q44 0 78 -22t51 -58h2zM722 718q-27 -104 -90 -183h-40q43 95 58 183h72zM244 38q76 0 128 76t55 167q7 157 -111 157q-83 0 -129 -77.5
t-46 -174.5q0 -148 103 -148z" />
    <glyph glyph-name="Dcroat" unicode="&#x110;" horiz-adv-x="753" 
d="M375 680q159 0 253 -74t92 -217q-3 -176 -125 -282.5t-322 -106.5h-209l57 322h-75l10 50h74l54 308h191zM628 383q2 128 -74 187.5t-217 59.5h-79l-46 -258h190l-10 -50h-189l-48 -272h105q165 0 265 88.5t103 244.5z" />
    <glyph glyph-name="dcroat" unicode="&#x111;" horiz-adv-x="562" 
d="M612 607l-9 -46h-59l-98 -561h-67l12 90h-2q-57 -100 -167 -100q-87 0 -125 54t-38 140q0 56 16.5 108.5t47.5 96t80.5 70t110.5 26.5q44 0 78 -22t51 -58h2l24 156h-160l9 46h158l15 101l81 10l-19 -111h59zM427 281q7 157 -111 157q-83 0 -129 -77.5t-46 -174.5
q0 -148 103 -148q76 0 128 76t55 167z" />
    <glyph glyph-name="Emacron" unicode="&#x112;" horiz-adv-x="486" 
d="M520 848l-8 -47h-305l8 47h305zM434 60l-35 -60h-335l120 680h308l-9 -51h-226l-45 -258h203l-8 -49h-203l-49 -272h129q105 0 144 10h6z" />
    <glyph glyph-name="emacron" unicode="&#x113;" horiz-adv-x="514" 
d="M487 681l-8 -47h-305l8 47h305zM141 253q-4 -20 -4 -45q0 -79 38.5 -123t109.5 -44q92 0 155 59h11l-26 -62q-66 -48 -152 -48q-105 0 -160 57t-55 154q0 120 72.5 202t181.5 82q170 0 170 -174q0 -28 -8 -58h-333zM406 300q2 10 2 21q0 123 -99 123q-52 0 -97 -37.5
t-62 -106.5h256z" />
    <glyph glyph-name="Ebreve" unicode="&#x114;" horiz-adv-x="486" 
d="M278 882q-2 -36 19.5 -56t60.5 -20q83 0 112 76h42q-37 -126 -160 -126q-61 0 -91.5 35.5t-23.5 90.5h41zM434 60l-35 -60h-335l120 680h308l-9 -51h-226l-45 -258h203l-8 -49h-203l-49 -272h129q105 0 144 10h6z" />
    <glyph glyph-name="ebreve" unicode="&#x115;" horiz-adv-x="514" 
d="M243 706q-2 -38 19.5 -58t60.5 -20q85 0 112 78h42q-36 -128 -160 -128q-61 0 -91.5 35.5t-23.5 92.5h41zM141 253q-4 -20 -4 -45q0 -79 38.5 -123t109.5 -44q92 0 155 59h11l-26 -62q-66 -48 -152 -48q-105 0 -160 57t-55 154q0 120 72.5 202t181.5 82q170 0 170 -174
q0 -28 -8 -58h-333zM406 300q2 10 2 21q0 123 -99 123q-52 0 -97 -37.5t-62 -106.5h256z" />
    <glyph glyph-name="Edotaccent" unicode="&#x116;" horiz-adv-x="486" 
d="M414 868l-15 -86h-85l15 86h85zM434 60l-35 -60h-335l120 680h308l-9 -51h-226l-45 -258h203l-8 -49h-203l-49 -272h129q105 0 144 10h6z" />
    <glyph glyph-name="edotaccent" unicode="&#x117;" horiz-adv-x="514" 
d="M381 702l-15 -86h-85l15 86h85zM141 253q-4 -20 -4 -45q0 -79 38.5 -123t109.5 -44q92 0 155 59h11l-26 -62q-66 -48 -152 -48q-105 0 -160 57t-55 154q0 120 72.5 202t181.5 82q170 0 170 -174q0 -28 -8 -58h-333zM406 300q2 10 2 21q0 123 -99 123q-52 0 -97 -37.5
t-62 -106.5h256z" />
    <glyph glyph-name="Eogonek" unicode="&#x118;" horiz-adv-x="486" 
d="M287 -184q-33 0 -54 15t-21 44q0 38 35 68t96 57h-279l120 680h308l-9 -51h-226l-45 -258h203l-8 -49h-203l-49 -272h129q105 0 144 10h6l-35 -60q-121 -70 -121 -113q0 -30 38 -30q22 0 54 13h7l-17 -38q-32 -16 -73 -16z" />
    <glyph glyph-name="eogonek" unicode="&#x119;" horiz-adv-x="514" 
d="M279 -184q-33 0 -54 15t-21 44q0 60 101 117q-13 -2 -32 -2q-105 0 -160 57t-55 154q0 120 72.5 202t181.5 82q170 0 170 -174q0 -28 -8 -58h-333q-4 -20 -4 -45q0 -79 38.5 -123t109.5 -44q92 0 155 59h11l-26 -62q-91 -60 -123 -93.5t-32 -58.5q0 -13 10 -21t28 -8
q22 0 54 13h7l-17 -38q-32 -16 -73 -16zM150 300h256q2 10 2 21q0 123 -99 123q-52 0 -97 -37.5t-62 -106.5z" />
    <glyph glyph-name="Ecaron" unicode="&#x11a;" horiz-adv-x="486" 
d="M318 756l-84 129h48l75 -81l111 81h51l-132 -129h-69zM434 60l-35 -60h-335l120 680h308l-9 -51h-226l-45 -258h203l-8 -49h-203l-49 -272h129q105 0 144 10h6z" />
    <glyph glyph-name="ecaron" unicode="&#x11b;" horiz-adv-x="514" 
d="M283 577l-84 141h49l75 -92l109 92h51l-132 -141h-68zM141 253q-4 -20 -4 -45q0 -79 38.5 -123t109.5 -44q92 0 155 59h11l-26 -62q-66 -48 -152 -48q-105 0 -160 57t-55 154q0 120 72.5 202t181.5 82q170 0 170 -174q0 -28 -8 -58h-333zM406 300q2 10 2 21
q0 123 -99 123q-52 0 -97 -37.5t-62 -106.5h256z" />
    <glyph glyph-name="Gcircumflex" unicode="&#x11c;" horiz-adv-x="720" 
d="M528 885l84 -129h-47l-75 81l-111 -81h-52l132 129h69zM406 -12q-152 0 -241.5 80t-87.5 215q3 182 119 295.5t284 113.5q116 0 184 -42l16 -78h-16q-29 29 -80 47.5t-105 18.5q-137 0 -221 -98.5t-87 -255.5q-2 -115 65 -178.5t179 -63.5q81 0 130 27l47 266h81
l-53 -299q-88 -48 -214 -48z" />
    <glyph glyph-name="gcircumflex" unicode="&#x11d;" horiz-adv-x="491" 
d="M356 718l84 -141h-48l-75 92l-109 -92h-52l132 141h68zM288 65q89 0 131 -23t42 -77q0 -87 -83.5 -144.5t-195.5 -57.5q-87 0 -139 30t-52 84q0 36 24.5 66.5t69.5 65.5q-58 18 -58 68q1 29 94 130q-40 38 -40 91q0 82 55 134.5t139 52.5q51 0 91 -15h152l-13 -42h-94v-4
q24 -26 24 -76q0 -77 -55.5 -127.5t-142.5 -50.5q-61 0 -91 20q-41 -55 -42 -83q-2 -23 15.5 -32.5t61.5 -9.5h107zM157 298q0 -39 22 -63.5t59 -24.5q61 0 89.5 39.5t28.5 104.5q0 43 -23.5 67.5t-59.5 24.5q-52 0 -84 -44.5t-32 -103.5zM185 -191q81 0 139 36.5t58 94.5
q0 25 -15 36t-46 16q-43 7 -209 10q-48 -48 -48 -109q0 -84 121 -84z" />
    <glyph glyph-name="Gbreve" unicode="&#x11e;" horiz-adv-x="720" 
d="M397 882q-2 -36 19.5 -56t60.5 -20q83 0 112 76h42q-37 -126 -160 -126q-61 0 -91.5 35.5t-23.5 90.5h41zM406 -12q-152 0 -241.5 80t-87.5 215q3 182 119 295.5t284 113.5q116 0 184 -42l16 -78h-16q-29 29 -80 47.5t-105 18.5q-137 0 -221 -98.5t-87 -255.5
q-2 -115 65 -178.5t179 -63.5q81 0 130 27l47 266h81l-53 -299q-88 -48 -214 -48z" />
    <glyph glyph-name="gbreve" unicode="&#x11f;" horiz-adv-x="491" 
d="M224 706q-2 -38 19.5 -58t60.5 -20q85 0 112 78h42q-36 -128 -160 -128q-61 0 -91.5 35.5t-23.5 92.5h41zM288 65q89 0 131 -23t42 -77q0 -87 -83.5 -144.5t-195.5 -57.5q-87 0 -139 30t-52 84q0 36 24.5 66.5t69.5 65.5q-58 18 -58 68q1 29 94 130q-40 38 -40 91
q0 82 55 134.5t139 52.5q51 0 91 -15h152l-13 -42h-94v-4q24 -26 24 -76q0 -77 -55.5 -127.5t-142.5 -50.5q-61 0 -91 20q-41 -55 -42 -83q-2 -23 15.5 -32.5t61.5 -9.5h107zM157 298q0 -39 22 -63.5t59 -24.5q61 0 89.5 39.5t28.5 104.5q0 43 -23.5 67.5t-59.5 24.5
q-52 0 -84 -44.5t-32 -103.5zM185 -191q81 0 139 36.5t58 94.5q0 25 -15 36t-46 16q-43 7 -209 10q-48 -48 -48 -109q0 -84 121 -84z" />
    <glyph glyph-name="Gdotaccent" unicode="&#x120;" horiz-adv-x="720" 
d="M533 868l-15 -86h-85l15 86h85zM406 -12q-152 0 -241.5 80t-87.5 215q3 182 119 295.5t284 113.5q116 0 184 -42l16 -78h-16q-29 29 -80 47.5t-105 18.5q-137 0 -221 -98.5t-87 -255.5q-2 -115 65 -178.5t179 -63.5q81 0 130 27l47 266h81l-53 -299q-88 -48 -214 -48z
" />
    <glyph glyph-name="gdotaccent" unicode="&#x121;" horiz-adv-x="491" 
d="M362 702l-15 -86h-85l15 86h85zM288 65q89 0 131 -23t42 -77q0 -87 -83.5 -144.5t-195.5 -57.5q-87 0 -139 30t-52 84q0 36 24.5 66.5t69.5 65.5q-58 18 -58 68q1 29 94 130q-40 38 -40 91q0 82 55 134.5t139 52.5q51 0 91 -15h152l-13 -42h-94v-4q24 -26 24 -76
q0 -77 -55.5 -127.5t-142.5 -50.5q-61 0 -91 20q-41 -55 -42 -83q-2 -23 15.5 -32.5t61.5 -9.5h107zM157 298q0 -39 22 -63.5t59 -24.5q61 0 89.5 39.5t28.5 104.5q0 43 -23.5 67.5t-59.5 24.5q-52 0 -84 -44.5t-32 -103.5zM185 -191q81 0 139 36.5t58 94.5q0 25 -15 36
t-46 16q-43 7 -209 10q-48 -48 -48 -109q0 -84 121 -84z" />
    <glyph glyph-name="uni0122" unicode="&#x122;" horiz-adv-x="720" 
d="M406 -12q-152 0 -241.5 80t-87.5 215q3 182 119 295.5t284 113.5q116 0 184 -42l16 -78h-16q-29 29 -80 47.5t-105 18.5q-137 0 -221 -98.5t-87 -255.5q-2 -115 65 -178.5t179 -63.5q81 0 130 27l47 266h81l-53 -299q-88 -48 -214 -48zM407 -70q-9 -29 -32.5 -71.5
t-46.5 -73.5h-43q29 68 47 145h75z" />
    <glyph glyph-name="uni0123" unicode="&#x123;" horiz-adv-x="491" 
d="M252 577q20 63 78 141h43q-32 -78 -45 -141h-76zM288 65q89 0 131 -23t42 -77q0 -87 -83.5 -144.5t-195.5 -57.5q-87 0 -139 30t-52 84q0 36 24.5 66.5t69.5 65.5q-58 18 -58 68q1 29 94 130q-40 38 -40 91q0 82 55 134.5t139 52.5q51 0 91 -15h152l-13 -42h-94v-4
q24 -26 24 -76q0 -77 -55.5 -127.5t-142.5 -50.5q-61 0 -91 20q-41 -55 -42 -83q-2 -23 15.5 -32.5t61.5 -9.5h107zM157 298q0 -39 22 -63.5t59 -24.5q61 0 89.5 39.5t28.5 104.5q0 43 -23.5 67.5t-59.5 24.5q-52 0 -84 -44.5t-32 -103.5zM185 -191q81 0 139 36.5t58 94.5
q0 25 -15 36t-46 16q-43 7 -209 10q-48 -48 -48 -109q0 -84 121 -84z" />
    <glyph glyph-name="Hcircumflex" unicode="&#x124;" horiz-adv-x="728" 
d="M519 885l84 -129h-47l-75 81l-111 -81h-52l132 129h69zM184 680h83l-52 -294h366l51 294h83l-120 -680h-82l58 331h-366l-58 -331h-83z" />
    <glyph glyph-name="hcircumflex" unicode="&#x125;" horiz-adv-x="542" 
d="M280 885l84 -129h-47l-75 81l-111 -81h-52l132 129h69zM354 0l50 291q8 45 8 63q0 76 -72 76q-64 0 -110.5 -54.5t-59.5 -132.5l-41 -243h-78l125 708l81 10l-63 -343h3q26 47 71 78.5t99 31.5q124 0 124 -125q0 -20 -7 -62l-52 -298h-78z" />
    <glyph glyph-name="Hbar" unicode="&#x126;" horiz-adv-x="728" 
d="M764 563l-9 -50h-69l-91 -513h-82l58 331h-366l-58 -331h-83l91 513h-71l9 50h70l21 117h83l-21 -117h366l20 117h83l-21 -117h70zM581 386l22 127h-366l-22 -127h366z" />
    <glyph glyph-name="hbar" unicode="&#x127;" horiz-adv-x="542" 
d="M367 485q124 0 124 -125q0 -20 -7 -62l-52 -298h-78l50 291q8 45 8 63q0 76 -72 76q-64 0 -110.5 -54.5t-59.5 -132.5l-41 -243h-78l99 561h-58l8 46h58l18 101l81 10l-20 -111h157l-8 -46h-158l-34 -186h3q26 47 71 78.5t99 31.5z" />
    <glyph glyph-name="Itilde" unicode="&#x128;" horiz-adv-x="280" 
d="M370 873q-20 -48 -56 -48q-15 0 -52 23q-41 26 -67 26q-34 0 -59.5 -28.5t-38.5 -72.5h35q21 50 56 50q13 0 52 -25q39 -24 67 -24q34 0 59 27.5t38 71.5h-34zM184 680h83l-120 -680h-83z" />
    <glyph glyph-name="itilde" unicode="&#x129;" horiz-adv-x="242" 
d="M324 706q-20 -48 -56 -48q-15 0 -52 23q-41 26 -67 26q-34 0 -59.5 -28.5t-38.5 -72.5h35q21 50 56 50q13 0 52 -25q39 -24 67 -24q34 0 59 27.5t38 71.5h-34zM135 475h76l-83 -475h-77z" />
    <glyph glyph-name="Imacron" unicode="&#x12a;" horiz-adv-x="280" 
d="M407 848l-8 -47h-305l8 47h305zM184 680h83l-120 -680h-83z" />
    <glyph glyph-name="imacron" unicode="&#x12b;" horiz-adv-x="242" 
d="M361 681l-8 -47h-305l8 47h305zM135 475h76l-83 -475h-77z" />
    <glyph glyph-name="Ibreve" unicode="&#x12c;" horiz-adv-x="280" 
d="M165 882q-2 -36 19.5 -56t60.5 -20q83 0 112 76h42q-37 -126 -160 -126q-61 0 -91.5 35.5t-23.5 90.5h41zM184 680h83l-120 -680h-83z" />
    <glyph glyph-name="ibreve" unicode="&#x12d;" horiz-adv-x="242" 
d="M117 706q-2 -38 19.5 -58t60.5 -20q85 0 112 78h42q-36 -128 -160 -128q-61 0 -91.5 35.5t-23.5 92.5h41zM135 475h76l-83 -475h-77z" />
    <glyph glyph-name="Iogonek" unicode="&#x12e;" horiz-adv-x="280" 
d="M-18 -125q0 33 25.5 60t86.5 65h-30l120 680h83l-120 -680q-99 -71 -99 -113q0 -30 38 -30q22 0 54 13h7l-17 -38q-32 -16 -73 -16q-33 0 -54 15t-21 44z" />
    <glyph glyph-name="iogonek" unicode="&#x12f;" horiz-adv-x="242" 
d="M169 702h85l-15 -86h-85zM51 0l84 475h76l-83 -475q-96 -72 -96 -113q0 -30 38 -30q22 0 54 13h7l-17 -38q-32 -16 -73 -16q-33 0 -54 15t-21 44q0 33 24 59t85 66h-24z" />
    <glyph glyph-name="Idotaccent" unicode="&#x130;" horiz-adv-x="280" 
d="M301 868l-15 -86h-85l15 86h85zM184 680h83l-120 -680h-83z" />
    <glyph glyph-name="dotlessi" unicode="&#x131;" horiz-adv-x="242" 
d="M135 475h76l-83 -475h-77z" />
    <glyph glyph-name="IJ" unicode="&#x132;" horiz-adv-x="560" 
d="M184 680h83l-120 -680h-83zM465 680h83l-100 -568q-17 -114 -67.5 -172.5t-152.5 -89.5l-55 17v9q87 25 130 76.5t63 162.5z" />
    <glyph glyph-name="ij" unicode="&#x133;" horiz-adv-x="484" 
d="M169 702h85l-15 -86h-85zM495 702l-15 -86h-85l15 86h85zM135 475h76l-83 -475h-77zM455 475l-82 -464q-21 -120 -76.5 -177.5t-161.5 -81.5l-41 22v11q92 25 138.5 73t65.5 156l81 461h76z" />
    <glyph glyph-name="Jcircumflex" unicode="&#x134;" horiz-adv-x="280" 
d="M297 885l84 -129h-47l-75 81l-111 -81h-52l132 129h69zM185 680h83l-100 -568q-17 -114 -67.5 -172.5t-152.5 -89.5l-55 17v9q87 25 130 76.5t63 162.5z" />
    <glyph glyph-name="jcircumflex" unicode="&#x135;" horiz-adv-x="242" 
d="M251 718l84 -141h-48l-75 92l-109 -92h-52l132 141h68zM213 475l-82 -464q-21 -120 -76.5 -177.5t-161.5 -81.5l-41 22v11q92 25 138.5 73t65.5 156l81 461h76z" />
    <glyph glyph-name="uni0136" unicode="&#x136;" 
d="M266 680l-119 -680h-83l119 680h83zM564 680h85l-348 -324q114 -181 263 -351l-1 -5h-105q-125 160 -239 343l1 7zM319 -70q-9 -29 -32.5 -71.5t-46.5 -73.5h-43q29 68 47 145h75z" />
    <glyph glyph-name="uni0137" unicode="&#x137;" horiz-adv-x="463" 
d="M175 708l81 10l-129 -718h-76zM180 250l228 225h83l-231 -215q78 -136 175 -255v-5h-94q-77 105 -162 244zM257 -70q-9 -29 -32.5 -71.5t-46.5 -73.5h-43q29 68 47 145h75z" />
    <glyph glyph-name="kgreenlandic" unicode="&#x138;" horiz-adv-x="463" 
d="M134 475h78l-85 -475h-76zM180 250l228 225h83l-231 -215q78 -136 175 -255v-5h-94q-77 105 -162 244z" />
    <glyph glyph-name="Lacute" unicode="&#x139;" horiz-adv-x="432" 
d="M424 885l-172 -129h-53l128 129h97zM364 0h-300l120 680h83l-114 -630h98q100 0 139 10h6z" />
    <glyph glyph-name="lacute" unicode="&#x13a;" horiz-adv-x="242" 
d="M409 885l-172 -129h-53l128 129h97zM175 708l81 10l-129 -718h-76z" />
    <glyph glyph-name="uni013B" unicode="&#x13b;" horiz-adv-x="432" 
d="M364 0h-300l120 680h83l-114 -630h98q100 0 139 10h6zM244 -70q-9 -29 -32.5 -71.5t-46.5 -73.5h-43q29 68 47 145h75z" />
    <glyph glyph-name="uni013C" unicode="&#x13c;" horiz-adv-x="242" 
d="M175 708l81 10l-129 -718h-76zM116 -70q-9 -29 -32.5 -71.5t-46.5 -73.5h-43q29 68 47 145h75z" />
    <glyph glyph-name="Lcaron" unicode="&#x13d;" horiz-adv-x="432" 
d="M429 718q-27 -104 -90 -183h-40q43 95 58 183h72zM364 0h-300l120 680h83l-114 -630h98q100 0 139 10h6z" />
    <glyph glyph-name="lcaron" unicode="&#x13e;" horiz-adv-x="242" 
d="M175 708l81 10l-129 -718h-76zM404 718q-27 -104 -90 -183h-40q43 95 58 183h72z" />
    <glyph glyph-name="Ldot" unicode="&#x13f;" horiz-adv-x="432" 
d="M364 0h-300l120 680h83l-114 -630h98q100 0 139 10h6zM432 396l-15 -86h-85l15 86h85z" />
    <glyph glyph-name="ldot" unicode="&#x140;" horiz-adv-x="330" 
d="M175 708l81 10l-129 -718h-76zM366 396l-15 -86h-85l15 86h85z" />
    <glyph glyph-name="Lslash" unicode="&#x141;" horiz-adv-x="432" 
d="M390 60h6l-32 -60h-300l52 295l-81 -42l9 60l83 43l57 324h83l-52 -285l144 75l-9 -60l-145 -75l-52 -285h98q100 0 139 10z" />
    <glyph glyph-name="lslash" unicode="&#x142;" horiz-adv-x="242" 
d="M298 485l-9 -58l-94 -50l-68 -377h-76l59 335l-94 -50l9 58l95 50l55 315l81 10l-51 -283z" />
    <glyph glyph-name="Nacute" unicode="&#x143;" horiz-adv-x="740" 
d="M635 885l-172 -129h-53l128 129h97zM564 137h3l93 543h63l-120 -680h-50l-326 556h-5l-95 -556h-63l120 680h65z" />
    <glyph glyph-name="nacute" unicode="&#x144;" horiz-adv-x="542" 
d="M501 718l-161 -141h-53l123 141h91zM354 0l50 291q8 45 8 63q0 76 -72 76q-64 0 -110.5 -54.5t-59.5 -132.5l-41 -243h-78l84 475h71l-12 -100h3q26 47 71 78.5t99 31.5q124 0 124 -125q0 -20 -7 -62l-52 -298h-78z" />
    <glyph glyph-name="uni0145" unicode="&#x145;" horiz-adv-x="740" 
d="M564 137h3l93 543h63l-120 -680h-50l-326 556h-5l-95 -556h-63l120 680h65zM364 -70q-9 -29 -32.5 -71.5t-46.5 -73.5h-43q29 68 47 145h75z" />
    <glyph glyph-name="uni0146" unicode="&#x146;" horiz-adv-x="542" 
d="M354 0l50 291q8 45 8 63q0 76 -72 76q-64 0 -110.5 -54.5t-59.5 -132.5l-41 -243h-78l84 475h71l-12 -100h3q26 47 71 78.5t99 31.5q124 0 124 -125q0 -20 -7 -62l-52 -298h-78zM278 -70q-9 -29 -32.5 -71.5t-46.5 -73.5h-43q29 68 47 145h75z" />
    <glyph glyph-name="Ncaron" unicode="&#x147;" horiz-adv-x="740" 
d="M432 756l-84 129h48l75 -81l111 81h51l-132 -129h-69zM564 137h3l93 543h63l-120 -680h-50l-326 556h-5l-95 -556h-63l120 680h65z" />
    <glyph glyph-name="ncaron" unicode="&#x148;" horiz-adv-x="542" 
d="M307 577l-84 141h49l75 -92l109 92h51l-132 -141h-68zM354 0l50 291q8 45 8 63q0 76 -72 76q-64 0 -110.5 -54.5t-59.5 -132.5l-41 -243h-78l84 475h71l-12 -100h3q26 47 71 78.5t99 31.5q124 0 124 -125q0 -20 -7 -62l-52 -298h-78z" />
    <glyph glyph-name="napostrophe" unicode="&#x149;" horiz-adv-x="542" 
d="M192 718q-27 -104 -90 -183h-40q43 95 58 183h72zM354 0l50 291q8 45 8 63q0 76 -72 76q-64 0 -110.5 -54.5t-59.5 -132.5l-41 -243h-78l84 475h71l-12 -100h3q26 47 71 78.5t99 31.5q124 0 124 -125q0 -20 -7 -62l-52 -298h-78z" />
    <glyph glyph-name="Eng" unicode="&#x14a;" horiz-adv-x="740" 
d="M381 -231l-41 16l1 6q89 33 134.5 85t66.5 143l-315 537h-5l-95 -556h-63l120 680h65l315 -543h3l93 543h63l-114 -647q-21 -119 -74 -177.5t-154 -86.5z" />
    <glyph glyph-name="eng" unicode="&#x14b;" horiz-adv-x="542" 
d="M195 -248l-41 22v11q92 25 138 73t65 156l47 277q8 45 8 63q0 76 -72 76q-64 0 -110.5 -54.5t-59.5 -132.5l-41 -243h-78l84 475h71l-12 -100h3q26 47 71 78.5t99 31.5q124 0 124 -125q0 -20 -7 -62l-50 -287q-21 -120 -77 -177.5t-162 -81.5z" />
    <glyph glyph-name="Omacron" unicode="&#x14c;" horiz-adv-x="792" 
d="M665 848l-8 -47h-305l8 47h305zM478 692q125 0 206 -74t79 -211q-3 -179 -114 -299t-277 -120q-128 0 -209.5 74t-78.5 211q3 176 115.5 297.5t278.5 121.5zM377 40q132 0 213 107.5t83 253.5q2 113 -49.5 176t-150.5 63q-133 0 -215 -107.5t-84 -255.5
q-2 -112 50.5 -174.5t152.5 -62.5z" />
    <glyph glyph-name="omacron" unicode="&#x14d;" horiz-adv-x="566" 
d="M520 681l-8 -47h-305l8 47h305zM327 485q92 0 147 -50.5t55 -143.5q0 -125 -77 -213t-192 -88q-88 0 -143 53t-55 144q0 121 77 209.5t188 88.5zM262 39q87 0 135.5 74t48.5 178q0 65 -30 105.5t-91 40.5q-83 0 -131.5 -74t-48.5 -172q0 -65 28.5 -108.5t88.5 -43.5z" />
    <glyph glyph-name="Obreve" unicode="&#x14e;" horiz-adv-x="792" 
d="M423 882q-2 -36 19.5 -56t60.5 -20q83 0 112 76h42q-37 -126 -160 -126q-61 0 -91.5 35.5t-23.5 90.5h41zM478 692q125 0 206 -74t79 -211q-3 -179 -114 -299t-277 -120q-128 0 -209.5 74t-78.5 211q3 176 115.5 297.5t278.5 121.5zM377 40q132 0 213 107.5t83 253.5
q2 113 -49.5 176t-150.5 63q-133 0 -215 -107.5t-84 -255.5q-2 -112 50.5 -174.5t152.5 -62.5z" />
    <glyph glyph-name="obreve" unicode="&#x14f;" horiz-adv-x="566" 
d="M276 706q-2 -38 19.5 -58t60.5 -20q85 0 112 78h42q-36 -128 -160 -128q-61 0 -91.5 35.5t-23.5 92.5h41zM327 485q92 0 147 -50.5t55 -143.5q0 -125 -77 -213t-192 -88q-88 0 -143 53t-55 144q0 121 77 209.5t188 88.5zM262 39q87 0 135.5 74t48.5 178q0 65 -30 105.5
t-91 40.5q-83 0 -131.5 -74t-48.5 -172q0 -65 28.5 -108.5t88.5 -43.5z" />
    <glyph glyph-name="Ohungarumlaut" unicode="&#x150;" horiz-adv-x="792" 
d="M590 885l-158 -129h-52l122 129h88zM743 885l-158 -129h-52l122 129h88zM478 692q125 0 206 -74t79 -211q-3 -179 -114 -299t-277 -120q-128 0 -209.5 74t-78.5 211q3 176 115.5 297.5t278.5 121.5zM377 40q132 0 213 107.5t83 253.5q2 113 -49.5 176t-150.5 63
q-133 0 -215 -107.5t-84 -255.5q-2 -112 50.5 -174.5t152.5 -62.5z" />
    <glyph glyph-name="ohungarumlaut" unicode="&#x151;" horiz-adv-x="566" 
d="M445 718l-156 -141h-52l121 141h87zM598 718l-156 -141h-52l121 141h87zM327 485q92 0 147 -50.5t55 -143.5q0 -125 -77 -213t-192 -88q-88 0 -143 53t-55 144q0 121 77 209.5t188 88.5zM262 39q87 0 135.5 74t48.5 178q0 65 -30 105.5t-91 40.5q-83 0 -131.5 -74
t-48.5 -172q0 -65 28.5 -108.5t88.5 -43.5z" />
    <glyph glyph-name="OE" unicode="&#x152;" horiz-adv-x="943" 
d="M400 -5q-145 0 -230.5 66.5t-85.5 200.5q0 185 120.5 304t307.5 119q28 0 88 -2.5t73 -2.5h276l-9 -51h-226l-45 -258h203l-8 -49h-203l-49 -272h129q105 0 144 10h6l-35 -60h-303q-17 0 -74.5 -2.5t-78.5 -2.5zM410 49q32 0 120 4l102 574q-18 0 -61 2t-69 2
q-151 0 -239.5 -102.5t-88.5 -254.5q0 -225 236 -225z" />
    <glyph glyph-name="oe" unicode="&#x153;" horiz-adv-x="898" 
d="M260 -10q-88 0 -143 53t-55 144q0 121 77 209.5t188 88.5q135 0 173 -105h2q26 46 78 75.5t114 29.5q85 0 128.5 -44t43.5 -130q0 -28 -8 -58h-333q-4 -20 -4 -45q0 -79 38.5 -123t109.5 -44q92 0 155 59h11l-26 -62q-66 -48 -152 -48q-76 0 -123 32t-64 82h-2
q-26 -48 -83.5 -81t-124.5 -33zM534 300h256q2 10 2 21q0 123 -101 123q-52 0 -96 -37.5t-61 -106.5zM262 39q87 0 135.5 74t48.5 178q0 65 -30 105.5t-91 40.5q-83 0 -131.5 -74t-48.5 -172q0 -65 28.5 -108.5t88.5 -43.5z" />
    <glyph glyph-name="Racute" unicode="&#x154;" horiz-adv-x="578" 
d="M541 885l-172 -129h-53l128 129h97zM184 680h147q95 0 147.5 -39.5t51.5 -119.5q-1 -79 -56.5 -134.5t-141.5 -67.5l-2 -4q116 -191 222 -308l-1 -7h-106q-69 90 -198 311h-46l-55 -311h-82zM208 353h75q160 18 163 164q1 58 -35.5 85.5t-100.5 27.5h-53z" />
    <glyph glyph-name="racute" unicode="&#x155;" horiz-adv-x="332" 
d="M401 718l-161 -141h-53l123 141h91zM134 475h72l-18 -121h3q29 52 76.5 94t98.5 41l-19 -75q-68 0 -116 -53.5t-62 -131.5l-40 -229h-78z" />
    <glyph glyph-name="uni0156" unicode="&#x156;" horiz-adv-x="578" 
d="M184 680h147q95 0 147.5 -39.5t51.5 -119.5q-1 -79 -56.5 -134.5t-141.5 -67.5l-2 -4q116 -191 222 -308l-1 -7h-106q-69 90 -198 311h-46l-55 -311h-82zM208 353h75q160 18 163 164q1 58 -35.5 85.5t-100.5 27.5h-53zM305 -70q-9 -29 -32.5 -71.5t-46.5 -73.5h-43
q29 68 47 145h75z" />
    <glyph glyph-name="uni0157" unicode="&#x157;" horiz-adv-x="332" 
d="M134 475h72l-18 -121h3q29 52 76.5 94t98.5 41l-19 -75q-68 0 -116 -53.5t-62 -131.5l-40 -229h-78zM116 -70q-9 -29 -32.5 -71.5t-46.5 -73.5h-43q29 68 47 145h75z" />
    <glyph glyph-name="Rcaron" unicode="&#x158;" horiz-adv-x="578" 
d="M338 756l-84 129h48l75 -81l111 81h51l-132 -129h-69zM184 680h147q95 0 147.5 -39.5t51.5 -119.5q-1 -79 -56.5 -134.5t-141.5 -67.5l-2 -4q116 -191 222 -308l-1 -7h-106q-69 90 -198 311h-46l-55 -311h-82zM208 353h75q160 18 163 164q1 58 -35.5 85.5t-100.5 27.5
h-53z" />
    <glyph glyph-name="rcaron" unicode="&#x159;" horiz-adv-x="332" 
d="M207 577l-84 141h49l75 -92l109 92h51l-132 -141h-68zM134 475h72l-18 -121h3q29 52 76.5 94t98.5 41l-19 -75q-68 0 -116 -53.5t-62 -131.5l-40 -229h-78z" />
    <glyph glyph-name="Sacute" unicode="&#x15a;" horiz-adv-x="482" 
d="M501 885l-172 -129h-53l128 129h97zM453 597q-19 19 -52.5 30.5t-64.5 11.5q-48 0 -85 -28t-38 -82q-1 -38 19 -66t71 -67q67 -52 101.5 -99.5t33.5 -107.5q-1 -94 -66 -147t-160 -53q-46 0 -94 17t-82 40l-13 88h11q36 -42 85 -66.5t96 -24.5q61 0 100 33t40 99
q1 45 -27.5 82.5t-88.5 83.5q-59 45 -84 80.5t-24 83.5q1 84 64 135.5t143 51.5q78 0 134 -31l-3 -65z" />
    <glyph glyph-name="sacute" unicode="&#x15b;" horiz-adv-x="372" 
d="M406 718l-161 -141h-53l123 141h91zM345 405q-37 35 -96 35q-37 0 -59.5 -17t-22.5 -47q0 -25 12.5 -44t53.5 -56q47 -43 67 -74.5t20 -70.5q0 -65 -47.5 -102t-111.5 -37q-74 0 -131 37l-12 70h11q60 -58 128 -58q40 0 63.5 21t23.5 56q0 32 -14.5 53.5t-57.5 61.5
q-45 41 -60 65.5t-15 58.5q0 59 46 93.5t108 34.5q54 0 94 -20l10 -61z" />
    <glyph glyph-name="Scircumflex" unicode="&#x15c;" horiz-adv-x="482" 
d="M389 885l84 -129h-47l-75 81l-111 -81h-52l132 129h69zM453 597q-19 19 -52.5 30.5t-64.5 11.5q-48 0 -85 -28t-38 -82q-1 -38 19 -66t71 -67q67 -52 101.5 -99.5t33.5 -107.5q-1 -94 -66 -147t-160 -53q-46 0 -94 17t-82 40l-13 88h11q36 -42 85 -66.5t96 -24.5
q61 0 100 33t40 99q1 45 -27.5 82.5t-88.5 83.5q-59 45 -84 80.5t-24 83.5q1 84 64 135.5t143 51.5q78 0 134 -31l-3 -65z" />
    <glyph glyph-name="scircumflex" unicode="&#x15d;" horiz-adv-x="372" 
d="M304 718l84 -141h-48l-75 92l-109 -92h-52l132 141h68zM345 405q-37 35 -96 35q-37 0 -59.5 -17t-22.5 -47q0 -25 12.5 -44t53.5 -56q47 -43 67 -74.5t20 -70.5q0 -65 -47.5 -102t-111.5 -37q-74 0 -131 37l-12 70h11q60 -58 128 -58q40 0 63.5 21t23.5 56
q0 32 -14.5 53.5t-57.5 61.5q-45 41 -60 65.5t-15 58.5q0 59 46 93.5t108 34.5q54 0 94 -20l10 -61z" />
    <glyph glyph-name="Scedilla" unicode="&#x15e;" horiz-adv-x="482" 
d="M338 692q78 0 134 -31l-3 -65l-16 1q-19 19 -52.5 30.5t-64.5 11.5q-48 0 -85 -28t-38 -82q-1 -38 19 -66t71 -67q67 -52 101.5 -99.5t33.5 -107.5q-1 -91 -62.5 -144t-152.5 -56l-23 -37l11 -3q55 -14 55 -64q0 -49 -46 -75.5t-117 -26.5l-13 32l4 3q54 1 81 16.5
t27 41.5q0 31 -61 42v6l45 66q-83 10 -150 56l-13 88h11q36 -42 85 -66.5t96 -24.5q61 0 100 33t40 99q1 45 -27.5 82.5t-88.5 83.5q-59 45 -84 80.5t-24 83.5q1 84 64 135.5t143 51.5z" />
    <glyph glyph-name="scedilla" unicode="&#x15f;" horiz-adv-x="372" 
d="M249 440q-37 0 -59.5 -17t-22.5 -47q0 -25 12.5 -44t53.5 -56q47 -43 67 -74.5t20 -70.5q0 -62 -43 -98.5t-104 -40.5l-25 -40l11 -3q55 -14 55 -64q0 -49 -46 -75.5t-117 -26.5l-13 32l4 3q54 1 81 16.5t27 41.5q0 31 -61 42v6l46 69q-58 6 -105 36l-12 70h11
q60 -58 128 -58q40 0 63.5 21t23.5 56q0 32 -14.5 53.5t-57.5 61.5q-45 41 -60 65.5t-15 58.5q0 59 46 93.5t108 34.5q54 0 94 -20l10 -61l-10 1q-37 35 -96 35z" />
    <glyph glyph-name="Scaron" unicode="&#x160;" horiz-adv-x="482" 
d="M298 756l-84 129h48l75 -81l111 81h51l-132 -129h-69zM453 597q-19 19 -52.5 30.5t-64.5 11.5q-48 0 -85 -28t-38 -82q-1 -38 19 -66t71 -67q67 -52 101.5 -99.5t33.5 -107.5q-1 -94 -66 -147t-160 -53q-46 0 -94 17t-82 40l-13 88h11q36 -42 85 -66.5t96 -24.5
q61 0 100 33t40 99q1 45 -27.5 82.5t-88.5 83.5q-59 45 -84 80.5t-24 83.5q1 84 64 135.5t143 51.5q78 0 134 -31l-3 -65z" />
    <glyph glyph-name="scaron" unicode="&#x161;" horiz-adv-x="372" 
d="M212 577l-84 141h49l75 -92l109 92h51l-132 -141h-68zM345 405q-37 35 -96 35q-37 0 -59.5 -17t-22.5 -47q0 -25 12.5 -44t53.5 -56q47 -43 67 -74.5t20 -70.5q0 -65 -47.5 -102t-111.5 -37q-74 0 -131 37l-12 70h11q60 -58 128 -58q40 0 63.5 21t23.5 56
q0 32 -14.5 53.5t-57.5 61.5q-45 41 -60 65.5t-15 58.5q0 59 46 93.5t108 34.5q54 0 94 -20l10 -61z" />
    <glyph glyph-name="uni0162" unicode="&#x162;" horiz-adv-x="470" 
d="M99 680h446l-10 -53h-186l-110 -627h-20l-30 -48l11 -3q55 -14 55 -64q0 -49 -46 -75.5t-117 -26.5l-13 32l4 3q54 1 81 16.5t27 41.5q0 31 -61 42v6l51 76h-25l110 627h-176z" />
    <glyph glyph-name="uni0163" unicode="&#x163;" horiz-adv-x="302" 
d="M204 431l-55 -309q-3 -27 -3 -32q0 -49 49 -49q43 0 80 21l-11 -41q-44 -29 -99 -29h-8l-25 -40l11 -3q55 -14 55 -64q0 -49 -46 -75.5t-117 -26.5l-13 32l4 3q54 1 81 16.5t27 41.5q0 31 -61 42v6l49 73q-55 14 -55 80q0 7 4 35l57 319h-72l8 44h72l22 127l78 10
l-24 -137h128l-13 -44h-123z" />
    <glyph glyph-name="Tcaron" unicode="&#x164;" horiz-adv-x="470" 
d="M301 756l-84 129h48l75 -81l111 81h51l-132 -129h-69zM266 627h-176l9 53h446l-10 -53h-186l-110 -627h-83z" />
    <glyph glyph-name="tcaron" unicode="&#x165;" horiz-adv-x="302" 
d="M404 718q-27 -104 -90 -183h-40q43 95 58 183h72zM149 122q-3 -27 -3 -32q0 -49 49 -49q43 0 80 21l-11 -41q-44 -29 -99 -29q-98 0 -98 85q0 7 4 35l57 319h-72l8 44h72l22 127l78 10l-24 -137h128l-13 -44h-123z" />
    <glyph glyph-name="Tbar" unicode="&#x166;" horiz-adv-x="470" 
d="M535 627h-186l-45 -255h114l-9 -50h-114l-56 -322h-83l56 322h-112l9 50h112l45 255h-176l9 53h446z" />
    <glyph glyph-name="tbar" unicode="&#x167;" horiz-adv-x="302" 
d="M327 431h-123l-20 -115h103l-7 -42h-104l-27 -152q-3 -27 -3 -32q0 -49 49 -49q43 0 80 21l-11 -41q-44 -29 -99 -29q-98 0 -98 85q0 7 4 35l29 162h-71l7 42h71l21 115h-72l8 44h72l22 127l78 10l-24 -137h128z" />
    <glyph glyph-name="Utilde" unicode="&#x168;" horiz-adv-x="690" 
d="M574 873q-20 -48 -56 -48q-15 0 -52 23q-41 26 -67 26q-34 0 -59.5 -28.5t-38.5 -72.5h35q21 50 56 50q13 0 52 -25q39 -24 67 -24q34 0 59 27.5t38 71.5h-34zM325 -11q-114 0 -175 53t-59 147q2 32 5 50l78 441h83l-76 -427q-4 -28 -6 -59q-1 -76 37.5 -113t117.5 -37
q94 0 146 50t70 157l75 429h61l-78 -441q-21 -121 -91 -185.5t-188 -64.5z" />
    <glyph glyph-name="utilde" unicode="&#x169;" horiz-adv-x="533" 
d="M465 706q-20 -48 -56 -48q-15 0 -52 23q-41 26 -67 26q-34 0 -59.5 -28.5t-38.5 -72.5h35q21 50 56 50q13 0 52 -25q39 -24 67 -24q34 0 59 27.5t38 71.5h-34zM202 475l-50 -291q-8 -45 -8 -63q0 -76 70 -76q65 0 111 54t59 133l41 243h78l-84 -475h-71l13 100h-3
q-26 -46 -70.5 -78t-94.5 -32q-57 0 -93 28t-36 92q0 21 8 67l52 298h78z" />
    <glyph glyph-name="Umacron" unicode="&#x16a;" horiz-adv-x="690" 
d="M611 848l-8 -47h-305l8 47h305zM325 -11q-114 0 -175 53t-59 147q2 32 5 50l78 441h83l-76 -427q-4 -28 -6 -59q-1 -76 37.5 -113t117.5 -37q94 0 146 50t70 157l75 429h61l-78 -441q-21 -121 -91 -185.5t-188 -64.5z" />
    <glyph glyph-name="umacron" unicode="&#x16b;" horiz-adv-x="533" 
d="M502 681l-8 -47h-305l8 47h305zM202 475l-50 -291q-8 -45 -8 -63q0 -76 70 -76q65 0 111 54t59 133l41 243h78l-84 -475h-71l13 100h-3q-26 -46 -70.5 -78t-94.5 -32q-57 0 -93 28t-36 92q0 21 8 67l52 298h78z" />
    <glyph glyph-name="Ubreve" unicode="&#x16c;" horiz-adv-x="690" 
d="M369 882q-2 -36 19.5 -56t60.5 -20q83 0 112 76h42q-37 -126 -160 -126q-61 0 -91.5 35.5t-23.5 90.5h41zM325 -11q-114 0 -175 53t-59 147q2 32 5 50l78 441h83l-76 -427q-4 -28 -6 -59q-1 -76 37.5 -113t117.5 -37q94 0 146 50t70 157l75 429h61l-78 -441
q-21 -121 -91 -185.5t-188 -64.5z" />
    <glyph glyph-name="ubreve" unicode="&#x16d;" horiz-adv-x="533" 
d="M258 706q-2 -38 19.5 -58t60.5 -20q85 0 112 78h42q-36 -128 -160 -128q-61 0 -91.5 35.5t-23.5 92.5h41zM202 475l-50 -291q-8 -45 -8 -63q0 -76 70 -76q65 0 111 54t59 133l41 243h78l-84 -475h-71l13 100h-3q-26 -46 -70.5 -78t-94.5 -32q-57 0 -93 28t-36 92
q0 21 8 67l52 298h78z" />
    <glyph glyph-name="Uring" unicode="&#x16e;" horiz-adv-x="690" 
d="M442 726q-41 0 -67 25t-26 62q0 50 33.5 83.5t87.5 33.5q40 0 66.5 -25t26.5 -62q0 -50 -34 -83.5t-87 -33.5zM446 758q34 0 56 24t22 58q0 24 -15 41t-43 17q-32 0 -55 -23.5t-23 -58.5q0 -25 15.5 -41.5t42.5 -16.5zM325 -11q-114 0 -175 53t-59 147q2 32 5 50l78 441
h83l-76 -427q-4 -28 -6 -59q-1 -76 37.5 -113t117.5 -37q94 0 146 50t70 157l75 429h61l-78 -441q-21 -121 -91 -185.5t-188 -64.5z" />
    <glyph glyph-name="uring" unicode="&#x16f;" horiz-adv-x="533" 
d="M330 550q-41 0 -67 25t-26 62q0 50 33.5 83.5t87.5 33.5q40 0 66.5 -25t26.5 -62q0 -50 -34 -83.5t-87 -33.5zM334 582q34 0 56 24t22 58q0 24 -15 41t-43 17q-32 0 -55 -23.5t-23 -58.5q0 -25 15.5 -41.5t42.5 -16.5zM202 475l-50 -291q-8 -45 -8 -63q0 -76 70 -76
q65 0 111 54t59 133l41 243h78l-84 -475h-71l13 100h-3q-26 -46 -70.5 -78t-94.5 -32q-57 0 -93 28t-36 92q0 21 8 67l52 298h78z" />
    <glyph glyph-name="Uhungarumlaut" unicode="&#x170;" horiz-adv-x="690" 
d="M536 885l-158 -129h-52l122 129h88zM689 885l-158 -129h-52l122 129h88zM325 -11q-114 0 -175 53t-59 147q2 32 5 50l78 441h83l-76 -427q-4 -28 -6 -59q-1 -76 37.5 -113t117.5 -37q94 0 146 50t70 157l75 429h61l-78 -441q-21 -121 -91 -185.5t-188 -64.5z" />
    <glyph glyph-name="uhungarumlaut" unicode="&#x171;" horiz-adv-x="533" 
d="M427 718l-156 -141h-52l121 141h87zM580 718l-156 -141h-52l121 141h87zM202 475l-50 -291q-8 -45 -8 -63q0 -76 70 -76q65 0 111 54t59 133l41 243h78l-84 -475h-71l13 100h-3q-26 -46 -70.5 -78t-94.5 -32q-57 0 -93 28t-36 92q0 21 8 67l52 298h78z" />
    <glyph glyph-name="Uogonek" unicode="&#x172;" horiz-adv-x="690" 
d="M91 189q2 32 5 50l78 441h83l-76 -427q-4 -28 -6 -59q-1 -76 37.5 -113t117.5 -37q94 0 146 50t70 157l75 429h61l-78 -441q-17 -98 -65 -156.5t-131 -84.5q-54 -17 -92.5 -51.5t-38.5 -59.5q0 -30 38 -30q22 0 54 13h7l-17 -38q-32 -16 -73 -16q-33 0 -54 15t-21 44
q0 63 103 114q-109 4 -167 55.5t-56 144.5z" />
    <glyph glyph-name="uogonek" unicode="&#x173;" horiz-adv-x="533" 
d="M64 110q0 21 8 67l52 298h78l-50 -291q-8 -45 -8 -63q0 -76 70 -76q65 0 111 54t59 133l41 243h78l-84 -475q-121 -70 -121 -113q0 -30 38 -30q22 0 54 13h7l-17 -38q-32 -16 -73 -16q-33 0 -54 15t-21 44q0 66 130 125h-14l13 100h-3q-26 -46 -70.5 -78t-94.5 -32
q-57 0 -93 28t-36 92z" />
    <glyph glyph-name="Wcircumflex" unicode="&#x174;" horiz-adv-x="932" 
d="M631 885l84 -129h-47l-75 81l-111 -81h-52l132 129h69zM621 0l-91 552h-6l-293 -552h-63l-55 678l85 2l38 -553h2l293 553h62l87 -556h3l238 556h76l-310 -680h-66z" />
    <glyph glyph-name="wcircumflex" unicode="&#x175;" horiz-adv-x="745" 
d="M508 718l84 -141h-48l-75 92l-109 -92h-52l132 141h68zM710 475h69l-245 -475h-62l-63 374h-4l-204 -374h-61l-68 475h81l48 -376h2l201 376h57l67 -376h3z" />
    <glyph glyph-name="Ycircumflex" unicode="&#x176;" horiz-adv-x="523" 
d="M420 885l84 -129h-47l-75 81l-111 -81h-52l132 129h69zM249 314l-164 366h91l132 -303h5l224 303h73l-278 -356l-57 -324h-81z" />
    <glyph glyph-name="ycircumflex" unicode="&#x177;" horiz-adv-x="452" 
d="M346 718l84 -141h-48l-75 92l-109 -92h-52l132 141h68zM78 -223h-84q93 115 176 248l-115 450h83l88 -366h3q96 170 194 366h67q-225 -413 -412 -698z" />
    <glyph glyph-name="Ydieresis" unicode="&#x178;" horiz-adv-x="523" 
d="M341 867l-14 -84h-80l14 84h80zM504 867l-14 -84h-80l14 84h80zM249 314l-164 366h91l132 -303h5l224 303h73l-278 -356l-57 -324h-81z" />
    <glyph glyph-name="Zacute" unicode="&#x179;" horiz-adv-x="670" 
d="M605 885l-172 -129h-53l128 129h97zM589 -1l-582 1l4 24l550 597l1 6h-411l22 53h528l-3 -19l-557 -605v-6q260 0 338.5 2.5t141.5 14.5h6z" />
    <glyph glyph-name="zacute" unicode="&#x17a;" horiz-adv-x="460" 
d="M460 718l-161 -141h-53l123 141h91zM130 475h349l-3 -18l-362 -405l-1 -5q165 0 224.5 2.5t99.5 11.5h6l-48 -61h-404l3 18l363 405l1 6h-256z" />
    <glyph glyph-name="Zdotaccent" unicode="&#x17b;" horiz-adv-x="670" 
d="M498 868l-15 -86h-85l15 86h85zM589 -1l-582 1l4 24l550 597l1 6h-411l22 53h528l-3 -19l-557 -605v-6q260 0 338.5 2.5t141.5 14.5h6z" />
    <glyph glyph-name="zdotaccent" unicode="&#x17c;" horiz-adv-x="460" 
d="M364 702l-15 -86h-85l15 86h85zM130 475h349l-3 -18l-362 -405l-1 -5q165 0 224.5 2.5t99.5 11.5h6l-48 -61h-404l3 18l363 405l1 6h-256z" />
    <glyph glyph-name="Zcaron" unicode="&#x17d;" horiz-adv-x="670" 
d="M402 756l-84 129h48l75 -81l111 81h51l-132 -129h-69zM589 -1l-582 1l4 24l550 597l1 6h-411l22 53h528l-3 -19l-557 -605v-6q260 0 338.5 2.5t141.5 14.5h6z" />
    <glyph glyph-name="zcaron" unicode="&#x17e;" horiz-adv-x="460" 
d="M266 577l-84 141h49l75 -92l109 92h51l-132 -141h-68zM130 475h349l-3 -18l-362 -405l-1 -5q165 0 224.5 2.5t99.5 11.5h6l-48 -61h-404l3 18l363 405l1 6h-256z" />
    <glyph glyph-name="longs" unicode="&#x17f;" horiz-adv-x="282" 
d="M356 728q39 0 62 -12l-4 -55h-10q-23 16 -57 16q-54 0 -81.5 -45t-45.5 -147l-87 -485h-78l78 431h-73l8 44h73l7 36q18 97 70 157t138 60z" />
    <glyph glyph-name="uni018F" unicode="&#x18f;" horiz-adv-x="720" 
d="M403 692q136 0 212 -70.5t76 -205.5q0 -180 -106.5 -304t-255.5 -124q-119 0 -182 67t-63 183q0 67 16 128h500q3 27 3 54q0 110 -53.5 164t-152.5 54q-120 0 -233 -98h-10l25 81q104 71 224 71zM331 40q91 0 164 75.5t98 198.5h-415q-8 -39 -8 -87q0 -91 40.5 -139
t120.5 -48z" />
    <glyph glyph-name="florin" unicode="&#x192;" horiz-adv-x="584" 
d="M539 692q33 0 59 -12l-4 -55h-10q-20 16 -44 16q-33 0 -58 -24.5t-49 -88.5l-55 -145h99l-15 -44h-101l-134 -352q-45 -118 -96 -167.5t-116 -49.5q-34 0 -60 12l4 55h10q20 -16 45 -16q33 0 58.5 24.5t49.5 88.5l154 405h-91l15 44h93l35 92q45 118 95.5 167.5
t115.5 49.5z" />
    <glyph glyph-name="Aringacute" unicode="&#x1fa;" horiz-adv-x="626" 
d="M493 0l-53 263h-251l-152 -263h-72l389 645q-50 23 -50 78q0 41 24.5 71t65.5 39l86 81h97l-122 -82q29 -9 46 -31.5t17 -51.5q0 -36 -20 -64t-54 -41l140 -644h-91zM421 804q-32 0 -55 -22.5t-23 -55.5q0 -24 15.5 -41t42.5 -17q34 0 56 23t22 55q0 24 -15 41t-43 17z
M429 315l-53 259h-5l-152 -259h210z" />
    <glyph glyph-name="aringacute" unicode="&#x1fb;" horiz-adv-x="516" 
d="M327 550q-41 0 -67 25t-26 62q0 40 22 70.5t60 41.5l104 119h91l-133 -116q31 -7 50.5 -30.5t19.5 -54.5q0 -50 -34 -83.5t-87 -33.5zM351 722q-32 0 -55 -23.5t-23 -58.5q0 -25 15.5 -41.5t42.5 -16.5q34 0 56 24t22 58q0 24 -15 41t-43 17zM296 485q83 0 126.5 -34.5
t43.5 -96.5q0 -20 -5 -44l-41 -221q-7 -33 -7 -89h-65l-3 72q-66 -82 -167 -82q-63 0 -97.5 31.5t-34.5 78.5q0 68 42 103.5t122 52.5q110 23 140.5 31.5t33.5 17.5q7 20 7 44q0 42 -26 65.5t-72 23.5q-80 0 -147 -55h-10l16 62q68 40 144 40zM355 145l20 109
q-135 -22 -191 -50t-56 -92q0 -34 21.5 -55.5t57.5 -21.5q49 0 89 31t59 79z" />
    <glyph glyph-name="AEacute" unicode="&#x1fc;" horiz-adv-x="844" 
d="M822 885l-172 -129h-53l128 129h97zM841 629h-226l-45 -258h203l-8 -49h-203l-49 -272h129q105 0 144 10h6l-35 -60h-335l47 263h-228l-206 -263h-77l543 680h349zM478 315l55 312h-6l-245 -312h196z" />
    <glyph glyph-name="aeacute" unicode="&#x1fd;" horiz-adv-x="824" 
d="M647 718l-161 -141h-53l123 141h91zM784 253h-334q-3 -23 -3 -45q0 -79 38.5 -123t109.5 -44q92 0 155 59h11l-26 -62q-66 -48 -152 -48q-147 0 -194 116h-2q-58 -116 -195 -116q-70 0 -108 32t-38 83q0 66 45.5 102t136.5 54q101 20 128 28.5t30 18.5q5 15 5 41
q0 42 -26 65.5t-72 23.5q-80 0 -147 -55h-10l16 62q68 40 144 40q118 0 151 -76h2q63 76 173 76q170 0 170 -174q0 -28 -8 -58zM619 444q-57 0 -100 -39.5t-61 -106.5h258q2 10 2 23q0 123 -99 123zM355 145l20 105q-134 -22 -190.5 -50t-56.5 -88q0 -34 21.5 -55.5
t57.5 -21.5q49 0 89 31t59 79z" />
    <glyph glyph-name="Oslashacute" unicode="&#x1fe;" horiz-adv-x="792" 
d="M666 885l-172 -129h-53l128 129h97zM786 649l-71 -67q49 -72 48 -175q-3 -179 -114 -299t-277 -120q-127 0 -206 71l-70 -66l-34 36l71 67q-52 73 -49 177q3 176 115.5 297.5t278.5 121.5q128 0 205 -73l69 65zM174 277q-2 -71 20 -123l436 415q-51 71 -157 71
q-133 0 -215 -107.5t-84 -255.5zM673 401q2 72 -19 123l-435 -414q53 -70 158 -70q132 0 213 107.5t83 253.5z" />
    <glyph glyph-name="oslashacute" unicode="&#x1ff;" horiz-adv-x="566" 
d="M510 718l-161 -141h-53l123 141h91zM566 464l-66 -62q29 -46 29 -111q0 -125 -77 -213t-192 -88q-87 0 -141 51l-65 -61l-29 31l67 63q-30 49 -30 113q0 121 77 209.5t188 88.5q93 0 146 -50l64 60zM145 191q0 -33 7 -60l271 256q-32 50 -98 50q-83 0 -131.5 -74
t-48.5 -172zM446 291q0 29 -6 54l-271 -256q32 -50 93 -50q87 0 135.5 74t48.5 178z" />
    <glyph glyph-name="uni0218" unicode="&#x218;" horiz-adv-x="482" 
d="M453 597q-19 19 -52.5 30.5t-64.5 11.5q-48 0 -85 -28t-38 -82q-1 -38 19 -66t71 -67q67 -52 101.5 -99.5t33.5 -107.5q-1 -94 -66 -147t-160 -53q-46 0 -94 17t-82 40l-13 88h11q36 -42 85 -66.5t96 -24.5q61 0 100 33t40 99q1 45 -27.5 82.5t-88.5 83.5
q-59 45 -84 80.5t-24 83.5q1 84 64 135.5t143 51.5q78 0 134 -31l-3 -65zM233 -70q-9 -29 -32.5 -71.5t-46.5 -73.5h-43q29 68 47 145h75z" />
    <glyph glyph-name="uni0219" unicode="&#x219;" horiz-adv-x="372" 
d="M345 405q-37 35 -96 35q-37 0 -59.5 -17t-22.5 -47q0 -25 12.5 -44t53.5 -56q47 -43 67 -74.5t20 -70.5q0 -65 -47.5 -102t-111.5 -37q-74 0 -131 37l-12 70h11q60 -58 128 -58q40 0 63.5 21t23.5 56q0 32 -14.5 53.5t-57.5 61.5q-45 41 -60 65.5t-15 58.5q0 59 46 93.5
t108 34.5q54 0 94 -20l10 -61zM181 -70q-9 -29 -32.5 -71.5t-46.5 -73.5h-43q29 68 47 145h75z" />
    <glyph glyph-name="uni021A" unicode="&#x21a;" horiz-adv-x="470" 
d="M266 627h-176l9 53h446l-10 -53h-186l-110 -627h-83zM222 -70q-9 -29 -32.5 -71.5t-46.5 -73.5h-43q29 68 47 145h75z" />
    <glyph glyph-name="uni021B" unicode="&#x21b;" horiz-adv-x="302" 
d="M149 122q-3 -27 -3 -32q0 -49 49 -49q43 0 80 21l-11 -41q-44 -29 -99 -29q-98 0 -98 85q0 7 4 35l57 319h-72l8 44h72l22 127l78 10l-24 -137h128l-13 -44h-123zM165 -70q-9 -29 -32.5 -71.5t-46.5 -73.5h-43q29 68 47 145h75z" />
    <glyph glyph-name="uni0237" unicode="&#x237;" horiz-adv-x="242" 
d="M213 475l-82 -464q-21 -120 -76.5 -177.5t-161.5 -81.5l-41 22v11q92 25 138.5 73t65.5 156l81 461h76z" />
    <glyph glyph-name="uni0259" unicode="&#x259;" horiz-adv-x="514" 
d="M274 485q97 0 149.5 -52.5t52.5 -144.5q0 -127 -72 -212.5t-181 -85.5q-78 0 -121.5 44t-43.5 124q0 47 11 93h327q1 11 1 33q0 73 -34.5 111t-99.5 38q-88 0 -151 -56h-11l28 67q65 41 145 41zM228 32q58 0 101 48t60 124h-250q-4 -28 -4 -56q0 -116 93 -116z" />
    <glyph glyph-name="circumflex" unicode="&#x2c6;" horiz-adv-x="200" 
d="M229 718l84 -141h-48l-75 92l-109 -92h-52l132 141h68z" />
    <glyph glyph-name="caron" unicode="&#x2c7;" horiz-adv-x="200" 
d="M133 577l-84 141h49l75 -92l109 92h51l-132 -141h-68z" />
    <glyph glyph-name="uni02C9" unicode="&#x2c9;" horiz-adv-x="200" 
d="M330 681l-8 -47h-305l8 47h305z" />
    <glyph glyph-name="breve" unicode="&#x2d8;" horiz-adv-x="200" 
d="M92 708q-2 -38 19.5 -58t60.5 -20q85 0 112 78h42q-36 -128 -160 -128q-61 0 -91.5 35.5t-23.5 92.5h41z" />
    <glyph glyph-name="dotaccent" unicode="&#x2d9;" horiz-adv-x="200" 
d="M224 702l-15 -86h-85l15 86h85z" />
    <glyph glyph-name="ring" unicode="&#x2da;" horiz-adv-x="200" 
d="M158 550q-41 0 -67 25t-26 62q0 50 33.5 83.5t87.5 33.5q40 0 66.5 -25t26.5 -62q0 -50 -34 -83.5t-87 -33.5zM162 582q34 0 56 24t22 58q0 24 -15 41t-43 17q-32 0 -55 -23.5t-23 -58.5q0 -25 15.5 -41.5t42.5 -16.5z" />
    <glyph glyph-name="ogonek" unicode="&#x2db;" horiz-adv-x="200" 
d="M153 0q-121 -70 -121 -113q0 -30 38 -30q22 0 54 13h7l-17 -38q-32 -16 -73 -16q-33 0 -54 15t-21 44q0 38 35 68t96 57h56z" />
    <glyph glyph-name="tilde" unicode="&#x2dc;" horiz-adv-x="200" 
d="M293 706q-20 -48 -56 -48q-15 0 -52 23q-41 26 -67 26q-34 0 -59.5 -28.5t-38.5 -72.5h35q21 50 56 50q13 0 52 -25q39 -24 67 -24q34 0 59 27.5t38 71.5h-34z" />
    <glyph glyph-name="hungarumlaut" unicode="&#x2dd;" horiz-adv-x="200" 
d="M218 718l-156 -141h-52l121 141h87zM371 718l-156 -141h-52l121 141h87z" />
    <glyph glyph-name="gravecomb" unicode="&#x300;" horiz-adv-x="0" 
d="M-29 718l79 -141h-47l-114 141h82z" />
    <glyph glyph-name="acutecomb" unicode="&#x301;" horiz-adv-x="0" 
d="M84 718l-161 -141h-53l123 141h91z" />
    <glyph glyph-name="uni0302" unicode="&#x302;" horiz-adv-x="0" 
d="M29 718l84 -141h-48l-75 92l-109 -92h-52l132 141h68z" />
    <glyph glyph-name="tildecomb" unicode="&#x303;" horiz-adv-x="0" 
d="M93 706q-20 -48 -56 -48q-15 0 -52 23q-41 26 -67 26q-34 0 -59.5 -28.5t-38.5 -72.5h35q21 50 56 50q13 0 52 -25q39 -24 67 -24q34 0 59 27.5t38 71.5h-34z" />
    <glyph glyph-name="uni0304" unicode="&#x304;" horiz-adv-x="0" 
d="M130 681l-8 -47h-305l8 47h305z" />
    <glyph glyph-name="uni0306" unicode="&#x306;" horiz-adv-x="0" 
d="M-108 706q-2 -38 19.5 -58t60.5 -20q85 0 112 78h42q-36 -128 -160 -128q-61 0 -91.5 35.5t-23.5 92.5h41z" />
    <glyph glyph-name="uni0307" unicode="&#x307;" horiz-adv-x="0" 
d="M24 702l-15 -86h-85l15 86h85z" />
    <glyph glyph-name="uni0308" unicode="&#x308;" horiz-adv-x="0" 
d="M-60 700l-14 -84h-80l14 84h80zM103 700l-14 -84h-80l14 84h80z" />
    <glyph glyph-name="uni030A" unicode="&#x30a;" horiz-adv-x="0" 
d="M-42 550q-41 0 -67 25t-26 62q0 50 33.5 83.5t87.5 33.5q40 0 66.5 -25t26.5 -62q0 -50 -34 -83.5t-87 -33.5zM-38 582q34 0 56 24t22 58q0 24 -15 41t-43 17q-32 0 -55 -23.5t-23 -58.5q0 -25 15.5 -41.5t42.5 -16.5z" />
    <glyph glyph-name="uni030B" unicode="&#x30b;" horiz-adv-x="0" 
d="M18 718l-156 -141h-52l121 141h87zM171 718l-156 -141h-52l121 141h87z" />
    <glyph glyph-name="uni030C" unicode="&#x30c;" horiz-adv-x="0" 
d="M-67 577l-84 141h49l75 -92l109 92h51l-132 -141h-68z" />
    <glyph glyph-name="uni0312" unicode="&#x312;" horiz-adv-x="0" 
d="M-86 577q20 63 78 141h43q-32 -78 -45 -141h-76z" />
    <glyph glyph-name="uni0313" unicode="&#x313;" horiz-adv-x="0" 
d="M43 718q-27 -104 -90 -183h-40q43 95 58 183h72z" />
    <glyph glyph-name="uni0326" unicode="&#x326;" horiz-adv-x="0" 
d="M-112 -70q-9 -29 -32.5 -71.5t-46.5 -73.5h-43q29 68 47 145h75z" />
    <glyph glyph-name="uni0327" unicode="&#x327;" horiz-adv-x="0" 
d="M-241 -217l-13 32l4 3q54 1 81 16.5t27 41.5q0 31 -61 42v6l51 76h38l-30 -48l11 -3q55 -14 55 -64q0 -49 -46 -75.5t-117 -26.5z" />
    <glyph glyph-name="uni0328" unicode="&#x328;" horiz-adv-x="0" 
d="M-47 0q-121 -70 -121 -113q0 -30 38 -30q22 0 54 13h7l-17 -38q-32 -16 -73 -16q-33 0 -54 15t-21 44q0 38 35 68t96 57h56z" />
    <glyph glyph-name="uni0394" unicode="&#x394;" horiz-adv-x="685" 
d="M16 0v41l287 629l58 10l278 -647v-33h-623zM85 52h452l-221 518h-5z" />
    <glyph glyph-name="uni03A9" unicode="&#x3a9;" horiz-adv-x="797" 
d="M741 359q0 -95 -41.5 -166.5t-126.5 -130.5v-4h176v-58h-257v60q88 61 119.5 127t31.5 172q0 118 -64.5 198.5t-173.5 80.5q-112 0 -177 -77.5t-65 -200.5q0 -103 32.5 -171.5t121.5 -128.5v-60h-259v58h172v4q-82 57 -123.5 128.5t-41.5 168.5q0 141 97.5 236.5
t242.5 95.5q143 0 239.5 -100t96.5 -232z" />
    <glyph glyph-name="uni03BC" unicode="&#x3bc;" 
d="M185 475v-303q0 -124 88 -124q66 0 104 53t38 131v243h83v-475h-77l-5 100h-3q-18 -36 -30.5 -55.5t-41 -37t-67.5 -17.5q-27 0 -50 11t-33 28h-4v-179h-85v625h83z" />
    <glyph glyph-name="pi" unicode="&#x3c0;" 
d="M525 41q31 0 70 24l-3 -41q-43 -32 -88 -32q-58 0 -84 27t-26 93v309h-189v-421h-83v421h-90v54h545l-5 -54h-95v-299q0 -41 11 -61t37 -20z" />
    <glyph glyph-name="zero.ss01" unicode="&#x1e00;" horiz-adv-x="674" 
d="M416 706q101 0 157 -70t56 -190q0 -119 -33.5 -220.5t-107 -169.5t-174.5 -68q-104 0 -161 67t-57 186t35 222.5t109.5 173t175.5 69.5zM415 654q-73 0 -128 -69.5t-80 -164t-25 -191.5q0 -89 34.5 -138.5t98.5 -49.5q56 0 101 39t72 101t41 133t14 142q0 90 -34 144
t-94 54z" />
    <glyph glyph-name="one.ss01" unicode="&#x1e01;" horiz-adv-x="487" 
d="M208 0l108 617l-198 -83v54l241 106h52l-122 -694h-81z" />
    <glyph glyph-name="two.ss01" unicode="&#x1e02;" horiz-adv-x="659" 
d="M10 0l6 34l159 114q175 125 260 213.5t85 170.5q0 53 -34 84t-91 31q-112 0 -208 -85h-11l20 68q96 76 211 76q98 0 150.5 -47t52.5 -119q0 -43 -19.5 -86t-46 -76.5t-78.5 -78t-91.5 -74t-111.5 -79.5l-100 -70l-1 -4h190q152 0 209 13h13l-45 -85h-519z" />
    <glyph glyph-name="three.ss01" unicode="&#x1e03;" horiz-adv-x="554" 
d="M406 231q0 60 -46.5 90.5t-125.5 30.5h-50l16 53h46q87 0 141 40t54 108q0 48 -36 73.5t-94 25.5q-86 0 -158 -46h-10l21 62q74 38 161 38q89 0 145 -37t56 -106q0 -139 -156 -181l-1 -6q57 -13 90.5 -50.5t33.5 -96.5q0 -109 -81.5 -175t-200.5 -66q-59 0 -117.5 18.5
t-89.5 46.5l-6 76h11q37 -40 93.5 -62t109.5 -22q85 0 139.5 51.5t54.5 134.5z" />
    <glyph glyph-name="four.ss01" unicode="&#x1e04;" horiz-adv-x="679" 
d="M627 264l-23 -63h-107l-35 -201h-81l36 201h-361l2 36l457 457h69l-76 -430h119zM172 264h256l55 311h-7l-303 -303z" />
    <glyph glyph-name="five.ss01" unicode="&#x1e05;" horiz-adv-x="623" 
d="M468 248q0 62 -41 97.5t-113 35.5q-73 0 -145 -45l-51 8l111 350h359l-24 -74h-295l-69 -213q54 28 128 28q106 0 167 -50.5t61 -135.5q0 -120 -88 -190.5t-223 -70.5q-127 0 -204 67l-6 77h11q83 -85 203 -85q101 0 160 55.5t59 145.5z" />
    <glyph glyph-name="six.ss01" unicode="&#x1e06;" horiz-adv-x="663" 
d="M211 358q74 70 176 70q86 0 143 -48.5t57 -136.5q0 -108 -76.5 -181.5t-193.5 -73.5q-99 0 -164 53.5t-65 152.5q0 121 67 236t178 190.5t235 86.5l20 -37q-136 -27 -235 -112t-146 -200h4zM173 187q0 -67 39.5 -110.5t103.5 -43.5q83 0 133.5 63t50.5 145
q0 64 -36.5 101.5t-100.5 37.5q-78 0 -134 -53t-56 -140z" />
    <glyph glyph-name="seven.ss01" unicode="&#x1e07;" horiz-adv-x="644" 
d="M86 0q222 294 469 619h-413l29 75h493l-5 -28q-91 -122 -274 -377t-208 -289h-91z" />
    <glyph glyph-name="eight.ss01" unicode="&#x1e08;" horiz-adv-x="658" 
d="M309 -12q-104 0 -165.5 46.5t-61.5 121.5q0 147 201 217l1 3q-95 62 -95 158q0 83 64 127.5t160 44.5q79 0 134 -36t55 -105q0 -56 -44 -102.5t-114 -70.5v-3q80 -48 109.5 -92t29.5 -99q0 -95 -78 -152.5t-196 -57.5zM392 414q67 23 107.5 61.5t40.5 89.5q0 48 -35 73
t-94 25q-63 0 -101 -33.5t-38 -89.5q0 -75 120 -126zM311 34q82 0 133 42t51 113q0 90 -163 163q-180 -65 -180 -191q0 -57 48 -92t111 -35z" />
    <glyph glyph-name="nine.ss01" unicode="&#x1e09;" horiz-adv-x="632" 
d="M471 364q-69 -74 -163 -74q-78 0 -132 43.5t-54 126.5q0 110 74 178.5t184 68.5q96 0 156 -49.5t60 -143.5q0 -118 -67 -233.5t-175 -194t-226 -98.5l-30 38q135 35 239.5 132.5t138.5 205.5h-5zM511 526q0 63 -36 98.5t-95 35.5q-78 0 -126 -58t-48 -135q0 -58 34 -92.5
t89 -34.5q75 0 128.5 52t53.5 134z" />
    <glyph glyph-name="uni1E0A" unicode="&#x1e0a;" horiz-adv-x="348" 
d="M295 575l-19 -106h-108l19 106h108zM231 206l-19 -106h-108l19 106h108z" />
    <glyph glyph-name="uni1E0B" unicode="&#x1e0b;" horiz-adv-x="393" 
d="M95 382h269l-9 -47h-269z" />
    <glyph glyph-name="uni1E0C" unicode="&#x1e0c;" horiz-adv-x="418" 
d="M265 511l-10 -57l-109 -99l74 -99l-10 -53l-137 125l11 54zM422 511l-10 -57l-109 -99l74 -99l-10 -53l-137 125l11 54z" />
    <glyph glyph-name="uni1E0D" unicode="&#x1e0d;" horiz-adv-x="418" 
d="M51 199l10 57l108 99l-73 99l10 53l137 -125l-11 -54zM208 199l10 57l108 99l-73 99l10 53l137 -125l-11 -54z" />
    <glyph glyph-name="uni1E0E" unicode="&#x1e0e;" horiz-adv-x="261" 
d="M255 511l-10 -57l-109 -99l74 -99l-10 -53l-137 125l11 55z" />
    <glyph glyph-name="uni1E0F" unicode="&#x1e0f;" horiz-adv-x="261" 
d="M51 199l10 57l108 99l-73 99l10 53l137 -125l-11 -54z" />
    <glyph glyph-name="Wgrave" unicode="&#x1e80;" horiz-adv-x="932" 
d="M455 885h89l86 -129h-49zM621 0l-91 552h-6l-293 -552h-63l-55 678l85 2l38 -553h2l293 553h62l87 -556h3l238 556h76l-310 -680h-66z" />
    <glyph glyph-name="wgrave" unicode="&#x1e81;" horiz-adv-x="745" 
d="M425 718l79 -141h-47l-114 141h82zM710 475h69l-245 -475h-62l-63 374h-4l-204 -374h-61l-68 475h81l48 -376h2l201 376h57l67 -376h3z" />
    <glyph glyph-name="Wacute" unicode="&#x1e82;" horiz-adv-x="932" 
d="M743 885l-172 -129h-53l128 129h97zM621 0l-91 552h-6l-293 -552h-63l-55 678l85 2l38 -553h2l293 553h62l87 -556h3l238 556h76l-310 -680h-66z" />
    <glyph glyph-name="wacute" unicode="&#x1e83;" horiz-adv-x="745" 
d="M610 718l-161 -141h-53l123 141h91zM710 475h69l-245 -475h-62l-63 374h-4l-204 -374h-61l-68 475h81l48 -376h2l201 376h57l67 -376h3z" />
    <glyph glyph-name="Wdieresis" unicode="&#x1e84;" horiz-adv-x="932" 
d="M552 867l-14 -84h-80l14 84h80zM715 867l-14 -84h-80l14 84h80zM621 0l-91 552h-6l-293 -552h-63l-55 678l85 2l38 -553h2l293 553h62l87 -556h3l238 556h76l-310 -680h-66z" />
    <glyph glyph-name="wdieresis" unicode="&#x1e85;" horiz-adv-x="745" 
d="M431 700l-14 -84h-80l14 84h80zM594 700l-14 -84h-80l14 84h80zM710 475h69l-245 -475h-62l-63 374h-4l-204 -374h-61l-68 475h81l48 -376h2l201 376h57l67 -376h3z" />
    <glyph glyph-name="uni1E9E" unicode="&#x1e9e;" horiz-adv-x="667" 
d="M418 -12q-86 0 -152 53l-13 87h11q74 -86 159 -86q51 0 82 32t31 83q0 32 -18 62.5t-61 80.5q-72 83 -72 154q0 130 152 175q-42 4 -97 4q-98 0 -145.5 -40.5t-64.5 -132.5l-82 -460l-90 1l82 461q21 119 87 173.5t210 54.5q91 0 202 -20l1 -51q-96 -22 -133 -58.5
t-37 -90.5q0 -46 55 -114q52 -65 73.5 -103t21.5 -80q0 -82 -56.5 -133.5t-145.5 -51.5z" />
    <glyph glyph-name="Ygrave" unicode="&#x1ef2;" horiz-adv-x="523" 
d="M244 885h89l86 -129h-49zM249 314l-164 366h91l132 -303h5l224 303h73l-278 -356l-57 -324h-81z" />
    <glyph glyph-name="ygrave" unicode="&#x1ef3;" horiz-adv-x="452" 
d="M263 718l79 -141h-47l-114 141h82zM78 -223h-84q93 115 176 248l-115 450h83l88 -366h3q96 170 194 366h67q-225 -413 -412 -698z" />
    <glyph glyph-name="uni2011" unicode="&#x2011;" horiz-adv-x="373" 
d="M69 293h269l-9 -47h-269z" />
    <glyph glyph-name="endash" unicode="&#x2013;" horiz-adv-x="500" 
d="M511 293l-8 -47h-490l8 47h490z" />
    <glyph glyph-name="emdash" unicode="&#x2014;" horiz-adv-x="918" 
d="M835 293l-8 -47h-718l8 47h718z" />
    <glyph glyph-name="quoteleft" unicode="&#x2018;" horiz-adv-x="216" 
d="M85 449q7 30 44.5 107.5t63.5 123.5h45q-19 -48 -43 -123t-30 -108h-80z" />
    <glyph glyph-name="quoteright" unicode="&#x2019;" horiz-adv-x="216" 
d="M234 680q-7 -30 -44.5 -107.5t-63.5 -123.5h-45q19 48 43 123t30 108h80z" />
    <glyph glyph-name="quotesinglbase" unicode="&#x201a;" horiz-adv-x="229" 
d="M154 125q-10 -32 -57 -113t-74 -118h-45q24 43 54 118t40 113h82z" />
    <glyph glyph-name="quotedblleft" unicode="&#x201c;" horiz-adv-x="379" 
d="M76 449q10 32 57 113t73 118h45q-24 -43 -53.5 -117.5t-39.5 -113.5h-82zM226 449q10 32 57 113t73 118h45q-24 -43 -53.5 -117.5t-39.5 -113.5h-82z" />
    <glyph glyph-name="quotedblright" unicode="&#x201d;" horiz-adv-x="379" 
d="M251 680q-10 -31 -56.5 -111.5t-73.5 -119.5h-45q24 43 53.5 118.5t39.5 112.5h82zM401 680q-10 -31 -56.5 -111.5t-73.5 -119.5h-45q24 43 53.5 118.5t39.5 112.5h82z" />
    <glyph glyph-name="quotedblbase" unicode="&#x201e;" horiz-adv-x="379" 
d="M154 125q-10 -32 -57 -113t-74 -118h-45q24 43 54 118t40 113h82zM304 125q-10 -32 -57 -113t-74 -118h-45q24 43 54 118t40 113h82z" />
    <glyph glyph-name="dagger" unicode="&#x2020;" horiz-adv-x="560" 
d="M398 691l-38 -213h193l-9 -53h-193l-101 -572h-63l101 572h-192l9 53h192l38 213h63z" />
    <glyph glyph-name="daggerdbl" unicode="&#x2021;" horiz-adv-x="560" 
d="M398 691l-34 -192h193l-9 -53h-193l-62 -348h193l-9 -53h-193l-34 -192h-63l34 192h-192l9 53h192l62 348h-192l9 53h192l34 192h63z" />
    <glyph glyph-name="bullet" unicode="&#x2022;" 
d="M159 328q0 68 48 116.5t116 48.5t116.5 -48.5t48.5 -116.5t-48.5 -116t-116.5 -48t-116 48t-48 116z" />
    <glyph glyph-name="ellipsis" unicode="&#x2026;" horiz-adv-x="900" 
d="M76 106h94l-19 -106h-94zM376 106h94l-19 -106h-94zM676 106h94l-19 -106h-94z" />
    <glyph glyph-name="perthousand" unicode="&#x2030;" horiz-adv-x="1103" 
d="M643 702l36 -25l-512 -698l-36 25zM277 691q52 0 81.5 -34t29.5 -95q0 -86 -45.5 -154t-118.5 -68q-53 0 -84 34t-31 95q0 86 47.5 154t120.5 68zM275 654q-47 0 -75.5 -61t-28.5 -128q0 -87 56 -87q46 0 72.5 60t26.5 128q0 88 -51 88zM597 346q52 0 81.5 -34t29.5 -95
q0 -86 -45.5 -154t-118.5 -68q-53 0 -84 34t-31 95q0 86 47.5 154t120.5 68zM937 346q52 0 81.5 -34t29.5 -95q0 -86 -45.5 -154t-118.5 -68q-53 0 -84 34t-31 95q0 86 47.5 154t120.5 68zM595 309q-47 0 -75.5 -61t-28.5 -128q0 -87 56 -87q46 0 72.5 60t26.5 128
q0 88 -51 88zM935 309q-47 0 -75.5 -61t-28.5 -128q0 -87 56 -87q46 0 72.5 60t26.5 128q0 88 -51 88z" />
    <glyph glyph-name="guilsinglleft" unicode="&#x2039;" horiz-adv-x="261" 
d="M241 431l-10 -57l-108 -99l73 -99l-10 -53l-137 125l10 54z" />
    <glyph glyph-name="guilsinglright" unicode="&#x203a;" horiz-adv-x="261" 
d="M37 119l10 57l109 99l-74 99l10 53l136 -125l-10 -54z" />
    <glyph glyph-name="fraction" unicode="&#x2044;" horiz-adv-x="149" 
d="M338 702l36 -25l-512 -698l-36 25z" />
    <glyph glyph-name="zero.sups" unicode="&#x2070;" horiz-adv-x="418" 
d="M258 422q-62 0 -101.5 44.5t-39.5 121.5q0 122 55.5 207t147.5 85q62 0 101.5 -45t39.5 -123q0 -122 -55.5 -206t-147.5 -84zM259 458q59 0 96 78.5t37 180.5q0 61 -19 94t-54 33q-59 0 -96 -78.5t-37 -180.5q0 -61 19 -94t54 -33z" />
    <glyph glyph-name="four.sups" unicode="&#x2074;" horiz-adv-x="381" 
d="M427 596l-14 -43h-76l-22 -123h-57l22 123h-204l1 19l271 300h45l-49 -276h83zM150 597h138l33 188h-5l-166 -184v-4z" />
    <glyph glyph-name="five.sups" unicode="&#x2075;" horiz-adv-x="367" 
d="M208 422q-74 0 -117 39v49h9q41 -46 107 -46q56 0 90 34t34 88q0 38 -25 60.5t-66 22.5t-72 -20l-27 4l70 219h212l-20 -52h-162l-41 -126q26 13 60 13q60 0 96 -32t36 -83q0 -77 -53 -123.5t-131 -46.5z" />
    <glyph glyph-name="six.sups" unicode="&#x2076;" horiz-adv-x="386" 
d="M246 422q-64 0 -101 34t-37 94q0 107 84 202t196 128l28 -27q-64 -18 -128 -72t-91 -117h3q37 39 92 39q51 0 86.5 -32t35.5 -86q0 -70 -48 -116.5t-120 -46.5zM249 457q40 0 70 34.5t30 89.5q0 39 -21.5 62t-55.5 23q-41 0 -70.5 -34.5t-29.5 -88.5q0 -40 21.5 -63
t55.5 -23z" />
    <glyph glyph-name="seven.sups" unicode="&#x2077;" horiz-adv-x="370" 
d="M107 430q108 159 269 389h-227l19 53h287l-4 -20q-131 -190 -275 -422h-69z" />
    <glyph glyph-name="eight.sups" unicode="&#x2078;" horiz-adv-x="402" 
d="M253 422q-66 0 -102.5 29.5t-36.5 76.5q0 93 120 140v2q-57 44 -57 96t40.5 83t99.5 31q51 0 84.5 -25t33.5 -66q0 -71 -98 -110v-2q83 -45 83 -116q0 -64 -47 -101.5t-120 -37.5zM302 696q42 17 64 38.5t22 55.5q0 26 -18.5 43t-51.5 17q-34 0 -56.5 -22t-22.5 -53
q0 -47 63 -79zM255 456q46 0 73.5 26t27.5 71q0 58 -89 96q-49 -21 -73.5 -48.5t-24.5 -68.5q0 -32 24 -54t62 -22z" />
    <glyph glyph-name="nine.sups" unicode="&#x2079;" horiz-adv-x="380" 
d="M157 422l-26 24q76 27 137 83t88 127h-2q-41 -43 -100 -43q-49 0 -82 31.5t-33 83.5q0 68 45 110t116 42q62 0 99 -35t37 -96q0 -105 -82.5 -200t-196.5 -127zM275 651q40 0 69 30t29 80q0 40 -21 62t-55 22q-42 0 -68 -33.5t-26 -82.5q0 -33 20 -55.5t52 -22.5z" />
    <glyph glyph-name="uni207F" unicode="&#x207f;" horiz-adv-x="423" 
d="M319 349l37 214q3 17 3 29q0 53 -51 53q-42 0 -72 -34t-40 -90l-30 -172h-69l59 336h62l-7 -69h2q41 76 120 76q45 0 70.5 -25t25.5 -70q0 -13 -3 -31l-38 -217h-69z" />
    <glyph glyph-name="zero.subs" unicode="&#x2080;" horiz-adv-x="418" 
d="M154 -168q-62 0 -101.5 44.5t-39.5 121.5q0 122 55.5 207t147.5 85q62 0 101.5 -45t39.5 -123q0 -122 -55.5 -206t-147.5 -84zM155 -132q59 0 96 78.5t37 180.5q0 61 -19 94t-54 33q-59 0 -96 -78.5t-37 -180.5q0 -61 19 -94t54 -33z" />
    <glyph glyph-name="one.subs" unicode="&#x2081;" horiz-adv-x="308" 
d="M69 -160l67 385l-103 -42v38l145 61h33l-78 -442h-64z" />
    <glyph glyph-name="two.subs" unicode="&#x2082;" horiz-adv-x="389" 
d="M-36 -160l4 20l93 72q110 85 152.5 139t42.5 105q0 33 -18.5 53.5t-52.5 20.5q-59 0 -105 -39h-10l15 45q48 34 110 34q60 0 94 -30.5t34 -81.5q0 -60 -49 -117.5t-145 -129.5l-47 -35v-3h93q83 0 120 4h9l-29 -57h-311z" />
    <glyph glyph-name="three.subs" unicode="&#x2083;" horiz-adv-x="374" 
d="M218 -17q0 37 -28 58t-74 21h-10l10 36h15q49 0 75.5 26.5t26.5 66.5q0 28 -17.5 45t-51.5 17q-48 0 -88 -30h-10l11 39q49 28 100 28q54 0 87 -24.5t33 -68.5q0 -45 -27.5 -76t-76.5 -39v-3q37 -6 63 -32.5t26 -64.5q0 -69 -50.5 -109.5t-126.5 -40.5q-71 0 -114 37
l-4 51h9q48 -48 109 -48q52 0 82.5 30t30.5 81z" />
    <glyph glyph-name="four.subs" unicode="&#x2084;" horiz-adv-x="381" 
d="M323 6l-14 -43h-76l-22 -123h-57l22 123h-204l1 19l271 300h45l-49 -276h83zM46 7h138l33 188h-5l-166 -184v-4z" />
    <glyph glyph-name="five.subs" unicode="&#x2085;" horiz-adv-x="367" 
d="M104 -168q-74 0 -117 39v49h9q41 -46 107 -46q56 0 90 34t34 88q0 38 -25 60.5t-66 22.5t-72 -20l-27 4l70 219h212l-20 -52h-162l-41 -126q26 13 60 13q60 0 96 -32t36 -83q0 -77 -53 -123.5t-131 -46.5z" />
    <glyph glyph-name="six.subs" unicode="&#x2086;" horiz-adv-x="386" 
d="M142 -168q-64 0 -101 34t-37 94q0 107 84 202t196 128l28 -27q-64 -18 -128 -72t-91 -117h3q37 39 92 39q51 0 86.5 -32t35.5 -86q0 -70 -48 -116.5t-120 -46.5zM145 -133q40 0 70 34.5t30 89.5q0 39 -21.5 62t-55.5 23q-41 0 -70.5 -34.5t-29.5 -88.5q0 -40 21.5 -63
t55.5 -23z" />
    <glyph glyph-name="seven.subs" unicode="&#x2087;" horiz-adv-x="370" 
d="M3 -160q108 159 269 389h-227l19 53h287l-4 -20q-131 -190 -275 -422h-69z" />
    <glyph glyph-name="eight.subs" unicode="&#x2088;" horiz-adv-x="402" 
d="M149 -168q-66 0 -102.5 29.5t-36.5 76.5q0 93 120 140v2q-57 44 -57 96t40.5 83t99.5 31q51 0 84.5 -25t33.5 -66q0 -71 -98 -110v-2q83 -45 83 -116q0 -64 -47 -101.5t-120 -37.5zM198 106q42 17 64 38.5t22 55.5q0 26 -18.5 43t-51.5 17q-34 0 -56.5 -22t-22.5 -53
q0 -47 63 -79zM151 -134q46 0 73.5 26t27.5 71q0 58 -89 96q-49 -21 -73.5 -48.5t-24.5 -68.5q0 -32 24 -54t62 -22z" />
    <glyph glyph-name="nine.subs" unicode="&#x2089;" horiz-adv-x="380" 
d="M53 -168l-26 24q76 27 137 83t88 127h-2q-41 -43 -100 -43q-49 0 -82 31.5t-33 83.5q0 68 45 110t116 42q62 0 99 -35t37 -96q0 -105 -82.5 -200t-196.5 -127zM171 61q40 0 69 30t29 80q0 40 -21 62t-55 22q-42 0 -68 -33.5t-26 -82.5q0 -33 20 -55.5t52 -22.5z" />
    <glyph glyph-name="uni2099" unicode="&#x2099;" horiz-adv-x="423" 
d="M257 0l37 214q3 16 3 29q0 53 -51 53q-42 0 -72 -34t-40 -90l-30 -172h-69l59 336h62l-7 -69h2q41 76 120 76q45 0 70.5 -25t25.5 -70q0 -13 -3 -31l-38 -217h-69z" />
    <glyph glyph-name="Euro" unicode="&#x20ac;" horiz-adv-x="680" 
d="M679 658l1 -73h-10q-52 56 -149 56q-90 0 -160 -57.5t-106 -150.5h299l-16 -44h-297q-10 -39 -15 -80h295l-15 -44h-282q0 -105 50 -164t142 -59q105 0 187 65h14l-36 -76q-79 -43 -179 -43q-127 0 -199 70.5t-72 203.5v3h-96l15 44h83q4 40 15 80h-81l16 44h79
q46 117 144 188t222 71q101 0 151 -34z" />
    <glyph glyph-name="uni20B9" unicode="&#x20b9;" horiz-adv-x="567" 
d="M597 680l-16 -44h-224q51 -40 51 -113v-7h150l-16 -44h-140q-31 -122 -190 -152l-2 -4q117 -192 223 -309l-1 -7h-105q-93 125 -198 308h-50l8 44h60q66 4 111.5 36t60.5 84h-211l8 44h210v5q0 57 -39.5 86t-107.5 29h-42l8 44h452z" />
    <glyph glyph-name="uni20BA" unicode="&#x20ba;" horiz-adv-x="615" 
d="M501 319h84q-34 -149 -128.5 -234t-247.5 -85h-104l50 285l-108 -42l8 47l109 42l13 76l-108 -42l8 47l108 42l40 225h83l-34 -191l235 91l-8 -47l-235 -91l-14 -76l235 91l-8 -47l-235 -91l-47 -266h6q130 0 197.5 67.5t100.5 198.5z" />
    <glyph glyph-name="uni20BC" unicode="&#x20bc;" horiz-adv-x="770" 
d="M493 555q97 -13 147.5 -89.5t50.5 -205.5q0 -100 -40 -260h-86q43 170 43 288q0 187 -125 212l-74 -420h-83l74 421q-63 -9 -108.5 -48.5t-74.5 -110t-45.5 -149.5t-30.5 -193h-86q49 525 355 556l22 124h83z" />
    <glyph glyph-name="uni2113" unicode="&#x2113;" horiz-adv-x="500" 
d="M235 285l-28 -161q-3 -18 -3 -31q0 -61 56 -61q51 0 97 40l6 -34q-63 -52 -132 -52q-114 0 -114 92q0 15 3 31l19 106l-69 -62l-17 43l97 83l49 274q14 79 60.5 123.5t107.5 44.5q41 0 67.5 -25.5t26.5 -69.5q0 -138 -226 -341zM246 347q161 155 161 278q0 53 -39 53
q-64 0 -84 -117z" />
    <glyph glyph-name="uni2117" unicode="&#x2117;" horiz-adv-x="797" 
d="M785 346q0 -151 -103 -256t-257 -105q-153 0 -257 104.5t-104 256.5q0 153 104 256.5t257 103.5q151 0 255.5 -104t104.5 -256zM425 36q130 0 217 90t87 220t-88.5 219.5t-216.5 89.5q-130 0 -217 -89.5t-87 -219.5q0 -129 86 -219.5t219 -90.5zM446 542q144 0 144 -115
q0 -55 -40 -86t-108 -31h-55v-157h-74v389h133zM428 350q46 0 67 18.5t21 58.5q0 39 -21 57t-67 18h-41v-152h41z" />
    <glyph glyph-name="trademark" unicode="&#x2122;" horiz-adv-x="643" 
d="M92 646v34h191v-34h-70v-238h-54v238h-67zM488 501h3l78 179h60l30 -272h-54l-21 206h-4l-86 -189h-28l-87 189h-4l-17 -206h-45l30 272h60z" />
    <glyph glyph-name="uni2126" unicode="&#x2126;" horiz-adv-x="797" 
d="M741 359q0 -95 -41.5 -166.5t-126.5 -130.5v-4h176v-58h-257v60q88 61 119.5 127t31.5 172q0 118 -64.5 198.5t-173.5 80.5q-112 0 -177 -77.5t-65 -200.5q0 -103 32.5 -171.5t121.5 -128.5v-60h-259v58h172v4q-82 57 -123.5 128.5t-41.5 168.5q0 141 97.5 236.5
t242.5 95.5q143 0 239.5 -100t96.5 -232z" />
    <glyph glyph-name="estimated" unicode="&#x212e;" horiz-adv-x="904" 
d="M480 -9q-184 0 -293 102.5t-109 250.5q0 72 28 138.5t78 118t127 82.5t169 31q89 0 159.5 -22.5t115 -58.5t74 -86t41.5 -100.5t12 -104.5h-652q-5 0 -5 -6v-184q0 -22 7 -30q89 -105 247 -105q79 0 140 29.5t121 83.5h70q-61 -73 -135 -106t-195 -33zM230 363h498
q7 0 7 7v189q0 9 -12 26q-75 105 -247 105q-154 0 -242 -103q-9 -11 -9 -28v-189q0 -7 5 -7z" />
    <glyph glyph-name="oneeighth" unicode="&#x215b;" horiz-adv-x="859" 
d="M646 702l36 -25l-512 -698l-36 25zM139 238l67 385l-103 -42v38l145 61h33l-78 -442h-64zM634 -8q-66 0 -102.5 29.5t-36.5 76.5q0 93 120 140v2q-57 44 -57 96t40.5 83t99.5 31q51 0 84.5 -25t33.5 -66q0 -71 -98 -110v-2q83 -45 83 -116q0 -64 -47 -101.5t-120 -37.5z
M683 266q42 17 64 38.5t22 55.5q0 26 -18.5 43t-51.5 17q-34 0 -56.5 -22t-22.5 -53q0 -47 63 -79zM636 26q46 0 73.5 26t27.5 71q0 58 -89 96q-49 -21 -73.5 -48.5t-24.5 -68.5q0 -32 24 -54t62 -22z" />
    <glyph glyph-name="threeeighths" unicode="&#x215c;" horiz-adv-x="933" 
d="M712 702l36 -25l-512 -698l-36 25zM288 381q0 37 -28 58t-74 21h-10l10 36h15q49 0 75.5 26.5t26.5 66.5q0 28 -17.5 45t-51.5 17q-48 0 -88 -30h-10l11 39q49 28 100 28q54 0 87 -24.5t33 -68.5q0 -45 -27.5 -76t-76.5 -39v-3q37 -6 63 -32.5t26 -64.5
q0 -69 -50.5 -109.5t-126.5 -40.5q-71 0 -114 37l-4 51h9q48 -48 109 -48q52 0 82.5 30t30.5 81zM700 -8q-66 0 -102.5 29.5t-36.5 76.5q0 93 120 140v2q-57 44 -57 96t40.5 83t99.5 31q51 0 84.5 -25t33.5 -66q0 -71 -98 -110v-2q83 -45 83 -116q0 -64 -47 -101.5
t-120 -37.5zM749 266q42 17 64 38.5t22 55.5q0 26 -18.5 43t-51.5 17q-34 0 -56.5 -22t-22.5 -53q0 -47 63 -79zM702 26q46 0 73.5 26t27.5 71q0 58 -89 96q-49 -21 -73.5 -48.5t-24.5 -68.5q0 -32 24 -54t62 -22z" />
    <glyph glyph-name="fiveeighths" unicode="&#x215d;" horiz-adv-x="926" 
d="M715 702l36 -25l-512 -698l-36 25zM174 230q-74 0 -117 39v49h9q41 -46 107 -46q56 0 90 34t34 88q0 38 -25 60.5t-66 22.5t-72 -20l-27 4l70 219h212l-20 -52h-162l-41 -126q26 13 60 13q60 0 96 -32t36 -83q0 -77 -53 -123.5t-131 -46.5zM703 -8q-66 0 -102.5 29.5
t-36.5 76.5q0 93 120 140v2q-57 44 -57 96t40.5 83t99.5 31q51 0 84.5 -25t33.5 -66q0 -71 -98 -110v-2q83 -45 83 -116q0 -64 -47 -101.5t-120 -37.5zM752 266q42 17 64 38.5t22 55.5q0 26 -18.5 43t-51.5 17q-34 0 -56.5 -22t-22.5 -53q0 -47 63 -79zM705 26q46 0 73.5 26
t27.5 71q0 58 -89 96q-49 -21 -73.5 -48.5t-24.5 -68.5q0 -32 24 -54t62 -22z" />
    <glyph glyph-name="seveneighths" unicode="&#x215e;" horiz-adv-x="831" 
d="M628 702l36 -25l-512 -698l-36 25zM73 238q108 159 269 389h-227l19 53h287l-4 -20q-131 -190 -275 -422h-69zM616 -8q-66 0 -102.5 29.5t-36.5 76.5q0 93 120 140v2q-57 44 -57 96t40.5 83t99.5 31q51 0 84.5 -25t33.5 -66q0 -71 -98 -110v-2q83 -45 83 -116
q0 -64 -47 -101.5t-120 -37.5zM665 266q42 17 64 38.5t22 55.5q0 26 -18.5 43t-51.5 17q-34 0 -56.5 -22t-22.5 -53q0 -47 63 -79zM618 26q46 0 73.5 26t27.5 71q0 58 -89 96q-49 -21 -73.5 -48.5t-24.5 -68.5q0 -32 24 -54t62 -22z" />
    <glyph glyph-name="partialdiff" unicode="&#x2202;" 
d="M287 721q66 0 115 -31t76.5 -84t40 -114t12.5 -131q0 -172 -55 -272.5t-170 -100.5q-89 0 -144 65.5t-55 159.5q0 92 54 153t140 61q87 0 156 -75v44q0 44 -8.5 87.5t-27 84t-52.5 65.5t-79 25q-53 0 -110 -47l-42 50q66 60 149 60zM306 48q128 0 147 232q-66 85 -144 85
q-59 0 -94 -45t-35 -110q0 -63 33 -112.5t93 -49.5z" />
    <glyph glyph-name="uni2206" unicode="&#x2206;" horiz-adv-x="685" 
d="M16 0v41l287 629l58 10l278 -647v-33h-623zM85 52h452l-221 518h-5z" />
    <glyph glyph-name="product" unicode="&#x220f;" horiz-adv-x="718" 
d="M666 786v-1000h-76v928h-412v-928h-77v1000h565z" />
    <glyph glyph-name="summation" unicode="&#x2211;" 
d="M600 786v-72h-423l291 -424l-309 -432h453v-72h-549v64l312 440l-298 432v64h523z" />
    <glyph glyph-name="minus" unicode="&#x2212;" 
d="M550 278v-53h-487v53h487z" />
    <glyph glyph-name="uni2215" unicode="&#x2215;" horiz-adv-x="149" 
d="M338 702l36 -25l-512 -698l-36 25z" />
    <glyph glyph-name="uni2219" unicode="&#x2219;" horiz-adv-x="300" 
d="M126 327h94l-19 -106h-94z" />
    <glyph glyph-name="radical" unicode="&#x221a;" 
d="M565 786l-205 -1000h-74l-156 334l-46 -22l-28 60l110 52l146 -317l178 893h75z" />
    <glyph glyph-name="infinity" unicode="&#x221e;" horiz-adv-x="758" 
d="M712 255q0 -68 -38.5 -112.5t-104.5 -44.5q-86 0 -184 109q-42 -40 -62.5 -57t-54.5 -34t-67 -17q-69 0 -107 44.5t-38 108.5q0 68 39 112t102 44q44 0 86.5 -25.5t101.5 -88.5q39 41 58 59t54.5 37.5t70.5 19.5q65 0 104.5 -44.5t39.5 -110.5zM572 166q36 0 56 24.5
t20 61.5q0 39 -20.5 64.5t-59.5 25.5q-30 0 -62 -22t-79 -69q83 -85 145 -85zM200 166q60 0 142 85q-92 90 -145 90q-35 0 -56 -26.5t-21 -62.5q0 -39 21.5 -62.5t58.5 -23.5z" />
    <glyph glyph-name="integral" unicode="&#x222b;" 
d="M472 730q0 -17 -12 -27.5t-30 -10.5q-17 0 -35 24q-14 19 -19 19q-30 0 -30 -91q0 -17 1 -49.5t1 -46.5v-542q0 -108 -28.5 -163.5t-94.5 -55.5q-28 0 -48 14.5t-20 37.5q0 15 11 25.5t25 10.5q18 0 34 -25q11 -17 17 -17q28 0 28 111q0 3 -0.5 20.5t-0.5 30.5v607
q0 99 34 142q32 42 88 42q33 0 56 -14.5t23 -41.5z" />
    <glyph glyph-name="approxequal" unicode="&#x2248;" 
d="M312 377q90 -35 127 -35q27 0 47 20t27 55h50q-8 -58 -40 -93t-86 -35q-45 0 -137 36q-90 35 -126 35q-29 0 -48.5 -20t-26.5 -55h-50q8 60 41 94t85 34q46 0 137 -36zM315 179q85 -34 123 -34q28 0 48 19t27 56h50q-9 -63 -42 -95.5t-84 -32.5q-46 0 -142 38
q-83 33 -122 33q-27 0 -47 -20t-27 -55h-50q8 58 40 93t86 35q46 0 140 -37z" />
    <glyph glyph-name="notequal" unicode="&#x2260;" 
d="M478 503l-69 -125h141v-53h-172l-80 -144h252v-53h-283l-86 -156l-46 25l72 131h-144v53h175l80 144h-255v53h285l84 150z" />
    <glyph glyph-name="lessequal" unicode="&#x2264;" 
d="M550 473l-428 -166l428 -166v-55l-488 194v54l488 194v-55zM550 53v-53h-488v53h488z" />
    <glyph glyph-name="greaterequal" unicode="&#x2265;" 
d="M63 528l487 -194v-54l-487 -194v55l427 166l-427 166v55zM550 53v-53h-487v53h487z" />
    <glyph glyph-name="lozenge" unicode="&#x25ca;" 
d="M364 747l167 -391l-167 -391h-71l-167 391l167 391h71zM201 356l127 -315l128 315l-128 315z" />
    <glyph glyph-name="uniFEFF" unicode="&#xfeff;" horiz-adv-x="0" 
 />
    <glyph glyph-name="i.loclTRK" horiz-adv-x="242" 
d="M255 702l-15 -86h-85l15 86h85zM135 475h76l-83 -475h-77z" />
    <glyph glyph-name="zero.lf" horiz-adv-x="576" 
d="M376 692q89 0 135.5 -66.5t46.5 -185.5q0 -110 -32 -211t-101 -171t-160 -70t-141 64t-50 180q0 108 35 211.5t106 176t161 72.5zM370 643q-64 0 -114.5 -73t-74.5 -169t-24 -186q0 -178 109 -178q50 0 91 41t66 105t38.5 136t13.5 139q0 185 -105 185z" />
    <glyph glyph-name="one.lf" horiz-adv-x="395" 
d="M247 0h-79l105 600l-159 -73v53l209 100h44z" />
    <glyph glyph-name="two.lf" horiz-adv-x="556" 
d="M-3 0l6 31l133 112q70 59 117.5 103.5t92.5 95.5t67.5 98t23.5 91q1 45 -26.5 76t-78.5 31q-86 0 -168 -71h-10l19 65q83 60 169 60q87 0 135 -43.5t47 -114.5q0 -47 -21.5 -94t-67.5 -98t-93.5 -94t-124.5 -105l-84 -68l-1 -4h168q138 0 179 5h10l-45 -76h-447z" />
    <glyph glyph-name="three.lf" horiz-adv-x="506" 
d="M365 225q1 60 -41 91t-118 31h-27l14 49h23q80 0 124.5 41t46.5 109q1 43 -28 69t-81 26q-69 0 -129 -39h-10l19 56q69 34 138 34q78 0 125.5 -36.5t46.5 -102.5q-3 -126 -130 -173l-1 -5q50 -14 82 -51t31 -94q-3 -112 -79.5 -177t-192.5 -65q-107 0 -173 55l-6 73h11
q68 -72 171 -72q82 0 132.5 49.5t51.5 131.5z" />
    <glyph glyph-name="four.lf" horiz-adv-x="576" 
d="M446 259h118l-21 -62h-108l-35 -197h-75l35 197h-327l1 24l426 459h61zM371 259l55 309h-8l-273 -303l-1 -6h227z" />
    <glyph glyph-name="five.lf" horiz-adv-x="529" 
d="M397 242q2 58 -33.5 95.5t-99.5 37.5q-66 0 -124 -36l-36 5l109 336h306l-27 -73h-241l-67 -201q44 19 93 19q97 0 150 -45t52 -133q-2 -117 -80.5 -188t-200.5 -71q-108 0 -171 58l-2 71h10q62 -71 162 -71q87 0 142.5 54.5t57.5 141.5z" />
    <glyph glyph-name="six.lf" horiz-adv-x="566" 
d="M190 352q57 64 147 64q88 0 136.5 -50.5t46.5 -135.5q-2 -106 -73 -174t-175 -68q-93 0 -150 54.5t-56 149.5q1 109 64 216t160 182t203 103l33 -30q-102 -29 -204 -123.5t-136 -187.5h4zM151 179q-1 -64 32 -105.5t93 -41.5q72 0 114.5 59t43.5 139q1 58 -29.5 99.5
t-85.5 41.5q-73 0 -120 -54t-48 -138z" />
    <glyph glyph-name="seven.lf" horiz-adv-x="536" 
d="M81 0q127 206 400 606h-348l24 74h419l-6 -28q-300 -465 -409 -652h-80z" />
    <glyph glyph-name="eight.lf" horiz-adv-x="566" 
d="M380 376l-1 -3q63 -39 99 -81t35 -100q-1 -94 -74.5 -149t-177.5 -55q-90 0 -148 45t-57 124q1 75 51.5 123t137.5 83v3q-48 29 -71 64t-22 84q1 58 35.5 100t81.5 60t97 18q72 0 119 -39.5t46 -104.5q-1 -64 -37.5 -101.5t-113.5 -70.5zM467 543q2 47 -25.5 77t-78.5 30
t-91.5 -32.5t-41.5 -91.5q-1 -40 24 -67.5t82 -60.5q67 27 98.5 60.5t32.5 84.5zM428 181q1 51 -34.5 87t-105.5 71q-80 -33 -121.5 -74t-42.5 -105q-1 -56 40 -92t101 -36q70 0 116 40.5t47 108.5z" />
    <glyph glyph-name="nine.lf" horiz-adv-x="560" 
d="M437 353q-53 -64 -143 -64q-89 0 -140.5 45.5t-50.5 125.5q2 103 75.5 167t175.5 64q92 0 144.5 -57.5t52.5 -147.5q0 -166 -132 -311.5t-313 -188.5l-30 33q133 44 232.5 140.5t132.5 193.5h-4zM470 507q0 57 -31.5 98.5t-88.5 41.5q-70 0 -115 -53t-46 -132
q-1 -55 30 -91.5t87 -36.5q67 0 115.5 45.5t48.5 127.5z" />
    <glyph glyph-name="zero.dnom" horiz-adv-x="418" 
d="M182 -8q-62 0 -101.5 44.5t-39.5 121.5q0 122 55.5 207t147.5 85q62 0 101.5 -45t39.5 -123q0 -122 -55.5 -206t-147.5 -84zM183 28q59 0 96 78.5t37 180.5q0 61 -19 94t-54 33q-59 0 -96 -78.5t-37 -180.5q0 -61 19 -94t54 -33z" />
    <glyph glyph-name="one.dnom" horiz-adv-x="308" 
d="M97 0l67 385l-103 -42v38l145 61h33l-78 -442h-64z" />
    <glyph glyph-name="two.dnom" horiz-adv-x="389" 
d="M-8 0l4 20l93 72q110 85 152.5 139t42.5 105q0 33 -18.5 53.5t-52.5 20.5q-59 0 -105 -39h-10l15 45q48 34 110 34q60 0 94 -30.5t34 -81.5q0 -60 -49 -117.5t-145 -129.5l-47 -35v-3h93q83 0 120 4h9l-29 -57h-311z" />
    <glyph glyph-name="three.dnom" horiz-adv-x="374" 
d="M246 143q0 37 -28 58t-74 21h-10l10 36h15q49 0 75.5 26.5t26.5 66.5q0 28 -17.5 45t-51.5 17q-48 0 -88 -30h-10l11 39q49 28 100 28q54 0 87 -24.5t33 -68.5q0 -45 -27.5 -76t-76.5 -39v-3q37 -6 63 -32.5t26 -64.5q0 -69 -50.5 -109.5t-126.5 -40.5q-71 0 -114 37
l-4 51h9q48 -48 109 -48q52 0 82.5 30t30.5 81z" />
    <glyph glyph-name="four.dnom" horiz-adv-x="381" 
d="M351 166l-14 -43h-76l-22 -123h-57l22 123h-204l1 19l271 300h45l-49 -276h83zM74 167h138l33 188h-5l-166 -184v-4z" />
    <glyph glyph-name="five.dnom" horiz-adv-x="367" 
d="M132 -8q-74 0 -117 39v49h9q41 -46 107 -46q56 0 90 34t34 88q0 38 -25 60.5t-66 22.5t-72 -20l-27 4l70 219h212l-20 -52h-162l-41 -126q26 13 60 13q60 0 96 -32t36 -83q0 -77 -53 -123.5t-131 -46.5z" />
    <glyph glyph-name="six.dnom" horiz-adv-x="386" 
d="M170 -8q-64 0 -101 34t-37 94q0 107 84 202t196 128l28 -27q-64 -18 -128 -72t-91 -117h3q37 39 92 39q51 0 86.5 -32t35.5 -86q0 -70 -48 -116.5t-120 -46.5zM173 27q40 0 70 34.5t30 89.5q0 39 -21.5 62t-55.5 23q-41 0 -70.5 -34.5t-29.5 -88.5q0 -40 21.5 -63
t55.5 -23z" />
    <glyph glyph-name="seven.dnom" horiz-adv-x="370" 
d="M31 0q108 159 269 389h-227l19 53h287l-4 -20q-131 -190 -275 -422h-69z" />
    <glyph glyph-name="eight.dnom" horiz-adv-x="402" 
d="M177 -8q-66 0 -102.5 29.5t-36.5 76.5q0 93 120 140v2q-57 44 -57 96t40.5 83t99.5 31q51 0 84.5 -25t33.5 -66q0 -71 -98 -110v-2q83 -45 83 -116q0 -64 -47 -101.5t-120 -37.5zM226 266q42 17 64 38.5t22 55.5q0 26 -18.5 43t-51.5 17q-34 0 -56.5 -22t-22.5 -53
q0 -47 63 -79zM179 26q46 0 73.5 26t27.5 71q0 58 -89 96q-49 -21 -73.5 -48.5t-24.5 -68.5q0 -32 24 -54t62 -22z" />
    <glyph glyph-name="nine.dnom" horiz-adv-x="380" 
d="M81 -8l-26 24q76 27 137 83t88 127h-2q-41 -43 -100 -43q-49 0 -82 31.5t-33 83.5q0 68 45 110t116 42q62 0 99 -35t37 -96q0 -105 -82.5 -200t-196.5 -127zM199 221q40 0 69 30t29 80q0 40 -21 62t-55 22q-42 0 -68 -33.5t-26 -82.5q0 -33 20 -55.5t52 -22.5z" />
    <glyph glyph-name="zero.numr" horiz-adv-x="418" 
d="M224 230q-62 0 -101.5 44.5t-39.5 121.5q0 122 55.5 207t147.5 85q62 0 101.5 -45t39.5 -123q0 -122 -55.5 -206t-147.5 -84zM225 266q59 0 96 78.5t37 180.5q0 61 -19 94t-54 33q-59 0 -96 -78.5t-37 -180.5q0 -61 19 -94t54 -33z" />
    <glyph glyph-name="one.numr" horiz-adv-x="308" 
d="M139 238l67 385l-103 -42v38l145 61h33l-78 -442h-64z" />
    <glyph glyph-name="two.numr" horiz-adv-x="389" 
d="M34 238l4 20l93 72q110 85 152.5 139t42.5 105q0 33 -18.5 53.5t-52.5 20.5q-59 0 -105 -39h-10l15 45q48 34 110 34q60 0 94 -30.5t34 -81.5q0 -60 -49 -117.5t-145 -129.5l-47 -35v-3h93q83 0 120 4h9l-29 -57h-311z" />
    <glyph glyph-name="three.numr" horiz-adv-x="374" 
d="M288 381q0 37 -28 58t-74 21h-10l10 36h15q49 0 75.5 26.5t26.5 66.5q0 28 -17.5 45t-51.5 17q-48 0 -88 -30h-10l11 39q49 28 100 28q54 0 87 -24.5t33 -68.5q0 -45 -27.5 -76t-76.5 -39v-3q37 -6 63 -32.5t26 -64.5q0 -69 -50.5 -109.5t-126.5 -40.5q-71 0 -114 37
l-4 51h9q48 -48 109 -48q52 0 82.5 30t30.5 81z" />
    <glyph glyph-name="four.numr" horiz-adv-x="381" 
d="M393 404l-14 -43h-76l-22 -123h-57l22 123h-204l1 19l271 300h45l-49 -276h83zM116 405h138l33 188h-5l-166 -184v-4z" />
    <glyph glyph-name="five.numr" horiz-adv-x="367" 
d="M174 230q-74 0 -117 39v49h9q41 -46 107 -46q56 0 90 34t34 88q0 38 -25 60.5t-66 22.5t-72 -20l-27 4l70 219h212l-20 -52h-162l-41 -126q26 13 60 13q60 0 96 -32t36 -83q0 -77 -53 -123.5t-131 -46.5z" />
    <glyph glyph-name="six.numr" horiz-adv-x="386" 
d="M212 230q-64 0 -101 34t-37 94q0 107 84 202t196 128l28 -27q-64 -18 -128 -72t-91 -117h3q37 39 92 39q51 0 86.5 -32t35.5 -86q0 -70 -48 -116.5t-120 -46.5zM215 265q40 0 70 34.5t30 89.5q0 39 -21.5 62t-55.5 23q-41 0 -70.5 -34.5t-29.5 -88.5q0 -40 21.5 -63
t55.5 -23z" />
    <glyph glyph-name="seven.numr" horiz-adv-x="370" 
d="M73 238q108 159 269 389h-227l19 53h287l-4 -20q-131 -190 -275 -422h-69z" />
    <glyph glyph-name="eight.numr" horiz-adv-x="402" 
d="M219 230q-66 0 -102.5 29.5t-36.5 76.5q0 93 120 140v2q-57 44 -57 96t40.5 83t99.5 31q51 0 84.5 -25t33.5 -66q0 -71 -98 -110v-2q83 -45 83 -116q0 -64 -47 -101.5t-120 -37.5zM268 504q42 17 64 38.5t22 55.5q0 26 -18.5 43t-51.5 17q-34 0 -56.5 -22t-22.5 -53
q0 -47 63 -79zM221 264q46 0 73.5 26t27.5 71q0 58 -89 96q-49 -21 -73.5 -48.5t-24.5 -68.5q0 -32 24 -54t62 -22z" />
    <glyph glyph-name="nine.numr" horiz-adv-x="380" 
d="M123 230l-26 24q76 27 137 83t88 127h-2q-41 -43 -100 -43q-49 0 -82 31.5t-33 83.5q0 68 45 110t116 42q62 0 99 -35t37 -96q0 -105 -82.5 -200t-196.5 -127zM241 459q40 0 69 30t29 80q0 40 -21 62t-55 22q-42 0 -68 -33.5t-26 -82.5q0 -33 20 -55.5t52 -22.5z" />
    <glyph glyph-name="uni00AD.ss01" horiz-adv-x="393" 
d="M95 382h269l-9 -47h-269z" />
    <glyph glyph-name="endash.ss01" horiz-adv-x="500" 
d="M527 382l-8 -47h-490l8 47h490z" />
    <glyph glyph-name="emdash.ss01" horiz-adv-x="918" 
d="M850 382l-8 -47h-718l8 47h718z" />
    <glyph glyph-name="uni2011.ss01" horiz-adv-x="393" 
d="M95 382h269l-9 -47h-269z" />
    <glyph glyph-name="caroncomb.alt" horiz-adv-x="0" 
d="M43 718q-27 -104 -90 -183h-40q43 95 58 183h72z" />
    <glyph glyph-name="uni0308.case" horiz-adv-x="0" 
d="M-31 867l-14 -84h-80l14 84h80zM132 867l-14 -84h-80l14 84h80z" />
    <glyph glyph-name="uni0307.case" horiz-adv-x="0" 
d="M53 868l-15 -86h-85l15 86h85z" />
    <glyph glyph-name="gravecomb.case" horiz-adv-x="0" 
d="M-116 885h89l86 -129h-49z" />
    <glyph glyph-name="acutecomb.case" horiz-adv-x="0" 
d="M154 885l-172 -129h-53l128 129h97z" />
    <glyph glyph-name="uni030B.case" horiz-adv-x="0" 
d="M66 885l-158 -129h-52l122 129h88zM219 885l-158 -129h-52l122 129h88z" />
    <glyph glyph-name="uni0302.case" horiz-adv-x="0" 
d="M55 885l84 -129h-47l-75 81l-111 -81h-52l132 129h69z" />
    <glyph glyph-name="uni030C.case" horiz-adv-x="0" 
d="M-43 756l-84 129h48l75 -81l111 81h51l-132 -129h-69z" />
    <glyph glyph-name="uni0306.case" horiz-adv-x="0" 
d="M-83 882q-2 -36 19.5 -56t60.5 -20q83 0 112 76h42q-37 -126 -160 -126q-61 0 -91.5 35.5t-23.5 90.5h41z" />
    <glyph glyph-name="uni030A.case" horiz-adv-x="0" 
d="M-9 726q-41 0 -67 25t-26 62q0 50 33.5 83.5t87.5 33.5q40 0 66.5 -25t26.5 -62q0 -50 -34 -83.5t-87 -33.5zM-5 758q34 0 56 24t22 58q0 24 -15 41t-43 17q-32 0 -55 -23.5t-23 -58.5q0 -25 15.5 -41.5t42.5 -16.5z" />
    <glyph glyph-name="tildecomb.case" horiz-adv-x="0" 
d="M123 873q-20 -48 -56 -48q-15 0 -52 23q-41 26 -67 26q-34 0 -59.5 -28.5t-38.5 -72.5h35q21 50 56 50q13 0 52 -25q39 -24 67 -24q34 0 59 27.5t38 71.5h-34z" />
    <glyph glyph-name="uni0304.case" horiz-adv-x="0" 
d="M160 848l-8 -47h-305l8 47h305z" />
    </font>
</defs>
</svg>
